<?xml version="1.0" encoding="utf-8"?>
<!-- Generator: Adobe Illustrator 17.1.0, SVG Export Plug-In . SVG Version: 6.00 Build 0)  -->
<svg version="1.2" baseProfile="tiny" id="Layer_1" xmlns="http://www.w3.org/2000/svg" xmlns:xlink="http://www.w3.org/1999/xlink"
	 x="0px" y="0px" viewBox="0 0 97.1535492 102.3080673" overflow="scroll" xml:space="preserve">
<path fill="#3CC7F4" d="M15.949398,47.7284851C9.3546152,45.4645844,0,43.8670082,0,48.5159035
	c0,4.2400551,1.4915893,8.1318245,3.9788346,11.1831436L15.949398,47.7284851z M10.100421,54.8229904
	c-0.2044458,0.2233467-0.4770088,0.336937-0.8177366,0.336937c-0.1703634,0-0.3179903-0.0075798-0.4315815-0.0227127
	c-0.1135683-0.0151596-0.1968441-0.0340843-0.2612181-0.0492172l1.7565966-1.7565956l0.0075788,0.0227127
	c0.0340595,0.1589966,0.0530062,0.3293571,0.0530062,0.5110664C10.4070663,54.2778397,10.3048439,54.5996208,10.100421,54.8229904z"
	/>
<path fill="#3CC7F4" d="M8.8511028,55.1372147c-0.1135683-0.0151596-0.1968441-0.0340843-0.2612181-0.0492172l1.7565966-1.7565956
	l0.0075788,0.0227127c0.0340595,0.1589966,0.0530062,0.3293571,0.0530062,0.5110664
	c0,0.4126587-0.1022224,0.7344398-0.3066454,0.9578094c-0.2044458,0.2233467-0.4770088,0.336937-0.8177366,0.336937
	C9.1123209,55.1599274,8.964694,55.1523476,8.8511028,55.1372147z"/>
<path fill="#3CC7F4" d="M19.8487473,49.1859932c6.6326313,2.3093224,15.5670319,3.6002579,15.5670319-0.6700897
	c0,9.7786179-7.9273777,17.7097893-17.7059956,17.7097893c-4.1719112,0-8.0106516-1.446167-11.039257-3.8614807"/>
<path fill="#EDEDED" d="M35.4145088,48.5158005c0,4.668354-10.6722126,2.6909752-17.3458118,0
	c-6.4703321-2.6072464-18.0674267-5.1746368-18.0674267,0c0-9.7791939,7.9293871-17.7046204,17.7086067-17.7046204
	C27.4890728,30.8111801,35.4145088,38.7366066,35.4145088,48.5158005z"/>
<polyline fill="#3CC7F4" points="61.8346291,63.1760674 76.0918045,77.4332581 76.8948898,76.6301651 62.6376953,62.3729935 "/>
<polyline fill="#3CC7F4" points="62.6376953,34.9591789 76.8948898,20.7019901 76.0918045,19.8989105 61.8346291,34.1560898 "/>
<path fill="#737474" d="M95.8499756,24.4955864c-0.0602646-0.0388184-0.151207-0.0794849-0.2730255-0.1218166
	c-0.1220016-0.0425148-0.2623062-0.0637741-0.4212799-0.0637741c-0.1979752,0-0.373764,0.0354919-0.5273743,0.1061058
	c-0.153801,0.070797-0.2835617,0.169508-0.3896713,0.2968712c-0.1059189,0.1271782-0.1863327,0.2791252-0.2410431,0.455658
	c-0.0549011,0.1767178-0.0822601,0.3709984-0.0822601,0.5830231c0,0.2227459,0.0327148,0.4233093,0.0981522,0.6016903
	c0.0652542,0.178381,0.1580505,0.3294048,0.2782059,0.4530716c0.1201553,0.1236649,0.2650757,0.2190475,0.4345856,0.28615
	c0.169693,0.0671005,0.3604584,0.1007442,0.5724869,0.1007442c0.2295837,0,0.4327316-0.0158978,0.6094513-0.0476933
	c0.1767197-0.0317936,0.3214569-0.0635872,0.4345856-0.0953827v-4.0332737l-0.4928131,0.0846615V24.4955864z M95.8499756,26.7004948
	c-0.0495377,0.0140495-0.1194153,0.027359-0.2094345,0.0397434c-0.0900269,0.0123844-0.2022324,0.018486-0.3366165,0.018486
	c-0.2648926,0-0.4769135-0.0874348-0.6358871-0.2623043S94.42939,26.0732937,94.42939,25.7516537
	c0-0.1412277,0.0142365-0.2737656,0.0425186-0.3974323c0.0282822-0.1236649,0.0741272-0.2305088,0.1377106-0.3207169
	c0.063591-0.090023,0.1458511-0.160635,0.2465973-0.2120247c0.1005554-0.0512028,0.2216339-0.0767136,0.3630447-0.0767136
	c0.134201,0,0.2578659,0.0229225,0.3709946,0.0687656c0.1129456,0.0460281,0.1994553,0.0937195,0.2597198,0.143074V26.7004948z
	 M91.0270157,27.1297207h0.4928131v-2.326725c0.017746-0.0035133,0.0467682-0.008688,0.0874405-0.0158978
	c0.0406647-0.0070248,0.0866928-0.0133095,0.1378937-0.018486c0.0512085-0.0053596,0.1049957-0.0097961,0.1615601-0.0133076
	c0.0565643-0.0035133,0.1112823-0.0053616,0.1643372-0.0053616c0.1306839,0,0.240303,0.0168209,0.3286667,0.0504646
	c0.0881729,0.0336437,0.1589661,0.0874348,0.2120209,0.1615601c0.0528717,0.0743103,0.09095,0.1715412,0.1138687,0.2915115
	c0.0229187,0.1201534,0.0345688,0.2650757,0.0345688,0.4345856v1.4416561h0.4928131v-1.5475769
	c0-0.187254-0.017746-0.3586121-0.0530548-0.5140724c-0.0353012-0.1554585-0.0963058-0.2889214-0.1828156-0.4002018
	c-0.0866928-0.1112804-0.2022247-0.1977921-0.3471527-0.2597179c-0.1449203-0.061739-0.3268127-0.0927944-0.5458679-0.0927944
	c-0.2438126,0-0.4593506,0.0158978-0.6466064,0.0476913c-0.1872559,0.0317955-0.3375397,0.0619259-0.4504852,0.0902081V27.1297207z
	 M88.4354019,25.4867611c0.0105362-0.0953846,0.0325317-0.1891041,0.0661774-0.2809753
	c0.033638-0.0918713,0.0804062-0.1730194,0.1404877-0.2438183c0.0600739-0.0706139,0.1332779-0.1279163,0.2199707-0.1722813
	c0.0865097-0.0439949,0.1863327-0.0661774,0.2994614-0.0661774c0.2013016,0,0.3595352,0.071537,0.4743271,0.214613
	c0.1147919,0.143074,0.170433,0.3258934,0.1669159,0.5486393H88.4354019z M87.9928665,26.3320866
	c0.054718,0.1748695,0.1386337,0.3258934,0.25177,0.4530697c0.1129379,0.1271782,0.2569427,0.2271824,0.4318085,0.2994595
	c0.1750565,0.0724621,0.3824615,0.1086941,0.6227646,0.1086941c0.1909561,0,0.3613892-0.017746,0.5114822-0.0530529
	c0.1501007-0.0353069,0.2552795-0.0687656,0.315361-0.1005592l-0.0689545-0.4135132
	c-0.0600739,0.0282822-0.1491699,0.0574894-0.267662,0.0874348c-0.1183014,0.0301304-0.2641525,0.045105-0.4371719,0.045105
	c-0.3074112,0-0.5334854-0.0741272-0.6784058-0.2225628s-0.2279205-0.3658199-0.2491837-0.6519699h1.8869705l0.0051727-0.0927963
	V25.709322c0-0.4734039-0.0988998-0.8259163-0.2966843-1.0573502c-0.1979752-0.2314339-0.4822769-0.3471508-0.8532791-0.3471508
	c-0.1591568,0-0.3146133,0.0299454-0.4665604,0.090023c-0.151947,0.0600758-0.2861557,0.1502838-0.4027939,0.2704372
	c-0.1164551,0.1201534-0.2101746,0.2711773-0.2807922,0.4530697c-0.0707932,0.1820793-0.106102,0.3948441-0.106102,0.6386623
	C87.9106064,25.9655266,87.9379654,26.157217,87.9928665,26.3320866z M87.1924591,23.7879753
	c0.0617371-0.0582275,0.0927963-0.1367893,0.0927963-0.2358704c0-0.0988941-0.0310593-0.1774559-0.0927963-0.2358704
	c-0.0617371-0.0582275-0.1369781-0.0874348-0.2251511-0.0874348c-0.088356,0-0.1635895,0.0292072-0.2253342,0.0874348
	c-0.0619202,0.0584145-0.0927963,0.1369762-0.0927963,0.2358704c0,0.099081,0.0308762,0.1776428,0.0927963,0.2358704
	c0.0617447,0.0584145,0.1369781,0.0874348,0.2253342,0.0874348C87.055481,23.8754101,87.130722,23.8463898,87.1924591,23.7879753z
	 M87.216301,24.3737698h-0.4928131v2.7559509h0.4928131V24.3737698z M85.1123276,24.3709965
	c-0.1732101,0.0371552-0.3179474,0.0768986-0.4345856,0.1192303v2.6394939h0.4928131v-2.3161888
	c0.0282822-0.0070248,0.0874329-0.0201492,0.1776428-0.0397434c0.0900192-0.0194092,0.1809692-0.0290222,0.2728424-0.0290222
	c0.1414108,0,0.2571259,0.009613,0.3471451,0.0290222c0.09021,0.0195942,0.154541,0.0364151,0.1935425,0.0504646l0.0848465-0.429409
	c-0.0212555-0.0070248-0.053978-0.0149746-0.0981598-0.0238476c-0.0441742-0.008688-0.0927887-0.017561-0.1456604-0.026432
	c-0.0530548-0.008873-0.1070251-0.0158978-0.1617432-0.0212593c-0.054718-0.0051746-0.1033325-0.0079479-0.1456604-0.0079479
	C85.4798126,24.3153572,85.285347,24.3340263,85.1123276,24.3709965z M82.8917084,23.3056984
	c-0.1732101,0.1926155-0.2597198,0.465641-0.2597198,0.8188915v3.0051308h0.4928131v-2.3426228h1.0601273v-0.4133282h-1.0601273
	v-0.2386436c0-0.2120247,0.045845-0.3806076,0.1379013-0.5061226c0.0918732-0.12533,0.2525024-0.188179,0.4822769-0.188179
	c0.1129456,0,0.2083282,0.009798,0.2861481,0.0292072c0.0776367,0.0194092,0.1379013,0.0397434,0.1802292,0.0610008
	l0.0900269-0.4240494c-0.0423355-0.017561-0.115715-0.0371552-0.2197876-0.0582275
	c-0.1042557-0.0212593-0.2288513-0.0317955-0.3737717-0.0317955C83.3368301,23.0169601,83.0647278,23.1132679,82.8917084,23.3056984
	z M80.5915985,26.5943909c-0.063591-0.0706139-0.1502838-0.1059208-0.2597198-0.1059208
	c-0.1096115,0-0.1961212,0.0353069-0.2597122,0.1059208c-0.063591,0.070797-0.0953827,0.1537952-0.0953827,0.2491798
	c0,0.0953827,0.0317917,0.178381,0.0953827,0.2489948c0.063591,0.070612,0.1501007,0.1061039,0.2597122,0.1061039
	c0.109436,0,0.1961288-0.0354919,0.2597198-0.1061039c0.063591-0.0706139,0.0953827-0.1536121,0.0953827-0.2489948
	C80.6869812,26.7481861,80.6551895,26.6651878,80.5915985,26.5943909z M77.3372879,24.5856094
	c0.0741272-0.0245857,0.1510239-0.0547161,0.2305145-0.090023c0.079483-0.035305,0.1554565-0.0724602,0.2279205-0.1112804
	c0.0724564-0.0388184,0.1395569-0.0794849,0.2014847-0.1220016c0.0617447-0.0423298,0.1138687-0.0828133,0.1562042-0.1218166
	v2.989233h0.4929962v-3.6729984H78.296669c-0.1591568,0.1837425-0.3340302,0.3366146-0.5247955,0.4584312
	c-0.1907654,0.1220016-0.3868942,0.2218227-0.5883789,0.2994595L77.3372879,24.5856094z"/>
<path fill="#3CC7F4" d="M97.1535492,10.7300701c0,5.9267998-4.803299,10.7325039-10.730072,10.7325039
	c-5.926796,0-10.7324982-4.8057041-10.7324982-10.7325039c0-3.1361427,7.0285568-1.5801506,10.9499512,0
	C90.6855469,12.3609629,97.1535492,13.5593777,97.1535492,10.7300701z"/>
<path fill="#EDEDED" d="M97.1535492,10.7300701c0,2.8293076-6.4680023,1.6308928-10.512619,0
	c-3.9213943-1.5801506-10.9499512-3.1361427-10.9499512,0c0-5.9267817,4.8057022-10.7300711,10.7324982-10.7300711
	C92.3502502-0.0000009,97.1535492,4.8032885,97.1535492,10.7300701z"/>
<path fill="#FFFFFF" d="M88.4186707,16.559164c-0.8363342-0.2731705-1.1839752-0.612875-1.1839752-0.612875l-0.0279999,0.0266819
	c-0.2483749,0.2337627-0.5230637,0.3711929-0.7732849,0.3711929h-0.0236359c-0.2502213,0-0.52491-0.1374302-0.7732544-0.3711929
	L85.60849,15.9462891c0,0-0.3476105,0.3396873-1.1839523,0.612875c-1.2345963,0.4611931-0.8638992,2.3380928-0.8642502,2.3526325
	c0.038887,0.2090321,0.061554,0.2808819,0.0812912,0.2889462c1.2397995,0.5519543,4.3202515,0.5519543,5.5600739,0
	c0.0197372-0.0080643,0.0424042-0.0799141,0.0812912-0.2889462C89.2826004,18.8972569,89.6582413,17.0278149,88.4186707,16.559164z"
	/>
<path fill="#FFFFFF" d="M87.7181778,14.1647139l-0.0103531-0.0112352c-0.069458-0.0636005-0.0640259-0.0599556-0.0640259-0.0599556
	s0.12117-0.6113558,0.0240021-0.9004688c-0.1525192-0.4617128-1.0636292-0.7711658-1.2463608-0.8071308l-0.1182556-0.0226326
	c0,0-0.1437225-0.0290623-0.310318,0.043602c-0.1085129,0.0417356-0.6757278,0.2989569-0.836731,0.7861614
	c-0.0971375,0.289113,0.0240326,0.9004688,0.0240326,0.9004688s0.0054245-0.0036449-0.0640564,0.0599556l-0.0103455,0.0112352
	c-0.0469818,0.0533648-0.0353775,0.2203255,0.0159836,0.3940344c0.0465622,0.1740313,0.1072159,0.2208052,0.1217728,0.2615643
	c0.1473541,0.6919222,0.6597824,1.2827015,1.1819839,1.2827015c0.5221863,0,1.0075378-0.5907793,1.1549072-1.2827015
	c0.0145569-0.0407419,0.0752335-0.087533,0.1217728-0.2615643C87.7535553,14.3850279,87.7665176,14.2066059,87.7181778,14.1647139z"
	/>
<path fill="#8566AC" d="M88.9266434,2.3816078c-0.0377579-0.4505986-0.1750336-0.8370074-0.4294815-1.2093213
	c-0.142868-0.2087782-0.4487-0.5070013-0.6619263-0.6452817c-0.7422256-0.4821677-1.6573105-0.5627744-2.4564896-0.2144623
	c-0.3604431,0.1578516-0.7031555,0.4179838-0.9563065,0.7303133c-0.3438263,0.4200807-0.5335312,0.9643412-0.5324478,1.5182774
	c0.001091,0.5017445,0.1461029,0.9630816,0.4342422,1.3854845c0.0824432,0.1197491,0.1394272,0.183939,0.3023682,0.3428416
	c0.2242279,0.2207761,0.3804932,0.3319011,0.6362381,0.4569182l0.1383362,0.0675573l2.0201035-0.0021086l0.0669174-0.0305119
	c0.1081161-0.0490375,0.2589798-0.1328044,0.3871689-0.2165709c0.1830292-0.1197548,0.4888458-0.4245057,0.6228867-0.6181259
	C88.8174438,3.4806476,88.9723969,2.9115536,88.9266434,2.3816078z M87.0550461,2.2454414
	C86.882164,2.533983,86.5027542,2.66889,86.1757736,2.5611331c-0.5950317-0.1969938-0.7055283-0.9622327-0.1875534-1.3082399
	c0.1161118-0.0782903,0.2889938-0.1273279,0.4363861-0.1229088C87.0071182,1.1430337,87.352005,1.7535864,87.0550461,2.2454414z"/>
<path fill="#8566AC" d="M88.0851517,7.8791242v0.1043892c-0.0066757,0.0500884-0.0243759,0.0696597-0.3347397,0.3788352
	l-0.3280411,0.3264246l-0.001091,0.3363199c-0.0023804,0.2677116-0.0090561,0.3462152-0.0336609,0.3809385
	c-0.0177002,0.0239964-0.219696,0.2254086-0.4497681,0.4451342l-0.4174194,0.4005089l-0.0735931,0.0086308
	c-0.1284027,0.0164165-0.1327209,0.014308-0.5926361-0.4341869C85.5941391,9.5725079,85.434639,9.4081402,85.421257,9.382041
	c-0.0112305-0.0237818-0.0200806-0.9946508-0.0200806-2.231122V4.9612556l2.0201035-0.0021024v0.8205957l0.328064,0.3264303
	c0.3124924,0.3112783,0.3291321,0.3297982,0.3358078,0.3798871v0.1043892
	c-0.0066757,0.0500889-0.0243759,0.0696659-0.3034363,0.3483176l-0.2969818,0.2961206l0.2969818,0.2959123
	C88.0607758,7.8094583,88.078476,7.8290291,88.0851517,7.8791242z"/>
<polyline fill="#3CC7F4" points="37.3467827,49.3372688 42.7838669,49.3372688 42.7838669,48.2015419 37.3467827,48.2015419 "/>
<polyline fill="#3CC7F4" points="68.2637863,50.1129303 73.7008896,50.1129303 73.7008896,48.9772034 68.2637863,48.9772034 "/>
<path fill="#8566AC" d="M16.961298,39.0526428c-0.3467808-0.1739426-0.564167-0.3338394-0.8617783-0.6340408
	c-0.2159061-0.2159042-0.2961311-0.3096237-0.4085207-0.4765472c-0.3881884-0.5830193-0.5852404-1.2283363-0.5863495-1.9185715
	c-0.0014782-0.7734184,0.2543564-1.521328,0.7209206-2.1056442c0.340127-0.4305191,0.7989283-0.7896843,1.2910032-1.0103951
	c0.4406853-0.197052,0.9068813-0.2968712,1.3860149-0.2968712c0.6817322,0,1.3497868,0.204998,1.9316978,0.5926323
	c0.2902164,0.1927986,0.7013264,0.6037254,0.8976383,0.8969002c0.3441944,0.5166588,0.528307,1.0481071,0.5793247,1.6725349
	c0.0621109,0.7358932-0.1486206,1.5266876-0.5782146,2.1690445c-0.1852207,0.2750626-0.5967007,0.6931953-0.8469887,0.8610382
	c-0.170433,0.1142387-0.3697033,0.2284775-0.5201721,0.2981682l-0.1227417,0.0574875l-2.6651878,0.0027733L16.961298,39.0526428z
	 M18.5048065,34.338932c-0.1438141,0-0.3146172,0.0512047-0.4251575,0.1277313
	c-0.2499199,0.17099-0.3741398,0.4493752-0.3334713,0.7449532c0.0406666,0.2979813,0.2373486,0.5342216,0.5260868,0.6321907
	c0.0750484,0.0255089,0.1545353,0.0384483,0.2362404,0.0384483c0.2713604,0,0.5312634-0.1443672,0.661768-0.3678551
	c0.1445541-0.2458496,0.1500988-0.5375481,0.0144176-0.7809944c-0.1338329-0.2404938-0.3804245-0.3878212-0.6602898-0.394104
	l-0.0195942-0.1896591V34.338932z"/>
<path fill="#F2F2F2" d="M18.5025654,32.799881c0.6352882,0,1.2693062,0.1893806,1.8268871,0.5608292
	c0.272171,0.1809921,0.662508,0.571331,0.8448868,0.8445969c0.3247833,0.4873161,0.4999771,0.9930801,0.5481777,1.5828705
	c0.0584126,0.6936455-0.1393795,1.4385147-0.546814,2.0484085c-0.1710567,0.2534447-0.5614166,0.6523285-0.7950001,0.8090591
	c-0.1636391,0.109642-0.3561859,0.2192802-0.4941998,0.2834702l-0.0854015,0.0399399l-2.5784245,0.0027618l-0.1765785-0.0884285
	c-0.326437-0.1636391-0.5258789-0.309082-0.8120995-0.598053c-0.2079811-0.2079811-0.2806969-0.291996-0.3859234-0.4487495
	c-0.3677616-0.5528679-0.5528784-1.1567078-0.5542536-1.8134384c-0.0013866-0.7250443,0.240757-1.4374046,0.6795835-1.9872551
	c0.3231316-0.408802,0.760582-0.7492867,1.2206192-0.9558907C17.6137199,32.8924217,18.0584602,32.799881,18.5025654,32.799881
	 M18.5083656,36.0714874c0.3307457,0,0.6557827-0.171463,0.8252697-0.4615402
	c0.3790379-0.6437798-0.0611629-1.4429283-0.8046589-1.4600029l-0.0237293-0.00037
	c-0.1827259,0.0000114-0.3912621,0.0630455-0.5332737,0.1612358c-0.6611443,0.4528885-0.5201035,1.4545059,0.2393818,1.7123375
	C18.3081493,36.0558662,18.4084988,36.0714874,18.5083656,36.0714874 M18.5025654,32.4213066
	c-0.5059834,0-0.9982204,0.1053429-1.4630184,0.3130684c-0.5200329,0.2335587-1.0039158,0.6123085-1.3631401,1.0667648
	c-0.4919939,0.6164589-0.7627087,1.4063416-0.7611599,2.2227364c0.0015249,0.7281761,0.209321,1.4085808,0.6176109,2.0223885
	c0.1282291,0.1910095,0.2205858,0.2938919,0.4334536,0.5067711c0.312295,0.3153114,0.542285,0.4843941,0.91014,0.6687927
	l0.1767178,0.0884857l0.0802021,0.0401726l0.0897102-0.0000954l2.5784359-0.002758l0.0839443-0.0000954l0.076067-0.0355721
	l0.0853786-0.0399399c0.1591339-0.0740089,0.3680859-0.1936417,0.5445251-0.3118782
	c0.270462-0.1814766,0.6984158-0.6159821,0.898056-0.9117546c0.4537163-0.6791687,0.6757698-1.5140152,0.6102638-2.2919731
	c-0.0536766-0.656929-0.2476559-1.2168083-0.6104031-1.7610588c-0.2104073-0.3153076-0.636652-0.741333-0.9502754-0.949894
	C19.9262447,32.6371994,19.2219162,32.4213066,18.5025654,32.4213066z M18.5083656,35.6929092
	c-0.0608864,0-0.1200371-0.009552-0.1758175-0.0284081c-0.2186317-0.0742188-0.3679466-0.2531662-0.3989315-0.4784889
	c-0.0306854-0.223217,0.0636349-0.4336357,0.2522984-0.56287c0.0801792-0.0554352,0.2138958-0.0949783,0.3193321-0.0949783
	c0.2299767,0.0051842,0.4119167,0.1134605,0.5142326,0.2972984c0.1024532,0.1840858,0.0979252,0.4055519-0.012085,0.5923996
	C18.9095402,35.5853844,18.7138977,35.6929092,18.5083656,35.6929092z"/>
<path fill="#8566AC" d="M18.4889107,46.2958641c-0.1918774,0-0.2757988-0.0839233-0.8218498-0.6297913
	c-0.5445728-0.5443878-0.57267-0.599659-0.5874577-0.6294174c-0.0218124-0.0473213-0.0462132-0.1012993-0.0462132-3.0060539
	v-3.0550423l2.9568825-0.0031395v1.1861916l0.3648968,0.3721046c0.4377289,0.447155,0.4639778,0.4739571,0.4809837,0.6053886
	c0.0081348,0.0512047,0.0081348,0.133831-0.0007381,0.1909523c-0.0162678,0.1255112-0.0480614,0.1580467-0.438839,0.5580635
	l-0.249548,0.2554665l0.249548,0.2547264c0.3904076,0.4002037,0.4225712,0.4329224,0.4395771,0.564167
	c0.0081348,0.0512009,0.0081348,0.133831-0.0007381,0.1909485c-0.0162678,0.1257019-0.0425167,0.1523209-0.4787655,0.5981789
	l-0.3652668,0.3726616l-0.0011101,0.3630486c-0.0033264,0.4005737-0.0125694,0.5133324-0.0765285,0.6055756
	c-0.0469513,0.0656204-0.4225693,0.4392052-0.5974388,0.6103783l-0.5782146,0.5691566l-0.1582336,0.0190392L18.4889107,46.2958641z"
	/>
<path fill="#F2F2F2" d="M19.8011017,39.1618919v1.0740662l0.4187107,0.4272614
	c0.3988857,0.4074249,0.4200974,0.4316635,0.428648,0.4972267c0.0057755,0.0369148,0.0057755,0.0997162,0,0.1366272
	c-0.0085506,0.065567-0.0311241,0.0911903-0.38731,0.4559135l-0.3790607,0.3875885l0.3790607,0.3873215
	c0.3561859,0.3647232,0.3787594,0.3903351,0.38731,0.4559021c0.0057755,0.036911,0.0057755,0.0997162,0,0.1366386
	c-0.0085506,0.0655518-0.0311241,0.0911789-0.4272614,0.4958534l-0.4187107,0.4272499l-0.0013866,0.4402008
	c-0.003027,0.3504066-0.0115776,0.4531631-0.0429783,0.4986115c-0.0225754,0.0314026-0.2804203,0.2950363-0.5740795,0.5826302
	l-0.5327644,0.5242157l-0.0939274,0.0112991l-0.0684891,0.0061569c-0.111557,0-0.1932621-0.0797615-0.6879692-0.5744591
	c-0.3319473-0.3319473-0.5355148-0.5470924-0.5525913-0.5812416c-0.0143261-0.0311279-0.0256252-1.3018875-0.0256252-2.9202843
	v-2.8660278L19.8011017,39.1618919 M20.1796761,38.7829094l-0.3789673,0.0004044l-2.5784359,0.0027504l-0.37817,0.0004044v0.3781738
	v2.8660278c0,2.9475365,0.0188885,2.9885864,0.0602837,3.078537c0.0341511,0.0687675,0.0614166,0.1232872,0.6288185,0.6906891
	c0.5672855,0.5672836,0.6853371,0.6853333,0.955658,0.6853333c0.0357704,0,0.0734329-0.0035667,0.1177044-0.0093689
	l0.0898838-0.0107918l0.1282654-0.0154114l0.0920792-0.0905991l0.5327644-0.5242271
	c0.0554314-0.054287,0.5491238-0.538578,0.6159019-0.6314278c0.1053181-0.1523323,0.1107712-0.3192978,0.1142139-0.7163696
	l0.0009022-0.2884254l0.3109894-0.3173447c0.4590549-0.4689331,0.5070248-0.5179291,0.5323029-0.7119331
	c0.0104904-0.0661888,0.0104904-0.1682358-0.0014095-0.244175c-0.0238228-0.1839409-0.0860023-0.2475967-0.4904804-0.6617699
	l-0.1202698-0.1229019l0.1200848-0.1227989c0.4046631-0.4143677,0.4668427-0.4780273,0.492075-0.6717033
	c0.0104904-0.0661888,0.0104904-0.1682396-0.0014095-0.2441788c-0.0238686-0.1842957-0.0719776-0.2334328-0.5321407-0.7034302
	l-0.3106441-0.3169861v-0.9194946V38.7829094z"/>
<circle fill="#3CC7F4" cx="55.2966118" cy="48.7694054" r="10.1947184"/>
<path fill="#8566AC" d="M53.0390778,46.2989464c-0.0389595-0.476799-0.180603-0.8856812-0.443161-1.279644
	c-0.1474419-0.2209206-0.4630051-0.5364876-0.6830482-0.6828079c-0.7658615-0.5102119-1.7101288-0.5955086-2.5347977-0.2269287
	c-0.3718987,0.1670265-0.7255669,0.4422798-0.9867821,0.7727737c-0.3547783,0.4445076-0.5505371,1.0204239-0.5494041,1.6065788
	c0.0011101,0.5309143,0.1507721,1.0190849,0.448082,1.4660416c0.0850525,0.1267281,0.1438599,0.1946487,0.3120041,0.3627853
	c0.2313881,0.2336159,0.3926239,0.3512039,0.6565247,0.48349l0.1427498,0.0714912l2.0845032-0.0022316l0.0690155-0.0322914
	c0.1115837-0.0518837,0.2672501-0.140522,0.3995361-0.2291565c0.1888466-0.1267166,0.5044136-0.4491882,0.6427269-0.6540871
	C52.9263878,47.4619064,53.0863075,46.8597183,53.0390778,46.2989464z M51.1078186,46.1548653
	c-0.1784058,0.3053169-0.5698967,0.4480705-0.907299,0.334053c-0.6139832-0.2084579-0.7280121-1.0181999-0.1935387-1.3843193
	c0.1198311-0.0828476,0.2982101-0.1347351,0.4503212-0.1300545C51.0583687,44.9883385,51.4142532,45.634407,51.1078186,46.1548653z"
	/>
<path fill="#FFFFFF" d="M53.0390778,46.2989464l0.1886635-0.0154228c-0.0405312-0.5051422-0.1950417-0.9514999-0.4743309-1.369194
	c-0.1707077-0.2515945-0.4847717-0.5657501-0.7357292-0.7354546c-0.4810066-0.3205223-1.0305252-0.4851189-1.5817528-0.4850616
	c-0.3853226-0.0000343-0.7714996,0.0803871-1.1351013,0.242939l-0.0003014,0.0001411
	c-0.401638,0.1808167-0.7764015,0.4727669-1.0577431,0.828064l-0.0015259,0.0019302l0.002079-0.0026245
	c-0.382019,0.4791946-0.5904846,1.0930862-0.5907593,1.7196388l0.0000229,0.0076141l0.1892853-0.0025978l-0.1892853,0.0003929
	c0.000576,0.566349,0.1629677,1.0953484,0.4797554,1.5704842l0.0007401,0.0011444l-0.0002975-0.000473
	c0.0904617,0.1357498,0.166687,0.2232056,0.3353195,0.3911324l-0.0006485-0.0006447
	c0.2380676,0.241993,0.4295273,0.382122,0.7061806,0.5195007l0.1428185,0.0715141l0.0400925,0.0200806l2.1713562-0.0023117
	l0.1070518-0.0500832l-0.0003929,0.0001831c0.1244507-0.058075,0.2839317-0.1491852,0.4250908-0.2435532
	c0.2238083-0.1536903,0.5323944-0.470562,0.6942291-0.7054138l0.0005112-0.0007629
	c0.3122139-0.4679985,0.4816971-1.0233383,0.4820671-1.5659599c0-0.0706558-0.0029106-0.1410751-0.0087776-0.2110176
	l0.0000458,0.0003929L53.0390778,46.2989464l-0.1886177,0.0158272c0.0049667,0.0592232,0.0074387,0.119091,0.0074387,0.1793747
	c0.00037,0.4630661-0.1476288,0.9511337-0.4182739,1.3556671l0.0005112-0.0007629
	c-0.1147728,0.1749268-0.4373131,0.503006-0.5912933,0.6028023c-0.1233215,0.0828476-0.275177,0.1690102-0.3738861,0.2147026
	l-0.0022659,0.0010529l-0.0291595,0.0136452l-1.9976425,0.0021248l-0.1026382-0.0513992
	c-0.2510757-0.1271667-0.3820877-0.2222023-0.6068001-0.4474449l-0.0006447-0.0006371
	c-0.1676636-0.1683655-0.2090225-0.2167473-0.2886925-0.3344421l0.0004387,0.0006714
	c-0.277832-0.4187927-0.4147606-0.8661118-0.4164009-1.3616028v-0.0019989v-0.0002213V46.483902
	c-0.0002785-0.5422974,0.1825638-1.0761833,0.5080643-1.4834785l0.0005531-0.0007057
	c0.2411156-0.305687,0.5736656-0.5642471,0.9158478-0.7174873l-0.0003014,0.0001373
	c0.3149414-0.1407394,0.6478577-0.2099457,0.9806137-0.20998c0.4759712,0.0000572,0.9515915,0.1416664,1.3719902,0.4216347
	c0.1892433,0.1230202,0.5063324,0.4400063,0.6305275,0.6303444c0.2457848,0.3701286,0.3745575,0.7415314,0.4119644,1.1900024
	l0.0000496,0.0004044L53.0390778,46.2989464z M51.1078186,46.1548653l-0.163456-0.0954971
	c-0.098526,0.1711845-0.3007774,0.2800255-0.5037422,0.279335c-0.0610008-0.0000114-0.1216087-0.0095444-0.1795158-0.0291138
	c-0.2675018-0.0915031-0.4045944-0.3231697-0.4064407-0.5636826c0.0012016-0.1835823,0.0802727-0.3615456,0.2592773-0.4851418
	l0.0006943-0.0004768c0.074379-0.0537682,0.2188377-0.0985947,0.3234673-0.096756l0.0130997,0.0001945l0.0006218,0.0000229
	l0.0011101,0.0000229c0.3439178,0.0077782,0.5759506,0.2830658,0.5777321,0.5870895
	c-0.0001411,0.101635-0.0260887,0.205925-0.0860023,0.3079987l-0.0003014,0.0005074L51.1078186,46.1548653l0.1631317,0.0959969
	c0.0939713-0.1594238,0.1384277-0.3324661,0.1382904-0.5c0.0017776-0.4982796-0.3913765-0.9526672-0.9475937-0.9655609
	l0.0017319,0.0000458l-0.0252762-0.0003891c-0.1907921,0.0018234-0.383522,0.0589294-0.5387726,0.1639366l0.0006905-0.000473
	c-0.2845764,0.1939087-0.4251328,0.5002899-0.4239311,0.7974854c-0.0018501,0.3874702,0.2358208,0.7777023,0.6635704,0.922245
	c0.0987778,0.03339,0.2004929,0.0491257,0.3009605,0.0491142c0.3318062-0.0007057,0.6550903-0.1690598,0.8306274-0.4669113
	l-0.0002975,0.0005074L51.1078186,46.1548653z"/>
<path fill="#8566AC" d="M52.1707611,52.1161652v0.1104469c-0.0068855,0.0530052-0.0251656,0.0737228-0.3453979,0.4008751
	l-0.3385086,0.3454056l-0.0011063,0.3558846c-0.0024757,0.2832756-0.0093613,0.3663406-0.0347557,0.4030914
	c-0.0182533,0.025383-0.2267189,0.2385178-0.4641151,0.4710121l-0.4307022,0.4237976l-0.0759506,0.0091362
	c-0.1324921,0.0173645-0.1369514,0.0151482-0.6115341-0.4594345c-0.2683601-0.2683601-0.4329224-0.4422798-0.4467392-0.4699059
	c-0.0115776-0.0251617-0.0207062-1.0524864-0.0207062-2.3608627V49.028614l2.0845032-0.0022316v0.8683167l0.3384857,0.3454208
	c0.3224716,0.3293686,0.3396416,0.3489647,0.3465271,0.4019699v0.1104584
	c-0.0068855,0.053009-0.0251656,0.0737228-0.313118,0.3685837l-0.3064346,0.3133354l0.3064346,0.3131256
	C52.1455956,52.0424423,52.1638756,52.0631561,52.1707611,52.1161652z"/>
<path fill="#FFFFFF" d="M52.1707611,52.1161652H51.981472v0.1104469h0.1892891l-0.1877174-0.0244217l0.0161972,0.0021019
	l-0.0160141-0.003006l-0.0001831,0.0009041l0.0161972,0.0021019l-0.0160141-0.003006l0.075676,0.014225l-0.0660172-0.0407028
	l-0.0096588,0.0264778l0.075676,0.014225l-0.0660172-0.0407028l-0.0150642,0.0192375
	c-0.0336914,0.0404243-0.1194839,0.1293373-0.2877464,0.3010178l-0.3922768,0.4002953l-0.001339,0.4328308v-0.0010643
	c-0.0011559,0.1400032-0.0037193,0.2296562-0.0080872,0.2794838l-0.005455,0.0415802l0.0338058,0.0082855l-0.0319557-0.0132294
	l-0.0018501,0.0049438l0.0338058,0.0082855l-0.0319557-0.0132294l0.0946655,0.0391769l-0.0841751-0.0581703l-0.0104904,0.0189934
	l0.0946655,0.0391769l-0.0841751-0.0581703l0.155735,0.1076164l-0.1536789-0.1105042l0.1020851,0.0734062l-0.0976715-0.0792427
	l-0.0044136,0.0058365l0.1020851,0.0734062l-0.0976715-0.0792427l-0.002079,0.0023575
	c-0.0372505,0.0423889-0.2325439,0.2416801-0.4452171,0.4497566l-0.0003204,0.000309l-0.3846779,0.3784981l-0.0118065,0.0014305
	l-0.0005302,0.0000572l-0.0014572,0.0001984l-0.030777,0.0033722v0.0384827l0.0084801-0.0373497l-0.0084801-0.001133v0.0384827
	l0.0084801-0.0373497l-0.0070267,0.0309639l0.0132866-0.0290451l-0.0062599-0.0019188l-0.0070267,0.0309639l0.0132866-0.0290451
	c-0.000946,0.0008087-0.0393944-0.0235596-0.1095009-0.0898399c-0.070797-0.0657272-0.1746826-0.1692543-0.3275566-0.3221855
	c-0.1333694-0.1333694-0.2407913-0.2431259-0.3154259-0.3217201c-0.0372238-0.0392113-0.0664063-0.070797-0.085495-0.0924034
	l-0.0197792-0.0231514l-0.0015945-0.0020332l-0.0916367,0.0699196l0.1026382-0.0513191l-0.0110016-0.0186005l-0.0916367,0.0699196
	l0.1026382-0.0513191l-0.1693001,0.0846481l0.1719322-0.079174l-0.1640549,0.0755463l0.1770401-0.0361824l-0.0129852-0.0393639
	l-0.1640549,0.0755463l0.1770401-0.0361824l-0.1099167,0.0224571l0.1117897-0.0108719l-0.001873-0.0115852l-0.1099167,0.0224571
	l0.1117897-0.0108719c-0.0013618-0.0106049-0.0046196-0.0988007-0.0066795-0.2238541
	c-0.0068626-0.3818092-0.0115509-1.173851-0.0115509-2.1087837v-2.1279182l1.705925-0.0018234l0.0000229,0.7561226
	l0.3925781,0.4006081c0.1606598,0.1639748,0.2461281,0.2522507,0.2834702,0.295784l0.0181618,0.022274l0.0020103,0.0028076
	l0.0681381-0.0399857l-0.0752106,0.0233154l0.0070724,0.0166702l0.0681381-0.0399857l-0.0752106,0.0233154l0.0838776-0.0259972
	l-0.0861893,0.0168915l0.0023117,0.0091057l0.0838776-0.0259972l-0.0861893,0.0168915l0.0183029-0.0035934l-0.0185547,0.0024147
	l0.0002518,0.0011787l0.0183029-0.0035934l-0.0185547,0.0024147l0.1877174-0.0244217H51.981472v0.1104584h0.1892891
	l-0.1877174-0.0244217l0.0101433,0.0013161l-0.010006-0.0018578l-0.0001373,0.0005417l0.0101433,0.0013161l-0.010006-0.0018578
	l0.0753517,0.0140114l-0.0661087-0.0395699l-0.009243,0.0255585l0.0753517,0.0140114l-0.0661087-0.0395699l-0.0020561,0.0029106
	c-0.0145798,0.0216179-0.0921478,0.1044769-0.2681503,0.2839317l-0.4358101,0.4456329l0.4398537,0.4494553l-0.0040436-0.0041237
	c0.1434669,0.1467476,0.2204819,0.2266617,0.2532463,0.2654343l0.0155029,0.0193291l0.0015488,0.0022392l0.0511589-0.0332947
	l-0.0571899,0.0198479l0.006031,0.0134468l0.0511589-0.0332947l-0.0571899,0.0198479l0.0833702-0.0289421l-0.0863724,0.0182304
	l0.0030022,0.0107117l0.0833702-0.0289421l-0.0863724,0.0182304l0.0265045-0.0056038l-0.0269432,0.0035133l0.0004387,0.0020905
	l0.0265045-0.0056038l-0.0269432,0.0035133L52.1707611,52.1161652H51.981472H52.1707611l0.1877136-0.024437
	c-0.0021248-0.0213852-0.0117607-0.0654716-0.0306358-0.1004448c-0.0283546-0.0530396-0.0586014-0.0860252-0.1072388-0.139782
	c-0.0490303-0.0531654-0.1193428-0.1253738-0.2275276-0.2361679l-0.0001411-0.0001411l-0.1769257-0.1807823l0.1769714-0.1809349
	c0.144577-0.1482162,0.2206688-0.2260857,0.2707634-0.2846375c0.0250015-0.0296593,0.0456581-0.0559883,0.0640984-0.0914192
	c0.0188751-0.0349617,0.028511-0.0790596,0.0306358-0.1004448l0.0015717-0.0120735v-0.1228104V50.629818l-0.0015717-0.0121536
	c-0.001915-0.0207253-0.0121765-0.0673409-0.0320015-0.1027527c-0.0295982-0.0536995-0.0606537-0.0871696-0.1140289-0.1456642
	c-0.0536308-0.0577202-0.1318474-0.1378288-0.2529449-0.2615509l-0.2844887-0.290287v-0.9805222l-2.4630508,0.0026474v2.5060768
	c0,0.6546402,0.0022621,1.2389526,0.0060043,1.6633034c0.001873,0.2122231,0.0040932,0.3843422,0.0066109,0.5059624
	c0.0012703,0.0608978,0.0025864,0.1089821,0.0040207,0.1443672l0.0024719,0.0453377l0.0021248,0.021244l0.0027733,0.0166473
	l0.0140495,0.0431747L49.251194,53.78825l0.0014534,0.0028763l0.0337143,0.0507889
	c0.0315857,0.0390816,0.0812645,0.0926094,0.1570091,0.1718178c0.0750694,0.0783081,0.1733665,0.1783829,0.2914619,0.2964897
	c0.2005653,0.2003784,0.3162804,0.3164215,0.4054947,0.3925552c0.0450363,0.0380096,0.084549,0.0678749,0.1326103,0.0917091
	c0.0471573,0.0241928,0.1067734,0.0365562,0.1519241,0.0355835l0.0799484-0.0065727l-0.0245857-0.1876831l0.0225983,0.1879387
	l0.0759277-0.00914l0.0641441-0.0077057l0.4767532-0.4691086l-0.0003242,0.0003128
	c0.1195755-0.117115,0.2316895-0.2291794,0.3167686-0.315712c0.0425606-0.0433044,0.0783043-0.0801468,0.1052933-0.1085663
	l0.0342903-0.0367279l0.0289764-0.034729l0.0010872-0.0015144l0.0009689-0.0013847
	c0.0464668-0.0715637,0.0514107-0.1304932,0.0588531-0.2005539c0.006031-0.0717087,0.0081329-0.1652222,0.009449-0.308506v-0.001049
	l0.0008774-0.2789421l0.2846489-0.2904587c0.1607056-0.164299,0.2447891-0.2502441,0.2983513-0.312088
	c0.0267792-0.0313568,0.0479698-0.0578117,0.0672836-0.0936508c0.0198021-0.0352249,0.0303154-0.0818062,0.0323029-0.1031914
	l0.0015717-0.0120735v-0.1227989v-0.0123634l-0.0015717-0.0120735L52.1707611,52.1161652z"/>
<path fill="#FFFFFF" d="M60.381237,51.064106c-0.1894722-0.062294-0.3249702-0.1125755-0.4063034-0.1510239l-0.1295815,0.5826492
	c0.0382652,0.0192261,0.1007423,0.0430717,0.1870689,0.0719109c0.0863266,0.0288353,0.1870689,0.0574875,0.3020477,0.0863228
	c0.1151619,0.0288391,0.2384605,0.0526848,0.3704414,0.071907c0.1318016,0.0190392,0.2600861,0.0288391,0.384861,0.0288391
	c0.3212738,0,0.5992889-0.0384483,0.8344193-0.1151619c0.2347641-0.0767136,0.430336-0.1820793,0.5861664-0.3164673
	c0.1558266-0.134201,0.2708054-0.2937279,0.3453026-0.4783974c0.0743103-0.1844788,0.1114655-0.3846741,0.1114655-0.6005821
	c0-0.177269-0.027729-0.3380928-0.0828133-0.4819069c-0.055088-0.1438141-0.1269951-0.2708054-0.2157249-0.3811646
	c-0.088726-0.1103554-0.1929817-0.2014847-0.3129501-0.2733917c-0.1197853-0.0719109-0.2445602-0.1269951-0.3739548-0.1654434
	c0.2109146-0.0959396,0.3907738-0.2360573,0.5393944-0.420723s0.2231178-0.4064865,0.2231178-0.6654663
	c0-0.186882-0.0312424-0.3606415-0.0935364-0.5214653c-0.0624809-0.1606331-0.1558304-0.2996445-0.2806053-0.4172096
	c-0.1247749-0.1173782-0.2830086-0.2085114-0.4746971-0.2732086c-0.1918755-0.0648842-0.4196129-0.0972328-0.6833954-0.0972328
	c-0.1390076,0-0.2721024,0.0133095-0.3990936,0.0395584c-0.1271782,0.026432-0.2458534,0.0587845-0.3560257,0.0972328
	c-0.1103554,0.0384483-0.2098045,0.0802231-0.2985344,0.1258812c-0.0887299,0.0456619-0.1619301,0.0874367-0.2194176,0.125885
	l0.258976,0.5105591c0.1101723-0.071907,0.2456665-0.1412239,0.4063034-0.2085114
	c0.1606369-0.0671005,0.3562088-0.1007423,0.5863495-0.1007423c0.114975,0,0.2240372,0.0133095,0.3271866,0.0395584
	c0.1031456,0.026432,0.1942787,0.070797,0.2733955,0.133091c0.0791168,0.0624809,0.1425209,0.1415977,0.1905823,0.2373505
	c0.0478745,0.0959358,0.071907,0.2110977,0.071907,0.3453026c0,0.1630363-0.0336456,0.2985344-0.1007462,0.4063034
	c-0.0671005,0.1079521-0.1534271,0.1931686-0.2587929,0.2554626c-0.1055489,0.0622978-0.2220039,0.1055527-0.348999,0.1293983
	c-0.1269913,0.0240288-0.2506561,0.0360451-0.3704414,0.0360451h-0.2373505v0.5466042h0.1726532
	c0.1726494,0,0.3416061,0.0157127,0.5070457,0.0467682c0.1654434,0.0312386,0.3105507,0.0839233,0.4353256,0.1582336
	c0.1245918,0.0744934,0.2253342,0.1739464,0.3020477,0.2985344c0.0767136,0.1247749,0.1151619,0.2782021,0.1151619,0.4602814
	c0,0.2830048-0.0924263,0.5083389-0.277092,0.6761856s-0.4902267,0.2517662-0.9170456,0.2517662
	C60.80196,51.1576385,60.5707092,51.1265831,60.381237,51.064106z M57.6589279,51.6467552
	c-0.1680298-0.330883-0.3730278-0.6700859-0.6149979-1.0177917c-0.2423401-0.3477058-0.4783974-0.6772957-0.7085381-0.9889526
	l1.208374-1.7335396h-0.7120476l-0.8991165,1.3091202l-0.8919067-1.3091202h-0.7553062l1.2372131,1.7766075
	c-0.2301407,0.3068542-0.4615746,0.6294212-0.6941185,0.967514c-0.2327271,0.3380928-0.4329224,0.6700859-0.6005821,0.9961624
	h0.6904221c0.052681-0.1007423,0.1175652-0.2157211,0.1942787-0.3453026
	c0.0765266-0.1293945,0.1593399-0.2624855,0.2480698-0.3990936c0.0887299-0.1367874,0.1809692-0.2733955,0.2769089-0.4099998
	c0.0959358-0.1367912,0.1894722-0.2648926,0.2806015-0.384861c0.0909462,0.1199684,0.1844826,0.2469635,0.2804222,0.3811646
	c0.0959358,0.134388,0.1894722,0.2696991,0.2806015,0.4064865c0.0911331,0.1366081,0.1750565,0.2696991,0.25177,0.3990974
	c0.0767136,0.1295776,0.1414108,0.2471466,0.1942787,0.3525085H57.6589279z"/>
<path fill="#737474" d="M95.8499756,63.4240112c-0.0602646-0.0388184-0.151207-0.0794868-0.2730255-0.1218185
	c-0.1220016-0.0425148-0.2623062-0.0637703-0.4212799-0.0637703c-0.1979752,0-0.373764,0.0354881-0.5273743,0.106102
	c-0.153801,0.0708008-0.2835617,0.1695099-0.3896713,0.2968712c-0.1059189,0.1271782-0.1863327,0.2791252-0.2410431,0.455658
	c-0.0549011,0.1767197-0.0822601,0.3710022-0.0822601,0.5830231c0,0.2227478,0.0327148,0.4233093,0.0981522,0.6016922
	c0.0652542,0.1783829,0.1580505,0.3294067,0.2782059,0.4530716s0.2650757,0.2190475,0.4345856,0.2861481
	c0.169693,0.0671005,0.3604584,0.1007462,0.5724869,0.1007462c0.2295837,0,0.4327316-0.0158997,0.6094513-0.0476913
	c0.1767197-0.0317993,0.3214569-0.063591,0.4345856-0.0953827V61.945385l-0.4928131,0.0846634V63.4240112z M95.8499756,65.6289215
	c-0.0495377,0.0140457-0.1194153,0.027359-0.2094345,0.0397415c-0.0900269,0.0123825-0.2022324,0.018486-0.3366165,0.018486
	c-0.2648926,0-0.4769135-0.0874329-0.6358871-0.2623062c-0.1589737-0.1748657-0.2386475-0.4231262-0.2386475-0.7447662
	c0-0.1412277,0.0142365-0.2737656,0.0425186-0.3974304s0.0741272-0.2305069,0.1377106-0.3207169
	c0.063591-0.090023,0.1458511-0.1606369,0.2465973-0.2120247c0.1005554-0.0512047,0.2216339-0.0767136,0.3630447-0.0767136
	c0.134201,0,0.2578659,0.0229225,0.3709946,0.0687637c0.1129456,0.0460281,0.1994553,0.0937195,0.2597198,0.1430779V65.6289215z
	 M91.0270157,66.0581436h0.4928131v-2.326725c0.017746-0.0035095,0.0467682-0.0086861,0.0874405-0.0158958
	c0.0406647-0.0070267,0.0866928-0.0133095,0.1378937-0.018486c0.0512085-0.0053596,0.1049957-0.0097961,0.1615601-0.0133095
	s0.1112823-0.0053596,0.1643372-0.0053596c0.1306839,0,0.240303,0.0168228,0.3286667,0.0504646
	c0.0881729,0.0336418,0.1589661,0.0874329,0.2120209,0.1615601c0.0528717,0.0743103,0.09095,0.1715431,0.1138687,0.2915077
	c0.0229187,0.1201553,0.0345688,0.2650757,0.0345688,0.4345856v1.441658h0.4928131v-1.5475769
	c0-0.1872559-0.017746-0.3586121-0.0530548-0.5140686c-0.0353012-0.1554604-0.0963058-0.2889252-0.1828156-0.4002037
	c-0.0866928-0.1112823-0.2022247-0.1977921-0.3471527-0.259716c-0.1449203-0.0617409-0.3268127-0.0927963-0.5458679-0.0927963
	c-0.2438126,0-0.4593506,0.0158958-0.6466064,0.0476913s-0.3375397,0.061924-0.4504852,0.0902061V66.0581436z M88.4354019,64.415184
	c0.0105362-0.0953827,0.0325317-0.1891022,0.0661774-0.2809753c0.033638-0.0918655,0.0804062-0.1730194,0.1404877-0.2438164
	c0.0600739-0.0706139,0.1332779-0.1279182,0.2199707-0.1722832c0.0865097-0.0439949,0.1863327-0.0661774,0.2994614-0.0661774
	c0.2013016,0,0.3595352,0.0715408,0.4743271,0.2146149s0.170433,0.3258896,0.1669159,0.5486374H88.4354019z M87.9928665,65.2605133
	c0.054718,0.1748657,0.1386337,0.3258896,0.25177,0.4530716c0.1129379,0.1271744,0.2569427,0.2271805,0.4318085,0.2994537
	c0.1750565,0.072464,0.3824615,0.108696,0.6227646,0.108696c0.1909561,0,0.3613892-0.017746,0.5114822-0.0530548
	c0.1501007-0.0353088,0.2552795-0.0687637,0.315361-0.1005554l-0.0689545-0.4135132
	c-0.0600739,0.0282822-0.1491699,0.0574875-0.267662,0.0874329c-0.1183014,0.0301285-0.2641525,0.045105-0.4371719,0.045105
	c-0.3074112,0-0.5334854-0.0741272-0.6784058-0.2225647c-0.1449203-0.1484299-0.2279205-0.3658218-0.2491837-0.6519699h1.8869705
	l0.0051727-0.0927963v-0.0820694c0-0.4734039-0.0988998-0.8259201-0.2966843-1.057354
	c-0.1979752-0.2314339-0.4822769-0.3471489-0.8532791-0.3471489c-0.1591568,0-0.3146133,0.0299454-0.4665604,0.090023
	c-0.151947,0.0600739-0.2861557,0.1502838-0.4027939,0.2704353c-0.1164551,0.1201553-0.2101746,0.2711792-0.2807922,0.4530716
	c-0.0707932,0.1820755-0.106102,0.3948441-0.106102,0.6386642C87.9106064,64.8939514,87.9379654,65.08564,87.9928665,65.2605133z
	 M87.1924591,62.7164001c0.0617371-0.0582275,0.0927963-0.1367912,0.0927963-0.2358704
	c0-0.098896-0.0310593-0.1774559-0.0927963-0.2358704c-0.0617371-0.0582275-0.1369781-0.0874329-0.2251511-0.0874329
	c-0.088356,0-0.1635895,0.0292053-0.2253342,0.0874329c-0.0619202,0.0584145-0.0927963,0.1369743-0.0927963,0.2358704
	c0,0.0990791,0.0308762,0.1776428,0.0927963,0.2358704c0.0617447,0.0584145,0.1369781,0.0874367,0.2253342,0.0874367
	C87.055481,62.8038368,87.130722,62.7748146,87.1924591,62.7164001z M87.216301,63.3021927h-0.4928131v2.7559509h0.4928131
	V63.3021927z M85.1123276,63.2994232c-0.1732101,0.0371552-0.3179474,0.0768967-0.4345856,0.1192284v2.639492h0.4928131v-2.3161888
	c0.0282822-0.0070229,0.0874329-0.0201492,0.1776428-0.0397415c0.0900192-0.0194092,0.1809692-0.0290222,0.2728424-0.0290222
	c0.1414108,0,0.2571259,0.009613,0.3471451,0.0290222c0.09021,0.0195923,0.154541,0.0364151,0.1935425,0.0504646l0.0848465-0.429409
	c-0.0212555-0.0070267-0.053978-0.0149727-0.0981598-0.0238457c-0.0441742-0.0086899-0.0927887-0.0175629-0.1456604-0.0264359
	c-0.0530548-0.008873-0.1070251-0.0158958-0.1617432-0.0212555c-0.054718-0.0051765-0.1033325-0.0079498-0.1456604-0.0079498
	C85.4798126,63.243782,85.285347,63.2624512,85.1123276,63.2994232z M82.8917084,62.2341232
	c-0.1732101,0.1926155-0.2597198,0.465641-0.2597198,0.8188896v3.0051308h0.4928131v-2.3426208h1.0601273v-0.4133301h-1.0601273
	v-0.2386398c0-0.2120247,0.045845-0.3806114,0.1379013-0.5061264c0.0918732-0.1253281,0.2525024-0.188179,0.4822769-0.188179
	c0.1129456,0,0.2083282,0.0098,0.2861481,0.0292091c0.0776367,0.0194092,0.1379013,0.0397415,0.1802292,0.0610008
	l0.0900269-0.4240494c-0.0423355-0.0175629-0.115715-0.0371552-0.2197876-0.0582275
	c-0.1042557-0.0212593-0.2288513-0.0317955-0.3737717-0.0317955C83.3368301,61.945385,83.0647278,62.0416908,82.8917084,62.2341232z
	 M80.5915985,65.5228119c-0.063591-0.07061-0.1502838-0.1059189-0.2597198-0.1059189
	c-0.1096115,0-0.1961212,0.0353088-0.2597122,0.1059189c-0.063591,0.0708008-0.0953827,0.153801-0.0953827,0.2491837
	s0.0317917,0.1783829,0.0953827,0.2489929c0.063591,0.0706177,0.1501007,0.106102,0.2597122,0.106102
	c0.109436,0,0.1961288-0.0354843,0.2597198-0.106102c0.063591-0.07061,0.0953827-0.1536102,0.0953827-0.2489929
	S80.6551895,65.5936127,80.5915985,65.5228119z M78.876915,62.5679665
	c-0.1926117-0.1783829-0.4813538-0.2674828-0.8665848-0.2674828c-0.1271744,0-0.2454834,0.0158997-0.3550949,0.0476913
	c-0.109436,0.0317955-0.2085114,0.0706139-0.2966919,0.1164589c-0.088356,0.0460281-0.1643295,0.0946426-0.2279205,0.1458473
	c-0.0635834,0.0512047-0.1112747,0.0944595-0.143074,0.1297646l0.2438202,0.3499222
	c0.0245819-0.0212555,0.0598907-0.0521278,0.1059189-0.0927925c0.045845-0.0406685,0.1024094-0.0794868,0.1695099-0.116642
	s0.1432571-0.0696907,0.2279205-0.0979729c0.0848465-0.0282822,0.1783829-0.0425148,0.2809753-0.0425148
	c0.0848465,0,0.1650696,0.0116463,0.2412338,0.0345688c0.0757904,0.0229187,0.1421509,0.0591507,0.1987152,0.1085052
	c0.0563736,0.0495415,0.1014786,0.1114655,0.1351242,0.1855927c0.0334549,0.0741234,0.0502777,0.1643333,0.0502777,0.2702522
	c0,0.0990791-0.018486,0.1926155-0.0556412,0.2809753c-0.0369644,0.088356-0.0865097,0.1741295-0.1484299,0.2569427
	c-0.0617447,0.0831833-0.1323547,0.1661835-0.2118454,0.249176c-0.0796661,0.0830002-0.1635895,0.1669235-0.2517624,0.25177
	c-0.1061096,0.1059189-0.2138748,0.215538-0.3233109,0.3286667c-0.1096115,0.1131287-0.2085114,0.2331009-0.2968674,0.3602753
	c-0.0883636,0.1271744-0.1598969,0.2624893-0.2146149,0.4055634c-0.0549011,0.143074-0.0822601,0.2976151-0.0822601,0.4637909
	v0.0582275l0.0053635,0.063591h2.2259827v-0.4186859h-1.6906509c0-0.0600815,0.0238419-0.1306915,0.0715332-0.2120285
	c0.0476913-0.0811462,0.1068497-0.1659927,0.1774597-0.2543564c0.0708008-0.088356,0.1458511-0.1732025,0.2253342-0.2543488
	c0.079483-0.081337,0.1491776-0.1519547,0.2094345-0.2120285c0.1059189-0.106102,0.2118378-0.214798,0.3179474-0.3260803
	c0.1059189-0.1112747,0.2013016-0.2242203,0.2861481-0.3392029c0.0848465-0.1147881,0.1528702-0.2312469,0.2040787-0.3497353
	c0.0512009-0.1183052,0.0768967-0.24123,0.0768967-0.3684082C79.1658401,62.9982986,79.0695343,62.7465324,78.876915,62.5679665z"/>
<path fill="#3CC7F4" d="M97.1535492,49.6583672c0,5.9267998-4.803299,10.7325096-10.730072,10.7325096
	c-5.926796,0-10.7324982-4.8057098-10.7324982-10.7325096c0-3.1361542,7.0285568-1.5801544,10.9499512,0
	C90.6855469,51.2892532,97.1535492,52.4876709,97.1535492,49.6583672z"/>
<path fill="#EDEDED" d="M97.1535492,49.6583672c0,2.8293037-6.4680023,1.6308861-10.512619,0
	c-3.9213943-1.5801544-10.9499512-3.1361542-10.9499512,0c0-5.9267883,4.8057022-10.730072,10.7324982-10.730072
	C92.3502502,38.9282951,97.1535492,43.7315788,97.1535492,49.6583672z"/>
<path fill="#FFFFFF" d="M88.4186707,55.4874611c-0.8363342-0.2731743-1.1839752-0.6128731-1.1839752-0.6128731l-0.0279999,0.0266762
	c-0.2483749,0.2337646-0.5230637,0.3711929-0.7732849,0.3711929h-0.0236359c-0.2502213,0-0.52491-0.1374283-0.7732544-0.3711929
	L85.60849,54.874588c0,0-0.3476105,0.3396873-1.1839523,0.6128731c-1.2345963,0.4611931-0.8638992,2.3380928-0.8642502,2.3526268
	c0.038887,0.209034,0.061554,0.2808838,0.0812912,0.2889481c1.2397995,0.5519524,4.3202515,0.5519524,5.5600739,0
	c0.0197372-0.0080643,0.0424042-0.0799141,0.0812912-0.2889481C89.2826004,57.8255539,89.6582413,55.9561043,88.4186707,55.4874611z
	"/>
<path fill="#FFFFFF" d="M87.7181778,53.0930099l-0.0103531-0.0112381c-0.069458-0.0636024-0.0640259-0.0599518-0.0640259-0.0599518
	s0.12117-0.6113625,0.0240021-0.9004669c-0.1525192-0.4617157-1.0636292-0.7711678-1.2463608-0.8071327l-0.1182556-0.0226326
	c0,0-0.1437225-0.029068-0.310318,0.043602c-0.1085129,0.041729-0.6757278,0.2989502-0.836731,0.7861633
	c-0.0971375,0.2891045,0.0240326,0.9004669,0.0240326,0.9004669s0.0054245-0.0036507-0.0640564,0.0599518l-0.0103455,0.0112381
	c-0.0469818,0.0533524-0.0353775,0.2203217,0.0159836,0.3940353c0.0465622,0.1740379,0.1072159,0.2208061,0.1217728,0.2615662
	c0.1473541,0.6919212,0.6597824,1.2826958,1.1819839,1.2826958c0.5221863,0,1.0075378-0.5907745,1.1549072-1.2826958
	c0.0145569-0.0407486,0.0752335-0.0875282,0.1217728-0.2615662C87.7535553,53.3133202,87.7665176,53.134903,87.7181778,53.0930099z"
	/>
<path fill="#8566AC" d="M88.9266434,41.3098984c-0.0377579-0.4505959-0.1750336-0.8370056-0.4294815-1.2093201
	c-0.142868-0.2087784-0.4487-0.507-0.6619263-0.6452827c-0.7422256-0.4821625-1.6573105-0.562767-2.4564896-0.2144508
	c-0.3604431,0.1578407-0.7031555,0.4179726-0.9563065,0.7303009c-0.3438263,0.4200897-0.5335312,0.9643478-0.5324478,1.51828
	c0.001091,0.5017548,0.1461029,0.9630852,0.4342422,1.3854828c0.0824432,0.1197624,0.1394272,0.1839523,0.3023682,0.3428421
	c0.2242279,0.2207832,0.3804932,0.3319016,0.6362381,0.4569168l0.1383362,0.0675659l2.0201035-0.0021057l0.0669174-0.0305214
	c0.1081161-0.0490303,0.2589798-0.1328049,0.3871689-0.2165642c0.1830292-0.119751,0.4888458-0.4244995,0.6228867-0.6181335
	C88.8174438,42.4089432,88.9723969,41.8398552,88.9266434,41.3098984z M87.0550461,41.1737328
	c-0.1728821,0.2885399-0.5522919,0.4234505-0.8792725,0.3156929c-0.5950317-0.1969948-0.7055283-0.9622345-0.1875534-1.3082428
	c0.1161118-0.0782814,0.2889938-0.127327,0.4363861-0.1229019C87.0071182,40.0713234,87.352005,40.6818771,87.0550461,41.1737328z"
	/>
<path fill="#8566AC" d="M88.0851517,46.807415v0.1043968c-0.0066757,0.0500832-0.0243759,0.069664-0.3347397,0.37883
	l-0.3280411,0.3264236l-0.001091,0.3363266c-0.0023804,0.2677078-0.0090561,0.3462143-0.0336609,0.3809433
	c-0.0177002,0.023983-0.219696,0.2254028-0.4497681,0.4451218l-0.4174194,0.4005165l-0.0735931,0.0086288
	c-0.1284027,0.016407-0.1327209,0.0143013-0.5926361-0.4341927c-0.2600632-0.2536049-0.4195633-0.4179726-0.4329453-0.4440727
	c-0.0112305-0.0237846-0.0200806-0.994648-0.0200806-2.2311211v-2.1896591l2.0201035-0.0021133v0.8206024l0.328064,0.3264236
	c0.3124924,0.3112793,0.3291321,0.3297997,0.3358078,0.3798828v0.104393
	c-0.0066757,0.0500946-0.0243759,0.0696678-0.3034363,0.34832l-0.2969818,0.2961197l0.2969818,0.2959137
	C88.0607758,46.737751,88.078476,46.7573204,88.0851517,46.807415z"/>
<path fill="#737474" d="M95.8499756,99.5944443c-0.0602646-0.0388184-0.151207-0.079483-0.2730255-0.1218109
	c-0.1220016-0.0425186-0.2623062-0.0637741-0.4212799-0.0637741c-0.1979752,0-0.373764,0.0354843-0.5273743,0.106102
	c-0.153801,0.0708008-0.2835617,0.1695099-0.3896713,0.2968674c-0.1059189,0.127182-0.1863327,0.279129-0.2410431,0.4556656
	c-0.0549011,0.176712-0.0822601,0.3709946-0.0822601,0.5830154c0,0.2227478,0.0327148,0.4233093,0.0981522,0.6016922
	c0.0652542,0.1783829,0.1580505,0.3294067,0.2782059,0.4530716s0.2650757,0.2190475,0.4345856,0.2861481
	c0.169693,0.0671005,0.3604584,0.1007462,0.5724869,0.1007462c0.2295837,0,0.4327316-0.0158997,0.6094513-0.0476913
	s0.3214569-0.063591,0.4345856-0.0953827v-4.0332718l-0.4928131,0.0846634V99.5944443z M95.8499756,101.7993546
	c-0.0495377,0.0140457-0.1194153,0.027359-0.2094345,0.0397415c-0.0900269,0.0123901-0.2022324,0.018486-0.3366165,0.018486
	c-0.2648926,0-0.4769135-0.0874329-0.6358871-0.2623062c-0.1589737-0.1748657-0.2386475-0.4231186-0.2386475-0.7447662
	c0-0.1412201,0.0142365-0.2737656,0.0425186-0.3974304s0.0741272-0.2305069,0.1377106-0.3207169
	c0.063591-0.0900192,0.1458511-0.1606369,0.2465973-0.2120209c0.1005554-0.0512085,0.2216339-0.0767136,0.3630447-0.0767136
	c0.134201,0,0.2578659,0.0229187,0.3709946,0.0687637c0.1129456,0.0460281,0.1994553,0.0937195,0.2597198,0.143074V101.7993546z
	 M91.0270157,102.2285767h0.4928131v-2.3267212c0.017746-0.0035095,0.0467682-0.0086899,0.0874405-0.0158997
	c0.0406647-0.007019,0.0866928-0.0133057,0.1378937-0.018486c0.0512085-0.0053558,0.1049957-0.0097961,0.1615601-0.0133057
	s0.1112823-0.0053635,0.1643372-0.0053635c0.1306839,0,0.240303,0.0168228,0.3286667,0.0504684
	c0.0881729,0.033638,0.1589661,0.0874329,0.2120209,0.1615601c0.0528717,0.0743103,0.09095,0.1715393,0.1138687,0.2915115
	c0.0229187,0.1201477,0.0345688,0.2650757,0.0345688,0.4345856v1.4416504h0.4928131v-1.5475769
	c0-0.1872482-0.017746-0.3586044-0.0530548-0.5140686c-0.0353012-0.1554565-0.0963058-0.2889252-0.1828156-0.4001999
	c-0.0866928-0.1112823-0.2022247-0.1977921-0.3471527-0.2597198c-0.1449203-0.0617371-0.3268127-0.0927963-0.5458679-0.0927963
	c-0.2438126,0-0.4593506,0.0158997-0.6466064,0.0476913c-0.1872559,0.0317993-0.3375397,0.0619278-0.4504852,0.09021V102.2285767z
	 M88.4354019,100.5856171c0.0105362-0.0953827,0.0325317-0.1891022,0.0661774-0.2809677
	c0.033638-0.0918732,0.0804062-0.173027,0.1404877-0.2438202c0.0600739-0.0706177,0.1332779-0.1279221,0.2199707-0.172287
	c0.0865097-0.0439911,0.1863327-0.0661774,0.2994614-0.0661774c0.2013016,0,0.3595352,0.0715408,0.4743271,0.2146149
	s0.170433,0.3258972,0.1669159,0.5486374H88.4354019z M87.9928665,101.4309464
	c0.054718,0.1748657,0.1386337,0.3258896,0.25177,0.4530716c0.1129379,0.1271744,0.2569427,0.2271805,0.4318085,0.2994614
	c0.1750565,0.0724564,0.3824615,0.1086884,0.6227646,0.1086884c0.1909561,0,0.3613892-0.017746,0.5114822-0.0530548
	c0.1501007-0.0353012,0.2552795-0.0687637,0.315361-0.1005554l-0.0689545-0.4135132
	c-0.0600739,0.0282822-0.1491699,0.0574875-0.267662,0.0874329c-0.1183014,0.0301361-0.2641525,0.045105-0.4371719,0.045105
	c-0.3074112,0-0.5334854-0.0741272-0.6784058-0.2225571c-0.1449203-0.1484375-0.2279205-0.3658218-0.2491837-0.6519775h1.8869705
	l0.0051727-0.0927887v-0.082077c0-0.4734039-0.0988998-0.8259201-0.2966843-1.0573502
	c-0.1979752-0.2314377-0.4822769-0.3471527-0.8532791-0.3471527c-0.1591568,0-0.3146133,0.0299454-0.4665604,0.0900269
	c-0.151947,0.0600739-0.2861557,0.1502838-0.4027939,0.2704315c-0.1164551,0.1201553-0.2101746,0.2711792-0.2807922,0.4530716
	c-0.0707932,0.1820831-0.106102,0.3948441-0.106102,0.6386642C87.9106064,101.0643845,87.9379654,101.256073,87.9928665,101.4309464
	z M87.1924591,98.8868332c0.0617371-0.0582275,0.0927963-0.1367874,0.0927963-0.2358704
	c0-0.0988922-0.0310593-0.1774521-0.0927963-0.2358704c-0.0617371-0.0582275-0.1369781-0.0874329-0.2251511-0.0874329
	c-0.088356,0-0.1635895,0.0292053-0.2253342,0.0874329c-0.0619202,0.0584183-0.0927963,0.1369781-0.0927963,0.2358704
	c0,0.0990829,0.0308762,0.1776428,0.0927963,0.2358704c0.0617447,0.0584183,0.1369781,0.0874405,0.2253342,0.0874405
	C87.055481,98.9742737,87.130722,98.9452515,87.1924591,98.8868332z M87.216301,99.4726334h-0.4928131v2.7559433h0.4928131
	V99.4726334z M85.1123276,99.4698563c-0.1732101,0.0371552-0.3179474,0.0768967-0.4345856,0.1192322v2.6394882h0.4928131v-2.316185
	c0.0282822-0.0070267,0.0874329-0.0201492,0.1776428-0.0397415c0.0900192-0.0194092,0.1809692-0.0290222,0.2728424-0.0290222
	c0.1414108,0,0.2571259,0.009613,0.3471451,0.0290222c0.09021,0.0195923,0.154541,0.0364151,0.1935425,0.0504608
	l0.0848465-0.4294052c-0.0212555-0.0070267-0.053978-0.0149765-0.0981598-0.0238495
	c-0.0441742-0.0086899-0.0927887-0.0175629-0.1456604-0.0264359c-0.0530548-0.008873-0.1070251-0.015892-0.1617432-0.0212555
	c-0.054718-0.0051727-0.1033325-0.0079498-0.1456604-0.0079498C85.4798126,99.4142151,85.285347,99.4328842,85.1123276,99.4698563z
	 M82.8917084,98.4045563c-0.1732101,0.1926193-0.2597198,0.4656448-0.2597198,0.8188934v3.005127h0.4928131v-2.3426208h1.0601273
	v-0.4133224h-1.0601273v-0.2386475c0-0.2120209,0.045845-0.3806076,0.1379013-0.5061264
	c0.0918732-0.1253281,0.2525024-0.1881714,0.4822769-0.1881714c0.1129456,0,0.2083282,0.0097961,0.2861481,0.0292053
	c0.0776367,0.0194092,0.1379013,0.0397415,0.1802292,0.060997l0.0900269-0.4240494
	c-0.0423355-0.0175629-0.115715-0.0371552-0.2197876-0.0582275c-0.1042557-0.0212555-0.2288513-0.0317917-0.3737717-0.0317917
	C83.3368301,98.1158218,83.0647278,98.2121277,82.8917084,98.4045563z M80.5915985,101.6932526
	c-0.063591-0.0706177-0.1502838-0.1059189-0.2597198-0.1059189c-0.1096115,0-0.1961212,0.0353012-0.2597122,0.1059189
	c-0.063591,0.0707932-0.0953827,0.1537933-0.0953827,0.249176s0.0317917,0.1783829,0.0953827,0.2489929
	c0.063591,0.0706177,0.1501007,0.1061096,0.2597122,0.1061096c0.109436,0,0.1961288-0.0354919,0.2597198-0.1061096
	c0.063591-0.07061,0.0953827-0.1536102,0.0953827-0.2489929S80.6551895,101.7640457,80.5915985,101.6932526z
	 M77.3770294,101.7993546c-0.1395569-0.0460281-0.2393799-0.0830002-0.2994537-0.1114655l-0.0953827,0.4294128
	c0.0282822,0.0140457,0.0741196,0.0317917,0.1377106,0.0530472c0.063591,0.0210724,0.1379013,0.0423355,0.2227478,0.063591
	c0.0846634,0.0210724,0.1756058,0.0388184,0.2728424,0.0528641c0.097229,0.0142365,0.1916885,0.0212631,0.2835617,0.0212631
	c0.2367935,0,0.4416046-0.0282822,0.6148148-0.0848465c0.1730194-0.0563812,0.3171997-0.134201,0.4319992-0.2331009
	c0.1147919-0.0988922,0.1996384-0.2164612,0.2543488-0.3525085c0.054718-0.136055,0.0822601-0.2835617,0.0822601-0.4425354
	c0-0.1306915-0.0205154-0.2491837-0.060997-0.3551025c-0.0406723-0.106102-0.0937195-0.1996384-0.1589737-0.2809753
	c-0.0654373-0.0811462-0.142334-0.1482468-0.2306976-0.2013016c-0.088356-0.0530472-0.1800461-0.0935364-0.2754288-0.1220016
	c0.1552811-0.07061,0.2878189-0.1739426,0.3974304-0.3099976c0.109436-0.1360474,0.1643372-0.2994537,0.1643372-0.4902191
	c0-0.1379013-0.0231094-0.2658234-0.0689468-0.3843079c-0.0460281-0.118309-0.1147995-0.2207184-0.206665-0.3074112
	c-0.0918732-0.0865097-0.2085114-0.1536102-0.3499298-0.2013016c-0.1412201-0.0476913-0.3090668-0.0715408-0.5033493-0.0715408
	c-0.1025925,0-0.2005615,0.009613-0.294281,0.0290222c-0.0935364,0.0195999-0.1809692,0.0434418-0.2623062,0.0715408
	c-0.0813293,0.0284653-0.1545334,0.0593338-0.2199707,0.0927963c-0.0654373,0.033638-0.1192322,0.0645142-0.1615601,0.0927963
	l0.1907654,0.376358c0.0811539-0.0530548,0.1809692-0.1042557,0.2994614-0.153801
	c0.1183014-0.0493546,0.2623062-0.0741272,0.4319992-0.0741272c0.0846558,0,0.1650696,0.0098038,0.2410431,0.0290222
	c0.0759735,0.0195999,0.143074,0.0523148,0.2014847,0.0981598c0.0582352,0.045845,0.1049957,0.1042557,0.1404877,0.1748657
	c0.0351257,0.0708008,0.0528717,0.1554642,0.0528717,0.2543564c0,0.1201553-0.0247726,0.2199783-0.0741272,0.2994614
	c-0.0495377,0.079483-0.1131287,0.142334-0.1907654,0.188179c-0.0778198,0.0460281-0.1635971,0.0778198-0.2571259,0.0953827
	c-0.0937195,0.017746-0.1846695,0.0264359-0.2730255,0.0264359h-0.1748734v0.402977h0.127182
	c0.1273575,0,0.2517624,0.0114594,0.373764,0.0343781c0.1218185,0.0229263,0.2286606,0.0619278,0.3205338,0.1166458
	c0.0918732,0.0547104,0.1661835,0.1280975,0.2227478,0.2199707c0.0563812,0.0918732,0.0846634,0.2048111,0.0846634,0.3392029
	c0,0.2085114-0.0680313,0.3745117-0.2038956,0.4981766c-0.1362305,0.1236649-0.3613815,0.1854019-0.6758118,0.1854019
	C77.687027,101.8681183,77.5165939,101.8451996,77.3770294,101.7993546z"/>
<path fill="#3CC7F4" d="M97.1535492,85.828743c0,5.9268036-4.803299,10.7324982-10.730072,10.7324982
	c-5.926796,0-10.7324982-4.8056946-10.7324982-10.7324982c0-3.1361389,7.0285568-1.5801544,10.9499512,0
	C90.6855469,87.4596405,97.1535492,88.6580429,97.1535492,85.828743z"/>
<path fill="#EDEDED" d="M97.1535492,85.828743c0,2.8292999-6.4680023,1.6308975-10.512619,0
	c-3.9213943-1.5801544-10.9499512-3.1361389-10.9499512,0c0-5.9267883,4.8057022-10.730072,10.7324982-10.730072
	C92.3502502,75.098671,97.1535492,79.9019547,97.1535492,85.828743z"/>
<path fill="#FFFFFF" d="M88.4186707,91.6578293c-0.8363342-0.2731628-1.1839752-0.6128769-1.1839752-0.6128769L87.2066956,91.07164
	c-0.2483749,0.2337646-0.5230637,0.3711929-0.7732849,0.3711929h-0.0236359c-0.2502213,0-0.52491-0.1374283-0.7732544-0.3711929
	L85.60849,91.0449524c0,0-0.3476105,0.3396988-1.1839523,0.6128769c-1.2345963,0.4612045-0.8638992,2.3381042-0.8642502,2.3526459
	c0.038887,0.2090225,0.061554,0.2808762,0.0812912,0.2889404c1.2397995,0.5519485,4.3202515,0.5519485,5.5600739,0
	c0.0197372-0.0080643,0.0424042-0.0799179,0.0812912-0.2889404C89.2826004,93.9959335,89.6582413,92.1264801,88.4186707,91.6578293z
	"/>
<path fill="#FFFFFF" d="M87.7181778,89.2633743l-0.0103531-0.0112305c-0.069458-0.0635986-0.0640259-0.0599594-0.0640259-0.0599594
	s0.12117-0.611351,0.0240021-0.9004593c-0.1525192-0.4617081-1.0636292-0.7711639-1.2463608-0.8071289l-0.1182556-0.022644
	c0,0-0.1437225-0.0290527-0.310318,0.043602c-0.1085129,0.0417557-0.6757278,0.2989731-0.836731,0.786171
	c-0.0971375,0.2891083,0.0240326,0.9004745,0.0240326,0.9004745s0.0054245-0.0036545-0.0640564,0.0599442l-0.0103455,0.0112305
	c-0.0469818,0.0533752-0.0353775,0.2203445,0.0159836,0.3940506c0.0465622,0.1740265,0.1072159,0.2208023,0.1217728,0.2615662
	c0.1473541,0.6919174,0.6597824,1.282692,1.1819839,1.282692c0.5221863,0,1.0075378-0.5907745,1.1549072-1.282692
	c0.0145569-0.0407486,0.0752335-0.0875397,0.1217728-0.2615662C87.7535553,89.483696,87.7665176,89.3052673,87.7181778,89.2633743z"
	/>
<path fill="#8566AC" d="M88.9266434,77.480278c-0.0377579-0.4505997-0.1750336-0.8370056-0.4294815-1.2093201
	c-0.142868-0.2087708-0.4487-0.5070038-0.6619263-0.6452713c-0.7422256-0.4821854-1.6573105-0.5627823-2.4564896-0.2144775
	c-0.3604431,0.1578522-0.7031555,0.417984-0.9563065,0.7303162c-0.3438263,0.4200821-0.5335312,0.9643326-0.5324478,1.5182877
	c0.001091,0.5017319,0.1461029,0.9630737,0.4342422,1.3854752c0.0824432,0.119751,0.1394272,0.1839371,0.3023682,0.3428421
	c0.2242279,0.2207794,0.3804932,0.3319016,0.6362381,0.4569168l0.1383362,0.0675659l2.0201035-0.002121l0.0669174-0.0305099
	c0.1081161-0.0490417,0.2589798-0.1328049,0.3871689-0.2165604c0.1830292-0.1197662,0.4888458-0.4245148,0.6228867-0.6181335
	C88.8174438,78.5793228,88.9723969,78.0102234,88.9266434,77.480278z M87.0550461,77.3441086
	c-0.1728821,0.2885513-0.5522919,0.4234467-0.8792725,0.3157043c-0.5950317-0.1970062-0.7055283-0.9622421-0.1875534-1.3082428
	c0.1161118-0.0782928,0.2889938-0.1273346,0.4363861-0.1229095C87.0071182,76.2416992,87.352005,76.8522644,87.0550461,77.3441086z"
	/>
<path fill="#8566AC" d="M88.0851517,82.9777908v0.1043854c-0.0066757,0.0500946-0.0243759,0.069664-0.3347397,0.3788452
	l-0.3280411,0.3264313l-0.001091,0.336319c-0.0023804,0.2677078-0.0090561,0.346199-0.0336609,0.380928
	c-0.0177002,0.0239944-0.219696,0.2254028-0.4497681,0.445137l-0.4174194,0.4005127l-0.0735931,0.0086212
	c-0.1284027,0.0164261-0.1327209,0.0143204-0.5926361-0.4341736c-0.2600632-0.2536163-0.4195633-0.4179916-0.4329453-0.4440842
	c-0.0112305-0.0237885-0.0200806-0.9946442-0.0200806-2.2311172v-2.1896744l2.0201035-0.0020981v0.8206024l0.328064,0.3264236
	c0.3124924,0.3112793,0.3291321,0.3297958,0.3358078,0.3798904v0.104393
	c-0.0066757,0.050087-0.0243759,0.0696564-0.3034363,0.3483124l-0.2969818,0.2961273l0.2969818,0.2959061
	C88.0607758,82.9081421,88.078476,82.9277115,88.0851517,82.9777908z"/>
<path fill="#FFFFFF" d="M10.4070663,53.865181c0,0.4126587-0.1022224,0.7344398-0.3066454,0.9578094
	c-0.2044458,0.2233467-0.4770088,0.336937-0.8177366,0.336937c-0.1703634,0-0.3179903-0.0075798-0.4315815-0.0227127
	c-0.1135683-0.0151596-0.1968441-0.0340843-0.2612181-0.0492172l1.7565966-1.7565956l0.0075788,0.0227127
	C10.3881197,53.5131111,10.4070663,53.6834717,10.4070663,53.865181z"/>
<path fill="#FFFFFF" d="M33.5607491,35.4739876L17.0283527,52.0063858h-0.0113678
	c-0.2574291,0-0.4921436,0.0454254-0.7041454,0.1400719c-0.2120018,0.0908546-0.389945,0.2233696-0.533782,0.3861542
	c-0.1476507,0.1665726-0.2612181,0.3634186-0.3407278,0.5905762c-0.0643511,0.1817093-0.0984335,0.3747864-0.1097784,0.5830002
	l-0.859374,0.8593712v-1.2038651c0-0.2006569-0.0227137-0.3823662-0.068141-0.5489426
	c-0.0454273-0.1665726-0.1211472-0.3066444-0.2271595-0.4277916c-0.0302696-0.0340805-0.0643511-0.0681381-0.1021996-0.0984306
	c-0.0908546-0.0757217-0.196867-0.1362839-0.3218031-0.1817093c-0.1741304-0.0643768-0.3899212-0.0984344-0.6435604-0.0984344
	c-0.2233706,0-0.4277925,0.0151329-0.6208696,0.0492172c-0.1892881,0.0340576-0.3255701,0.0719299-0.4088688,0.1059875
	l0.0757198,0.526226c0.0757198-0.0340576,0.1930771-0.0643501,0.3520727-0.0946426
	c0.1552057-0.0265045,0.3369379-0.0416374,0.5489397-0.0416374c0.1627846,0,0.2952766,0.0227127,0.3975,0.0719299
	c0.06814,0.0302925,0.1249361,0.0681381,0.1703634,0.1135674l0.0719299,0.0757179
	c0.0567732,0.0794868,0.0984335,0.1703644,0.1211472,0.2725639c0.0227137,0.1022224,0.0340586,0.2044487,0.0340586,0.3104362
	v0.1779442c-0.0189238-0.0037918-0.0492163-0.0113716-0.0946436-0.0227165
	c-0.0454273-0.007576-0.0984335-0.0189476-0.1589956-0.0302925c-0.0643511-0.0113678-0.1287251-0.0189247-0.196866-0.0265007
	c-0.068141-0.0075798-0.132493-0.0113449-0.1968441-0.0113449c-0.1211472,0-0.2347383,0.0075531-0.3483067,0.0227127
	c-0.0757189,0.0113449-0.1514158,0.0264778-0.2233467,0.0416374c-0.1817312,0.0378494-0.3407269,0.1021996-0.4770088,0.1892891
	c-0.136282,0.0870628-0.2460833,0.2006302-0.3255692,0.3407021c-0.0795097,0.1400719-0.1173582,0.3104362-0.1173582,0.5035133
	l0.003767,0.0643501c0.0037889,0.1779442,0.0378714,0.329361,0.0984325,0.4618759
	c0.068141,0.1438599,0.1627855,0.261219,0.2877216,0.3482819c0.1211472,0.0908546,0.265008,0.1552315,0.4353714,0.1968689
	c0.1665745,0.0416374,0.3520727,0.0605621,0.5527058,0.0605621c0.0795097,0,0.1590185-0.0037918,0.2422943-0.0075569
	l-7.1891499,7.1891479l-1.3363833-1.3401718l-1.3401499-1.3401489l4.6375527-4.6375542
	c0.1173573,0.0265045,0.2498503,0.056797,0.4050789,0.0832977c0.2271366,0.0378494,0.4883547,0.0605621,0.7836542,0.0605621
	c0.2725639,0,0.5186472-0.0454254,0.7344379-0.1287231c0.2195578-0.0870667,0.4050789-0.2120018,0.5602846-0.3709984
	c0.1552296-0.1589966,0.2725868-0.3520737,0.3558626-0.5829964c0.0870647-0.2271614,0.128726-0.4845886,0.128726-0.7723122
	c0-0.2725639-0.0378714-0.5224342-0.1060123-0.7495728c-0.0302925-0.1022224-0.068141-0.1968651-0.1173582-0.2839317
	l5.1031942-5.1031914l14.9348183-14.9310303l1.3401718,1.3401527L33.5607491,35.4739876z"/>
<path fill="#FFFFFF" d="M13.8483067,54.0771828v1.0562401c-0.0757189,0.0189247-0.1741295,0.0302696-0.2877207,0.0378494
	c-0.1173573,0.0075798-0.2498503,0.0113678-0.4012899,0.0113678c-0.2498493,0-0.4467163-0.0454254-0.5905771-0.1363029
	c-0.1476498-0.0870667-0.2195568-0.2460594-0.2195568-0.4732208c0-0.1211243,0.0302696-0.2195549,0.0908546-0.2952766
	c0.0567722-0.0757179,0.1324921-0.1324921,0.2195568-0.1779442c0.0870886-0.0416374,0.1855221-0.0719299,0.2915106-0.0832748
	c0.1097794-0.0151329,0.2082119-0.0227127,0.3066454-0.0227127c0.1438608,0,0.2687979,0.0113449,0.3709974,0.0265045
	C13.7309494,54.0355453,13.8028803,54.0544701,13.8483067,54.0771828z"/>
<path fill="#FFFFFF" d="M17.0283527,52.0063858l-1.6998014,1.6998024c0.0113449-0.2082138,0.0454273-0.4012909,0.1097784-0.5830002
	c0.0795097-0.2271576,0.1930771-0.4240036,0.3407278-0.5905762c0.143837-0.1627846,0.3217802-0.2952995,0.533782-0.3861542
	c0.2120018-0.0946465,0.4467163-0.1400719,0.7041454-0.1400719H17.0283527z"/>
<path fill="#FFFFFF" d="M9.2903328,55.9094315c-0.2887383,0-0.5626879-0.0212593-0.8148251-0.0630341
	c-0.1508389-0.0258789-0.2794952-0.054718-0.3948431-0.0805969l-0.33532-0.0756035l0.2221913-0.2476997l0.5630579-0.5630569
	l0.1024075,0.0242157c0.0598917,0.0142326,0.1375294,0.0319786,0.2432642,0.0460281
	c0.1035166,0.0136757,0.2440042,0.0208855,0.4063034,0.0208855c0.28689,0,0.5087109-0.090023,0.6780348-0.2752419
	c0.1708031-0.1867027,0.2573137-0.4658279,0.2573137-0.8301697c0-0.1578636-0.0158978-0.3136902-0.0473223-0.4636078
	l-0.0491705-0.1059189l0.0913172-0.098156l0.6750774-0.6752625L11.01056,52.738121
	c0.053977,0.0950127,0.0979719,0.2009315,0.134572,0.3236732c0.0754194,0.2523232,0.1138687,0.5227585,0.1138687,0.8033638
	c0,0.3127708-0.0476923,0.5955925-0.1415968,0.8401489c-0.0920553,0.2556496-0.2225609,0.4687843-0.3970604,0.6475372
	c-0.1759787,0.1802292-0.3867092,0.3197937-0.6259069,0.4146194C9.8504324,55.8619232,9.5801802,55.9094315,9.2903328,55.9094315z"
	/>
<path fill="#3CC7F4" d="M10.8462038,52.8316765c0.0492172,0.0870667,0.0870657,0.1817093,0.1173582,0.2839317
	c0.068141,0.2271385,0.1060123,0.4770088,0.1060123,0.7495728c0,0.2877235-0.0416613,0.5451508-0.128726,0.7723122
	c-0.0832758,0.2309227-0.200633,0.4239998-0.3558626,0.5829964c-0.1552057,0.1589966-0.3407269,0.2839317-0.5602846,0.3709984
	c-0.2157907,0.0832977-0.461874,0.1287231-0.7344379,0.1287231c-0.2952995,0-0.5565176-0.0227242-0.7836542-0.0605621
	c-0.1552286-0.0265007-0.2877216-0.0568047-0.4050789-0.0832977l0.4883547-0.4883537
	c0.064374,0.0151329,0.1476498,0.0340576,0.2612181,0.0492058c0.1135912,0.0151443,0.2612181,0.0227242,0.4315815,0.0227242
	c0.3407278,0,0.6132908-0.1135902,0.8177366-0.336937c0.204423-0.2233696,0.3066454-0.5451622,0.3066454-0.9578094
	c0-0.1817093-0.0189466-0.3520699-0.0530062-0.5110664l-0.0075788-0.0227242L10.8462038,52.8316765 M10.9306812,52.2117996
	l-0.3521652,0.3521767l-0.4997225,0.4997253l-0.1929617,0.1929398l0.104764,0.2095146
	c0.0251522,0.1283226,0.0378952,0.2623749,0.0378952,0.399025c0,0.3156128-0.0697699,0.5518761-0.2073574,0.7022171
	c-0.1336012,0.1459503-0.3047047,0.2139549-0.5384493,0.2139549c-0.154397,0-0.2863464-0.0067139-0.3815794-0.0194092
	c-0.0936384-0.0124893-0.1622992-0.027832-0.2245827-0.0424843l-0.2052431-0.0482559l-0.1490946,0.1490936L7.8338304,55.308651
	l-0.4856739,0.4856873l0.6699824,0.1512871c0.1336937,0.030201,0.2682314,0.0604706,0.4247427,0.0871925
	c0.2631817,0.0438576,0.5477724,0.0659714,0.8473816,0.0659714c0.3128614,0,0.6058273-0.0518646,0.8707657-0.1541328
	c0.2674809-0.1060448,0.500185-0.2603035,0.6948566-0.4597244c0.1912756-0.195919,0.3396883-0.4378433,0.4410791-0.7190132
	c0.0994272-0.2592087,0.151185-0.5646439,0.151185-0.9007378c0-0.2997818-0.041048-0.5885773-0.1219902-0.8583679
	c-0.0398474-0.1344681-0.0891562-0.2530975-0.1503878-0.3614311L10.9306812,52.2117996z"/>
<path fill="#FFFFFF" d="M10.6531267,52.52882c-0.136282-0.1627846-0.3028555-0.2877197-0.4997225-0.3785744
	c-0.1968441-0.0908546-0.4240026-0.1362801-0.6776419-0.1362801c-0.204423,0-0.3861551,0.0264778-0.5451508,0.079483
	c-0.1552057,0.056797-0.272563,0.1060143-0.3482828,0.1590195v-1.9042473l-0.6360044,0.1097794v5.0767136
	c0.0492167,0.0151367,0.0984106,0.0265045,0.1552057,0.0416374l0.4883547-0.4883537l-0.007556-0.003788v-2.2411652
	c0.0757198-0.064373,0.1892881-0.1249352,0.333148-0.1817322c0.1438608-0.0605583,0.3028564-0.0908508,0.4769869-0.0908508
	c0.1817312,0,0.3369379,0.0340805,0.465663,0.0984306c0.1287031,0.0681419,0.2347155,0.1589966,0.3179913,0.2725639
	c0.0795088,0.1098022,0.132515,0.2385063,0.1703634,0.389946l0.4997225-0.4997253
	C10.7931976,52.7218971,10.7288465,52.6196747,10.6531267,52.52882z"/>
<path fill="#FFFFFF" d="M13.0875511,55.9018517c-0.2214518,0-0.4229403-0.0221825-0.5989189-0.0659904
	c-0.196312-0.0480614-0.3611994-0.1231117-0.5027962-0.2290306c-0.1438141-0.1001892-0.2617493-0.2423401-0.3453016-0.4188766
	c-0.0743103-0.1624832-0.1120205-0.3380928-0.1168261-0.5386543v0.0001831c-0.0022182,0-0.0036974-0.0343819-0.0036974-0.0687637
	c0-0.2297707,0.0476913-0.4305191,0.1423359-0.5968857c0.0990801-0.1750526,0.2314339-0.3129539,0.3926239-0.4096298
	c0.3234901-0.1946487,0.4717407-0.2172012,0.554924-0.2172012l0.0399284,0.0020332l0.0669155-0.0153427
	c0.035862-0.0101662,0.0720921-0.0199623,0.1083231-0.0253258c0.1242199-0.0166359,0.2458525-0.0247688,0.375988-0.0247688
	c0.071353,0,0.1423359,0.0040665,0.2177553,0.0123863c0.0724611,0.0081329,0.1404867,0.0162659,0.2085123,0.0280952
	l0.0306854,0.0059166c-0.0033274-0.0717239-0.0125704-0.1421509-0.0284672-0.2138748
	c-0.0166368-0.0741234-0.0469522-0.142704-0.0902081-0.2031517l-0.0410366-0.0419617
	c-0.0399284-0.0388184-0.0780077-0.0639572-0.1242199-0.0846596c-0.0783777-0.0375252-0.1844816-0.0554543-0.3209028-0.0554543
	c-0.1915054,0-0.3656359,0.0131226-0.5168438,0.0388184c-0.1449242,0.0277252-0.2491798,0.0550842-0.3064842,0.08078
	l-0.2292156,0.1027756l-0.1327238-0.921299l0.1371603-0.0556412c0.1053648-0.0428848,0.259901-0.0833664,0.4466009-0.117012
	c0.1996393-0.035305,0.4133282-0.0523109,0.6547441-0.0523109c0.2721014,0,0.5109291,0.0371552,0.7090902,0.1101723
	c0.1423349,0.0519409,0.2695131,0.1240349,0.3774662,0.213871c0.0432549,0.0349388,0.0850315,0.0763435,0.1220016,0.1179352
	c0.1286573,0.1467743,0.2162762,0.3112907,0.268774,0.5039063c0.0502796,0.1841125,0.0746803,0.3800545,0.0746803,0.598732
	v1.2823143l-1.2470083,1.2470093l-0.0732012,0.0033264C13.2450447,55.8983383,13.1662979,55.9018517,13.0875511,55.9018517z
	 M13.2576141,54.1831017c-0.0902071,0-0.1804152,0.0072098-0.2809744,0.0210762
	c-0.0842915,0.0090561-0.1615601,0.0312386-0.2358704,0.0665436c-0.0632191,0.0334587-0.1142378,0.0739403-0.1497297,0.1208954
	c-0.0362301,0.0458412-0.0524979,0.1038857-0.0524979,0.1815224c0,0.2112846,0.072093,0.2782021,0.1264391,0.3101807
	c0.1171951,0.0739403,0.2817135,0.1099892,0.4942923,0.1099892c0.1471424,0,0.2754288-0.0035133,0.3892975-0.0109062
	c0.0406675-0.0027733,0.0772676-0.0057335,0.1105413-0.0094299v-0.7554855l-0.0580435-0.0098
	C13.4908972,54.1914215,13.3751802,54.1831017,13.2576141,54.1831017z"/>
<path fill="#3CC7F4" d="M13.1063137,52.0063858c0.2536392,0,0.46943,0.0340576,0.6435604,0.0984344
	c0.1249361,0.0454254,0.2309484,0.1059875,0.3218031,0.1817093c0.0378485,0.0302925,0.0719299,0.0643387,0.1021996,0.0984306
	c0.1060123,0.1211472,0.1817322,0.261219,0.2271595,0.4277916c0.0454273,0.1665764,0.068141,0.3482857,0.068141,0.5489426v1.2038651
	l-1.1395168,1.1395187c-0.0832758,0.0037651-0.1627846,0.0075569-0.2422943,0.0075569
	c-0.200633,0-0.3861313-0.0189247-0.5527058-0.0605621c-0.1703634-0.0416374-0.3142242-0.1060143-0.4353714-0.1968689
	c-0.1249361-0.0870628-0.2195807-0.204422-0.2877216-0.3482819c-0.0605612-0.132515-0.0946436-0.2839317-0.0984325-0.4618759
	l-0.003767-0.0643501c0-0.1930771,0.0378485-0.3634415,0.1173582-0.5035133
	c0.0794859-0.1400719,0.1869535-0.2574043,0.3255692-0.3407021c0.2043762-0.1228218,0.3626442-0.1902695,0.4580507-0.1902695
	l0.0189581,0.0009804l0.02038,0.0010757c0.0665464,0,0.1342716-0.0324326,0.2029667-0.0427132
	c0.1135683-0.0151711,0.2271595-0.0227127,0.3483067-0.0227127c0.0643511,0,0.1287031,0.0037537,0.1968441,0.0113449
	c0.068141,0.007576,0.132515,0.0151329,0.196866,0.0265007c0.0605621,0.0113449,0.1135683,0.0227165,0.1589956,0.0302925
	c0.0454273,0.0113449,0.0757198,0.0189247,0.0946436,0.0227165v-0.1779556c0-0.1059761-0.0113449-0.2082024-0.0340586-0.3104248
	c-0.0227137-0.1021996-0.064374-0.1930771-0.1211472-0.2725639l-0.0719299-0.0757179
	c-0.0454273-0.0454292-0.1022234-0.0832748-0.1703634-0.1135674c-0.1022234-0.0492172-0.2347155-0.0719299-0.3975-0.0719299
	c-0.2120018,0-0.393734,0.0151329-0.5489397,0.0416374c-0.1589956,0.0302925-0.2763529,0.060585-0.3520727,0.0946426
	l-0.0757198-0.5262375c0.0832987-0.0340462,0.2195807-0.0719185,0.4088688-0.1059761
	C12.6785212,52.0215187,12.8829432,52.0063858,13.1063137,52.0063858 M13.159296,55.1826401
	c0.1514397,0,0.2839327-0.003788,0.4012899-0.0113678c0.1135912-0.0075798,0.2120018-0.0189247,0.2877207-0.0378494v-1.0562401
	c-0.0454264-0.0227242-0.1173573-0.0416374-0.2195797-0.0567703c-0.1021996-0.0151596-0.2271366-0.0265045-0.3709974-0.0265045
	c-0.0984335,0-0.196866,0.0075798-0.3066454,0.0227127c-0.1059885,0.0113449-0.204422,0.041626-0.2915106,0.0832748
	c-0.0870647,0.0454521-0.1627846,0.1022263-0.2195568,0.1779442c-0.060585,0.0757217-0.0908546,0.1741524-0.0908546,0.2952766
	c0,0.2271614,0.071907,0.3861542,0.2195568,0.4732208C12.7125797,55.1372147,12.9094467,55.1826401,13.159296,55.1826401
	 M13.1063137,51.6278114c-0.2524843,0-0.4771023,0.0179749-0.6866884,0.0549812
	c-0.2046194,0.036808-0.3678312,0.0799255-0.4863329,0.1283798l-0.2735338,0.1118317l0.0421,0.2924957l0.0757198,0.526226
	l0.0715837,0.4975357l0.4584312-0.2061882c0.0197334-0.0088844,0.0853319-0.0332832,0.2676191-0.0680237
	c0.1336823-0.0227623,0.2969408-0.0349388,0.4780951-0.0349388c0.1406946,0,0.2065363,0.0215797,0.2332592,0.0344505
	c0.0353298,0.0158997,0.0548544,0.0281105,0.0669165,0.0401726l0.0102825,0.0102806l0.0110445,0.0094643l0.0169601,0.0180435
	l0.0380335,0.0743217c-0.0790243-0.0084686-0.1539812-0.0125809-0.2288465-0.0125809
	c-0.1368132,0-0.2671213,0.0085144-0.3984013,0.0260429c-0.0500479,0.0074387-0.0940428,0.0188408-0.1375408,0.0311928
	l-0.0242157,0.0069427l-0.0304422-0.0008087c-0.1704216-0.0000114-0.371829,0.0753517-0.6530571,0.244339
	c-0.1896811,0.1139832-0.3444014,0.2749329-0.4598408,0.478363c-0.1105881,0.1948318-0.166667,0.4271202-0.166667,0.690361
	c0,0.0244675,0,0.0582504,0.004529,0.0967712c0.0073824,0.2140312,0.0517235,0.4113274,0.1319141,0.5868073
	c0.1001205,0.2114372,0.2392092,0.3786011,0.4155922,0.5015259c0.1514397,0.1138458,0.3387403,0.1994553,0.5619488,0.2540207
	c0.1888485,0.0472069,0.4056911,0.0713882,0.6425896,0.0713882c0.0812769,0,0.1625538-0.0035591,0.2473316-0.0074043
	l0.1467028-0.0066452l0.1159477-0.104393l1.1395168-1.1395187l0.1108875-0.1108856v-0.1568031v-1.2038651
	c0-0.235363-0.0266647-0.4475021-0.0814848-0.6485519c-0.0594416-0.2179413-0.1628885-0.4122429-0.3074999-0.5774879
	c-0.0506039-0.057003-0.0992422-0.1036453-0.1505384-0.1447029c-0.1192875-0.0995102-0.2655745-0.1825066-0.4289942-0.2419243
	C13.6623001,51.6688232,13.4016132,51.6278114,13.1063137,51.6278114z M13.159296,54.8040657
	c-0.2192335,0-0.3322239-0.0423088-0.3883953-0.0778008c-0.0328808-0.0195923-0.0431633-0.0896988-0.0431633-0.1531487
	c0-0.0441551,0.0081797-0.0591736,0.0082607-0.0593147c0.0244694-0.0322914,0.0553751-0.0556641,0.0987682-0.0783195
	c0.0423775-0.0199966,0.099081-0.0362854,0.1566153-0.0424347c0.1062441-0.0144768,0.1872549-0.020565,0.2663479-0.020565
	c0.0722313,0,0.1431913,0.0033073,0.2120018,0.0098572v0.4149208C13.3770857,54.8018227,13.2746897,54.8040657,13.159296,54.8040657
	z"/>
<path fill="#FFFFFF" d="M13.3296604,55.7050781c0.060585-0.003788,0.1211472-0.0075798,0.1817083-0.0113678
	c0.1438608-0.0075798,0.2763767-0.0227127,0.3975239-0.0340614c0.1249132-0.0151558,0.2347145-0.0302925,0.333148-0.0454483
	c0.0946436-0.0151367,0.1741304-0.0302696,0.2271366-0.0378494v-1.0107918L13.3296604,55.7050781z"/>
<path fill="#FFFFFF" d="M17.0585289,55.9094315c-0.3109188,0-0.5889359-0.0508347-0.8266544-0.1512108
	c-0.2384586-0.1001892-0.4443836-0.2447433-0.6118584-0.429409c-0.1637783-0.1807823-0.2879992-0.4002037-0.3693333-0.6519699
	c-0.0791168-0.2460365-0.1190443-0.5164757-0.1190443-0.8041039c0-0.0661774,0.0007391-0.1321678,0.0096121-0.1939087
	c0.0110912-0.2184944,0.0502796-0.4266357,0.1190443-0.6190681c0.0868797-0.2486267,0.2136879-0.4684143,0.3770971-0.65271
	c0.1667356-0.1889191,0.3689632-0.3351364,0.6007671-0.4345856c0.2299557-0.1027794,0.4928131-0.1554604,0.7789631-0.1554604
	c0.1929855,0,0.3571339,0.0147896,0.5131474,0.0452881c0.1730213,0.0286522,0.3360615,0.0744972,0.4939232,0.1393776
	l0.1537971,0.063221l-0.2458534,0.9188957l-0.2059231-0.098896c-0.0846615-0.0406685-0.1811543-0.0728302-0.28689-0.0951996
	c-0.1190434-0.025322-0.2373486-0.0375252-0.3619385-0.0375252c-0.2965031,0-0.5153656,0.0883598-0.6691628,0.2700691
	c-0.1563835,0.1846657-0.2355003,0.4710007-0.2355003,0.850502c0,0.1824493,0.0192242,0.3419762,0.0569344,0.474144
	c0.0362301,0.1371613,0.0905762,0.2471466,0.1678448,0.3399429c0.071722,0.089283,0.1667366,0.1582298,0.2843018,0.2077713
	c0.1238499,0.0508347,0.2750587,0.0759735,0.4602795,0.0759735c0.1519489,0,0.2909565-0.0136795,0.4129581-0.0408516
	c0.1186752-0.0297623,0.2173862-0.0608139,0.2887383-0.0913162l0.2221909-0.0951996l0.1456642,0.8887672l-0.1012993,0.0676537
	c-0.0532379,0.0356789-0.1242199,0.0658073-0.2103615,0.0894699c-0.0491695,0.0168228-0.1153469,0.0316086-0.1855907,0.0471382
	l-0.053606,0.0118294c-0.0998211,0.0175591-0.1977921,0.0295753-0.295763,0.0412216
	C17.2581692,55.9014816,17.1565018,55.9094315,17.0585289,55.9094315z"/>
<path fill="#3CC7F4" d="M17.0283527,52.0063858c0.1552067,0,0.3104343,0.0113449,0.465641,0.0416374
	c0.1589947,0.0264931,0.3104343,0.0681419,0.4580841,0.128727l-0.1438599,0.537571
	c-0.0946445-0.0454292-0.2044468-0.0832748-0.3293591-0.1097794c-0.1249371-0.0265045-0.2574291-0.0416603-0.401289-0.0416603
	c-0.3520737,0-0.6246605,0.1135902-0.8139477,0.336937c-0.1854992,0.2195816-0.2801428,0.5451508-0.2801428,0.9729309
	c0,0.1892891,0.0189238,0.3672409,0.0643511,0.5262375c0.0416393,0.1589966,0.1098022,0.2952766,0.2044468,0.4088669
	c0.0908546,0.1135712,0.2120018,0.2006226,0.3558617,0.2611961c0.1476269,0.060585,0.3217793,0.0908775,0.5337811,0.0908775
	c0.1665745,0,0.3180141-0.0151558,0.4542961-0.0454254c0.136282-0.0340843,0.2422943-0.0681648,0.3217793-0.1022224
	l0.0870667,0.5299911c-0.0340595,0.0227356-0.0870667,0.0454483-0.1552067,0.064373
	c-0.06814,0.0227127-0.1476498,0.0378494-0.2309265,0.0567627c-0.0870876,0.0151672-0.1817303,0.0265121-0.2763748,0.0378838
	c-0.0984097,0.0113449-0.1930542,0.0189209-0.2839317,0.0189209c-0.2876987,0-0.537571-0.0454254-0.7533627-0.1362801
	c-0.2157898-0.0908546-0.3975-0.2195816-0.5451498-0.3823662c-0.1476269-0.1627846-0.2574282-0.3596497-0.3293591-0.5829964
	c-0.0719299-0.2233696-0.1097784-0.4732208-0.1097784-0.7458191c0-0.0567856,0-0.1135559,0.0075788-0.1665611
	c0.0113449-0.2082138,0.0454273-0.4013023,0.1097784-0.5830002c0.0795097-0.2271576,0.1930771-0.4240036,0.3407278-0.5905762
	c0.143837-0.1627846,0.3217802-0.2952995,0.533782-0.3861542c0.2120018-0.0946465,0.4467163-0.1400719,0.7041454-0.1400719
	H17.0283527 M17.0283527,51.6278114h-0.0113678c-0.3125725,0-0.6014042,0.0581818-0.8584747,0.1729507
	c-0.252368,0.1081009-0.4772396,0.2707596-0.6631536,0.4811783c-0.1793404,0.2023201-0.3188915,0.4434242-0.4143448,0.7161713
	c-0.072381,0.2043533-0.1149654,0.4248924-0.1296272,0.6725502c-0.0089884,0.0728874-0.0089884,0.1412354-0.0089884,0.2020874
	c0,0.308136,0.0430708,0.5981102,0.1279984,0.8618584c0.0894566,0.2777863,0.2271709,0.5204506,0.4092731,0.7212677
	c0.1861916,0.2052765,0.4145288,0.3657379,0.6786823,0.476963c0.2615414,0.1101112,0.5644321,0.1659508,0.9002724,0.1659508
	c0.09655,0,0.200552-0.0068169,0.32728-0.0214195c0.1041164-0.0125008,0.2050228-0.0248184,0.2979336-0.0409927l0.0095425-0.0016632
	l0.009428-0.0021362l0.0532131-0.0118065c0.0729485-0.0159798,0.1420822-0.0318871,0.2040539-0.0518761
	c0.1016674-0.0289879,0.1874847-0.0665817,0.255188-0.1117783l0.202919-0.1354713l-0.0395565-0.2407455l-0.0870667-0.5299911
	l-0.0783539-0.4770126l-0.444313,0.1903992c-0.0429325,0.0183907-0.123642,0.0477028-0.2645226,0.0829277
	c-0.0990562,0.0218697-0.2242813,0.0341301-0.3624477,0.0341301c-0.1599426,0-0.2875252-0.020462-0.3900585-0.0625381
	c-0.0849972-0.0358047-0.154686-0.0858536-0.2039719-0.1474533c-0.063982-0.0769119-0.1062088-0.1627617-0.1338444-0.2682877
	c-0.0352383-0.1237144-0.0519905-0.2657738-0.0519905-0.4303246c0-0.3289528,0.065958-0.5809059,0.1907558-0.7286263
	c0.1154518-0.1362343,0.2872238-0.2026672,0.5247593-0.2026672c0.1111412,0,0.2167149,0.0109291,0.3227272,0.0334129
	c0.0902309,0.0191536,0.1723728,0.0463181,0.2440968,0.0807457l0.4115238,0.197525l0.1180058-0.4409523l0.1438599-0.5375824
	l0.0860958-0.3216896l-0.3081017-0.1264153c-0.1711731-0.0702286-0.3476601-0.1199188-0.539547-0.1519012
	C17.3987827,51.6437187,17.2227478,51.6278114,17.0283527,51.6278114z"/>
<path fill="#FFFFFF" d="M19.9684601,53.6888123c0.1360512,0.1046257,0.2802353,0.2340202,0.4325523,0.3883705
	c0.152319,0.1545372,0.3020477,0.3214569,0.4495602,0.5009499c0.1478806,0.1794891,0.2872581,0.3610115,0.4192429,0.5451241
	c0.1316147,0.1839294,0.2428951,0.3554688,0.3338413,0.5144424h-0.742733
	c-0.0953827-0.1589737-0.205555-0.32127-0.3305149-0.4872665c-0.1249599-0.1658134-0.2554646-0.3247871-0.3918839-0.4769173
	c-0.1360512-0.1521339-0.2746906-0.2918816-0.4155464-0.4190598c-0.1408577-0.1271782-0.2750587-0.2340202-0.4022369-0.3203468
	v1.7035904h-0.6336708v-5.1789818l0.6336708-0.1088791v3.2299118c0.1090622-0.1090622,0.2295856-0.2294006,0.3612003-0.3612022
	c0.1319828-0.1316147,0.2613792-0.2656288,0.3885574-0.40205c0.1271782-0.1362381,0.2476997-0.2667427,0.3611984-0.3917007
	c0.1134987-0.1249619,0.2111015-0.2351303,0.2928047-0.330513h0.743103
	c-0.1046257,0.1134987-0.2181244,0.2384567-0.3408661,0.374691c-0.1227417,0.1364212-0.249918,0.2737656-0.3815327,0.4124031
	c-0.1319847,0.1384544-0.2647076,0.277092-0.3985405,0.4155464C20.2124653,53.4355659,20.0863953,53.5660706,19.9684601,53.6888123z
	"/>
<path fill="#FFFFFF" d="M25.0655537,55.5354767c-0.1456623,0.0364151-0.3375378,0.0750504-0.5759964,0.1159019
	s-0.5142574,0.0613708-0.8277645,0.0613708c-0.2728405,0-0.5020561-0.0399284-0.6883869-0.1194153
	c-0.1863308-0.0792999-0.3360596-0.1918755-0.4495583-0.3371696c-0.1138687-0.1454773-0.1955738-0.3170204-0.2454834-0.5146255
	s-0.0750504-0.4166527-0.0750504-0.6575165v-1.9897385h0.6336708v1.8535042c0,0.4316292,0.0683956,0.7405128,0.2044468,0.9266586
	c0.1364193,0.1863327,0.3656368,0.2794952,0.6883869,0.2794952c0.0680256,0,0.1386375-0.0022163,0.2110996-0.0068398
	c0.0728321-0.0044365,0.1408577-0.0103493,0.2044468-0.0170059c0.0635872-0.0068398,0.1216316-0.0136795,0.1737595-0.0205193
	s0.089838-0.0146027,0.1123905-0.0238457v-2.9914474h0.6340389V55.5354767z"/>
<path fill="#FFFFFF" d="M29.2768402,53.8727379c0,0.268219-0.0354919,0.5157356-0.1057358,0.742733
	c-0.070612,0.2273674-0.1737595,0.4225693-0.3101807,0.5861626c-0.1360512,0.1634102-0.3031559,0.2907715-0.5005779,0.3815346
	c-0.1977901,0.0907631-0.4236794,0.1362343-0.6780338,0.1362343c-0.2044468,0-0.385231-0.0271721-0.5419846-0.0817032
	c-0.1567554-0.0545311-0.2735806-0.1066589-0.3508492-0.1567535v1.4174423h-0.6336708v-4.6950417
	c0.1497307-0.0364189,0.3371696-0.0761604,0.5619488-0.1194153c0.2251492-0.0430717,0.4850502-0.0646973,0.7804432-0.0646973
	c0.2724705,0,0.5179539,0.0432549,0.7360783,0.1295815c0.2177544,0.0863228,0.4040852,0.2088814,0.5586205,0.3678513
	c0.1545372,0.1591568,0.2735806,0.3532524,0.3578739,0.582653C29.2346935,53.3287201,29.2768402,53.586586,29.2768402,53.8727379z
	 M28.6158104,53.8727379c0-0.4133263-0.1024075-0.7312737-0.3068752-0.9540176
	c-0.2044239-0.2225609-0.4768944-0.3338432-0.8177605-0.3338432c-0.1907673,0-0.3393879,0.0068398-0.4462318,0.0205193
	c-0.1068439,0.0134926-0.1918755,0.0295753-0.2554646,0.0476913v2.2350388
	c0.0772686,0.063591,0.188549,0.1249619,0.3338432,0.1839294c0.1452923,0.0591507,0.3042641,0.088726,0.4769154,0.088726
	c0.1818943,0,0.3375397-0.0329018,0.4669361-0.098896c0.1293945-0.0658073,0.2351303-0.1567535,0.3168335-0.2726555
	c0.0817051-0.115715,0.1408577-0.2521362,0.1770878-0.4087067C28.5976963,54.2237701,28.6158104,54.0544472,28.6158104,53.8727379z"
	/>
<path fill="#FFFFFF" d="M20.7716408,65.1361084c0.018116,0.0090561,0.0487995,0.0203323,0.0918713,0.0340118
	c0.0432549,0.0136795,0.0909462,0.026062,0.143259,0.0375214c0.0521278,0.0112762,0.1055508,0.0203323,0.1600819,0.0271759
	c0.0545311,0.0068359,0.1066589,0.0101624,0.1567535,0.0101624c0.1861458,0,0.3530674-0.0227356,0.5007629-0.0680237
	c0.1476955-0.0454712,0.2804203-0.1158981,0.3987236-0.2112808c0.1181202-0.0953827,0.2258892-0.2170181,0.3236752-0.3645325
	c0.0976028-0.1476974,0.1918755-0.3236694,0.2828236-0.5281143c0.2316189-0.5360718,0.44734-1.1118851,0.6473503-1.7274399
	c0.1998234-0.6155548,0.3815327-1.2573586,0.545126-1.925045H23.367878
	c-0.1136837,0.4952202-0.2340202,0.976757-0.3611984,1.4446144c-0.1271782,0.4678612-0.277092,0.9403419-0.4497433,1.4174423
	c-0.1090622-0.2318039-0.2135048-0.4724808-0.313509-0.7224007c-0.1000042-0.249733-0.1931686-0.4996529-0.2793102-0.7495728
	c-0.0863266-0.249733-0.1647034-0.4928131-0.2351303-0.7290535c-0.0704288-0.2362404-0.1306915-0.4565811-0.1806011-0.6610298
	h-0.6813622c0.1635933,0.6268349,0.3689632,1.2458992,0.6166649,1.8568344
	c0.2475166,0.6111183,0.5144405,1.1891479,0.8007755,1.7342796c-0.1136837,0.249733-0.24086,0.4303284-0.3817177,0.5417938
	c-0.1408558,0.1112823-0.3362446,0.1669235-0.5859795,0.1669235c-0.0772667,0-0.1556435-0.01017-0.2351303-0.0306854
	s-0.1441841-0.0421448-0.1942787-0.0646973L20.7716408,65.1361084z M17.9709568,61.8514786
	c0.0134945-0.1225548,0.0419617-0.2428932,0.0850315-0.3611984c0.0432549-0.1179352,0.1033325-0.222374,0.1805992-0.313324
	c0.0772686-0.0909462,0.1715431-0.1646996,0.2828236-0.2214508c0.1112804-0.0567474,0.2395668-0.0852165,0.3850441-0.0852165
	c0.2589779,0,0.4621296,0.0918732,0.6098251,0.2759819c0.1476974,0.1839294,0.2192345,0.4190598,0.214798,0.7052078H17.9709568z
	 M17.4017982,62.9384079c0.0704288,0.2247772,0.1783829,0.4190559,0.3236752,0.5826492
	c0.1454792,0.1635933,0.3305149,0.2918816,0.555479,0.3850479c0.2247791,0.0929794,0.4917049,0.1395645,0.8005905,0.1395645
	c0.2454834,0,0.4645329-0.0227356,0.6577015-0.0680275c0.1929855-0.045475,0.3281116-0.0887299,0.4053802-0.1295815
	l-0.0885448-0.5314484c-0.0772667,0.0364151-0.1920605,0.0739403-0.3441925,0.1123886
	c-0.152132,0.0386353-0.3395729,0.0580444-0.5621338,0.0580444c-0.3952122,0-0.6859837-0.0955658-0.8723145-0.286335
	c-0.1863289-0.1907654-0.2929878-0.4700775-0.3201618-0.8381157h2.425806
	c0.0046215-0.036232,0.0068398-0.0759735,0.0068398-0.1192284c0-0.0430717,0-0.0783768,0-0.1057358
	c0-0.6087151-0.1271782-1.0617867-0.3815346-1.3593979c-0.2545395-0.2974243-0.6201763-0.4464149-1.0970936-0.4464149
	c-0.2044449,0-0.4044552,0.0388184-0.5996571,0.1159019c-0.1953888,0.0772667-0.3680401,0.1931686-0.5179539,0.3475189
	c-0.1499157,0.1545372-0.2702522,0.3488159-0.3612003,0.582653c-0.0909462,0.2340202-0.1362343,0.5076027-0.1362343,0.8211098
	C17.2962494,62.4672203,17.3313694,62.7134438,17.4017982,62.9384079z M15.7732573,61.623188
	c0.1338329-0.1384544,0.2667418-0.277092,0.3985395-0.4155464c0.1317997-0.1386375,0.2589779-0.2759819,0.3815346-0.4124031
	c0.1227398-0.1362343,0.2362385-0.2611961,0.3408661-0.3746948h-0.742918
	c-0.0817051,0.0953865-0.179491,0.205555-0.2929907,0.3305168c-0.1134987,0.124958-0.2340212,0.2554626-0.3610144,0.3917007
	c-0.1273623,0.1364174-0.2567587,0.2704353-0.3885574,0.40205c-0.1317997,0.1318016-0.2521381,0.2521362-0.3612003,0.3612022
	v-3.2299118l-0.6336708,0.1088791v5.1789818h0.6336708v-1.7035904c0.1271782,0.0863266,0.2611952,0.1931686,0.4020519,0.3203468
	s0.2794952,0.2669258,0.4157314,0.4190598c0.1362352,0.1521301,0.2669249,0.3111038,0.3918848,0.4769173
	c0.124774,0.1659966,0.2351313,0.3282928,0.330514,0.4872665h0.742733c-0.0909462-0.1589737-0.2022266-0.330513-0.3338413-0.5144424
	c-0.1319847-0.1841125-0.2715473-0.3656349-0.4192429-0.5451241c-0.1475124-0.179493-0.2974262-0.3464127-0.4497433-0.5009499
	c-0.152133-0.1543503-0.2963171-0.2837448-0.4325523-0.3883705C15.5129871,61.892334,15.6390553,61.7618256,15.7732573,61.623188z"
	/>
</svg>
