<?xml version="1.0" encoding="utf-8"?>
<!-- Generator: Adobe Illustrator 21.0.0, SVG Export Plug-In . SVG Version: 6.00 Build 0)  -->
<svg version="1.1" id="Layer_1" xmlns="http://www.w3.org/2000/svg" xmlns:xlink="http://www.w3.org/1999/xlink" x="0px" y="0px"
	 viewBox="0 0 850.4 327.8" style="enable-background:new 0 0 850.4 327.8;" xml:space="preserve">
<style type="text/css">
	.st0{fill:#B28C72;}
	.st1{fill:#FFFFFF;}
	.st2{fill:#606060;}
	.st3{fill:#DBDBDB;}
	.st4{fill:#67544C;}
	.st5{fill:#7D695B;}
</style>
<g>
	<path class="st0" d="M580.4,292.3V32.8c0-19.1-13.7-32.8-37.6-32.8H92.2C68.3,0,54.6,13.7,54.6,32.8v259.5L0,314.1
		c0,8.9,24.6,13.7,34.1,13.7h566.7c10.3,0,34.1-4.8,34.1-13.7L580.4,292.3z M341.4,320.9h-47.8c-11.6,0-20.5-2.7-20.5-6.8h88.8
		C361.9,318.2,353,320.9,341.4,320.9z M546.3,286.8H88.8V27.3h457.5V286.8z"/>
	<rect x="88.8" y="27.3" class="st1" width="457.5" height="259.5"/>
</g>
<g id="Nexus_10_1_">
	<path class="st2" d="M726.6,18.9H426.2c-34.1,0-54.6,18.4-54.6,41v198c0,22.5,13.7,41,54.6,41h300.4c41,0,54.6-18.4,54.6-41v-198
		C781.2,37.3,760.8,18.9,726.6,18.9z M747.1,264.7H405.7V53h341.4V264.7z"/>
	<rect x="405.7" y="53" class="st1" width="341.4" height="211.7"/>
</g>
<g>
	<path class="st0" d="M833.9,80.3H718.4c-8.8,0-16.5,7.7-16.5,16.5v214.4c0,8.8,7.7,16.5,16.5,16.5h115.5c8.8,0,16.5-7.7,16.5-16.5
		V96.8C850.4,88,842.7,80.3,833.9,80.3z M833.9,300.3H718.4v-198h115.5V300.3z"/>
	<rect x="718.4" y="102.3" class="st1" width="115.5" height="198"/>
</g>
<g>
	<path class="st3" d="M362.4,123.6c0,34.2-5.8,70.3-45,89.6c-19.7-9.6-31-23.5-37.3-39.1s-7.6-33.3-7.6-50.4
		c2.4-1.6,4.5-3.7,6.3-5.9c1.8-2.3,3.3-4.9,4.4-7.6l31.8-5.4c1.6-0.3,3.3-0.3,5,0l31.8,5.4C353.9,115.5,357.6,120.4,362.4,123.6
		L362.4,123.6z"/>
	<path class="st4" d="M360,123.6c-4.5-3-8-7.5-10.1-12.5l-30.2-4.9c-1.6-0.3-3.2-0.3-4.7,0l-30.2,4.9c-1,2.5-2.4,4.9-4.1,7
		c-1.7,2.1-3.7,4-6,5.5c0,15.8,1.3,31.9,7.3,46.4c6,14.4,16.6,27.2,35.3,36C354.6,188.3,360.1,155.1,360,123.6L360,123.6z"/>
	<path class="st5" d="M353.9,117.8c-42.6,10.2-51.3,42.8-55.2,76c-7.7-7-13-15.1-16.6-23.8c-6-14.4-7.3-30.6-7.3-46.4
		c2.3-1.5,4.3-3.4,6-5.5c1.7-2.1,3.1-4.5,4.1-7l30.2-4.9c1.6-0.3,3.2-0.3,4.7,0l30.2,4.9C351,113.5,352.3,115.8,353.9,117.8z"/>
</g>
<g>
	<path class="st3" d="M616.3,134c0,30.3-5.2,62.3-39.9,79.4c-17.5-8.5-27.5-20.8-33.1-34.7c-5.6-13.9-6.8-29.5-6.8-44.7
		c2.1-1.5,4-3.2,5.6-5.3c1.6-2,2.9-4.3,3.9-6.8l28.2-4.8c1.5-0.2,3-0.2,4.4,0l28.2,4.8C608.7,126.8,612.1,131.1,616.3,134L616.3,134
		z"/>
	<path class="st4" d="M614.2,133.9c-4-2.7-7.1-6.6-8.9-11.1l-26.8-4.4c-1.4-0.2-2.8-0.2-4.2,0l-26.8,4.4c-0.9,2.3-2.1,4.4-3.7,6.2
		c-1.5,1.9-3.3,3.5-5.3,4.9c0,14,1.1,28.3,6.4,41.2c5.3,12.8,14.7,24.1,31.4,32C609.4,191.3,614.3,161.9,614.2,133.9L614.2,133.9z"
		/>
	<path class="st5" d="M608.8,128.8c-37.8,9.1-45.5,38-49,67.4c-6.9-6.2-11.6-13.4-14.8-21.1c-5.3-12.8-6.4-27.2-6.4-41.2
		c2-1.3,3.8-3,5.3-4.9c1.5-1.9,2.8-4,3.7-6.2l26.8-4.4c1.4-0.2,2.8-0.2,4.2,0l26.8,4.4C606.2,125,607.3,127,608.8,128.8z"/>
</g>
<g>
	<path class="st3" d="M810.5,174.3c0,26-4.4,53.5-34.3,68.2c-15-7.3-23.6-17.9-28.4-29.8c-4.8-12-5.8-25.3-5.8-38.4
		c1.8-1.3,3.5-2.8,4.8-4.5c1.4-1.7,2.5-3.7,3.3-5.8l24.2-4.1c1.3-0.2,2.5-0.2,3.8,0l24.2,4.1C804,168.1,806.8,171.8,810.5,174.3
		L810.5,174.3z"/>
	<path class="st4" d="M808.7,174.2c-3.4-2.3-6.1-5.7-7.7-9.5l-23-3.8c-1.2-0.2-2.4-0.2-3.6,0l-23,3.8c-0.8,1.9-1.8,3.7-3.1,5.3
		c-1.3,1.6-2.8,3-4.6,4.2c0,12,1,24.3,5.5,35.3c4.5,11,12.7,20.7,26.9,27.4C804.5,223.5,808.7,198.2,808.7,174.2L808.7,174.2z"/>
	<path class="st5" d="M804,169.9c-32.4,7.8-39,32.6-42,57.8c-5.9-5.3-9.9-11.5-12.7-18.1c-4.5-11-5.5-23.3-5.5-35.3
		c1.7-1.2,3.3-2.6,4.6-4.2c1.3-1.6,2.4-3.4,3.1-5.3l23-3.8c1.2-0.2,2.4-0.2,3.6,0l23,3.8C801.8,166.6,802.8,168.3,804,169.9z"/>
</g>
</svg>
