<?xml version="1.0" encoding="utf-8"?>
<!-- Generator: Adobe Illustrator 21.0.0, SVG Export Plug-In . SVG Version: 6.00 Build 0)  -->
<svg version="1.1" id="Layer_1" xmlns="http://www.w3.org/2000/svg" xmlns:xlink="http://www.w3.org/1999/xlink" x="0px" y="0px"
	 viewBox="0 0 283.5 283.5" style="enable-background:new 0 0 283.5 283.5;" xml:space="preserve">
<style type="text/css">
	.st0{fill:#3CC7F4;}
	.st1{fill:#EDEDED;}
	.st2{fill:#96764D;}
	.st3{fill:#8566AC;}
	.st4{fill:#FFFFFF;}
	.st5{fill:#737474;}
	.st6{fill:#F2F2F2;}
	.st7{fill:#E8E7E7;}
	.st8{fill:#B7A9A4;}
	.st9{fill:#67544C;}
	.st10{fill:#7D685A;}
	.st11{fill:#9A8172;}
</style>
<path class="st0" d="M182.6,244.5c0,21.5-17.4,38.9-38.9,38.9s-38.9-17.4-38.9-38.9c0-11.4,25.5-5.7,39.7,0
	C159.2,250.4,182.6,254.8,182.6,244.5z"/>
<path class="st0" d="M281.7,244.5c0,21.5-17.4,38.9-38.9,38.9s-38.9-17.4-38.9-38.9c0-11.4,25.5-5.7,39.7,0
	C258.2,250.4,281.7,254.8,281.7,244.5z"/>
<path class="st1" d="M281.7,244.4c0,10.3-23.5,5.9-38.1,0c-14.2-5.7-39.7-11.4-39.7,0c0-21.5,17.4-38.9,38.9-38.9
	C264.2,205.5,281.7,222.9,281.7,244.4z"/>
<path class="st2" d="M113.3,63.3c-5.4-6.7-8.6-15.2-8.6-24.4c0-21.5,17.4-38.9,38.9-38.9c9.3,0,17.7,3.2,24.4,8.6"/>
<path class="st2" d="M173.9,14.5c5.4,6.7,8.6,15.2,8.6,24.4c0,21.5-17.4,38.9-38.9,38.9c-9.2,0-17.7-3.2-24.4-8.6"/>
<path class="st1" d="M182.6,244.4c0,10.3-23.5,5.9-38.1,0c-14.2-5.7-39.7-11.4-39.7,0c0-21.5,17.4-38.9,38.9-38.9
	C165.2,205.5,182.6,222.9,182.6,244.4z"/>
<path class="st0" d="M79.6,244.5c0,21.5-17.4,38.9-38.9,38.9S1.8,266,1.8,244.5c0-11.4,25.5-5.7,39.7,0
	C56.2,250.4,79.6,254.8,79.6,244.5z"/>
<path class="st1" d="M79.6,244.5c0,10.3-23.5,5.9-38.1,0c-14.2-5.7-39.7-11.4-39.7,0c0-21.5,17.4-38.9,38.9-38.9
	S79.6,223,79.6,244.5z"/>
<circle class="st0" cx="142.9" cy="138.4" r="22.4"/>
<polyline class="st0" points="140.9,171.2 140.9,190.7 143.4,190.7 143.4,171.2 "/>
<path class="st3" d="M137.9,132.9c-0.1-1-0.4-1.9-1-2.8c-0.3-0.5-1-1.2-1.5-1.5c-1.7-1.1-3.8-1.3-5.6-0.5c-0.8,0.4-1.6,1-2.2,1.7
	c-0.8,1-1.2,2.2-1.2,3.5c0,1.2,0.3,2.2,1,3.2c0.2,0.3,0.3,0.4,0.7,0.8c0.5,0.5,0.9,0.8,1.4,1.1l0.3,0.2h4.6l0.2-0.1
	c0.2-0.1,0.6-0.3,0.9-0.5c0.4-0.3,1.1-1,1.4-1.4C137.7,135.5,138,134.2,137.9,132.9z M133.7,132.6c-0.4,0.7-1.3,1-2,0.7
	c-1.3-0.5-1.6-2.2-0.4-3c0.3-0.2,0.7-0.3,1-0.3C133.6,130.1,134.3,131.5,133.7,132.6z"/>
<path class="st4" d="M137.9,132.9h0.4c-0.1-1.1-0.4-2.1-1-3l0,0c-0.4-0.6-1.1-1.2-1.6-1.6l0,0c-1.1-0.7-2.3-1.1-3.5-1.1
	c-0.8,0-1.7,0.2-2.5,0.5l0,0c-0.9,0.4-1.7,1-2.3,1.8l0,0c-0.8,1.1-1.3,2.4-1.3,3.8l0,0l0,0c0,1.2,0.4,2.4,1.1,3.5l0,0l0,0
	c0.2,0.3,0.4,0.5,0.7,0.9l0,0c0.5,0.5,0.9,0.8,1.6,1.1l0.3,0.2h0.1h4.8l0.2-0.1l0,0c0.3-0.1,0.6-0.3,0.9-0.5l0,0
	c0.5-0.3,1.2-1,1.5-1.6l0,0l0,0c0.7-1,1.1-2.2,1.1-3.4c0-0.2,0-0.3,0-0.5l0,0L137.9,132.9h-0.4c0,0.1,0,0.3,0,0.4c0,1-0.3,2.1-0.9,3
	l0,0c-0.3,0.4-1,1.1-1.3,1.3l0,0c-0.3,0.2-0.6,0.4-0.8,0.5h-0.1H130l-0.2-0.1c-0.6-0.3-0.8-0.5-1.3-1l0,0c-0.4-0.4-0.5-0.5-0.6-0.7
	l0,0c-0.6-0.9-0.9-1.9-0.9-3l0,0l0,0l0,0c0-1.2,0.4-2.4,1.1-3.3l0,0l0,0c0.5-0.7,1.3-1.2,2-1.6l0,0c0.7-0.3,1.4-0.5,2.2-0.5
	c1,0,2.1,0.3,3,0.9l0,0l0,0c0.4,0.3,1.1,1,1.4,1.4l0,0c0.5,0.8,0.8,1.6,0.9,2.6l0,0L137.9,132.9z M133.7,132.6l-0.4-0.2
	c-0.2,0.4-0.7,0.6-1.1,0.6c-0.1,0-0.3,0-0.4-0.1l0,0c-0.6-0.2-0.9-0.7-0.9-1.2c0-0.4,0.2-0.8,0.6-1.1l0,0l0,0
	c0.2-0.1,0.5-0.2,0.7-0.2l0,0l0,0l0,0c0.8,0,1.3,0.6,1.3,1.3c0,0.2-0.1,0.5-0.2,0.7l0,0L133.7,132.6l0.4,0.2
	c0.2-0.4,0.3-0.7,0.3-1.1c0-1.1-0.9-2.1-2.1-2.1l0,0h-0.1c-0.4,0-0.8,0.1-1.2,0.4l0,0c-0.6,0.4-0.9,1.1-0.9,1.8c0,0.9,0.5,1.7,1.5,2
	l0,0c0.2,0.1,0.4,0.1,0.7,0.1c0.7,0,1.4-0.4,1.8-1l0,0L133.7,132.6z"/>
<path class="st3" d="M136,145.7v0.2c0,0.1-0.1,0.2-0.8,0.9l-0.7,0.8v0.8c0,0.6,0,0.8-0.1,0.9c0,0.1-0.5,0.5-1,1l-0.9,0.9h-0.2
	c-0.3,0-0.3,0-1.3-1c-0.6-0.6-1-1-1-1c0-0.1,0-2.3,0-5.2v-5.1h4.6v1.9l0.7,0.8c0.7,0.7,0.7,0.8,0.8,0.9v0.2c0,0.1-0.1,0.2-0.7,0.8
	l-0.7,0.7l0.7,0.7C136,145.6,136,145.6,136,145.7z"/>
<path class="st4" d="M136,145.7h-0.4v0.2h0.4l-0.4-0.1l0,0l0,0l0,0l0,0l0,0h0.2l-0.1-0.1v0.1h0.2l-0.1-0.1l0,0
	c-0.1,0.1-0.3,0.3-0.6,0.7l-0.9,0.9v1l0,0c0,0.3,0,0.5,0,0.6v0.1h0.1h-0.1l0,0h0.1h-0.1l0.2,0.1l-0.2-0.1l0,0l0.2,0.1l-0.2-0.1
	l0.3,0.2l-0.3-0.2l0.2,0.2l-0.2-0.2l0,0l0.2,0.2l-0.2-0.2l0,0c-0.1,0.1-0.5,0.5-1,1l-0.8,0.8l0,0l0,0l0,0h-0.1v0.1v-0.1l0,0v0.1
	v-0.1v0.1v-0.1l0,0v0.1v-0.1c0,0-0.1-0.1-0.2-0.2c-0.2-0.1-0.4-0.4-0.7-0.7s-0.5-0.5-0.7-0.7c-0.1-0.1-0.1-0.2-0.2-0.2v-0.1l0,0
	l-0.2,0.2l0.2-0.1l0,0l-0.2,0.2l0.2-0.1l-0.4,0.2l0.4-0.2l-0.4,0.2l0.4-0.1v-0.1l-0.4,0.2l0.4-0.1h-0.2h0.2l0,0h-0.2h0.2
	c0,0,0-0.2,0-0.5c0-0.8,0-2.6,0-4.6v-4.7h3.7v1.7l0.9,0.9l0,0c0.4,0.4,0.5,0.6,0.6,0.7l0,0l0,0l0.1-0.1l-0.2,0.1l0,0l0.1-0.1
	l-0.2,0.1l0.2-0.1h-0.2l0,0l0.2-0.1h-0.2l0,0l0,0l0,0l0,0l0,0l0.4-0.1h-0.4v0.2h0.4l-0.4-0.1l0,0l0,0l0,0l0,0l0,0h0.2l-0.1-0.1v0.1
	h0.2l-0.1-0.1l0,0c0,0-0.2,0.2-0.6,0.6l-1,1l1,1l0,0c0.3,0.3,0.5,0.5,0.6,0.6l0,0l0,0l0.1-0.1h-0.1l0,0l0.1-0.1h-0.1l0.2-0.1h-0.2
	l0,0l0.2-0.1h-0.2h0.1h-0.1l0,0h0.1h-0.1L136,145.7h-0.4H136l0.4-0.1c0,0,0-0.1-0.1-0.2c-0.1-0.1-0.1-0.2-0.2-0.3
	c-0.1-0.1-0.3-0.3-0.5-0.5l0,0l-0.4-0.4l0.4-0.4l0,0c0.3-0.3,0.5-0.5,0.6-0.6s0.1-0.1,0.1-0.2c0-0.1,0.1-0.2,0.1-0.2l0,0v-0.3l0,0
	l0,0c0,0,0-0.1-0.1-0.2c-0.1-0.1-0.1-0.2-0.3-0.3c-0.1-0.1-0.3-0.3-0.6-0.6l-0.6-0.6v-2.2h-5.4v5.5c0,1.4,0,2.7,0,3.7
	c0,0.5,0,0.8,0,1.1c0,0.1,0,0.2,0,0.3v0.1l0,0l0,0v0.1l0,0l0,0l0.1,0.1c0.1,0.1,0.2,0.2,0.3,0.4c0.2,0.2,0.4,0.4,0.6,0.7
	c0.4,0.4,0.7,0.7,0.9,0.9c0.1,0.1,0.2,0.1,0.3,0.2c0.1,0.1,0.2,0.1,0.3,0.1h0.2l-0.1-0.4v0.4h0.2h0.1l1-1l0,0
	c0.3-0.3,0.5-0.5,0.7-0.7c0.1-0.1,0.2-0.2,0.2-0.2l0.1-0.1l0.1-0.1l0,0l0,0c0.1-0.2,0.1-0.3,0.1-0.4c0-0.2,0-0.4,0-0.7l0,0V148
	l0.6-0.6l0,0c0.4-0.4,0.5-0.5,0.7-0.7c0.1-0.1,0.1-0.1,0.1-0.2c0-0.1,0.1-0.2,0.1-0.2l0,0V146l0,0l0,0L136,145.7z"/>
<path class="st4" d="M154.1,143.4c-0.4-0.1-0.7-0.2-0.9-0.3l-0.3,1.3c0.1,0,0.2,0.1,0.4,0.2c0.2,0.1,0.4,0.1,0.7,0.2
	c0.3,0.1,0.5,0.1,0.8,0.2c0.3,0,0.6,0.1,0.8,0.1c0.7,0,1.3-0.1,1.8-0.3s0.9-0.4,1.3-0.7c0.3-0.3,0.6-0.6,0.8-1.1
	c0.2-0.4,0.2-0.8,0.2-1.3c0-0.4-0.1-0.7-0.2-1.1c-0.1-0.3-0.3-0.6-0.5-0.8s-0.4-0.4-0.7-0.6c-0.3-0.2-0.5-0.3-0.8-0.4
	c0.5-0.2,0.9-0.5,1.2-0.9s0.5-0.9,0.5-1.5c0-0.4-0.1-0.8-0.2-1.1c-0.1-0.4-0.3-0.7-0.6-0.9c-0.3-0.3-0.6-0.5-1-0.6s-0.9-0.2-1.5-0.2
	c-0.3,0-0.6,0-0.9,0.1c-0.3,0.1-0.5,0.1-0.8,0.2c-0.2,0.1-0.5,0.2-0.7,0.3s-0.4,0.2-0.5,0.3l0.6,1.1c0.2-0.2,0.5-0.3,0.9-0.5
	c0.4-0.1,0.8-0.2,1.3-0.2c0.3,0,0.5,0,0.7,0.1s0.4,0.2,0.6,0.3c0.2,0.1,0.3,0.3,0.4,0.5c0.1,0.2,0.2,0.5,0.2,0.8
	c0,0.4-0.1,0.7-0.2,0.9c-0.1,0.2-0.3,0.4-0.6,0.6c-0.2,0.1-0.5,0.2-0.8,0.3s-0.6,0.1-0.8,0.1h-0.5v1.2h0.4c0.4,0,0.8,0,1.1,0.1
	c0.4,0.1,0.7,0.2,1,0.3c0.3,0.2,0.5,0.4,0.7,0.7s0.3,0.6,0.3,1c0,0.6-0.2,1.1-0.6,1.5s-1.1,0.6-2,0.6
	C155,143.6,154.5,143.6,154.1,143.4z M148.1,144.7c-0.4-0.7-0.8-1.5-1.4-2.2c-0.5-0.8-1.1-1.5-1.6-2.2l2.7-3.8h-1.6l-2,2.9l-2-2.9
	h-1.7l2.7,3.9c-0.5,0.7-1,1.4-1.5,2.1c-0.5,0.7-1,1.5-1.3,2.2h1.5c0.1-0.2,0.3-0.5,0.4-0.8c0.2-0.3,0.4-0.6,0.5-0.9
	c0.2-0.3,0.4-0.6,0.6-0.9c0.2-0.3,0.4-0.6,0.6-0.8c0.2,0.3,0.4,0.5,0.6,0.8c0.2,0.3,0.4,0.6,0.6,0.9c0.2,0.3,0.4,0.6,0.6,0.9
	c0.2,0.3,0.3,0.5,0.4,0.8H148.1z"/>
<path class="st5" d="M154.6,221.6h-1.4v6.6c0,0-0.1,0-0.2,0.1c-0.1,0-0.2,0-0.4,0c-0.1,0-0.3,0-0.4,0c-0.2,0-0.3,0-0.5,0
	c-0.7,0-1.2-0.2-1.5-0.6c-0.3-0.4-0.4-1.1-0.4-2v-4.1h-1.4v4.4c0,0.5,0.1,1,0.2,1.4c0.1,0.4,0.3,0.8,0.5,1.1s0.6,0.6,1,0.7
	c0.4,0.2,0.9,0.3,1.5,0.3c0.7,0,1.3,0,1.8-0.1s0.9-0.2,1.3-0.3v-7.5H154.6z M144.4,227.6c-0.4,0.5-0.9,0.8-1.6,0.8
	c-0.7,0-1.2-0.3-1.6-0.8s-0.6-1.2-0.6-2.1c0-0.9,0.2-1.6,0.6-2.1c0.4-0.5,0.9-0.8,1.6-0.8c0.7,0,1.2,0.3,1.6,0.8
	c0.4,0.5,0.6,1.2,0.6,2.1C145,226.4,144.8,227.1,144.4,227.6z M146.2,223.8c-0.2-0.5-0.4-0.9-0.8-1.3c-0.3-0.4-0.7-0.6-1.2-0.8
	c-0.4-0.2-0.9-0.3-1.5-0.3c-0.5,0-1,0.1-1.5,0.3c-0.4,0.2-0.8,0.5-1.2,0.8c-0.3,0.4-0.6,0.8-0.8,1.3s-0.3,1.1-0.3,1.7
	c0,0.6,0.1,1.2,0.3,1.7s0.4,0.9,0.8,1.3c0.3,0.4,0.7,0.6,1.2,0.8c0.4,0.2,0.9,0.3,1.5,0.3c0.5,0,1-0.1,1.5-0.3
	c0.4-0.2,0.8-0.5,1.2-0.8c0.3-0.4,0.6-0.8,0.8-1.3s0.3-1.1,0.3-1.7C146.5,224.9,146.4,224.3,146.2,223.8z M131,232
	c0,0,0.1,0,0.2,0.1c0.1,0,0.2,0.1,0.3,0.1s0.2,0,0.4,0.1c0.1,0,0.2,0,0.3,0c0.4,0,0.8,0,1.1-0.1s0.6-0.3,0.9-0.5
	c0.3-0.2,0.5-0.5,0.7-0.8s0.4-0.7,0.6-1.2c0.5-1.2,1-2.4,1.4-3.8c0.4-1.4,0.8-2.8,1.2-4.2h-1.4c-0.2,1.1-0.5,2.1-0.8,3.2
	c-0.3,1-0.6,2.1-1,3.1c-0.2-0.5-0.5-1-0.7-1.6c-0.2-0.5-0.4-1.1-0.6-1.6c-0.2-0.5-0.4-1.1-0.5-1.6c-0.2-0.5-0.3-1-0.4-1.5h-1.5
	c0.4,1.4,0.8,2.7,1.4,4.1c0.5,1.3,1.1,2.6,1.8,3.8c-0.2,0.5-0.5,0.9-0.8,1.2c-0.3,0.2-0.7,0.4-1.3,0.4c-0.2,0-0.3,0-0.5-0.1
	c-0.2,0-0.3-0.1-0.4-0.1L131,232z"/>
<path class="st4" d="M153.9,257.5c-4.3-1.4-6.1-3.1-6.1-3.1l-0.1,0.1c-1.3,1.2-2.7,1.9-4,1.9h-0.1c-1.3,0-2.7-0.7-4-1.9l-0.1-0.1
	c0,0-1.8,1.7-6.1,3.1c-6.3,2.4-4.4,12-4.4,12.1c0.2,1.1,0.3,1.4,0.4,1.5c6.4,2.8,22.1,2.8,28.5,0c0.1,0,0.2-0.4,0.4-1.5
	C158.3,269.5,160.2,259.9,153.9,257.5z"/>
<path class="st4" d="M150.4,246.6c0,0.2-0.1,0.5-0.2,0.7c-0.2,0.9-0.5,1.1-0.6,1.3c-0.8,3.5-3.2,6.6-5.9,6.6s-5.3-3-6-6.6
	c-0.1-0.2-0.4-0.4-0.6-1.3c-0.3-0.9-0.3-1.7-0.1-2v-0.1c0.3-0.3,0.3-0.3,0.3-0.3s-0.3-1.7-0.3-3.1c2.7,0.8,5.3,1.8,7.6,2.7
	C146.3,245.2,148.3,245.9,150.4,246.6z"/>
<polyline class="st0" points="111.7,168.9 80.3,200.3 82.1,202 113.4,170.7 "/>
<path class="st5" d="M58.1,219.9c-0.5,0.1-0.9,0.2-1.2,0.3v7.5h1.4v-6.5c0.1,0,0.2-0.1,0.5-0.1c0.3-0.1,0.5-0.1,0.8-0.1
	c0.4,0,0.7,0,1,0.1s0.4,0.1,0.5,0.1l0.2-1.2c-0.1,0-0.2,0-0.3-0.1c-0.1,0-0.3,0-0.4-0.1c-0.1,0-0.3,0-0.5-0.1c-0.2,0-0.3,0-0.4,0
	C59.1,219.8,58.6,219.8,58.1,219.9z M49.5,223.1c0-0.3,0.1-0.5,0.2-0.8c0.1-0.3,0.2-0.5,0.4-0.7s0.4-0.4,0.6-0.5
	c0.2-0.1,0.5-0.2,0.8-0.2c0.6,0,1,0.2,1.3,0.6c0.3,0.4,0.5,0.9,0.5,1.6L49.5,223.1L49.5,223.1z M48.3,225.5c0.2,0.5,0.4,0.9,0.7,1.3
	c0.3,0.4,0.7,0.6,1.2,0.8s1.1,0.3,1.8,0.3c0.5,0,1,0,1.4-0.1s0.7-0.2,0.9-0.3l-0.2-1.2c-0.2,0.1-0.4,0.2-0.8,0.2
	c-0.3,0.1-0.7,0.1-1.2,0.1c-0.9,0-1.5-0.2-1.9-0.6s-0.6-1-0.7-1.8h5.3c0-0.1,0-0.2,0-0.3s0-0.2,0-0.2c0-1.3-0.3-2.3-0.8-3
	c-0.6-0.7-1.4-1-2.4-1c-0.4,0-0.9,0.1-1.3,0.3c-0.4,0.2-0.8,0.4-1.1,0.8c-0.3,0.3-0.6,0.8-0.8,1.3s-0.3,1.1-0.3,1.8
	C48,224.4,48.1,225,48.3,225.5z M45.8,219.9c-0.1,0.5-0.3,1-0.4,1.6c-0.2,0.6-0.3,1.1-0.5,1.6s-0.4,1.1-0.6,1.6
	c-0.2,0.5-0.4,1-0.5,1.4c-0.2-0.4-0.3-0.9-0.5-1.4s-0.4-1-0.6-1.6c-0.2-0.5-0.4-1.1-0.5-1.6c-0.2-0.6-0.3-1.1-0.4-1.6h-1.5
	c0.4,1.5,0.8,2.9,1.4,4.2c0.5,1.3,1,2.5,1.5,3.6h1.3c0.5-1.1,1-2.3,1.5-3.6s1-2.7,1.4-4.2H45.8z M36.3,219.9
	c-0.5,0.1-0.9,0.2-1.2,0.3v7.5h1.4v-6.5c0.1,0,0.2-0.1,0.5-0.1c0.3-0.1,0.5-0.1,0.8-0.1c0.4,0,0.7,0,1,0.1s0.4,0.1,0.5,0.1l0.2-1.2
	c-0.1,0-0.2,0-0.3-0.1c-0.1,0-0.3,0-0.4-0.1c-0.1,0-0.3,0-0.5-0.1c-0.2,0-0.3,0-0.4,0C37.3,219.8,36.8,219.8,36.3,219.9z
	 M27.7,223.1c0-0.3,0.1-0.5,0.2-0.8s0.2-0.5,0.4-0.7c0.2-0.2,0.4-0.4,0.6-0.5s0.5-0.2,0.8-0.2c0.6,0,1,0.2,1.3,0.6
	c0.3,0.4,0.5,0.9,0.5,1.6L27.7,223.1L27.7,223.1z M26.5,225.5c0.2,0.5,0.4,0.9,0.7,1.3c0.3,0.4,0.7,0.6,1.2,0.8s1.1,0.3,1.8,0.3
	c0.5,0,1,0,1.4-0.1s0.7-0.2,0.9-0.3l-0.2-1.2c-0.2,0.1-0.4,0.2-0.8,0.2c-0.3,0.1-0.7,0.1-1.2,0.1c-0.9,0-1.5-0.2-1.9-0.6
	c-0.4-0.4-0.6-1-0.7-1.8H33c0-0.1,0-0.2,0-0.3s0-0.2,0-0.2c0-1.3-0.3-2.3-0.8-3c-0.6-0.7-1.4-1-2.4-1c-0.4,0-0.9,0.1-1.3,0.3
	s-0.8,0.4-1.1,0.8c-0.3,0.3-0.6,0.8-0.8,1.3c-0.2,0.5-0.3,1.1-0.3,1.8C26.2,224.4,26.3,225,26.5,225.5z M20.4,226.5
	c-0.3-0.1-0.6-0.2-0.8-0.3l-0.3,1.2c0.1,0.1,0.4,0.1,0.8,0.3c0.4,0.1,0.9,0.2,1.6,0.2c1,0,1.7-0.2,2.3-0.6c0.5-0.4,0.8-0.9,0.8-1.6
	c0-0.4-0.1-0.7-0.2-0.9c-0.1-0.3-0.3-0.5-0.5-0.7s-0.5-0.3-0.7-0.5c-0.3-0.1-0.6-0.3-1-0.4c-0.3-0.1-0.5-0.2-0.7-0.3
	s-0.4-0.2-0.5-0.3s-0.2-0.2-0.3-0.4c-0.1-0.1-0.1-0.3-0.1-0.4c0-0.3,0.1-0.6,0.4-0.7c0.3-0.2,0.6-0.2,1-0.2s0.8,0,1.2,0.1
	c0.3,0.1,0.6,0.2,0.7,0.2l0.3-1.2c-0.1,0-0.2-0.1-0.3-0.1c-0.1,0-0.3-0.1-0.5-0.1s-0.4-0.1-0.6-0.1s-0.4,0-0.7,0
	c-0.9,0-1.6,0.2-2.1,0.6c-0.5,0.4-0.8,1-0.8,1.6c0,0.3,0.1,0.6,0.2,0.9c0.1,0.2,0.3,0.4,0.5,0.6c0.2,0.2,0.4,0.3,0.7,0.4
	c0.3,0.1,0.6,0.2,0.9,0.4c0.6,0.2,1.1,0.5,1.3,0.7c0.3,0.2,0.4,0.5,0.4,0.8s-0.1,0.6-0.4,0.7c-0.3,0.1-0.7,0.2-1.3,0.2
	C21.2,226.7,20.8,226.6,20.4,226.5z"/>
<polyline class="st0" points="170.4,170.7 201.7,202 203.5,200.3 172.1,168.9 "/>
<path class="st3" d="M37.7,206c-0.6-0.3-1-0.6-1.6-1.1c-0.4-0.4-0.5-0.6-0.7-0.9c-0.7-1-1.1-2.2-1.1-3.5c0-1.4,0.5-2.7,1.3-3.8
	c0.6-0.8,1.4-1.4,2.3-1.8c0.8-0.4,1.6-0.5,2.5-0.5c1.2,0,2.4,0.4,3.5,1.1c0.5,0.3,1.3,1.1,1.6,1.6c0.6,0.9,1,1.9,1,3
	c0.1,1.3-0.3,2.7-1,3.9c-0.3,0.5-1.1,1.2-1.5,1.6c-0.3,0.2-0.7,0.4-0.9,0.5l-0.2,0.1h-4.8L37.7,206z M40.5,197.7
	c-0.2,0-0.5,0.1-0.7,0.2c-0.4,0.3-0.6,0.8-0.6,1.2c0.1,0.5,0.4,0.9,0.9,1.1c0.1,0,0.3,0.1,0.4,0.1c0.5,0,0.9-0.2,1.1-0.6
	c0.2-0.4,0.3-0.9,0-1.3C41.4,197.9,41,197.7,40.5,197.7v-0.4V197.7z"/>
<path class="st4" d="M40.5,194.9c1.1,0,2.3,0.3,3.2,1c0.5,0.3,1.2,1,1.5,1.5c0.6,0.9,0.9,1.8,1,2.8c0.1,1.2-0.2,2.6-1,3.6
	c-0.3,0.5-1,1.2-1.4,1.4c-0.3,0.2-0.6,0.4-0.9,0.5l-0.2,0.1h-4.6l-0.3-0.2c-0.6-0.3-0.9-0.5-1.4-1.1c-0.4-0.4-0.5-0.5-0.7-0.8
	c-0.7-1-1-2.1-1-3.2c0-1.3,0.4-2.6,1.2-3.5c0.6-0.7,1.4-1.3,2.2-1.7C38.9,195,39.7,194.9,40.5,194.9 M40.5,200.7
	c0.6,0,1.2-0.3,1.5-0.8c0.7-1.1-0.1-2.6-1.4-2.6l0,0c-0.3,0-0.7,0.1-0.9,0.3c-1.2,0.8-0.9,2.6,0.4,3
	C40.1,200.6,40.3,200.7,40.5,200.7 M40.5,194c-0.9,0-1.8,0.2-2.7,0.6c-0.9,0.4-1.8,1.1-2.5,1.9c-0.9,1.1-1.4,2.6-1.4,4
	c0,1.3,0.4,2.6,1.1,3.7c0.2,0.3,0.4,0.5,0.8,0.9c0.6,0.6,1,0.9,1.7,1.2l0.3,0.2l0.2,0.1h0.2h4.6H43l0.2-0.1l0.2-0.1
	c0.3-0.1,0.7-0.4,1-0.6c0.5-0.3,1.3-1.1,1.6-1.7c0.8-1.2,1.2-2.8,1.1-4.2c-0.1-1.2-0.5-2.2-1.1-3.2c-0.4-0.6-1.2-1.4-1.7-1.7
	C43.1,194.4,41.8,194,40.5,194z M40.5,199.8c-0.1,0-0.2,0-0.3,0c-0.3-0.1-0.6-0.4-0.6-0.7c0-0.2,0-0.6,0.4-0.8
	c0.1-0.1,0.3-0.1,0.5-0.1c0.3,0,0.6,0.2,0.8,0.4c0.2,0.3,0.1,0.6,0,0.9C41.1,199.7,40.8,199.8,40.5,199.8z"/>
<path class="st3" d="M40.4,218.9c-0.4,0-0.5-0.2-1.5-1.1c-1-1-1-1.1-1.1-1.1c-0.1-0.1-0.1-0.2-0.1-5.4v-5.5h5.4v2.2l0.6,0.6
	c0.8,0.8,0.8,0.9,0.9,1.1c0,0.1,0,0.3,0,0.4c0,0.2-0.1,0.3-0.8,1l-0.4,0.4l0.4,0.4c0.7,0.7,0.8,0.8,0.8,1c0,0.1,0,0.3,0,0.4
	c0,0.2-0.1,0.3-0.9,1.1l-0.6,0.6v0.6c0,0.7,0,0.9-0.1,1.1c-0.1,0.2-1.1,1.1-1.1,1.1l-1,1h-0.3L40.4,218.9z"/>
<path class="st4" d="M42.8,206.2v1.9l0.7,0.8c0.7,0.7,0.7,0.8,0.8,0.9v0.2c0,0.1-0.1,0.2-0.7,0.8l-0.7,0.7l0.7,0.7
	c0.6,0.6,0.7,0.7,0.7,0.8v0.2c0,0.1-0.1,0.2-0.8,0.9l-0.7,0.8v0.8c0,0.6,0,0.8-0.1,0.9c0,0.1-0.5,0.5-1,1l-0.9,0.9h-0.2h-0.1
	c-0.2,0-0.3-0.1-1.2-1c-0.6-0.6-1-1-1-1c0-0.1,0-2.3,0-5.2v-5.1L42.8,206.2 M43.6,205.3h-0.8h-4.6h-0.8v0.8v5.1c0,5.3,0,5.3,0.1,5.5
	c0.1,0.1,0.1,0.2,1.1,1.3c1,1,1.3,1.3,1.8,1.3c0.1,0,0.1,0,0.2,0h0.2h0.3l0.2-0.2l0.9-0.9c0.2-0.2,1-1,1.1-1.1
	c0.2-0.3,0.2-0.7,0.2-1.4v-0.4l0.5-0.5c0.8-0.8,0.9-1,1-1.4c0-0.1,0-0.3,0-0.5c0-0.4-0.2-0.5-0.9-1.3l-0.1-0.1l0.1-0.1
	c0.7-0.8,0.9-0.9,0.9-1.3c0-0.1,0-0.3,0-0.5c0-0.4-0.2-0.5-1-1.3l-0.5-0.5v-1.6L43.6,205.3L43.6,205.3z"/>
<path class="st3" d="M140.9,205.2c-0.6-0.3-1-0.6-1.6-1.1c-0.4-0.4-0.5-0.6-0.7-0.9c-0.7-1-1.1-2.2-1.1-3.5c0-1.4,0.5-2.7,1.3-3.8
	c0.6-0.8,1.4-1.4,2.3-1.8c0.8-0.4,1.6-0.5,2.5-0.5c1.2,0,2.4,0.4,3.5,1.1c0.5,0.3,1.3,1.1,1.6,1.6c0.6,0.9,1,1.9,1,3
	c0.1,1.3-0.3,2.7-1,3.9c-0.3,0.5-1.1,1.2-1.5,1.6c-0.3,0.2-0.7,0.4-0.9,0.5l-0.2,0.1h-4.8L140.9,205.2z M143.7,196.8
	c-0.2,0-0.5,0.1-0.7,0.2c-0.4,0.3-0.6,0.8-0.6,1.2c0.1,0.5,0.4,0.9,0.9,1.1c0.1,0,0.3,0.1,0.4,0.1c0.5,0,0.9-0.2,1.1-0.6
	c0.2-0.4,0.3-0.9,0-1.3C144.6,197.1,144.2,196.8,143.7,196.8v-0.4V196.8z"/>
<path class="st4" d="M143.7,194c1.1,0,2.3,0.3,3.2,1c0.5,0.3,1.2,1,1.5,1.5c0.6,0.9,0.9,1.8,1,2.8c0.1,1.2-0.2,2.6-1,3.6
	c-0.3,0.5-1,1.2-1.4,1.4c-0.3,0.2-0.6,0.4-0.9,0.5L146,205h-4.6l-0.3-0.2c-0.6-0.3-0.9-0.5-1.4-1.1c-0.4-0.4-0.5-0.5-0.7-0.8
	c-0.7-1-1-2.1-1-3.2c0-1.3,0.4-2.6,1.2-3.5c0.6-0.7,1.4-1.3,2.2-1.7C142.1,194.2,142.9,194,143.7,194 M143.7,199.8
	c0.6,0,1.2-0.3,1.5-0.8c0.7-1.1-0.1-2.6-1.4-2.6l0,0c-0.3,0-0.7,0.1-0.9,0.3c-1.2,0.8-0.9,2.6,0.4,3
	C143.4,199.8,143.5,199.8,143.7,199.8 M143.7,193.2c-0.9,0-1.8,0.2-2.7,0.6c-0.9,0.4-1.8,1.1-2.5,1.9c-0.9,1.1-1.4,2.6-1.4,4
	c0,1.3,0.4,2.6,1.1,3.7c0.2,0.3,0.4,0.5,0.8,0.9c0.6,0.6,1,0.9,1.7,1.2l0.3,0.2l0.2,0.1h0.2h4.6h0.2l0.2-0.1l0.2-0.1
	c0.3-0.1,0.7-0.4,1-0.6c0.5-0.3,1.3-1.1,1.6-1.7c0.8-1.2,1.2-2.8,1.1-4.2c-0.1-1.2-0.5-2.2-1.1-3.2c-0.4-0.6-1.2-1.4-1.7-1.7
	C146.3,193.6,145,193.2,143.7,193.2z M143.7,199c-0.1,0-0.2,0-0.3,0c-0.3-0.1-0.6-0.4-0.6-0.7c0-0.2,0-0.6,0.4-0.8
	c0.1-0.1,0.3-0.1,0.5-0.1c0.3,0,0.6,0.2,0.8,0.4c0.2,0.3,0.1,0.6,0,0.9C144.3,198.8,144,199,143.7,199z"/>
<path class="st3" d="M143.7,218.1c-0.4,0-0.5-0.2-1.5-1.1c-1-1-1-1.1-1.1-1.1c0-0.1-0.1-0.2-0.1-5.4V205h5.4v2.2l0.6,0.6
	c0.8,0.8,0.8,0.9,0.9,1.1c0,0.1,0,0.3,0,0.4c0,0.2-0.1,0.3-0.8,1l-0.4,0.4l0.4,0.4c0.7,0.7,0.8,0.8,0.8,1c0,0.1,0,0.3,0,0.4
	c0,0.3-0.1,0.3-0.9,1.1l-0.6,0.6v0.6c0,0.7,0,0.9-0.2,1.1c-0.1,0.1-0.8,0.9-1.1,1.1l-1,1L143.7,218.1L143.7,218.1z"/>
<path class="st4" d="M146,205.3v1.9l0.7,0.8c0.7,0.7,0.7,0.8,0.8,0.9v0.2c0,0.1-0.1,0.2-0.7,0.8l-0.7,0.7l0.7,0.7
	c0.6,0.6,0.7,0.7,0.7,0.8v0.2c0,0.1-0.1,0.2-0.8,0.9L146,214v0.8c0,0.6,0,0.8-0.1,0.9c0,0.1-0.5,0.5-1,1l-0.9,0.9h-0.2h-0.1
	c-0.2,0-0.3-0.1-1.2-1c-0.6-0.6-1-1-1-1c0-0.1,0-2.3,0-5.2v-5.1L146,205.3 M146.8,204.5H146h-4.6h-0.8v0.8v5.1c0,5.3,0,5.3,0.1,5.5
	c0.1,0.1,0.1,0.2,1.1,1.3c1,1,1.3,1.3,1.8,1.3c0.1,0,0.1,0,0.2,0h0.2h0.3l0.2-0.2l0.9-0.9c0.2-0.2,1-1,1.1-1.1
	c0.2-0.3,0.2-0.7,0.2-1.4v-0.4l0.5-0.5c0.8-0.8,0.9-1,1-1.4c0-0.1,0-0.3,0-0.5c0-0.4-0.2-0.5-0.9-1.3l-0.1-0.1l0.1-0.1
	c0.7-0.8,0.9-0.9,0.9-1.3c0-0.1,0-0.3,0-0.5c0-0.4-0.2-0.5-1-1.3l-0.5-0.5v-1.6v-0.9H146.8z"/>
<path class="st3" d="M241.1,223.6c-0.8-0.4-1.2-0.7-1.9-1.4c-0.5-0.5-0.7-0.7-0.9-1c-0.9-1.3-1.3-2.7-1.3-4.2c0-1.7,0.6-3.3,1.6-4.6
	c0.7-0.9,1.8-1.7,2.8-2.2c1-0.4,2-0.7,3-0.7c1.5,0,3,0.5,4.2,1.3c0.6,0.4,1.5,1.3,2,2c0.8,1.1,1.2,2.3,1.3,3.7
	c0.1,1.6-0.3,3.4-1.3,4.8c-0.4,0.6-1.3,1.5-1.9,1.9c-0.4,0.3-0.8,0.5-1.1,0.7l-0.3,0.1h-5.9L241.1,223.6z M244.5,213.3
	c-0.3,0-0.7,0.1-0.9,0.3c-0.5,0.4-0.8,1-0.7,1.6c0.1,0.7,0.5,1.2,1.2,1.4c0.2,0.1,0.3,0.1,0.5,0.1c0.6,0,1.2-0.3,1.5-0.8
	s0.3-1.2,0-1.7C245.7,213.6,245.2,213.3,244.5,213.3v-0.4V213.3z"/>
<path class="st6" d="M244.5,209.9c1.4,0,2.8,0.4,4,1.2c0.6,0.4,1.5,1.3,1.9,1.9c0.7,1.1,1.1,2.2,1.2,3.5c0.1,1.5-0.3,3.2-1.2,4.5
	c-0.4,0.6-1.2,1.4-1.7,1.8c-0.4,0.2-0.8,0.5-1.1,0.6l-0.2,0.1h-5.7l-0.4-0.2c-0.7-0.4-1.2-0.7-1.8-1.3c-0.5-0.5-0.6-0.6-0.8-1
	c-0.8-1.2-1.2-2.5-1.2-4c0-1.6,0.5-3.2,1.5-4.4c0.7-0.9,1.7-1.6,2.7-2.1C242.5,210.1,243.5,209.9,244.5,209.9 M244.5,217.1
	c0.7,0,1.4-0.4,1.8-1c0.8-1.4-0.1-3.2-1.8-3.2h-0.1c-0.4,0-0.9,0.1-1.2,0.4c-1.5,1-1.1,3.2,0.5,3.8
	C244.1,217,244.3,217.1,244.5,217.1 M244.5,209.1c-1.1,0-2.2,0.2-3.2,0.7c-1.1,0.5-2.2,1.3-3,2.3c-1.1,1.4-1.7,3.1-1.7,4.9
	c0,1.6,0.5,3.1,1.4,4.4c0.3,0.4,0.5,0.6,1,1.1c0.7,0.7,1.2,1.1,2,1.5l0.4,0.2l0.2,0.1h0.2h5.7h0.2l0.2-0.1l0.2-0.1
	c0.3-0.2,0.8-0.4,1.2-0.7c0.6-0.4,1.5-1.4,2-2c1-1.5,1.5-3.3,1.3-5c-0.1-1.4-0.5-2.7-1.3-3.9c-0.5-0.7-1.4-1.6-2.1-2.1
	C247.6,209.5,246.1,209.1,244.5,209.1z M244.5,216.3c-0.1,0-0.3,0-0.4-0.1c-0.5-0.2-0.8-0.6-0.9-1.1c-0.1-0.5,0.1-1,0.6-1.2
	c0.2-0.1,0.5-0.2,0.7-0.2c0.5,0,0.9,0.2,1.1,0.7c0.2,0.4,0.2,0.9,0,1.3C245.4,216,245,216.3,244.5,216.3z"/>
<path class="st3" d="M244.5,239.6c-0.4,0-0.6-0.2-1.8-1.4s-1.3-1.3-1.3-1.4c0-0.1-0.1-0.2-0.1-6.6v-6.7h6.5v2.6l0.8,0.8
	c1,1,1,1,1.1,1.3c0,0.1,0,0.3,0,0.4c0,0.3-0.1,0.3-1,1.2l-0.5,0.6l0.5,0.6c0.9,0.9,0.9,1,1,1.2c0,0.1,0,0.3,0,0.4
	c0,0.3-0.1,0.3-1.1,1.3l-0.8,0.8v0.8c0,0.9,0,1.1-0.2,1.3c-0.1,0.1-0.9,1-1.3,1.3l-1.3,1.3h-0.3L244.5,239.6z"/>
<path class="st6" d="M247.3,223.9v2.4l0.9,0.9c0.9,0.9,0.9,0.9,0.9,1.1c0,0.1,0,0.2,0,0.3s-0.1,0.2-0.9,1l-0.8,0.9l0.8,0.9
	c0.8,0.8,0.8,0.9,0.9,1c0,0.1,0,0.2,0,0.3s-0.1,0.2-0.9,1.1l-0.9,0.9v1c0,0.8,0,1-0.1,1.1c0,0.1-0.6,0.6-1.3,1.3l-1.2,1.2h-0.2h-0.2
	c-0.2,0-0.4-0.2-1.5-1.3c-0.7-0.7-1.2-1.2-1.2-1.3s-0.1-2.9-0.1-6.4V224L247.3,223.9 M248.2,223h-0.8h-5.7h-0.8v0.8v6.3
	c0,6.5,0,6.6,0.1,6.8s0.1,0.3,1.4,1.5c1.2,1.2,1.5,1.5,2.1,1.5c0.1,0,0.2,0,0.3,0h0.2h0.3l0.2-0.2l1.2-1.2c0.1-0.1,1.2-1.2,1.4-1.4
	c0.2-0.3,0.2-0.7,0.3-1.6v-0.6l0.7-0.7c1-1,1.1-1.1,1.2-1.6c0-0.1,0-0.4,0-0.5c-0.1-0.4-0.2-0.5-1.1-1.5l-0.3-0.3l0.3-0.3
	c0.9-0.9,1-1.1,1.1-1.5c0-0.1,0-0.4,0-0.5c-0.1-0.4-0.2-0.5-1.2-1.5l-0.7-0.7v-2V223H248.2z"/>
<polyline class="st0" points="140.9,84.4 140.9,104.4 143.4,104.4 143.4,84.4 "/>
<path class="st0" d="M150.4,246.6c-2-0.7-4-1.4-5.8-2.1c-2.3-0.9-4.9-1.8-7.6-2.7c0-0.5,0.1-1.1,0.2-1.5c0.8-2.5,3.7-3.8,4.3-4
	c0.9-0.4,1.6-0.2,1.6-0.2l0.6,0.1c0.9,0.2,5.6,1.8,6.4,4.1c0.5,1.5-0.1,4.6-0.1,4.6s0,0,0.3,0.3v0.1
	C150.5,245.4,150.5,245.9,150.4,246.6z"/>
<path class="st4" d="M149.1,46.6c-0.8-1-1.9-1.8-3-2.4c-0.5-0.2-1-0.4-1.5-0.5l-9.5,9.5c0.2,1,0.6,1.9,1.2,2.7c0.4,0.6,1.4,1.6,2,2
	c0.4,0.3,0.9,0.5,1.2,0.7l0.2,0.1h6.3l0.4-0.2c0.8-0.4,1.3-0.8,2-1.5c0.5-0.5,0.7-0.7,0.9-1.1c0.9-1.4,1.4-2.8,1.4-4.5
	C150.8,49.7,150.2,48,149.1,46.6z M143.6,51.5c-1,0.3-2.2-0.1-2.8-1c-0.9-1.6,0.1-3.6,2-3.6c0.5,0,1,0.1,1.4,0.4
	C145.8,48.4,145.5,50.9,143.6,51.5z"/>
<path class="st4" d="M142.9,76.8c-0.1,0-0.1,0-0.2,0h-0.4l-1.4-1.4c-0.4-0.4-1.4-1.3-1.5-1.5c-0.2-0.2-0.2-0.5-0.2-1.5v-0.9
	l-0.9-0.9c-1.1-1.1-1.1-1.2-1.2-1.5c0-0.1,0-0.3,0-0.5c0-0.3,0.1-0.4,1.1-1.3l0.6-0.7l-0.6-0.7c-1-1-1-1.1-1.1-1.4
	c0-0.1,0-0.3,0-0.5c0-0.3,0.1-0.4,1.2-1.5l0.9-0.9v-2.9h7.2v7.5c0,7.1-0.1,7.3-0.1,7.4s-0.1,0.2-1.4,1.6
	C143.6,76.6,143.4,76.8,142.9,76.8z"/>
<path class="st2" d="M139.7,59.3h6.4v7.1c0,4,0,7.1-0.1,7.2c0,0.1-0.5,0.6-1.4,1.4c-1.2,1.2-1.4,1.4-1.7,1.4h-0.2h-0.2l-1.3-1.3
	c-0.7-0.7-1.4-1.4-1.4-1.4c-0.1-0.1-0.1-0.4-0.1-1.2v-1.1l-1-1.1c-1-1-1-1.1-1.1-1.2c0-0.1,0-0.2,0-0.3c0-0.2,0.1-0.2,1-1.1l0.9-1
	l-0.9-1c-0.9-0.9-0.9-1-1-1.1c0-0.1,0-0.2,0-0.3c0-0.2,0.1-0.2,1.1-1.2l1-1.1V59.3 M138.9,58.4v0.8v2.3l-0.8,0.8
	c-1.1,1.1-1.2,1.3-1.3,1.7c0,0.2,0,0.4,0,0.6c0.1,0.4,0.2,0.6,1.2,1.6l0.4,0.4L138,67c-1,1-1.1,1.2-1.2,1.6c0,0.2,0,0.4,0,0.6
	c0.1,0.4,0.2,0.5,1.3,1.7l0.8,0.8v0.7c0,1,0,1.4,0.3,1.7c0.2,0.2,1.5,1.5,1.5,1.6L142,77l0.2,0.2h0.3h0.2c0.1,0,0.2,0,0.3,0
	c0.6,0,0.9-0.3,2.3-1.7c1.4-1.4,1.5-1.5,1.5-1.6c0.1-0.2,0.2-0.3,0.2-7.6v-7.1v-0.8h-0.8h-6.4L138.9,58.4z"/>
<path class="st4" d="M149.7,38.3c0.1,0,0.2,0,0.3,0.1l-2.3,2.3c-0.1,0-0.2-0.1-0.3-0.1c-0.3-0.2-0.5-0.5-0.5-1
	c0-0.3,0.1-0.5,0.2-0.6c0.1-0.2,0.3-0.3,0.5-0.4c0.2-0.1,0.4-0.2,0.6-0.2c0.2,0,0.5,0,0.7,0C149.2,38.3,149.5,38.3,149.7,38.3z"/>
<path class="st4" d="M158.6,19.3h-1.3l1.1-1.1C158.6,18.5,158.6,18.9,158.6,19.3z"/>
<path class="st4" d="M241.3,252.1l-3.7,3.7c0-0.5,0.1-0.9,0.2-1.3c0.2-0.5,0.4-0.9,0.7-1.3c0.3-0.4,0.7-0.6,1.2-0.8
	C240.1,252.2,240.7,252.1,241.3,252.1L241.3,252.1z"/>
<path class="st4" d="M235.5,253.9c-0.1-0.4-0.3-0.7-0.5-0.9c-0.1-0.1-0.1-0.1-0.2-0.2c-0.2-0.2-0.4-0.3-0.7-0.4
	c-0.4-0.2-0.8-0.2-1.4-0.2c-0.5,0-0.9,0-1.4,0.1c-0.4,0.1-0.7,0.2-0.9,0.2l0.2,1.2c0.2-0.1,0.4-0.1,0.8-0.2c0.3-0.1,0.7-0.1,1.2-0.1
	c0.4,0,0.6,0.1,0.9,0.2c0.1,0.1,0.3,0.1,0.4,0.3l0.2,0.2c0.1,0.2,0.2,0.4,0.3,0.6c0,0.2,0.1,0.4,0.1,0.7v0.4c0,0-0.1,0-0.2,0
	c-0.1,0-0.2,0-0.3-0.1c-0.1,0-0.3,0-0.4-0.1c-0.2,0-0.3,0-0.4,0c-0.3,0-0.5,0-0.8,0c-0.2,0-0.3,0.1-0.4,0.1l0,0l0,0
	c-0.2,0-0.6,0.1-1,0.4c-0.3,0.2-0.5,0.4-0.7,0.8c-0.2,0.3-0.3,0.7-0.3,1.1v0.1c0,0.4,0.1,0.7,0.2,1c0.1,0.3,0.4,0.6,0.6,0.8
	c0.3,0.2,0.6,0.3,1,0.4s0.8,0.1,1.2,0.1c0.2,0,0.3,0,0.5,0l2.5-2.5v-2.7C235.6,254.6,235.6,254.2,235.5,253.9z M234.3,259
	c-0.2,0-0.4,0.1-0.6,0.1c-0.3,0-0.5,0-0.9,0c-0.5,0-1-0.1-1.3-0.3c-0.3-0.2-0.5-0.5-0.5-1c0-0.3,0.1-0.5,0.2-0.6
	c0.1-0.2,0.3-0.3,0.5-0.4s0.4-0.2,0.6-0.2c0.2,0,0.5,0,0.7,0c0.3,0,0.6,0,0.8,0.1c0.2,0,0.4,0.1,0.5,0.1V259z"/>
<path class="st4" d="M233.1,260.2c0.1,0,0.3,0,0.4,0c0.3,0,0.6,0,0.9-0.1c0.3,0,0.5-0.1,0.7-0.1s0.4-0.1,0.5-0.1v-2.2L233.1,260.2z"
	/>
<path class="st4" d="M241.3,260.7c-0.7,0-1.3-0.1-1.8-0.3c-0.5-0.2-1-0.5-1.3-0.9c-0.4-0.4-0.6-0.9-0.8-1.4s-0.3-1.1-0.3-1.8
	c0-0.1,0-0.3,0-0.4c0-0.5,0.1-0.9,0.3-1.4s0.5-1,0.8-1.4c0.4-0.4,0.8-0.7,1.3-1c0.5-0.2,1.1-0.3,1.7-0.3c0.4,0,0.8,0,1.1,0.1
	c0.4,0.1,0.7,0.2,1.1,0.3l0.3,0.1l-0.5,2l-0.5-0.2c-0.2-0.1-0.4-0.2-0.6-0.2c-0.3-0.1-0.5-0.1-0.8-0.1c-0.7,0-1.1,0.2-1.5,0.6
	c-0.3,0.4-0.5,1-0.5,1.9c0,0.4,0,0.8,0.1,1c0.1,0.3,0.2,0.5,0.4,0.7s0.4,0.3,0.6,0.5c0.3,0.1,0.6,0.2,1,0.2c0.3,0,0.6,0,0.9-0.1
	c0.3-0.1,0.5-0.1,0.6-0.2l0.5-0.2l0.3,2l-0.2,0.1c-0.1,0.1-0.3,0.1-0.5,0.2c-0.1,0-0.3,0.1-0.4,0.1h-0.1c-0.2,0-0.4,0.1-0.7,0.1
	C241.8,260.7,241.5,260.7,241.3,260.7z"/>
<path class="st0" d="M241.3,252.1c0.3,0,0.7,0,1,0.1s0.7,0.1,1,0.3l-0.3,1.2c-0.2-0.1-0.4-0.2-0.7-0.2c-0.3-0.1-0.6-0.1-0.9-0.1
	c-0.8,0-1.4,0.2-1.8,0.7c-0.4,0.5-0.6,1.2-0.6,2.1c0,0.4,0,0.8,0.1,1.2c0.1,0.3,0.2,0.6,0.4,0.9c0.2,0.2,0.5,0.4,0.8,0.6
	c0.3,0.1,0.7,0.2,1.2,0.2c0.4,0,0.7,0,1-0.1s0.5-0.1,0.7-0.2l0.2,1.2c-0.1,0-0.2,0.1-0.3,0.1s-0.3,0.1-0.5,0.1s-0.4,0.1-0.6,0.1
	c-0.2,0-0.4,0-0.6,0c-0.6,0-1.2-0.1-1.7-0.3s-0.9-0.5-1.2-0.8c-0.3-0.4-0.6-0.8-0.7-1.3c-0.2-0.5-0.2-1-0.2-1.6c0-0.1,0-0.2,0-0.4
	c0-0.5,0.1-0.9,0.2-1.3c0.2-0.5,0.4-0.9,0.7-1.3c0.3-0.4,0.7-0.6,1.2-0.8C240.1,252.2,240.7,252.1,241.3,252.1L241.3,252.1
	 M241.3,251.3L241.3,251.3c-0.7,0-1.3,0.1-1.9,0.4c-0.6,0.2-1,0.6-1.5,1.1c-0.4,0.4-0.7,1-0.9,1.6c-0.2,0.4-0.3,0.9-0.3,1.5
	c0,0.2,0,0.3,0,0.4c0,0.7,0.1,1.3,0.3,1.9s0.5,1.1,0.9,1.6s0.9,0.8,1.5,1s1.2,0.4,2,0.4c0.2,0,0.4,0,0.7,0c0.2,0,0.5-0.1,0.7-0.1
	l0,0l0,0h0.1c0.2,0,0.3-0.1,0.4-0.1c0.2-0.1,0.4-0.1,0.6-0.2l0.4-0.3l-0.1-0.5l-0.2-1.2l-0.2-1l-1,0.4c-0.1,0-0.3,0.1-0.6,0.2
	c-0.2,0-0.5,0.1-0.8,0.1c-0.4,0-0.6,0-0.9-0.1c-0.2-0.1-0.3-0.2-0.4-0.3c-0.1-0.2-0.2-0.4-0.3-0.6c-0.1-0.3-0.1-0.6-0.1-0.9
	c0-0.7,0.1-1.3,0.4-1.6c0.3-0.3,0.6-0.4,1.2-0.4c0.2,0,0.5,0,0.7,0.1c0.2,0,0.4,0.1,0.5,0.2l0.9,0.4l0.3-1l0.3-1.2l0.2-0.7l-0.7-0.3
	c-0.4-0.2-0.8-0.3-1.2-0.3C242.1,251.3,241.7,251.3,241.3,251.3z"/>
<path class="st4" d="M247.7,255.8c0.3,0.2,0.6,0.5,1,0.9c0.3,0.3,0.7,0.7,1,1.1s0.6,0.8,0.9,1.2c0.3,0.4,0.5,0.8,0.7,1.1h-1.6
	c-0.2-0.3-0.5-0.7-0.7-1.1c-0.3-0.4-0.6-0.7-0.9-1c-0.3-0.3-0.6-0.6-0.9-0.9c-0.3-0.3-0.6-0.5-0.9-0.7v3.7h-1.4v-11.4l1.4-0.2v7.1
	c0.2-0.2,0.5-0.5,0.8-0.8s0.6-0.6,0.9-0.9c0.3-0.3,0.5-0.6,0.8-0.9c0.2-0.3,0.5-0.5,0.6-0.7h1.6c-0.2,0.2-0.5,0.5-0.7,0.8
	c-0.3,0.3-0.5,0.6-0.8,0.9c-0.3,0.3-0.6,0.6-0.9,0.9C248.2,255.3,248,255.5,247.7,255.8z"/>
<path class="st4" d="M258.9,259.9c-0.3,0.1-0.7,0.2-1.3,0.3s-1.1,0.1-1.8,0.1c-0.6,0-1.1-0.1-1.5-0.3c-0.4-0.2-0.7-0.4-1-0.7
	c-0.3-0.3-0.4-0.7-0.5-1.1s-0.2-0.9-0.2-1.4v-4.4h1.4v4.1c0,0.9,0.2,1.6,0.4,2c0.3,0.4,0.8,0.6,1.5,0.6c0.1,0,0.3,0,0.5,0
	s0.3,0,0.4,0s0.3,0,0.4,0s0.2,0,0.2-0.1v-6.6h1.4v7.5H258.9z"/>
<path class="st4" d="M268.2,256.2c0,0.6-0.1,1.1-0.2,1.6c-0.2,0.5-0.4,0.9-0.7,1.3c-0.3,0.4-0.7,0.6-1.1,0.8
	c-0.4,0.2-0.9,0.3-1.5,0.3c-0.4,0-0.8-0.1-1.2-0.2c-0.3-0.1-0.6-0.2-0.8-0.3v3.1h-1.4v-10.3c0.3-0.1,0.7-0.2,1.2-0.3
	s1.1-0.1,1.7-0.1s1.1,0.1,1.6,0.3s0.9,0.5,1.2,0.8c0.3,0.3,0.6,0.8,0.8,1.3C268.1,255,268.2,255.6,268.2,256.2z M266.7,256.2
	c0-0.9-0.2-1.6-0.7-2.1c-0.4-0.5-1-0.7-1.8-0.7c-0.4,0-0.7,0-1,0c-0.2,0-0.4,0.1-0.6,0.1v4.9c0.2,0.1,0.4,0.3,0.7,0.4
	c0.3,0.1,0.7,0.2,1,0.2c0.4,0,0.7-0.1,1-0.2s0.5-0.3,0.7-0.6c0.2-0.3,0.3-0.6,0.4-0.9C266.7,257,266.7,256.6,266.7,256.2z"/>
<path class="st4" d="M249.5,281c0,0,0.1,0,0.2,0.1c0.1,0,0.2,0.1,0.3,0.1s0.2,0,0.4,0.1c0.1,0,0.2,0,0.3,0c0.4,0,0.8,0,1.1-0.1
	s0.6-0.3,0.9-0.5c0.3-0.2,0.5-0.5,0.7-0.8s0.4-0.7,0.6-1.2c0.5-1.2,1-2.4,1.4-3.8s0.8-2.8,1.2-4.2h-1.4c-0.2,1.1-0.5,2.1-0.8,3.2
	c-0.3,1-0.6,2.1-1,3.1c-0.2-0.5-0.5-1-0.7-1.6c-0.2-0.5-0.4-1.1-0.6-1.6c-0.2-0.5-0.4-1.1-0.5-1.6c-0.2-0.5-0.3-1-0.4-1.5h-1.5
	c0.4,1.4,0.8,2.7,1.4,4.1c0.5,1.3,1.1,2.6,1.8,3.8c-0.2,0.5-0.5,0.9-0.8,1.2c-0.3,0.2-0.7,0.4-1.3,0.4c-0.2,0-0.3,0-0.5-0.1
	c-0.2,0-0.3-0.1-0.4-0.1L249.5,281z M243.3,273.8c0-0.3,0.1-0.5,0.2-0.8c0.1-0.3,0.2-0.5,0.4-0.7s0.4-0.4,0.6-0.5
	c0.2-0.1,0.5-0.2,0.8-0.2c0.6,0,1,0.2,1.3,0.6s0.5,0.9,0.5,1.6H243.3z M242.1,276.1c0.2,0.5,0.4,0.9,0.7,1.3s0.7,0.6,1.2,0.8
	c0.5,0.2,1.1,0.3,1.8,0.3c0.5,0,1,0,1.4-0.1s0.7-0.2,0.9-0.3l-0.2-1.2c-0.2,0.1-0.4,0.2-0.8,0.2c-0.3,0.1-0.7,0.1-1.2,0.1
	c-0.9,0-1.5-0.2-1.9-0.6s-0.6-1-0.7-1.8h5.3c0-0.1,0-0.2,0-0.3c0-0.1,0-0.2,0-0.2c0-1.3-0.3-2.3-0.8-3c-0.6-0.7-1.4-1-2.4-1
	c-0.4,0-0.9,0.1-1.3,0.3c-0.4,0.2-0.8,0.4-1.1,0.8c-0.3,0.3-0.6,0.8-0.8,1.3s-0.3,1.1-0.3,1.8C241.8,275.1,241.9,275.6,242.1,276.1z
	 M238.5,273.2c0.3-0.3,0.6-0.6,0.9-0.9c0.3-0.3,0.6-0.6,0.8-0.9c0.3-0.3,0.5-0.6,0.7-0.8h-1.6c-0.2,0.2-0.4,0.5-0.6,0.7
	c-0.2,0.3-0.5,0.6-0.8,0.9s-0.6,0.6-0.9,0.9c-0.3,0.3-0.6,0.6-0.8,0.8v-7.1l-1.4,0.2v11.4h1.4v-3.7c0.3,0.2,0.6,0.4,0.9,0.7
	c0.3,0.3,0.6,0.6,0.9,0.9s0.6,0.7,0.9,1c0.3,0.4,0.5,0.7,0.7,1.1h1.6c-0.2-0.3-0.4-0.7-0.7-1.1s-0.6-0.8-0.9-1.2
	c-0.3-0.4-0.7-0.8-1-1.1c-0.3-0.3-0.7-0.6-1-0.9C237.9,273.8,238.2,273.6,238.5,273.2z"/>
<path class="st4" d="M227.9,257.9c-0.2,0.5-0.4,0.9-0.8,1.3c-0.3,0.3-0.8,0.6-1.2,0.8c-0.5,0.2-1,0.3-1.6,0.3s-1.2,0-1.7-0.1
	c-0.3-0.1-0.6-0.1-0.9-0.2l1.1-1.1c0.1,0,0.3,0.1,0.6,0.1s0.6,0,0.9,0c0.8,0,1.4-0.3,1.8-0.7c0.4-0.5,0.7-1.2,0.7-2.1
	c0-0.4,0-0.8-0.1-1.1l0,0l1.1-1.1c0.1,0.2,0.2,0.4,0.3,0.6c0.2,0.5,0.2,1,0.2,1.6C228.2,256.8,228.1,257.4,227.9,257.9z"/>
<path class="st4" d="M228.2,256.2c0,0.6-0.1,1.2-0.3,1.7s-0.4,0.9-0.8,1.3c-0.3,0.3-0.8,0.6-1.2,0.8c-0.5,0.2-1,0.3-1.6,0.3
	s-1.2,0-1.7-0.1c-0.3-0.1-0.6-0.1-0.9-0.2l1.1-1.1c0.1,0,0.3,0.1,0.6,0.1s0.6,0,0.9,0c0.8,0,1.4-0.3,1.8-0.7
	c0.4-0.5,0.7-1.2,0.7-2.1c0-0.4,0-0.8-0.1-1.1l0,0l1.1-1.1c0.1,0.2,0.2,0.4,0.3,0.6C228.1,255.1,228.2,255.6,228.2,256.2z"/>
<path class="st4" d="M227.2,253.3c-0.3-0.4-0.7-0.6-1.1-0.8c-0.4-0.2-0.9-0.3-1.5-0.3c-0.4,0-0.8,0.1-1.2,0.2
	c-0.3,0.1-0.6,0.2-0.8,0.3v-4.2l-1.4,0.2v11.2c0.1,0,0.2,0.1,0.3,0.1l1.1-1.1l0,0V254c0.2-0.1,0.4-0.3,0.7-0.4
	c0.3-0.1,0.7-0.2,1-0.2c0.4,0,0.7,0.1,1,0.2c0.3,0.1,0.5,0.3,0.7,0.6c0.2,0.2,0.3,0.5,0.4,0.9l1.1-1.1
	C227.5,253.7,227.4,253.5,227.2,253.3z"/>
<path class="st4" d="M129.2,24.3v-4.5c0-0.4,0-0.8-0.1-1.1c0-0.3-0.1-0.5-0.2-0.7c-0.1-0.1-0.2-0.2-0.3-0.3
	c-0.2-0.1-0.4-0.1-0.6-0.1c-0.4,0-0.8,0.1-1,0.2c-0.1,0.1-0.2,0.1-0.3,0.1c0,0.2,0.1,0.4,0.1,0.6c0,0.3,0.1,0.7,0.1,1v4.8h-2.2v-4.5
	c0-0.4,0-0.8-0.1-1.1c0-0.3-0.1-0.5-0.2-0.7c-0.1-0.1-0.2-0.3-0.3-0.3c-0.2-0.1-0.4-0.1-0.6-0.1c-0.1,0-0.3,0-0.4,0
	c-0.2,0-0.3,0-0.4,0s-0.2,0-0.3,0v6.6H120v-8.3l0.3-0.1c0.3-0.1,0.8-0.2,1.3-0.3s1.2-0.1,1.9-0.1c0.6,0,1,0.1,1.4,0.2
	c0.3,0.1,0.5,0.3,0.8,0.4h0.1c0.2-0.1,0.4-0.2,0.6-0.3s0.5-0.2,0.8-0.2c0.3-0.1,0.6-0.1,1-0.1c0.7,0,1.2,0.1,1.6,0.3
	c0.4,0.2,0.8,0.5,1.1,0.9c0.2,0.4,0.4,0.8,0.5,1.3s0.1,1,0.1,1.5v4.8h-2.3V24.3z"/>
<path class="st2" d="M128.1,15.9c0.6,0,1.1,0.1,1.5,0.3c0.4,0.2,0.7,0.4,0.9,0.7c0.2,0.3,0.4,0.7,0.4,1.1c0.1,0.4,0.1,0.9,0.1,1.4
	v4.4h-1.4v-4.1c0-0.5,0-0.9-0.1-1.2c0-0.3-0.1-0.6-0.3-0.8c-0.1-0.2-0.3-0.4-0.5-0.5s-0.5-0.2-0.8-0.2c-0.5,0-0.9,0.1-1.2,0.2
	c-0.3,0.1-0.5,0.2-0.6,0.3c0.1,0.3,0.1,0.5,0.2,0.9c0,0.3,0.1,0.6,0.1,1v4.4H125v-4.1c0-0.5,0-0.9-0.1-1.2c0-0.3-0.1-0.6-0.3-0.8
	c-0.1-0.2-0.3-0.4-0.5-0.5s-0.5-0.2-0.8-0.2c-0.1,0-0.3,0-0.4,0c-0.2,0-0.3,0-0.5,0c-0.1,0-0.3,0-0.4,0.1c-0.1,0-0.2,0-0.2,0v6.6
	h-1.4v-7.6c0.3-0.1,0.7-0.2,1.3-0.3c0.5-0.1,1.1-0.1,1.8-0.1c0.5,0,0.9,0.1,1.3,0.2c0.3,0.1,0.6,0.3,0.9,0.6c0.1,0,0.2-0.1,0.3-0.2
	c0.1-0.1,0.3-0.2,0.6-0.3c0.2-0.1,0.5-0.2,0.7-0.2C127.5,15.9,127.8,15.9,128.1,15.9 M128.1,15.1c-0.4,0-0.7,0-1.1,0.1
	c-0.3,0.1-0.6,0.2-0.8,0.3c-0.2,0.1-0.3,0.1-0.5,0.2c-0.2-0.1-0.4-0.2-0.6-0.3c-0.4-0.2-1-0.3-1.6-0.3c-0.7,0-1.4,0-2,0.1
	c-0.5,0.1-1,0.2-1.3,0.3l-0.6,0.2v0.6v7.6v0.8h0.8h1.4h0.8v-0.8V18c0.1,0,0.2,0,0.3,0c0.1,0,0.3,0,0.4,0c0.3,0,0.4,0,0.5,0.1
	c0,0,0.1,0.1,0.2,0.2s0.1,0.3,0.2,0.5c0,0.3,0.1,0.6,0.1,1.1V24v0.8h0.8h1.4h0.8V24v-4.4c0-0.4,0-0.7-0.1-1.1c0-0.1,0-0.2,0-0.3
	c0.1-0.1,0.4-0.1,0.8-0.1c0.3,0,0.4,0,0.5,0.1c0,0,0.1,0.1,0.2,0.2c0.1,0.1,0.1,0.3,0.2,0.5c0,0.3,0.1,0.7,0.1,1.1v4.1v0.8h0.8h1.4
	h0.8v-0.8v-4.4c0-0.6,0-1.1-0.1-1.6c-0.1-0.6-0.3-1-0.6-1.5c-0.3-0.4-0.7-0.8-1.2-1C129.4,15.2,128.8,15.1,128.1,15.1z"/>
<path class="st4" d="M135.7,24.4c-0.5,0-0.9,0-1.3-0.1c-0.4-0.1-0.8-0.3-1.1-0.5s-0.6-0.5-0.8-0.9s-0.3-0.8-0.3-1.3s0.1-0.9,0.3-1.3
	s0.5-0.7,0.9-0.9c0.3-0.2,0.7-0.4,1.2-0.5c0.4-0.1,0.9-0.1,1.3-0.1c0.2,0,0.3,0,0.5,0s0.3,0,0.5,0.1h0.1c0-0.2,0-0.3-0.1-0.5
	c0-0.2-0.1-0.3-0.2-0.4c-0.1-0.1-0.2-0.2-0.4-0.3c-0.2-0.1-0.4-0.1-0.7-0.1c-0.4,0-0.8,0-1.1,0.1c-0.4,0.1-0.6,0.1-0.7,0.2l-0.5,0.2
	l-0.3-2l0.3-0.1c0.2-0.1,0.5-0.2,1-0.3c0.4-0.1,0.9-0.1,1.4-0.1c0.6,0,1.1,0.1,1.6,0.2c0.4,0.2,0.8,0.4,1.1,0.7
	c0.3,0.3,0.5,0.7,0.6,1.1s0.2,0.8,0.2,1.3v5.2l-0.8,0.1c-0.3,0-0.5,0.1-0.8,0.1s-0.6,0.1-0.9,0.1C136.4,24.4,136.1,24.4,135.7,24.4z
	 M136.1,20.6c-0.2,0-0.4,0-0.6,0c-0.2,0-0.4,0.1-0.5,0.1c-0.1,0.1-0.3,0.2-0.3,0.3c-0.1,0.1-0.1,0.2-0.1,0.4c0,0.5,0.2,0.6,0.3,0.7
	c0.3,0.2,0.6,0.2,1.1,0.2c0.3,0,0.6,0,0.9,0c0.1,0,0.2,0,0.2,0v-1.7H137C136.7,20.7,136.4,20.6,136.1,20.6z"/>
<path class="st2" d="M135.8,15.9c0.6,0,1,0.1,1.4,0.2s0.7,0.3,0.9,0.6c0.2,0.3,0.4,0.6,0.5,0.9c0.1,0.4,0.2,0.8,0.2,1.2v4.9
	c-0.1,0-0.3,0-0.5,0.1c-0.2,0-0.5,0.1-0.7,0.1c-0.3,0-0.6,0.1-0.9,0.1c-0.3,0-0.6,0-0.9,0c-0.4,0-0.8,0-1.2-0.1s-0.7-0.2-1-0.4
	c-0.3-0.2-0.5-0.5-0.6-0.8s-0.2-0.7-0.2-1.2c0-0.4,0.1-0.8,0.3-1.1c0.2-0.3,0.4-0.6,0.7-0.7c0.3-0.2,0.6-0.3,1-0.4s0.8-0.1,1.3-0.1
	c0.1,0,0.3,0,0.4,0c0.2,0,0.3,0,0.4,0.1c0.1,0,0.3,0,0.4,0.1c0.1,0,0.2,0,0.2,0V19c0-0.2,0-0.5-0.1-0.7s-0.1-0.4-0.3-0.6
	c-0.1-0.2-0.3-0.3-0.5-0.4s-0.5-0.2-0.9-0.2c-0.5,0-0.9,0-1.2,0.1s-0.6,0.1-0.8,0.2l-0.2-1.2c0.2-0.1,0.5-0.2,0.9-0.2
	C134.8,15.9,135.3,15.9,135.8,15.9 M135.9,22.8c0.3,0,0.6,0,0.9,0c0.3,0,0.5,0,0.6-0.1v-2.3c-0.1,0-0.3-0.1-0.5-0.1
	s-0.5-0.1-0.8-0.1c-0.2,0-0.4,0-0.7,0c-0.2,0-0.4,0.1-0.6,0.2c-0.2,0.1-0.4,0.2-0.5,0.4c-0.1,0.2-0.2,0.4-0.2,0.7
	c0,0.5,0.2,0.8,0.5,1S135.4,22.8,135.9,22.8 M135.8,15c-0.5,0-1,0-1.5,0.1s-0.8,0.2-1.1,0.3l-0.6,0.3l0.1,0.6l0.2,1.2l0.2,1.1l1-0.4
	c0.1,0,0.2-0.1,0.6-0.2c0.3-0.1,0.6-0.1,1.1-0.1c0.3,0,0.5,0,0.5,0.1c0.1,0,0.2,0.1,0.2,0.2l0.1,0.2c-0.2,0-0.3,0-0.5,0
	c-0.5,0-1,0.1-1.4,0.2c-0.5,0.1-0.9,0.3-1.3,0.5c-0.4,0.3-0.7,0.6-1,1c-0.2,0.4-0.4,0.9-0.4,1.5s0.1,1.1,0.3,1.5s0.5,0.8,0.9,1.1
	c0.4,0.3,0.8,0.4,1.2,0.6c0.4,0.1,0.9,0.2,1.4,0.2c0.3,0,0.7,0,1,0s0.6-0.1,0.9-0.1c0.3,0,0.5-0.1,0.8-0.1l0.5-0.1l0.7-0.1v-0.7V19
	c0-0.5-0.1-1-0.2-1.4c-0.1-0.5-0.4-0.9-0.7-1.3s-0.7-0.6-1.3-0.8C137,15.1,136.4,15,135.8,15z M135.9,22c-0.5,0-0.7-0.1-0.9-0.2
	c-0.1,0-0.1-0.3-0.1-0.3c0-0.1,0-0.1,0-0.1c0.1-0.1,0.1-0.1,0.2-0.2c0.1-0.1,0.2-0.1,0.4-0.1s0.4,0,0.6,0c0.2,0,0.3,0,0.5,0V22
	C136.4,22,136.2,22,135.9,22z"/>
<path class="st4" d="M142.9,24.4c-0.7,0-1.3-0.1-1.7-0.2s-0.7-0.2-0.8-0.3l-0.3-0.1l0.4-2L141,22c0.2,0.1,0.4,0.1,0.8,0.3
	c0.3,0.1,0.7,0.2,1.3,0.2s0.9-0.1,1.1-0.2c0.1-0.1,0.2-0.1,0.2-0.4c0-0.2-0.1-0.4-0.2-0.5c-0.2-0.2-0.7-0.4-1.2-0.6
	c-0.3-0.1-0.6-0.2-0.9-0.4c-0.3-0.1-0.6-0.3-0.8-0.5s-0.4-0.5-0.6-0.7c-0.1-0.3-0.2-0.7-0.2-1.1c0-0.8,0.3-1.5,0.9-2
	c0.6-0.5,1.4-0.7,2.3-0.7c0.2,0,0.5,0,0.7,0s0.4,0.1,0.6,0.1c0.2,0,0.4,0.1,0.5,0.1c0.2,0,0.3,0.1,0.4,0.1l0.3,0.1l-0.4,2.1
	l-0.5-0.3c-0.1,0-0.3-0.1-0.6-0.2s-0.6-0.1-1-0.1c-0.3,0-0.6,0.1-0.8,0.2s-0.2,0.2-0.2,0.4c0,0.1,0,0.2,0.1,0.3
	c0,0.1,0.1,0.1,0.2,0.2c0.1,0.1,0.2,0.2,0.4,0.2c0.2,0.1,0.4,0.2,0.7,0.3c0.4,0.1,0.7,0.3,1,0.4c0.3,0.2,0.6,0.3,0.8,0.5
	s0.4,0.5,0.6,0.8c0.1,0.3,0.2,0.7,0.2,1.1c0,0.9-0.3,1.5-1,2C144.8,24.2,144,24.4,142.9,24.4z"/>
<path class="st2" d="M143.5,15.9c0.2,0,0.4,0,0.7,0c0.2,0,0.4,0.1,0.6,0.1c0.2,0,0.4,0.1,0.5,0.1s0.3,0.1,0.3,0.1l-0.3,1.2
	c-0.2-0.1-0.4-0.2-0.7-0.2c-0.3-0.1-0.7-0.1-1.2-0.1c-0.4,0-0.7,0.1-1,0.2c-0.3,0.2-0.4,0.4-0.4,0.7c0,0.2,0,0.3,0.1,0.4
	s0.2,0.2,0.3,0.4c0.1,0.1,0.3,0.2,0.5,0.3s0.4,0.2,0.7,0.3c0.4,0.1,0.7,0.3,1,0.4s0.5,0.3,0.7,0.5s0.4,0.4,0.5,0.7
	c0.1,0.3,0.2,0.6,0.2,0.9c0,0.7-0.3,1.3-0.8,1.6c-0.5,0.4-1.3,0.6-2.3,0.6c-0.7,0-1.2-0.1-1.6-0.2c-0.4-0.1-0.7-0.2-0.8-0.3l0.3-1.2
	c0.2,0.1,0.4,0.1,0.8,0.3c0.3,0.1,0.8,0.2,1.4,0.2c0.6,0,1-0.1,1.3-0.2s0.4-0.4,0.4-0.7c0-0.3-0.1-0.6-0.4-0.8
	c-0.3-0.2-0.7-0.4-1.3-0.7c-0.3-0.1-0.6-0.2-0.9-0.4c-0.3-0.1-0.5-0.3-0.7-0.4c-0.2-0.2-0.4-0.4-0.5-0.6s-0.2-0.5-0.2-0.9
	c0-0.7,0.3-1.2,0.8-1.6C141.9,16.1,142.6,15.9,143.5,15.9 M143.5,15c-1.1,0-1.9,0.3-2.6,0.8c-0.7,0.6-1.1,1.4-1.1,2.3
	c0,0.5,0.1,0.9,0.3,1.3c0.2,0.3,0.4,0.6,0.7,0.9c0.3,0.2,0.6,0.4,0.9,0.6c0.3,0.1,0.6,0.3,0.9,0.4c0.7,0.3,1,0.5,1.1,0.6
	c0.1,0,0.1,0.1,0.1,0.1c-0.1,0-0.3,0.1-0.8,0.1c-0.6,0-0.9-0.1-1.1-0.1c-0.3-0.1-0.6-0.2-0.7-0.3l-0.9-0.3l-0.2,0.9l-0.3,1.2
	l-0.1,0.7l0.6,0.3c0.1,0,0.3,0.1,0.9,0.3c0.5,0.1,1.1,0.2,1.9,0.2c1.2,0,2.1-0.2,2.8-0.7c0.8-0.5,1.2-1.3,1.2-2.3
	c0-0.5-0.1-0.9-0.2-1.3c-0.2-0.4-0.4-0.7-0.7-0.9c-0.3-0.2-0.6-0.4-0.9-0.6c-0.3-0.1-0.7-0.3-1-0.4s-0.5-0.2-0.7-0.3
	c-0.1-0.1-0.3-0.1-0.3-0.2l-0.1-0.1v-0.1c0.2-0.1,0.4-0.1,0.6-0.1c0.4,0,0.7,0,0.9,0.1c0.3,0.1,0.5,0.2,0.5,0.2l1,0.5l0.2-1.1
	l0.3-1.2l0.1-0.7l-0.7-0.3c-0.1,0-0.2-0.1-0.4-0.1s-0.4-0.1-0.6-0.1c-0.2,0-0.4-0.1-0.7-0.1C144,15,143.7,15,143.5,15z"/>
<path class="st4" d="M150.4,24.4c-0.6,0-1.1-0.1-1.5-0.2c-0.4-0.2-0.8-0.4-1-0.7c-0.2-0.3-0.4-0.7-0.5-1.2c-0.1-0.4-0.1-0.9-0.1-1.5
	v-7.3l2.2-0.4v2.5h2.9v2h-2.9v3.2c0,0.4,0,0.7,0.1,0.9c0,0.2,0.1,0.3,0.2,0.4c0.1,0.1,0.2,0.1,0.3,0.2c0.1,0,0.3,0.1,0.5,0.1
	c0.4,0,0.7,0,0.9-0.1c0.3-0.1,0.4-0.2,0.5-0.2l0.4-0.2l0.5,1.9l-0.3,0.1c-0.2,0.1-0.4,0.2-0.8,0.3C151.3,24.4,150.9,24.4,150.4,24.4
	z"/>
<path class="st2" d="M149.1,13.6V16h2.9v1.2h-2.9v3.6c0,0.4,0,0.7,0.1,1s0.1,0.5,0.3,0.6c0.1,0.1,0.3,0.2,0.4,0.3
	c0.2,0.1,0.4,0.1,0.6,0.1c0.4,0,0.8,0,1-0.1c0.3-0.1,0.4-0.2,0.5-0.2l0.3,1.2c-0.1,0.1-0.4,0.2-0.7,0.3s-0.7,0.2-1.2,0.2
	s-1-0.1-1.3-0.2s-0.6-0.3-0.8-0.6c-0.2-0.3-0.4-0.6-0.4-1c-0.1-0.4-0.1-0.9-0.1-1.4v-7L149.1,13.6 M149.9,12.6l-1,0.2l-1.4,0.2
	l-0.7,0.1v0.7v7c0,0.6,0,1.1,0.1,1.5c0.1,0.5,0.3,1,0.6,1.3c0.3,0.4,0.7,0.7,1.2,0.9c0.4,0.2,1,0.3,1.6,0.3c0.5,0,1-0.1,1.4-0.2
	s0.7-0.2,0.9-0.3l0.6-0.3l-0.1-0.6l-0.3-1.2l-0.2-0.9l-0.9,0.4c-0.1,0-0.3,0.1-0.5,0.2c-0.1,0-0.3,0.1-0.7,0.1c-0.1,0-0.3,0-0.4,0
	H150c0,0-0.1-0.1-0.1-0.3c0-0.2-0.1-0.4-0.1-0.8V18h2.1h0.8v-0.8V16v-0.8H152h-2.1v-1.6V12.6z"/>
<path class="st4" d="M157.1,24.4c-0.7,0-1.4-0.1-1.9-0.3c-0.5-0.2-1-0.5-1.4-1c-0.4-0.4-0.6-0.9-0.8-1.4s-0.3-1.1-0.3-1.8
	c0-0.7,0.1-1.4,0.3-2s0.5-1,0.9-1.4s0.8-0.7,1.3-0.9s1-0.3,1.5-0.3c1.2,0,2.1,0.4,2.7,1.1c0.6,0.7,0.9,1.8,0.9,3.3v0.2
	c0,0.1,0,0.2,0,0.3v0.4h-5.2c0.1,0.5,0.3,0.9,0.5,1.1c0.3,0.3,0.9,0.5,1.6,0.5c0.5,0,0.8,0,1.1-0.1c0.4-0.1,0.6-0.2,0.7-0.2l0.5-0.2
	l0.3,2l-0.3,0.1c-0.2,0.1-0.5,0.2-1,0.3C158.2,24.4,157.7,24.4,157.1,24.4z M158.1,18.8c0-0.3-0.2-0.6-0.4-0.9s-0.6-0.5-1-0.5
	c-0.3,0-0.5,0-0.7,0.1s-0.4,0.2-0.5,0.4c-0.1,0.2-0.2,0.4-0.3,0.6c0,0.1-0.1,0.2-0.1,0.2L158.1,18.8L158.1,18.8z"/>
<path class="st2" d="M156.8,15.9c1,0,1.9,0.3,2.4,1c0.6,0.7,0.8,1.7,0.8,3c0,0.1,0,0.1,0,0.2s0,0.2,0,0.3h-5.3
	c0.1,0.8,0.3,1.4,0.7,1.8s1,0.6,1.9,0.6c0.5,0,0.9,0,1.2-0.1s0.6-0.2,0.8-0.2l0.2,1.2c-0.2,0.1-0.5,0.2-0.9,0.3
	c-0.4,0.1-0.9,0.1-1.4,0.1c-0.7,0-1.3-0.1-1.8-0.3c-0.5-0.2-0.9-0.5-1.2-0.8c-0.3-0.4-0.6-0.8-0.7-1.3c-0.2-0.5-0.2-1-0.2-1.6
	c0-0.7,0.1-1.3,0.3-1.8s0.5-0.9,0.8-1.3c0.3-0.3,0.7-0.6,1.1-0.8C155.9,15.9,156.3,15.9,156.8,15.9 M154.7,19.2h3.9
	c0-0.6-0.1-1.1-0.5-1.6c-0.3-0.4-0.8-0.6-1.3-0.6c-0.3,0-0.6,0.1-0.8,0.2s-0.5,0.3-0.6,0.5c-0.2,0.2-0.3,0.4-0.4,0.7
	C154.8,18.7,154.7,18.9,154.7,19.2 M156.8,15c-0.6,0-1.1,0.1-1.6,0.3s-1,0.5-1.4,1c-0.4,0.4-0.7,0.9-1,1.6c-0.2,0.6-0.4,1.3-0.4,2.1
	c0,0.7,0.1,1.3,0.3,1.9s0.5,1.1,0.9,1.6s0.9,0.8,1.5,1.1c0.6,0.2,1.3,0.4,2.1,0.4c0.6,0,1.1-0.1,1.6-0.2s0.8-0.2,1.1-0.4l0.5-0.3
	l-0.1-0.6l-0.2-1.2l-0.2-1.1l-1,0.5c-0.1,0-0.2,0.1-0.6,0.2c-0.3,0.1-0.6,0.1-1,0.1c-0.6,0-1.1-0.1-1.3-0.4
	c-0.1-0.1-0.2-0.3-0.3-0.4h4.3h0.7l0.1-0.7c0-0.1,0-0.2,0-0.4v-0.2c0-1.5-0.3-2.7-1-3.5C159.1,15.4,158.1,15,156.8,15z M155.8,18.4
	l0.1-0.1c0.1-0.1,0.2-0.2,0.4-0.3c0.1-0.1,0.3-0.1,0.5-0.1c0.4,0,0.6,0.1,0.7,0.3l0.1,0.2H155.8z"/>
<path class="st4" d="M161.6,24.3v-8.2l0.3-0.1c0.3-0.1,0.8-0.2,1.3-0.4c0.5-0.1,1.1-0.2,1.7-0.2c0.1,0,0.3,0,0.5,0s0.3,0,0.5,0.1
	c0.2,0,0.3,0.1,0.4,0.1c0.1,0,0.3,0.1,0.3,0.1l0.3,0.1l-0.4,2l-0.5-0.2c-0.1,0-0.3-0.1-0.5-0.1s-0.5-0.1-0.9-0.1
	c-0.2,0-0.5,0-0.7,0.1h-0.2v6.6h-2.1V24.3z"/>
<path class="st2" d="M164.9,15.9c0.1,0,0.3,0,0.4,0c0.2,0,0.3,0,0.5,0.1c0.2,0,0.3,0,0.4,0.1c0.1,0,0.2,0,0.3,0.1l-0.2,1.2
	c-0.1,0-0.3-0.1-0.5-0.1c-0.3-0.1-0.6-0.1-1-0.1c-0.3,0-0.5,0-0.8,0.1s-0.4,0.1-0.5,0.1v6.5H162v-7.5c0.3-0.1,0.7-0.2,1.2-0.3
	C163.7,15.9,164.3,15.9,164.9,15.9 M164.9,15.1c-0.7,0-1.3,0.1-1.8,0.2c-0.5,0.1-1,0.2-1.3,0.4l-0.5,0.2v0.6V24v0.8h0.8h1.4h0.8V24
	v-6c0.1,0,0.3,0,0.4,0c0.3,0,0.6,0,0.8,0.1c0.3,0.1,0.4,0.1,0.4,0.1l0.9,0.3l0.2-0.9l0.2-1.2l0.1-0.7l-0.7-0.2
	c-0.1,0-0.2-0.1-0.4-0.1c-0.1,0-0.3-0.1-0.4-0.1c-0.2,0-0.3-0.1-0.5-0.1C165.2,15.1,165,15.1,164.9,15.1z"/>
<path class="st4" d="M120,45V33.9l0.3-0.1c0.3-0.1,0.8-0.2,1.3-0.3s1.1-0.1,1.8-0.1c0.6,0,1.2,0.1,1.8,0.3c0.5,0.2,1,0.5,1.4,0.9
	s0.7,0.9,0.9,1.4c0.2,0.5,0.3,1.2,0.3,1.8s-0.1,1.2-0.3,1.8c-0.2,0.5-0.4,1-0.8,1.4c-0.3,0.4-0.8,0.7-1.2,1c-0.5,0.2-1,0.3-1.7,0.3
	c-0.5,0-0.9-0.1-1.3-0.2c-0.1,0-0.2-0.1-0.2-0.1v3H120z M122.2,40c0.1,0.1,0.3,0.2,0.5,0.2c0.3,0.1,0.6,0.2,0.9,0.2s0.6-0.1,0.8-0.2
	c0.2-0.1,0.4-0.3,0.5-0.5s0.3-0.5,0.3-0.8c0.1-0.3,0.1-0.7,0.1-1c0-0.8-0.2-1.4-0.6-1.8c-0.4-0.4-0.9-0.6-1.5-0.6
	c-0.4,0-0.7,0-0.9,0h-0.2L122.2,40L122.2,40z"/>
<path class="st2" d="M123.3,33.9c0.6,0,1.1,0.1,1.6,0.3s0.9,0.5,1.2,0.8c0.3,0.3,0.6,0.8,0.8,1.3c0.2,0.5,0.3,1.1,0.3,1.7
	c0,0.6-0.1,1.1-0.2,1.6c-0.2,0.5-0.4,0.9-0.7,1.3c-0.3,0.4-0.7,0.6-1.1,0.8s-0.9,0.3-1.5,0.3c-0.4,0-0.8-0.1-1.2-0.2
	c-0.3-0.1-0.6-0.2-0.8-0.3v3.1h-1.4V34.3c0.3-0.1,0.7-0.2,1.2-0.3C122.1,33.9,122.7,33.9,123.3,33.9 M123.6,40.8
	c0.4,0,0.7-0.1,1-0.2c0.3-0.1,0.5-0.3,0.7-0.6s0.3-0.6,0.4-0.9c0.1-0.3,0.1-0.7,0.1-1.1c0-0.9-0.2-1.6-0.7-2.1
	c-0.4-0.5-1-0.7-1.8-0.7c-0.4,0-0.7,0-1,0c-0.2,0-0.4,0.1-0.6,0.1v4.9c0.2,0.1,0.4,0.3,0.7,0.4C122.8,40.7,123.2,40.8,123.6,40.8
	 M123.3,33c-0.7,0-1.3,0.1-1.9,0.2c-0.5,0.1-0.9,0.2-1.3,0.3l-0.6,0.2v0.7v10.3v0.8h0.8h1.4h0.8v-0.8v-1.9c0.3,0.1,0.7,0.1,1.1,0.1
	c0.7,0,1.3-0.1,1.8-0.4c0.5-0.3,1-0.6,1.4-1.1c0.4-0.4,0.7-1,0.8-1.6c0.2-0.6,0.3-1.2,0.3-1.9s-0.1-1.4-0.3-2
	c-0.2-0.6-0.6-1.1-1-1.6c-0.4-0.4-0.9-0.8-1.5-1C124.7,33.1,124,33,123.3,33z M122.6,36c0.2,0,0.4,0,0.7,0c0.5,0,0.9,0.1,1.2,0.5
	c0.3,0.3,0.5,0.8,0.5,1.5c0,0.3,0,0.6-0.1,0.9c-0.1,0.2-0.1,0.4-0.3,0.6c-0.1,0.1-0.2,0.3-0.4,0.3c-0.2,0.1-0.4,0.1-0.6,0.1
	c-0.3,0-0.5,0-0.7-0.1c-0.1,0-0.2-0.1-0.2-0.1L122.6,36L122.6,36z"/>
<path class="st4" d="M128.8,42.2V34l0.3-0.1c0.3-0.1,0.8-0.2,1.3-0.4c0.5-0.1,1.1-0.2,1.7-0.2c0.1,0,0.3,0,0.5,0s0.3,0,0.5,0.1
	c0.2,0,0.3,0.1,0.4,0.1c0.1,0,0.3,0.1,0.3,0.1l0.3,0.1l-0.4,2l-0.5-0.2c-0.1,0-0.3-0.1-0.5-0.1s-0.5-0.1-0.9-0.1
	c-0.2,0-0.5,0-0.7,0.1h-0.2V42h-2.1V42.2z"/>
<path class="st2" d="M132.1,33.9c0.1,0,0.3,0,0.4,0c0.2,0,0.3,0,0.5,0.1c0.2,0,0.3,0,0.4,0.1c0.1,0,0.2,0,0.3,0.1l-0.2,1.2
	c-0.1,0-0.3-0.1-0.5-0.1c-0.3-0.1-0.6-0.1-1-0.1c-0.3,0-0.5,0-0.8,0.1s-0.4,0.1-0.5,0.1v6.5h-1.4v-7.5c0.3-0.1,0.7-0.2,1.2-0.3
	C130.9,33.9,131.5,33.9,132.1,33.9 M132.1,33c-0.7,0-1.3,0.1-1.8,0.2c-0.5,0.1-1,0.2-1.3,0.4l-0.5,0.2v0.6v7.5v0.8h0.8h1.4h0.8v-0.8
	V36c0.1,0,0.3,0,0.4,0c0.4,0,0.7,0,0.8,0.1c0.3,0.1,0.4,0.1,0.4,0.1l0.9,0.3l0.2-1l0.2-1.2l0.1-0.7l-0.7-0.2c-0.1,0-0.2-0.1-0.4-0.1
	c-0.1,0-0.3-0.1-0.4-0.1c-0.2,0-0.3-0.1-0.5-0.1C132.4,33,132.2,33,132.1,33z"/>
<path class="st4" d="M134.6,42.2v-8.6h2.2v8.6C136.8,42.2,134.6,42.2,134.6,42.2z M135.7,33c-0.4,0-0.7-0.1-0.9-0.4
	c-0.3-0.2-0.4-0.6-0.4-1s0.1-0.7,0.4-1c0.2-0.2,0.6-0.4,0.9-0.4c0.4,0,0.7,0.1,0.9,0.4c0.3,0.2,0.4,0.6,0.4,1s-0.1,0.7-0.4,1
	C136.3,32.9,136,33,135.7,33z"/>
<path class="st2" d="M135.7,30.8c0.2,0,0.5,0.1,0.6,0.2c0.2,0.2,0.3,0.4,0.3,0.7c0,0.3-0.1,0.5-0.3,0.7s-0.4,0.2-0.6,0.2
	c-0.2,0-0.5-0.1-0.6-0.2c-0.2-0.2-0.3-0.4-0.3-0.7s0.1-0.5,0.3-0.7C135.2,30.9,135.4,30.8,135.7,30.8 M136.4,34v7.8H135V34H136.4
	 M135.7,30c-0.5,0-0.9,0.2-1.2,0.5c-0.2,0.2-0.5,0.6-0.5,1.3c0,0.6,0.3,1,0.5,1.3c0.1,0.1,0.2,0.2,0.3,0.2h-0.6V34v7.8v0.8h0.8h1.4
	h0.8v-0.8V34v-0.8h-0.6c0.1-0.1,0.2-0.1,0.3-0.2c0.3-0.3,0.5-0.8,0.5-1.3s-0.2-0.9-0.5-1.3C136.5,30.1,136.1,30,135.7,30z"/>
<path class="st4" d="M140.4,42.2l-0.1-0.2c-0.5-1.1-1-2.3-1.5-3.6s-1-2.8-1.4-4.2l-0.1-0.5h2.4l0.1,0.3c0.1,0.5,0.3,1,0.4,1.5
	c0.2,0.5,0.3,1.1,0.5,1.6s0.4,1.1,0.6,1.6c0.1,0.1,0.1,0.3,0.1,0.4c0-0.1,0.1-0.3,0.1-0.4c0.2-0.5,0.4-1,0.6-1.6
	c0.2-0.5,0.4-1.1,0.5-1.6c0.2-0.5,0.3-1.1,0.4-1.5l0.1-0.3h2.3l-0.1,0.5c-0.4,1.5-0.9,2.9-1.4,4.2s-1,2.6-1.5,3.6l-0.1,0.2H140.4z"
	/>
<path class="st2" d="M144.9,34c-0.4,1.5-0.8,2.9-1.4,4.2s-1,2.5-1.5,3.6h-1.3c-0.5-1.1-1-2.3-1.5-3.6s-1-2.7-1.4-4.2h1.5
	c0.1,0.5,0.3,1,0.4,1.6c0.2,0.6,0.3,1.1,0.5,1.6s0.4,1.1,0.6,1.6c0.2,0.5,0.4,1,0.5,1.4c0.2-0.4,0.3-0.9,0.5-1.4s0.4-1,0.6-1.6
	c0.2-0.5,0.4-1.1,0.5-1.6c0.2-0.6,0.3-1.1,0.4-1.6H144.9 M145.9,33.2h-1.1h-1.4h-0.7l-0.2,0.6c-0.1,0.5-0.3,1-0.4,1.5
	c-0.2,0.5-0.3,1.1-0.5,1.6c-0.1,0.3-0.2,0.6-0.3,0.9c-0.1-0.3-0.2-0.6-0.3-0.9c-0.2-0.5-0.3-1.1-0.5-1.6s-0.3-1.1-0.4-1.5l-0.2-0.6
	h-0.7h-1.5h-1.1l0.3,1c0.4,1.5,0.9,2.9,1.4,4.3c0.5,1.3,1,2.6,1.5,3.6l0.2,0.5h0.5h1.3h0.5l0.2-0.5c0.5-1.1,1-2.3,1.5-3.6
	c0.5-1.4,1-2.8,1.4-4.3L145.9,33.2z"/>
<path class="st4" d="M148.8,42.4c-0.5,0-0.9,0-1.3-0.1c-0.4-0.1-0.8-0.3-1.1-0.5s-0.6-0.5-0.8-0.9s-0.3-0.8-0.3-1.3s0.1-0.9,0.3-1.3
	c0.2-0.4,0.5-0.7,0.9-0.9c0.3-0.2,0.7-0.4,1.2-0.5c0.4-0.1,0.9-0.1,1.3-0.1c0.2,0,0.3,0,0.5,0s0.3,0,0.5,0.1h0.1
	c0-0.2,0-0.3-0.1-0.5c0-0.2-0.1-0.3-0.2-0.4c-0.1-0.1-0.2-0.2-0.4-0.3s-0.4-0.1-0.7-0.1c-0.4,0-0.8,0-1.1,0.1
	c-0.4,0.1-0.6,0.1-0.7,0.2l-0.5,0.2l-0.3-2l0.3-0.1c0.2-0.1,0.5-0.2,1-0.3c0.4-0.1,0.9-0.1,1.4-0.1c0.6,0,1.1,0.1,1.6,0.2
	c0.4,0.2,0.8,0.4,1.1,0.7s0.5,0.7,0.6,1.1c0.1,0.4,0.2,0.8,0.2,1.3V42l-0.8,0.1c-0.3,0-0.5,0.1-0.8,0.1s-0.6,0.1-0.9,0.1
	C149.4,42.4,149.1,42.4,148.8,42.4z M149.1,38.6c-0.2,0-0.4,0-0.6,0c-0.2,0-0.4,0.1-0.5,0.1c-0.1,0.1-0.2,0.2-0.3,0.3
	s-0.1,0.2-0.1,0.4c0,0.5,0.2,0.6,0.3,0.7c0.3,0.2,0.6,0.2,1.1,0.2c0.3,0,0.6,0,0.9,0c0.1,0,0.2,0,0.2,0v-1.7H150
	C149.7,38.6,149.4,38.6,149.1,38.6z"/>
<path class="st2" d="M148.8,33.8c0.6,0,1,0.1,1.4,0.2c0.4,0.1,0.7,0.3,0.9,0.6s0.4,0.6,0.5,0.9c0.1,0.4,0.1,0.8,0.1,1.2v4.9
	c-0.1,0-0.3,0-0.5,0.1c-0.2,0-0.5,0.1-0.7,0.1c-0.3,0-0.6,0.1-0.9,0.1c-0.3,0-0.6,0-0.9,0c-0.4,0-0.8,0-1.2-0.1s-0.7-0.2-1-0.4
	s-0.5-0.5-0.6-0.8c-0.2-0.3-0.2-0.7-0.2-1.2c0-0.4,0.1-0.8,0.3-1.1s0.4-0.6,0.7-0.7s0.6-0.3,1-0.4c0.4-0.1,0.8-0.1,1.3-0.1
	c0.1,0,0.3,0,0.4,0c0.1,0,0.3,0,0.4,0.1s0.3,0,0.4,0.1c0.1,0,0.2,0,0.2,0v-0.4c0-0.2,0-0.5-0.1-0.7c0-0.2-0.1-0.4-0.3-0.6
	c-0.1-0.2-0.3-0.3-0.5-0.4c-0.2-0.1-0.5-0.2-0.9-0.2c-0.5,0-0.9,0-1.2,0.1s-0.6,0.1-0.8,0.2l-0.2-1.2c0.2-0.1,0.5-0.2,0.9-0.2
	C147.9,33.9,148.3,33.8,148.8,33.8 M148.9,40.8c0.3,0,0.6,0,0.9,0c0.3,0,0.5,0,0.6-0.1v-2.3c-0.1,0-0.3-0.1-0.5-0.1
	s-0.5-0.1-0.8-0.1c-0.2,0-0.4,0-0.7,0c-0.2,0-0.4,0.1-0.6,0.2c-0.2,0.1-0.4,0.2-0.5,0.4s-0.2,0.4-0.2,0.7c0,0.5,0.2,0.8,0.5,1
	C147.9,40.7,148.4,40.8,148.9,40.8 M148.8,33c-0.5,0-1,0-1.5,0.1s-0.8,0.2-1.1,0.3l-0.6,0.3l0.1,0.6l0.2,1.2l0.2,1.1l1-0.4
	c0.1,0,0.2-0.1,0.6-0.2c0.3-0.1,0.6-0.1,1.1-0.1c0.3,0,0.5,0,0.5,0.1c0.1,0,0.2,0.1,0.2,0.2l0.1,0.2c-0.2,0-0.3,0-0.5,0
	c-0.5,0-1,0.1-1.4,0.2c-0.5,0.1-0.9,0.3-1.3,0.5c-0.4,0.3-0.7,0.6-1,1c-0.2,0.4-0.4,0.9-0.4,1.5s0.1,1.1,0.3,1.5s0.5,0.8,0.9,1.1
	s0.8,0.4,1.2,0.6c0.4,0.1,0.9,0.2,1.4,0.2c0.3,0,0.7,0,1,0s0.6-0.1,0.9-0.1c0.3,0,0.5-0.1,0.8-0.1l0.5-0.1l0.7-0.1v-0.7V37
	c0-0.5-0.1-1-0.2-1.4c-0.1-0.5-0.4-0.9-0.7-1.3c-0.3-0.4-0.7-0.6-1.3-0.8C150,33.1,149.5,33,148.8,33z M148.9,40
	c-0.5,0-0.7-0.1-0.9-0.2c-0.1,0-0.1-0.3-0.1-0.3c0-0.1,0-0.1,0-0.1c0.1-0.1,0.1-0.1,0.2-0.2c0.1-0.1,0.2-0.1,0.4-0.1s0.4,0,0.6,0
	c0.2,0,0.3,0,0.5,0V40C149.4,40,149.2,40,148.9,40z"/>
<path class="st4" d="M156.7,42.4c-0.6,0-1.1-0.1-1.5-0.2c-0.4-0.2-0.8-0.4-1-0.7s-0.4-0.7-0.5-1.2c-0.1-0.4-0.1-0.9-0.1-1.5v-7.3
	l2.2-0.4v2.5h3v2h-3v3.2c0,0.4,0,0.6,0.1,0.9c0,0.2,0.1,0.3,0.2,0.4c0.1,0.1,0.2,0.1,0.3,0.2c0.1,0,0.3,0.1,0.5,0.1
	c0.4,0,0.7,0,0.9-0.1c0.3-0.1,0.4-0.2,0.5-0.2l0.4-0.2l0.5,1.9l-0.3,0.1c-0.2,0.1-0.4,0.2-0.8,0.3C157.7,42.3,157.2,42.4,156.7,42.4
	z"/>
<path class="st2" d="M155.4,31.6V34h3v1.2h-3v3.6c0,0.4,0,0.7,0.1,1s0.2,0.5,0.3,0.6s0.3,0.2,0.5,0.3s0.4,0.1,0.6,0.1
	c0.4,0,0.8,0,1-0.1c0.3-0.1,0.4-0.2,0.5-0.2l0.3,1.2c-0.1,0.1-0.4,0.2-0.7,0.3s-0.7,0.2-1.2,0.2s-1-0.1-1.3-0.2
	c-0.3-0.1-0.6-0.3-0.8-0.6s-0.4-0.6-0.4-1c-0.1-0.4-0.1-0.9-0.1-1.4v-7L155.4,31.6 M156.2,30.6l-1,0.2l-1.4,0.2l-0.7,0.1v0.7v7
	c0,0.6,0,1.1,0.1,1.5c0.1,0.5,0.3,1,0.6,1.3c0.3,0.4,0.7,0.7,1.2,0.9c0.4,0.2,1,0.3,1.6,0.3c0.5,0,1-0.1,1.4-0.2
	c0.4-0.1,0.7-0.2,0.9-0.3l0.6-0.3l-0.1-0.6l-0.3-1.2l-0.2-0.9l-0.9,0.4c-0.1,0-0.3,0.1-0.5,0.2c-0.1,0-0.3,0.1-0.7,0.1
	c-0.2,0-0.3,0-0.4,0l-0.1-0.1c0,0-0.1-0.1-0.1-0.3c0-0.1-0.1-0.4-0.1-0.8V36h2.1h0.8v-0.8V34v-0.8h-0.8h-2.1v-1.6L156.2,30.6
	L156.2,30.6z"/>
<path class="st4" d="M163.5,42.4c-0.7,0-1.4-0.1-1.9-0.3c-0.6-0.2-1-0.5-1.4-1c-0.4-0.4-0.6-0.9-0.8-1.4s-0.3-1.1-0.3-1.8
	s0.1-1.4,0.3-2s0.5-1,0.9-1.4s0.8-0.7,1.3-0.9s1-0.3,1.5-0.3c1.2,0,2.1,0.4,2.7,1.1c0.6,0.7,0.9,1.8,0.9,3.3V38c0,0.1,0,0.2,0,0.3
	v0.4h-5.2c0.1,0.5,0.3,0.9,0.5,1.1c0.3,0.3,0.9,0.5,1.6,0.5c0.5,0,0.8,0,1.1-0.1c0.4-0.1,0.6-0.2,0.7-0.2l0.5-0.2l0.3,2l-0.3,0.1
	c-0.2,0.1-0.5,0.2-1,0.3C164.6,42.4,164,42.4,163.5,42.4z M164.5,36.8c0-0.3-0.2-0.6-0.4-0.9c-0.2-0.3-0.6-0.5-1-0.5
	c-0.3,0-0.5,0-0.7,0.1s-0.4,0.2-0.5,0.4s-0.2,0.3-0.3,0.6c0,0.1-0.1,0.2-0.1,0.2h3V36.8z"/>
<path class="st2" d="M163.1,33.8c1,0,1.9,0.3,2.4,1c0.6,0.7,0.8,1.7,0.8,3c0,0.1,0,0.1,0,0.2c0,0.1,0,0.2,0,0.3H161
	c0.1,0.8,0.3,1.4,0.7,1.8c0.4,0.4,1,0.6,1.9,0.6c0.5,0,0.9,0,1.2-0.1s0.6-0.2,0.8-0.2l0.2,1.2c-0.2,0.1-0.5,0.2-0.9,0.3
	S164,42,163.5,42c-0.7,0-1.3-0.1-1.8-0.3s-0.9-0.5-1.2-0.8c-0.3-0.4-0.6-0.8-0.7-1.3c-0.2-0.5-0.2-1-0.2-1.6c0-0.7,0.1-1.3,0.3-1.8
	s0.5-0.9,0.8-1.3c0.3-0.3,0.7-0.6,1.1-0.8C162.2,33.9,162.6,33.8,163.1,33.8 M161,37.2h3.9c0-0.6-0.1-1.1-0.5-1.6
	c-0.3-0.4-0.8-0.6-1.3-0.6c-0.3,0-0.6,0.1-0.8,0.2c-0.2,0.1-0.5,0.3-0.6,0.5c-0.2,0.2-0.3,0.4-0.4,0.7
	C161.1,36.6,161.1,36.9,161,37.2 M163.1,33c-0.6,0-1.1,0.1-1.6,0.3s-1,0.5-1.4,1c-0.4,0.4-0.7,0.9-1,1.6c-0.2,0.6-0.4,1.3-0.4,2.1
	c0,0.7,0.1,1.3,0.3,1.9c0.2,0.6,0.5,1.1,0.9,1.6s0.9,0.8,1.5,1.1c0.6,0.2,1.3,0.4,2.1,0.4c0.6,0,1.2-0.1,1.6-0.2
	c0.5-0.1,0.9-0.2,1.1-0.4l0.5-0.3l-0.1-0.6l-0.2-1.2l-0.2-1.1l-1,0.5c-0.1,0-0.2,0.1-0.6,0.2c-0.3,0.1-0.6,0.1-1,0.1
	c-0.6,0-1.1-0.1-1.3-0.4c-0.1-0.1-0.2-0.3-0.3-0.4h4.3h0.7l0.1-0.7c0-0.1,0-0.2,0-0.4v-0.2c0-1.5-0.3-2.7-1-3.5
	C165.4,33.4,164.4,33,163.1,33z M162.2,36.3l0.1-0.1c0.1-0.1,0.2-0.2,0.4-0.3c0.1-0.1,0.3-0.1,0.5-0.1c0.4,0,0.6,0.1,0.7,0.3
	l0.1,0.2C164,36.3,162.2,36.3,162.2,36.3z"/>
<g>
	<path class="st7" d="M31.4,255.8C31.4,255.8,31.4,255.7,31.4,255.8C31.4,255.7,31.4,255.8,31.4,255.8z"/>
	<path class="st4" d="M60.4,238.7c0,15.1-2.6,31-19.9,39.6C31.8,274,26.8,267.9,24,261c-2.8-6.9-3.4-14.7-3.4-22.3
		c1.1-0.7,2-1.6,2.8-2.6c0.8-1,1.5-2.1,1.9-3.4l14-2.4c0.7-0.1,1.5-0.1,2.2,0l14,2.4C56.6,235.1,58.3,237.2,60.4,238.7L60.4,238.7z"
		/>
	<path class="st8" d="M51.6,257.4c-0.9-0.9-3.7-2.3-3.8-2.3c0.1,0.1,3.3,3.2,4.1,4 M51.6,257.4c-0.9-0.9-3.7-2.3-3.8-2.3
		c0.1,0.1,3.3,3.2,4.1,4c0.1,0.1,0.2,0.2,0.2,0.2 M51.6,257.4c-0.9-0.9-3.7-2.3-3.8-2.3c0.1,0.1,3.3,3.2,4.1,4 M51.6,257.4
		c-0.9-0.9-3.7-2.3-3.8-2.3c0.1,0.1,3.3,3.2,4.1,4c0.1,0.1,0.2,0.2,0.2,0.2 M51.6,257.4c-0.9-0.9-3.7-2.3-3.8-2.3
		c0.1,0.1,3.3,3.2,4.1,4c0.1,0.1,0.4,0.4,0.4,0.4c0,0,0-0.2,0-0.3C52.4,258.8,52.1,257.9,51.6,257.4z"/>
	<path class="st4" d="M23.9,254.7l-0.4-1.1l-0.9-2.8v0l-0.4-10l0-0.4l0,0l0,0l0.4,10.3v0L23.9,254.7L23.9,254.7L23.9,254.7z"/>
	<path class="st9" d="M59.3,238.7c-2-1.3-3.6-3.3-4.4-5.5L41.6,231c-0.7-0.1-1.4-0.1-2.1,0l-13.3,2.2c-0.4,1.1-1.1,2.2-1.8,3.1
		c-0.8,0.9-1.7,1.7-2.7,2.4c0,7,0.6,14.1,3.2,20.5s7.3,12,15.6,15.9c10-4.8,14.8-12.1,17.1-20.3c0,0,0.1-0.3,0.1-0.3
		s-1.9,0.9-2.1,1.3c0,0.2,0.1,0.8,0.1,1.1c0.1,1.3,0.1,1.4-0.3,2c-0.5,0.7-1.6,1.1-2.4,1c-0.4-0.1-0.4-0.1-0.4,0.6
		c0.1,0.6,0,0.8-0.5,1.2c-0.6,0.6-1.9,0.9-2.5,0.8c-0.3-0.1-0.8-0.6-1.6-1.3c0,0-1.3-1.3-1.4-1.4c0,0-2.6-2.6-2.7-2.6
		c-0.1,0.1,0.9,1,2.1,2.2c0,0,1.7,1.7,1.8,1.8c1,1,1.1,1.3,1,1.8c-0.2,0.6-1.6,1.3-2.7,1.3c-0.6,0-0.8,0-2.1-1.1
		c-0.1-0.1-1.5-1.3-1.6-1.5c-0.8-0.7-1.6-1.4-1.6-1.4c0,0.1,0.1,0.2,0.2,0.2c0.1,0.1,0.6,0.6,0.6,0.6c0.4,0.4,2.7,2.4,2.7,2.4
		c0.6,0.6,0.5,0.9-0.5,1.5c-0.8,0.4-1.6,0.4-2.8,0c-0.1,0.2-5.6-2.5-9.5-4.8c-2.2-1.4-3.7-3-3.7-3c-0.3-0.2-2.5-1.5-3.1-1.9
		c-0.1-0.1-0.8-0.6-0.9-0.7c0,0-1.1-4.4-1.3-5.4c-0.4-2.6-0.4-9-0.4-9s11.5,2.2,13.4,1.9c3.1-0.3,5.1-1,5.2-1
		c0.3-0.1,1.4,0.8,2.3,1.1c0.2,0,0.4,0,0.6,0.1l0,0c2.7,0.3,7.1,1.3,8.8,1c1.4-0.3,3.7-1.3,3.7-1.3l1.8-0.9c0.8-0.5,1.3-0.7,1.3-0.7
		C59.4,239.9,59.4,239.2,59.3,238.7L59.3,238.7z"/>
	<path class="st10" d="M26.3,256.4L26.3,256.4c-0.3,0.3-0.5,0.7-0.6,1.2C25.8,257,26.1,256.6,26.3,256.4z"/>
	<path class="st10" d="M32.2,269.6C32.2,269.7,32.2,269.7,32.2,269.6L32.2,269.6C32.2,269.7,32.2,269.7,32.2,269.6z"/>
	<path class="st10" d="M56.6,236C56.5,236,56.5,236,56.6,236c-0.1,0-0.1,0-0.1-0.1L56.6,236z"/>
	<path class="st4" d="M26.2,233.2c-0.4,1.1-1.1,2.2-1.8,3.1L26.2,233.2z"/>
	<path class="st10" d="M56.5,236c-3.2,1-8.6,2.7-13,6.5c-2.2-0.1-1.8,0.6-3.1,0.5c-1.3-0.7-1.6-0.8-4.6-0.2
		c-1.9,0.4-4.3,0.4-5.3,0.4c-1.6,0-2-0.1-3-0.5c-0.4-0.2-5.2-2.4-5.2-2.4s0.2,5.5,0.5,7.7c0.2,1.4,1.2,6.7,1.2,6.7
		c0.1,0.1,0.8,0.6,0.9,0.7c0.6,0.4,1,0.7,1.4,0.9c0,0,6.5,5,7.2,4.9c-0.2,1.3-1.2,8.1-1.3,8.4c0,0,0,0,0,0
		c-3.4-3.1-5.7-6.6-7.3-10.5c-2.6-6.4-3.2-13.5-3.2-20.5c1-0.7,1.9-1.5,2.7-2.4c0.8-0.9,1.4-2,1.8-3.1l13.3-2.2
		c0.7-0.1,1.4-0.1,2.1,0l13.3,2.2C55.3,234.2,55.8,235.1,56.5,236C56.5,236,56.5,236,56.5,236z"/>
	<path class="st11" d="M43.2,242.7c-1.2,1-2.4,2.3-3.5,3.7c-1.4,1.7-2.5,3.8-3.4,5.9c0,0-0.1,0-0.2,0c-0.2,0-0.4-0.1-0.5-0.2
		c-0.4-0.4-0.4-0.9-0.1-2.6c0.2-0.7,0.4-1.9,0.5-2.6c0.2-0.7,0.4-1.5,0.6-1.8c0.2-0.3,1.1-0.9,2.1-1.3c0,0,0.9-0.4,1.4-0.7
		c0.5-0.1,1.1-0.3,1.5-0.4c0.2,0,0.3-0.1,0.4-0.1c0.1,0,0.3,0,0.6,0c0,0,0,0,0.1,0c0,0,0,0,0,0c0.1,0,0.1,0,0.2,0c0,0,0.1,0,0.2,0
		C43,242.7,43.1,242.7,43.2,242.7C43.1,242.7,43.2,242.7,43.2,242.7z"/>
	<path class="st8" d="M59.3,240.9c0,0-0.2,5.3-0.6,7.9c-0.2,1.3-0.4,2.6-0.7,3.8c-0.1,0.5-0.2,0.9-0.3,1.4c0,0.2-0.1,0.4-0.1,0.6
		l0,0c-0.5,0.2-1.2,0.6-1.6,0.9c-0.1,0.1-0.3,0.2-0.4,0.3l0,0c-0.2-1.5-0.9-2-3.2-3.5c-1.3-0.9-3.8-2.3-5.4-3.1l-3-1.5l0,0l-1.4,0.1
		c-2,0.2-3.2,0.9-3.4,2.1c-0.2,1.3-1.1,2.1-2.6,2.4c-0.1,0-0.1,0-0.2,0l0,0c-0.1,0-0.2,0-0.2,0c0,0-0.1,0-0.1,0
		c-0.2,0-0.4-0.1-0.5-0.2c-0.4-0.4-0.4-0.9-0.1-2.6c0.2-0.7,0.4-1.9,0.5-2.6c0.2-0.7,0.4-1.5,0.6-1.8c0.2-0.3,1.1-0.9,2.1-1.3
		l1.7-0.9c0.6-0.3,1.1-0.5,1.5-0.5c0.3-0.1,0.7-0.1,1.2,0c0.2,0,0.4,0,0.6,0.1l0,0c2.7,0.3,7.1,1.3,8.8,1c1.4-0.3,3.7-1.5,3.7-1.5
		l3.1-1.5L59.3,240.9z"/>
	<path class="st8" d="M41,265L41,265c-0.1,0-1.1,1.7-2.7,1.4c-1.5-0.2-1.7-1.2-2.1-1.2c-1.7,0-2.3-0.8-2.7-1.5c0,0-2,0.3-2.7-0.3
		c-1.2-1-1.2-2.9-1.2-2.9s-1.1,0.2-1.4,0c-0.7-0.2-1.8-0.9-2.2-1.9c-0.5-1.2,0.6-2.1,0.6-2.1l0.2-0.1c0.2,0,0.3,0.1,0.4,0.1
		c1,0.1,1.8,0.7,2.3,1.8l0.3,0.6l0.2-0.6c0.4-1.1,1-1.9,1.4-2.3c0.4-0.3,0.5-0.3,1.1,0c0.4,0.2,0.8,0.6,1,1l0.3,0.7l0.5-0.4
		c0.4-0.3,0.6-0.4,1-0.2c1.2,0.4,1.7,2,1.3,3.8c-0.3,1.4-0.4,2.1-0.2,1.7c0-0.2,0.1-0.6,0.2-0.9c0.1-0.6,0.4-0.7,1.3-0.5
		c0.8,0.3,1,0.7,1.1,1.8l0.1,1l1.4,0.7C40.6,264.9,40.8,265,41,265z"/>
</g>
</svg>
