<?xml version="1.0" encoding="utf-8"?>
<!-- Generator: Adobe Illustrator 21.0.0, SVG Export Plug-In . SVG Version: 6.00 Build 0)  -->
<svg version="1.1" id="Layer_1" xmlns="http://www.w3.org/2000/svg" xmlns:xlink="http://www.w3.org/1999/xlink" x="0px" y="0px"
	 viewBox="0 0 355.7 379" style="enable-background:new 0 0 355.7 379;" xml:space="preserve">
<style type="text/css">
	.st0{fill:#38C6F4;}
	.st1{fill:#EDEDED;}
	.st2{fill:#727373;}
	.st3{fill:#8465AB;}
	.st4{fill:#FFFFFF;}
	.st5{fill:#F1F1F1;}
	.st6{fill:#FBFBFB;}
	.st7{fill:#CECECE;}
	.st8{fill:#D3D3D3;}
	.st9{fill:#96764D;}
	.st10{fill:#5E6060;}
	.st11{fill:#5E5F5F;}
	.st12{fill:none;stroke:#F1F1F1;stroke-width:3;stroke-miterlimit:10;}
	.st13{fill:none;stroke:#38C6F4;stroke-width:3;stroke-miterlimit:10;}
	.st14{fill:#8465AB;stroke:#FFFFFF;stroke-miterlimit:10;}
	.st15{fill:#E8E7E7;}
	.st16{fill:#B7A9A4;}
	.st17{fill:#67544C;}
	.st18{fill:#7D685A;}
	.st19{fill:#9A8172;}
</style>
<title>23</title>
<path class="st0" d="M216.2,100.2c0,25.8-20.9,46.8-46.8,46.8s-46.8-20.9-46.8-46.8c0-13.7,30.6-6.9,47.7,0
	C188,107.3,216.2,112.5,216.2,100.2"/>
<path class="st1" d="M216.2,100.2c0,12.3-28.2,7.1-45.8,0c-17.1-6.9-47.7-13.7-47.7,0c0-25.8,20.9-46.8,46.8-46.8
	S216.2,74.4,216.2,100.2"/>
<path class="st2" d="M146.7,78.8c0.5,0,1-0.1,1.5-0.3c0.3-0.2,0.5-0.5,0.5-0.9c0-0.4-0.2-0.8-0.5-1c-0.5-0.3-1-0.6-1.6-0.8l-1-0.4
	c-0.3-0.1-0.6-0.3-0.9-0.5c-0.2-0.2-0.4-0.5-0.6-0.7c-0.2-0.3-0.2-0.7-0.2-1.1c0-0.8,0.3-1.5,0.9-2c0.7-0.5,1.6-0.8,2.5-0.7
	c0.3,0,0.5,0,0.8,0l0.7,0.1l0.6,0.1l0.4,0.1l-0.3,1.5c-0.3-0.1-0.6-0.2-0.9-0.3c-0.5-0.1-0.9-0.2-1.4-0.2c-0.4,0-0.8,0.1-1.2,0.3
	c-0.4,0.2-0.6,0.5-0.5,0.9c0,0.2,0,0.4,0.1,0.5c0.1,0.2,0.2,0.3,0.4,0.4c0.2,0.1,0.4,0.3,0.6,0.3c0.2,0.1,0.5,0.2,0.9,0.3
	c0.4,0.2,0.8,0.3,1.2,0.5c0.3,0.1,0.6,0.3,0.9,0.6c0.2,0.2,0.4,0.5,0.6,0.8c0.1,0.4,0.2,0.7,0.2,1.1c0,0.8-0.3,1.6-1,2
	c-0.8,0.5-1.8,0.7-2.7,0.7c-0.7,0-1.3-0.1-1.9-0.2c-0.3-0.1-0.7-0.2-1-0.3l0.3-1.4l0.9,0.3C145.5,78.8,146.1,78.9,146.7,78.8z"/>
<path class="st2" d="M152,75.3c0-0.7,0.1-1.5,0.4-2.2c0.2-0.6,0.6-1.1,1-1.5c0.4-0.4,0.9-0.7,1.4-0.9c0.5-0.2,1-0.3,1.6-0.3
	c1.1-0.1,2.2,0.4,2.9,1.2c0.7,1,1.1,2.3,1,3.6v0.3c0,0.1,0,0.2,0,0.3h-6.5c0,0.8,0.3,1.6,0.8,2.3c0.6,0.6,1.5,0.8,2.3,0.8
	c0.5,0,1,0,1.5-0.2c0.3-0.1,0.6-0.2,0.9-0.3l0.2,1.4c-0.3,0.2-0.7,0.3-1.1,0.3c-0.6,0.1-1.2,0.2-1.7,0.2c-0.7,0-1.4-0.1-2.1-0.4
	c-0.6-0.2-1.1-0.6-1.5-1c-0.4-0.4-0.7-1-0.9-1.5C152.1,76.7,152,76,152,75.3z M158.5,74.4c0-0.7-0.2-1.3-0.6-1.9
	c-0.4-0.5-1-0.7-1.6-0.7c-0.3,0-0.7,0.1-1,0.2c-0.3,0.1-0.5,0.3-0.8,0.6c-0.2,0.2-0.4,0.5-0.5,0.8c-0.1,0.3-0.2,0.7-0.2,1
	L158.5,74.4L158.5,74.4z"/>
<path class="st2" d="M166.1,70.4h0.5l0.6,0.1l0.5,0.1l0.3,0.1l-0.3,1.5c-0.2-0.1-0.4-0.1-0.7-0.2c-0.4-0.1-0.8-0.1-1.2-0.1
	c-0.3,0-0.6,0-0.9,0.1l-0.6,0.1V80h-1.7v-9c0.5-0.2,1-0.3,1.5-0.4C164.7,70.5,165.4,70.4,166.1,70.4z"/>
<path class="st2" d="M177.2,70.6c-0.5,1.7-1,3.4-1.6,5c-0.6,1.6-1.2,3-1.8,4.3h-1.5c-0.6-1.3-1.2-2.7-1.8-4.3
	c-0.6-1.6-1.2-3.3-1.6-5h1.8c0.1,0.6,0.3,1.2,0.5,1.9s0.4,1.3,0.6,2c0.2,0.7,0.4,1.3,0.7,1.9c0.2,0.6,0.4,1.1,0.7,1.6
	c0.2-0.5,0.4-1,0.6-1.6c0.2-0.6,0.5-1.2,0.7-1.9c0.2-0.7,0.4-1.3,0.6-2c0.2-0.7,0.4-1.3,0.5-1.9L177.2,70.6L177.2,70.6z"/>
<path class="st2" d="M178.2,75.3c0-0.7,0.1-1.5,0.4-2.2c0.2-0.6,0.6-1.1,1-1.5c0.4-0.4,0.9-0.7,1.4-0.9c0.5-0.2,1-0.3,1.6-0.3
	c1.1-0.1,2.2,0.4,2.9,1.2c0.7,1,1.1,2.3,1,3.6v0.3c0,0.1,0,0.2,0,0.3H180c0,0.8,0.3,1.6,0.9,2.2c0.6,0.6,1.5,0.8,2.3,0.8
	c0.5,0,1,0,1.5-0.2c0.3-0.1,0.6-0.2,0.9-0.3l0.2,1.4c-0.3,0.2-0.7,0.3-1.1,0.3c-0.6,0.1-1.2,0.2-1.7,0.2c-0.7,0-1.4-0.1-2.1-0.4
	c-0.6-0.2-1.1-0.6-1.5-1c-0.4-0.4-0.7-1-0.9-1.5C178.3,76.7,178.2,76,178.2,75.3z M184.6,74.4c0-0.7-0.2-1.3-0.6-1.9
	c-0.4-0.5-1-0.7-1.6-0.7c-0.3,0-0.7,0.1-1,0.2c-0.3,0.1-0.5,0.3-0.8,0.6c-0.2,0.2-0.4,0.5-0.5,0.8c-0.1,0.3-0.2,0.7-0.2,1
	L184.6,74.4L184.6,74.4z"/>
<path class="st2" d="M192.2,70.4h0.5l0.6,0.1l0.5,0.1l0.3,0.1l-0.3,1.5c-0.2-0.1-0.4-0.1-0.7-0.1c-0.4-0.1-0.8-0.1-1.2-0.1
	c-0.3,0-0.6,0-0.9,0.1l-0.6,0.1V80h-1.7v-9c0.5-0.2,1-0.3,1.5-0.4C190.9,70.5,191.6,70.4,192.2,70.4z"/>
<path class="st3" d="M165.8,53.1c-0.7-0.3-1.3-0.8-1.9-1.4c-0.3-0.3-0.6-0.6-0.9-1c-0.8-1.2-1.3-2.7-1.3-4.2c0-1.7,0.5-3.3,1.6-4.6
	c0.7-0.9,1.7-1.7,2.8-2.2c0.9-0.4,2-0.6,3-0.6c1.5,0,2.9,0.4,4.2,1.3c0.7,0.5,1.4,1.2,1.9,1.9c0.7,1.1,1.2,2.3,1.3,3.6
	c0.1,1.7-0.3,3.3-1.3,4.7c-0.5,0.7-1.1,1.3-1.8,1.9c-0.4,0.2-0.7,0.5-1.1,0.6l-0.3,0.1h-5.8L165.8,53.1z M169.1,43
	c-0.3,0-0.6,0.1-0.9,0.3c-0.7,0.5-0.9,1.5-0.4,2.2c0.2,0.3,0.5,0.5,0.8,0.6c0.2,0.1,0.3,0.1,0.5,0.1c0.9,0,1.5-0.7,1.5-1.6
	C170.7,43.7,170,43,169.1,43l0-0.5L169.1,43L169.1,43z"/>
<path class="st4" d="M169.1,39.6c1.4,0,2.7,0.4,3.9,1.2c0.7,0.5,1.3,1.1,1.8,1.8c0.7,1,1.1,2.2,1.2,3.4c0.1,1.5-0.3,3.1-1.2,4.4
	c-0.5,0.7-1.1,1.2-1.7,1.7c-0.3,0.2-0.7,0.4-1.1,0.6l-0.2,0.1h-5.5l-0.4-0.2c-0.7-0.3-1.2-0.8-1.7-1.3c-0.3-0.3-0.6-0.6-0.8-1
	c-1.7-2.5-1.6-5.8,0.3-8.1c0.7-0.9,1.6-1.5,2.6-2C167.2,39.8,168.2,39.6,169.1,39.6 M169.1,46.6c1.1,0,2-0.9,2-2.1c0-1.1-0.9-2-2-2
	h-0.1c-0.4,0-0.8,0.1-1.1,0.3c-0.9,0.6-1.2,1.9-0.5,2.9c0.3,0.4,0.6,0.7,1.1,0.8C168.7,46.6,168.9,46.6,169.1,46.6 M169.1,38.6
	c-1.1,0-2.2,0.2-3.2,0.7c-1.2,0.5-2.2,1.3-3,2.3c-1.1,1.4-1.7,3.1-1.7,4.9c0,1.6,0.5,3.1,1.4,4.4c0.3,0.4,0.6,0.8,0.9,1.1
	c0.6,0.6,1.3,1.1,2,1.5l0.4,0.2l0.2,0.1h6l0.2-0.1l0.2-0.1c0.4-0.2,0.8-0.4,1.2-0.7c0.8-0.6,1.4-1.2,2-2c1.8-2.7,1.8-6.2,0-8.9
	c-0.6-0.8-1.3-1.5-2.1-2.1C172.3,39.1,170.7,38.6,169.1,38.6L169.1,38.6L169.1,38.6z M169.1,45.6c-0.1,0-0.2,0-0.3,0
	c-0.4-0.1-0.7-0.5-0.7-0.9c-0.1-0.4,0.1-0.8,0.5-1c0.2-0.1,0.4-0.2,0.6-0.2c0.4,0,0.8,0.2,0.9,0.5c0.3,0.5,0.1,1.1-0.4,1.4
	C169.5,45.6,169.3,45.6,169.1,45.6L169.1,45.6L169.1,45.6z"/>
<path class="st3" d="M169.1,68.6c-0.4,0-0.6-0.2-1.8-1.4c-0.5-0.4-0.9-0.9-1.3-1.4c-0.1-0.1-0.1-0.2-0.1-6.5v-6.6h6.5v2.6l0.8,0.8
	c0.9,1,1,1,1.1,1.3c0,0.1,0,0.3,0,0.4c0,0.3-0.1,0.4-1,1.2l-0.5,0.5l0.5,0.5c0.8,0.9,0.9,1,1,1.3c0,0.1,0,0.3,0,0.4
	c0,0.3-0.1,0.4-1,1.3l-0.8,0.8v0.7c0.1,0.5,0,0.9-0.2,1.3c-0.1,0.2-1.3,1.3-1.3,1.3l-1.3,1.2h-0.4L169.1,68.6z"/>
<path class="st4" d="M171.9,53.2v2.3l0.9,0.9c0.4,0.3,0.7,0.6,0.9,1.1c0,0.1,0,0.2,0,0.3c-0.2,0.4-0.5,0.7-0.8,1l-0.8,0.8l0.8,0.8
	c0.4,0.3,0.6,0.6,0.8,1c0,0.1,0,0.2,0,0.3c-0.2,0.4-0.5,0.8-0.9,1.1l-0.9,0.9v0.9c0,0.4,0,0.7-0.1,1.1c0,0.1-0.6,0.6-1.2,1.2
	l-1.1,1.1h-0.2h-0.1c-0.2,0-0.4-0.2-1.5-1.2c-0.4-0.4-0.8-0.8-1.2-1.2c0-0.1-0.1-2.8-0.1-6.2v-6.1H171.9 M172.9,52.2h-7.5v7.1
	c0,6.3,0,6.4,0.1,6.7c0.4,0.6,0.8,1.1,1.4,1.5c1.2,1.2,1.5,1.5,2.2,1.5h0.3l0.2,0h0.3l0.2-0.2l1.1-1.1c0.3-0.3,1.2-1.2,1.3-1.4
	c0.3-0.5,0.4-1.1,0.3-1.6v-0.6l0.6-0.6c1-1,1.1-1.2,1.2-1.6c0-0.2,0-0.4,0-0.6c-0.1-0.5-0.2-0.6-1.1-1.5l-0.1-0.1l0.1-0.1
	c0.9-0.9,1-1.1,1.1-1.5c0-0.2,0-0.4,0-0.6c-0.1-0.5-0.2-0.6-1.2-1.6l-0.6-0.6L172.9,52.2L172.9,52.2L172.9,52.2z"/>
<path class="st5" d="M93.5,100.2c0,25.8-20.9,46.8-46.8,46.8S0,126,0,100.2c0-13.7,30.6-6.9,47.7,0
	C65.3,107.3,93.5,112.5,93.5,100.2z"/>
<path class="st6" d="M93.5,100.2c0,12.3-28.2,7.1-45.8,0C30.6,93.3,0,86.5,0,100.2c0-25.8,20.9-46.8,46.8-46.8S93.5,74.3,93.5,100.2
	z"/>
<path class="st7" d="M31.8,83.8c0.2,0.1,0.3,0.1,0.5,0.2c0.2,0.1,0.4,0.1,0.6,0.1c0.6,0,1.1-0.1,1.5-0.4c0.4-0.4,0.8-0.9,1-1.4
	c-0.8-1.4-1.5-3-2.1-4.6c-0.6-1.6-1.2-3.2-1.6-4.9h1.8c0.1,0.5,0.3,1.1,0.5,1.8s0.4,1.3,0.6,1.9c0.2,0.7,0.5,1.3,0.7,2
	c0.3,0.7,0.5,1.3,0.8,1.9c0.5-1.3,0.9-2.5,1.2-3.7c0.3-1.2,0.7-2.5,1-3.8h1.7c-0.4,1.8-0.9,3.5-1.4,5.1c-0.5,1.6-1.1,3.1-1.7,4.6
	c-0.2,0.5-0.5,1-0.8,1.4c-0.2,0.4-0.5,0.7-0.8,1c-0.3,0.3-0.7,0.4-1,0.6c-0.4,0.1-0.9,0.2-1.3,0.2h-0.4l-0.4-0.1l-0.4-0.1l-0.2-0.1
	L31.8,83.8z"/>
<path class="st7" d="M50.1,77.4c0,0.7-0.1,1.4-0.3,2c-0.2,0.6-0.5,1.1-0.9,1.5c-0.4,0.4-0.9,0.8-1.4,1c-1.1,0.5-2.4,0.5-3.5,0
	c-0.5-0.2-1-0.6-1.4-1c-0.4-0.5-0.7-1-0.9-1.6c-0.4-1.3-0.4-2.7,0-4c0.2-0.6,0.5-1.1,0.9-1.6c0.4-0.4,0.9-0.8,1.4-1
	c1.1-0.5,2.4-0.5,3.5,0c0.5,0.2,1,0.6,1.4,1c0.4,0.5,0.7,1,0.9,1.6C50,76,50.1,76.7,50.1,77.4z M48.3,77.4c0-0.9-0.2-1.7-0.7-2.5
	c-0.9-1.1-2.4-1.2-3.5-0.4c-0.1,0.1-0.3,0.2-0.4,0.4c-0.9,1.5-0.9,3.5,0,5c0.9,1.1,2.4,1.2,3.5,0.4c0.1-0.1,0.3-0.2,0.4-0.4
	C48.2,79.2,48.4,78.3,48.3,77.4L48.3,77.4z"/>
<path class="st7" d="M59.9,81.8c-0.4,0.1-0.9,0.2-1.5,0.3c-0.7,0.1-1.5,0.2-2.2,0.2c-0.6,0-1.2-0.1-1.8-0.3
	c-0.5-0.2-0.9-0.5-1.2-0.9c-0.3-0.4-0.5-0.9-0.7-1.4c-0.1-0.6-0.2-1.2-0.2-1.7v-5.2H54v4.9c-0.1,0.9,0.1,1.7,0.5,2.4
	c0.4,0.5,1.1,0.8,1.8,0.7h0.6h0.5l0.5-0.1c0.1,0,0.2,0,0.3-0.1v-7.9h1.7V81.8L59.9,81.8z"/>
<path class="st4" d="M59,115.9c-5.2-1.7-7.3-3.8-7.3-3.8l-0.2,0.2c-1.2,1.3-2.9,2.1-4.8,2.3h-0.2c-1.8-0.1-3.5-1-4.8-2.3l-0.2-0.2
	c0,0-2.1,2.1-7.3,3.8c-7.6,2.8-5.3,14.4-5.3,14.5c0,0.6,0.2,1.2,0.5,1.8c7.6,3.4,26.6,3.4,34.2,0c0.3-0.5,0.5-1.2,0.5-1.8
	C64.3,130.3,66.6,118.8,59,115.9z"/>
<path class="st4" d="M54.8,102.7c0,0.3-0.1,0.6-0.2,0.9c-0.2,0.6-0.4,1.1-0.7,1.6c-0.9,4.3-3.9,7.9-7.1,7.9s-6.4-3.6-7.3-7.9
	c-0.3-0.5-0.6-1-0.8-1.6c-0.3-0.8-0.4-1.6-0.1-2.4l0.1-0.1c0.4-0.3,0.4-0.4,0.4-0.4c-0.2-1.2-0.4-2.5-0.4-3.8c3.3,1,6.3,2.1,9.1,3.2
	C49.9,101.1,52.3,101.9,54.8,102.7z"/>
<path class="st8" d="M43.4,53c-0.7-0.3-1.3-0.8-1.9-1.4c-0.3-0.3-0.6-0.6-0.9-1c-0.8-1.2-1.3-2.7-1.3-4.2c0-1.7,0.6-3.3,1.6-4.6
	c0.7-0.9,1.7-1.7,2.8-2.2c0.9-0.4,2-0.6,3-0.6c1.5,0,2.9,0.4,4.2,1.3c0.7,0.5,1.4,1.2,1.9,1.9c0.7,1.1,1.1,2.3,1.2,3.6
	c0.1,1.7-0.3,3.3-1.3,4.7c-0.5,0.7-1.2,1.3-1.9,1.9c-0.4,0.2-0.7,0.5-1.1,0.6l-0.3,0.1h-5.7L43.4,53z M46.8,42.9
	c-0.3,0-0.6,0.1-0.8,0.3c-0.7,0.5-0.9,1.5-0.4,2.2c0.2,0.3,0.4,0.5,0.8,0.6c0.2,0.1,0.3,0.1,0.5,0.1c0.9,0,1.5-0.7,1.5-1.6
	C48.3,43.6,47.6,42.9,46.8,42.9l0-0.5L46.8,42.9L46.8,42.9z"/>
<path class="st4" d="M46.8,39.6c1.4,0,2.7,0.4,3.9,1.2c0.7,0.5,1.3,1.1,1.8,1.8c0.7,1,1.1,2.2,1.2,3.4c0.1,1.5-0.3,3.1-1.2,4.4
	C52,51,51.4,51.6,50.8,52c-0.3,0.2-0.7,0.4-1.1,0.6l-0.2,0.1H44l-0.4-0.2c-0.7-0.3-1.2-0.8-1.7-1.3c-0.3-0.3-0.6-0.6-0.8-1
	c-1.7-2.5-1.6-5.8,0.3-8.1c0.7-0.9,1.6-1.5,2.6-2C44.8,39.8,45.8,39.6,46.8,39.6 M46.7,46.6c1.1,0,2-0.9,2-2.1c0-1.1-0.9-2-2-2h0
	c-0.4,0-0.8,0.1-1.1,0.3c-0.9,0.6-1.2,1.9-0.5,2.9c0.3,0.4,0.6,0.7,1.1,0.8C46.3,46.5,46.5,46.6,46.7,46.6 M46.8,38.6
	c-1.1,0-2.2,0.2-3.2,0.7c-1.2,0.5-2.2,1.3-3,2.3c-1.1,1.4-1.7,3.1-1.7,4.9c0,1.6,0.5,3.1,1.3,4.4c0.3,0.4,0.6,0.8,1,1.1
	c0.6,0.6,1.3,1.1,2,1.5l0.4,0.2l0.2,0.1h6l0.2-0.1l0.2-0.1c0.4-0.2,0.8-0.4,1.2-0.6c0.8-0.6,1.4-1.2,2-2c1.8-2.7,1.8-6.2,0-8.9
	c-0.6-0.8-1.3-1.5-2.1-2.1C49.9,39.1,48.3,38.6,46.8,38.6L46.8,38.6L46.8,38.6z M46.8,45.6c-0.1,0-0.2,0-0.3,0
	c-0.4-0.1-0.7-0.5-0.7-0.9c-0.1-0.4,0.1-0.8,0.5-1c0.2-0.1,0.4-0.2,0.6-0.2c0.4,0,0.8,0.2,0.9,0.5c0.3,0.5,0.1,1.1-0.4,1.4
	C47.1,45.5,47,45.6,46.8,45.6L46.8,45.6L46.8,45.6z"/>
<path class="st8" d="M46.7,68.5c-0.5,0-0.6-0.2-1.8-1.4c-0.5-0.4-0.9-0.9-1.3-1.4c-0.1-0.1-0.1-0.2-0.1-6.5v-6.6H50v2.6l0.8,0.8
	c0.9,1,1,1,1,1.3c0,0.1,0,0.3,0,0.4c0,0.3-0.1,0.4-1,1.2l-0.5,0.5l0.5,0.5c0.8,0.9,0.9,1,1,1.3c0,0.1,0,0.3,0,0.4
	c0,0.3-0.1,0.4-1,1.3L50,63.8v0.7c0.1,0.5,0,0.9-0.2,1.3c-0.1,0.2-1.3,1.3-1.3,1.3l-1.2,1.2h-0.4L46.7,68.5z"/>
<path class="st4" d="M49.5,53.2v2.3l0.9,0.9c0.4,0.3,0.7,0.6,0.9,1.1c0,0.1,0,0.2,0,0.3c-0.2,0.4-0.5,0.7-0.8,1l-0.8,0.8l0.8,0.8
	c0.4,0.3,0.6,0.6,0.8,1c0,0.1,0,0.2,0,0.3c-0.2,0.4-0.5,0.8-0.9,1.1l-0.9,0.9v0.9c0,0.4,0,0.7-0.1,1.1c0,0.1-0.6,0.6-1.2,1.2
	l-1.1,1.1h-0.2h-0.1c-0.2,0-0.4-0.2-1.5-1.2c-0.4-0.4-0.8-0.8-1.2-1.2c0-0.1,0-2.8,0-6.2v-6.1H49.5 M50.5,52.2H43v7.1
	c0,6.3,0,6.4,0.2,6.7c0.4,0.6,0.8,1.1,1.4,1.5c1.2,1.2,1.5,1.5,2.2,1.5l0.3,0h0.2h0.3l0.2-0.2l1.1-1.1c0.3-0.3,1.2-1.2,1.3-1.4
	c0.3-0.5,0.4-1.1,0.3-1.6V64l0.6-0.6c1-1,1.1-1.2,1.2-1.6c0-0.2,0-0.4,0-0.6c-0.1-0.5-0.2-0.6-1.1-1.5l-0.1-0.1l0.1-0.1
	c0.9-0.9,1-1.1,1.1-1.5c0-0.2,0-0.4,0-0.6c-0.1-0.5-0.2-0.6-1.2-1.6L50.5,55V52.2L50.5,52.2z"/>
<path class="st5" d="M54.8,102.7c-2.5-0.8-4.8-1.7-7-2.6c-2.8-1.1-5.8-2.2-9.1-3.2c0-0.6,0.1-1.2,0.2-1.8c1-3,4.5-4.6,5.2-4.8
	c0.6-0.3,1.3-0.4,1.9-0.3c0,0,0.7,0.1,0.7,0.1c1.1,0.2,6.7,2.1,7.7,5c0.6,1.8-0.1,5.5-0.1,5.5s0,0,0.4,0.4l0.1,0.1
	C54.9,101.7,54.9,102.2,54.8,102.7z"/>
<rect x="233.6" y="34" class="st9" width="122.1" height="120.6"/>
<g>
	<path class="st9" d="M246.8,7.8c0-0.6,0.1-1.2,0.3-1.8c0.2-0.5,0.4-0.9,0.8-1.3c0.3-0.3,0.7-0.6,1.2-0.7c0.4-0.2,0.9-0.3,1.3-0.3
		c0.9-0.1,1.8,0.3,2.4,1c0.6,0.9,0.9,1.9,0.8,3v0.2c0,0.1,0,0.2,0,0.3h-5.3c0,0.7,0.3,1.3,0.7,1.8c0.5,0.5,1.2,0.7,1.9,0.6
		c0.4,0,0.8,0,1.2-0.1c0.3-0.1,0.5-0.1,0.8-0.3l0.2,1.2c-0.3,0.1-0.6,0.2-0.9,0.3c-0.5,0.1-1,0.2-1.4,0.1c-0.6,0-1.2-0.1-1.8-0.3
		c-0.5-0.2-0.9-0.5-1.2-0.9c-0.3-0.4-0.6-0.8-0.7-1.3C246.9,8.8,246.8,8.3,246.8,7.8z M252.2,6.9c0-0.6-0.1-1.1-0.5-1.6
		c-0.3-0.4-0.8-0.6-1.3-0.6c-0.3,0-0.6,0.1-0.9,0.2c-0.2,0.1-0.4,0.3-0.6,0.5c-0.2,0.2-0.3,0.4-0.4,0.7c-0.1,0.3-0.2,0.5-0.2,0.8
		C248.3,6.9,252.2,6.9,252.2,6.9z"/>
	<path class="st9" d="M255.6,4.1c0.4-0.1,0.8-0.1,1.3-0.3c0.6-0.1,1.2-0.1,1.8-0.1c0.5,0,1,0.1,1.5,0.3c0.4,0.2,0.7,0.4,1,0.7
		c0.3,0.3,0.4,0.7,0.5,1.1c0.1,0.5,0.2,1,0.2,1.4v4.4h-1.4V7.6c0-0.4,0-0.8-0.1-1.2c0-0.3-0.2-0.6-0.3-0.8c-0.1-0.2-0.4-0.4-0.6-0.5
		c-0.3-0.1-0.6-0.1-1-0.1h-0.5h-0.5L257.3,5H257v6.6h-1.4L255.6,4.1L255.6,4.1z"/>
	<path class="st9" d="M267.6,11.8c-0.6,0-1.1-0.1-1.7-0.3c-0.5-0.2-0.9-0.5-1.2-0.8c-0.3-0.4-0.6-0.8-0.7-1.3
		c-0.2-0.5-0.2-1.1-0.2-1.6c0-0.6,0.1-1.1,0.3-1.7c0.2-0.5,0.4-0.9,0.7-1.3c0.3-0.4,0.7-0.7,1.2-0.9c0.5-0.2,1-0.3,1.5-0.3
		c0.3,0,0.7,0,1,0.1c0.3,0.1,0.7,0.2,1,0.3l-0.3,1.2c-0.2-0.1-0.5-0.2-0.7-0.3c-0.3-0.1-0.6-0.1-0.9-0.1c-0.7,0-1.3,0.2-1.8,0.7
		c-0.5,0.6-0.7,1.4-0.6,2.1c0,0.4,0,0.8,0.1,1.2c0.1,0.3,0.2,0.6,0.5,0.9c0.2,0.3,0.5,0.5,0.8,0.6c0.4,0.1,0.8,0.2,1.2,0.2
		c0.3,0,0.7,0,1-0.1c0.2-0.1,0.5-0.1,0.7-0.2l0.2,1.2c-0.1,0.1-0.2,0.1-0.3,0.1l-0.5,0.1l-0.6,0.1C268.1,11.8,267.9,11.8,267.6,11.8
		z"/>
	<path class="st9" d="M274.1,3.7h0.4l0.5,0.1l0.4,0.1l0.3,0.1l-0.2,1.2c-0.2-0.1-0.4-0.2-0.5-0.2c-0.3-0.1-0.7-0.1-1-0.1
		c-0.3,0-0.5,0-0.8,0.1l-0.5,0.1v6.6h-1.4V4.2c0.4-0.1,0.8-0.3,1.2-0.3C273,3.7,273.6,3.7,274.1,3.7z"/>
	<path class="st9" d="M276.4,13.1c0.1,0.1,0.3,0.1,0.4,0.1c0.2,0,0.3,0.1,0.5,0.1c0.5,0,0.9-0.1,1.3-0.4c0.4-0.3,0.7-0.7,0.8-1.2
		c-0.6-1.2-1.2-2.5-1.8-3.8c-0.5-1.3-1-2.7-1.4-4.1h1.5c0.1,0.5,0.2,0.9,0.4,1.5c0.2,0.5,0.3,1.1,0.5,1.6c0.2,0.6,0.4,1.1,0.6,1.7
		c0.2,0.5,0.4,1.1,0.7,1.6c0.4-1,0.7-2.1,1-3.1c0.3-1,0.6-2.1,0.8-3.2h1.4c-0.4,1.5-0.8,2.9-1.2,4.2c-0.4,1.4-0.9,2.6-1.4,3.8
		c-0.2,0.4-0.4,0.8-0.6,1.2c-0.2,0.3-0.4,0.6-0.7,0.8c-0.3,0.2-0.6,0.4-0.9,0.5c-0.4,0.1-0.7,0.2-1.1,0.1H277l-0.4-0.1l-0.3-0.1
		l-0.2-0.1L276.4,13.1z"/>
	<path class="st9" d="M291.7,7.8c0,0.6-0.1,1.1-0.2,1.6c-0.1,0.5-0.4,0.9-0.7,1.3c-0.3,0.4-0.7,0.6-1.1,0.8c-0.5,0.2-1,0.3-1.5,0.3
		c-0.4,0-0.8,0-1.2-0.2c-0.3-0.1-0.5-0.2-0.8-0.3v3.1h-1.4V4.1c0.3-0.1,0.7-0.2,1.2-0.3c0.6-0.1,1.1-0.1,1.7-0.1
		c0.6,0,1.1,0.1,1.6,0.3c0.5,0.2,0.9,0.5,1.2,0.8c0.4,0.4,0.6,0.8,0.8,1.3C291.6,6.6,291.7,7.2,291.7,7.8z M290.2,7.8
		c0.1-0.8-0.2-1.5-0.7-2.1c-0.5-0.5-1.1-0.8-1.8-0.7c-0.3,0-0.7,0-1,0c-0.2,0-0.4,0.1-0.6,0.1v4.9c0.2,0.2,0.5,0.3,0.7,0.4
		c0.3,0.1,0.7,0.2,1,0.2c0.3,0,0.7-0.1,1-0.2c0.3-0.1,0.5-0.3,0.7-0.6c0.2-0.3,0.3-0.6,0.4-0.9C290.1,8.5,290.2,8.1,290.2,7.8
		L290.2,7.8z"/>
	<path class="st9" d="M293.2,7.8c0-0.6,0.1-1.2,0.3-1.8c0.2-0.5,0.4-0.9,0.8-1.3c0.3-0.3,0.7-0.6,1.1-0.7c0.4-0.2,0.9-0.3,1.3-0.3
		c0.9-0.1,1.8,0.3,2.4,1c0.6,0.9,0.9,1.9,0.8,3v0.2c0,0.1,0,0.2,0,0.3h-5.3c0,0.7,0.3,1.3,0.7,1.8c0.5,0.5,1.2,0.7,1.9,0.6
		c0.4,0,0.8,0,1.2-0.1c0.3-0.1,0.5-0.1,0.8-0.3l0.2,1.2c-0.3,0.1-0.6,0.2-0.9,0.3c-0.5,0.1-1,0.2-1.5,0.1c-0.6,0-1.2-0.1-1.8-0.3
		c-0.5-0.2-0.9-0.5-1.2-0.9c-0.3-0.4-0.6-0.8-0.7-1.3C293.3,8.8,293.2,8.3,293.2,7.8z M298.5,6.9c0-0.6-0.1-1.1-0.5-1.6
		c-0.3-0.4-0.8-0.6-1.3-0.6c-0.3,0-0.6,0.1-0.9,0.2c-0.2,0.1-0.4,0.3-0.6,0.5c-0.2,0.2-0.3,0.4-0.4,0.7c-0.1,0.3-0.2,0.5-0.2,0.8
		C294.7,6.9,298.5,6.9,298.5,6.9z"/>
	<path class="st9" d="M307.1,0.2l1.4-0.2v11.4c-0.3,0.1-0.7,0.2-1.2,0.3c-0.6,0.1-1.2,0.1-1.7,0.1c-0.6,0-1.1-0.1-1.6-0.3
		c-0.5-0.2-0.9-0.5-1.2-0.8c-0.4-0.4-0.6-0.8-0.8-1.3c-0.2-0.5-0.3-1.1-0.3-1.7c0-0.6,0.1-1.1,0.2-1.7c0.1-0.5,0.4-0.9,0.7-1.3
		c0.3-0.4,0.7-0.7,1.1-0.9c0.5-0.2,1-0.3,1.5-0.3c0.4,0,0.8,0.1,1.2,0.2c0.3,0.1,0.5,0.2,0.8,0.3L307.1,0.2L307.1,0.2z M307.1,5.5
		c-0.2-0.2-0.5-0.3-0.7-0.4c-0.3-0.1-0.7-0.2-1-0.2c-0.3,0-0.7,0.1-1,0.2c-0.3,0.1-0.5,0.3-0.7,0.6c-0.2,0.3-0.3,0.6-0.4,0.9
		C303.1,7,303,7.4,303,7.7c-0.1,0.8,0.2,1.5,0.7,2.1c0.5,0.5,1.1,0.8,1.8,0.7c0.3,0,0.7,0,1-0.1c0.2,0,0.4-0.1,0.6-0.1V5.5z"/>
	<path class="st9" d="M320.7,11.6c-0.3-0.7-0.6-1.5-0.9-2.5c-0.3-0.9-0.6-1.9-0.9-2.9c-0.3,1-0.5,2-0.9,2.9
		c-0.3,0.9-0.6,1.8-0.9,2.5H316c-0.5-1-0.9-2.2-1.4-3.5s-0.9-2.7-1.3-4.3h1.5c0.1,0.5,0.2,1,0.4,1.5s0.3,1.1,0.4,1.6
		c0.2,0.6,0.3,1.1,0.5,1.6c0.2,0.5,0.3,0.9,0.5,1.3c0.2-0.5,0.3-1,0.5-1.5c0.2-0.5,0.3-1.1,0.5-1.6c0.2-0.5,0.3-1.1,0.4-1.6
		s0.2-1,0.4-1.4h1.2c0.1,0.5,0.2,0.9,0.3,1.4c0.1,0.5,0.3,1,0.4,1.6c0.1,0.5,0.3,1.1,0.5,1.6c0.2,0.5,0.3,1,0.5,1.5
		c0.2-0.4,0.3-0.8,0.5-1.3c0.2-0.5,0.3-1,0.5-1.6c0.2-0.5,0.3-1.1,0.5-1.7s0.3-1.1,0.4-1.5h1.4c-0.4,1.5-0.8,3-1.3,4.3
		s-0.9,2.5-1.4,3.5C321.9,11.6,320.7,11.6,320.7,11.6z"/>
	<path class="st9" d="M326.7,2.4c-0.2,0-0.5-0.1-0.7-0.3c-0.2-0.2-0.3-0.4-0.3-0.7c0-0.2,0.1-0.5,0.3-0.7c0.4-0.3,0.9-0.3,1.3,0
		c0.2,0.2,0.3,0.4,0.3,0.7c0,0.3-0.1,0.5-0.3,0.7C327.1,2.3,326.9,2.4,326.7,2.4z M327.4,11.6H326V3.8h1.4L327.4,11.6L327.4,11.6z"
		/>
	<path class="st9" d="M331.1,3.8h3V5h-3v3.6c0,0.3,0,0.7,0.1,1c0,0.2,0.1,0.4,0.3,0.6c0.1,0.1,0.3,0.3,0.5,0.3
		c0.2,0.1,0.4,0.1,0.6,0.1c0.3,0,0.7,0,1-0.1l0.5-0.2l0.3,1.2c-0.2,0.1-0.5,0.2-0.7,0.3c-0.4,0.1-0.8,0.2-1.2,0.2
		c-0.4,0-0.9-0.1-1.3-0.2c-0.3-0.1-0.6-0.3-0.8-0.6c-0.2-0.3-0.4-0.6-0.4-1c-0.1-0.5-0.1-0.9-0.1-1.4v-7l1.4-0.2L331.1,3.8
		L331.1,3.8z"/>
	<path class="st9" d="M335.8,11.6V0.2l1.4-0.2v3.9c0.3-0.1,0.5-0.1,0.8-0.2c0.3-0.1,0.6-0.1,0.9-0.1c0.5,0,1,0.1,1.5,0.3
		c0.4,0.2,0.7,0.4,1,0.7c0.3,0.3,0.4,0.7,0.5,1.1c0.1,0.5,0.2,1,0.1,1.5v4.4h-1.4V7.6c0-0.4,0-0.8-0.1-1.2c0-0.3-0.2-0.6-0.3-0.8
		c-0.1-0.2-0.4-0.4-0.6-0.5c-0.3-0.1-0.6-0.1-0.9-0.1h-0.5L337.8,5l-0.4,0.1l-0.3,0.1v6.5H335.8z"/>
	<path class="st9" d="M247.4,29.8c-0.6,0-1.1-0.1-1.7-0.3c-0.5-0.2-0.9-0.5-1.2-0.8c-0.3-0.4-0.6-0.8-0.7-1.3
		c-0.2-0.5-0.2-1.1-0.2-1.6c0-0.6,0.1-1.1,0.3-1.6c0.2-0.5,0.4-0.9,0.7-1.3c0.3-0.4,0.7-0.7,1.2-0.9c0.5-0.2,1-0.3,1.6-0.3
		c0.3,0,0.7,0,1,0.1c0.3,0.1,0.7,0.2,1,0.3l-0.3,1.2c-0.2-0.1-0.5-0.2-0.7-0.2c-0.3-0.1-0.6-0.1-0.9-0.1c-0.7,0-1.3,0.2-1.8,0.7
		c-0.5,0.6-0.7,1.4-0.6,2.1c0,0.4,0,0.8,0.1,1.1c0.1,0.3,0.2,0.6,0.4,0.9c0.2,0.3,0.5,0.5,0.8,0.6c0.4,0.1,0.8,0.2,1.2,0.2
		c0.3,0,0.7,0,1-0.1c0.2,0,0.5-0.1,0.7-0.2l0.2,1.2c-0.1,0.1-0.2,0.1-0.4,0.1l-0.5,0.1l-0.6,0.1C247.8,29.8,247.6,29.8,247.4,29.8z"
		/>
	<path class="st9" d="M251,29.6V18.2l1.4-0.2v4c0.3-0.1,0.5-0.2,0.8-0.2c0.3-0.1,0.6-0.1,0.9-0.1c0.5,0,1,0.1,1.5,0.3
		c0.4,0.2,0.7,0.4,1,0.7c0.3,0.3,0.4,0.7,0.5,1.1c0.1,0.5,0.2,1,0.1,1.5v4.4h-1.4v-4.1c0-0.4,0-0.8-0.1-1.2c0-0.3-0.2-0.6-0.3-0.8
		c-0.1-0.2-0.4-0.4-0.6-0.5c-0.3-0.1-0.6-0.1-0.9-0.1h-0.5L253,23l-0.4,0.1l-0.3,0.1v6.5H251z"/>
	<path class="st9" d="M260.2,20.4c-0.2,0-0.5-0.1-0.6-0.3c-0.3-0.4-0.3-1,0-1.3c0.4-0.3,0.9-0.3,1.3,0c0.3,0.4,0.3,1,0,1.3
		C260.7,20.3,260.5,20.4,260.2,20.4z M260.9,29.6h-1.4v-7.8h1.4V29.6z"/>
	<path class="st9" d="M265.7,29.8c-0.7,0-1.3-0.2-1.8-0.6c-0.4-0.4-0.6-1-0.5-1.6v-9.4l1.4-0.2v9.4c0,0.2,0,0.4,0.1,0.6
		c0,0.1,0.1,0.3,0.2,0.4c0.1,0.1,0.2,0.2,0.4,0.2c0.2,0.1,0.4,0.1,0.6,0.1L265.7,29.8z"/>
	<path class="st9" d="M272.5,18.2l1.4-0.2v11.4c-0.3,0.1-0.7,0.2-1.2,0.3c-0.6,0.1-1.2,0.1-1.7,0.1c-0.6,0-1.1-0.1-1.6-0.3
		c-0.5-0.2-0.9-0.5-1.2-0.8c-0.4-0.4-0.6-0.8-0.8-1.3c-0.2-0.5-0.3-1.1-0.3-1.7c0-0.6,0.1-1.1,0.2-1.6c0.1-0.5,0.4-0.9,0.7-1.3
		c0.3-0.4,0.7-0.7,1.1-0.8c0.5-0.2,1-0.3,1.5-0.3c0.4,0,0.8,0.1,1.2,0.2c0.3,0.1,0.5,0.2,0.8,0.3L272.5,18.2L272.5,18.2z
		 M272.5,23.5c-0.2-0.2-0.5-0.3-0.7-0.4c-0.3-0.1-0.7-0.2-1-0.2c-0.3,0-0.7,0.1-1,0.2c-0.3,0.1-0.5,0.3-0.7,0.6
		c-0.2,0.3-0.3,0.6-0.4,0.9c-0.1,0.4-0.1,0.7-0.1,1.1c-0.1,0.8,0.2,1.5,0.7,2.1c0.5,0.5,1.1,0.8,1.8,0.7c0.3,0,0.7,0,1,0
		c0.2,0,0.4-0.1,0.6-0.1v-4.9H272.5z"/>
	<path class="st9" d="M286.6,25.8c0,0.6-0.1,1.1-0.2,1.6c-0.1,0.5-0.4,0.9-0.7,1.3c-0.3,0.4-0.7,0.6-1.1,0.8c-0.5,0.2-1,0.3-1.5,0.3
		c-0.4,0-0.8-0.1-1.2-0.2c-0.3-0.1-0.5-0.2-0.8-0.3v3.1h-1.4V22.1c0.3-0.1,0.7-0.2,1.2-0.3c0.6-0.1,1.1-0.1,1.7-0.1
		c0.6,0,1.1,0.1,1.6,0.3c0.5,0.2,0.9,0.5,1.2,0.8c0.4,0.4,0.6,0.8,0.8,1.3C286.5,24.6,286.6,25.2,286.6,25.8z M285.1,25.8
		c0.1-0.8-0.2-1.5-0.7-2.1c-0.5-0.5-1.1-0.8-1.8-0.7c-0.3,0-0.7,0-1,0c-0.2,0-0.4,0.1-0.6,0.1v4.9c0.2,0.2,0.5,0.3,0.7,0.4
		c0.3,0.1,0.7,0.2,1,0.2c0.3,0,0.7-0.1,1-0.2c0.3-0.1,0.5-0.3,0.7-0.6c0.2-0.3,0.3-0.6,0.4-0.9C285.1,26.5,285.1,26.1,285.1,25.8
		L285.1,25.8z"/>
	<path class="st9" d="M294.8,29.4c-0.3,0.1-0.7,0.2-1.3,0.3c-0.6,0.1-1.2,0.1-1.8,0.1c-0.5,0-1-0.1-1.5-0.3c-0.4-0.2-0.7-0.4-1-0.7
		c-0.3-0.3-0.4-0.7-0.5-1.1c-0.1-0.5-0.2-1-0.2-1.5v-4.4h1.4v4.1c-0.1,0.7,0.1,1.4,0.5,2c0.4,0.4,0.9,0.7,1.5,0.6h0.5h0.5h0.4l0.3,0
		v-6.7h1.4L294.8,29.4L294.8,29.4z"/>
	<path class="st9" d="M298.6,22.2c0.2-0.1,0.5-0.3,0.8-0.3c0.4-0.1,0.8-0.2,1.2-0.2c0.5,0,1,0.1,1.5,0.3c0.4,0.2,0.8,0.5,1.1,0.8
		c0.3,0.4,0.5,0.8,0.7,1.3c0.2,0.5,0.2,1.1,0.2,1.6c0,0.6-0.1,1.2-0.3,1.7c-0.2,0.5-0.4,0.9-0.8,1.3c-0.3,0.4-0.8,0.6-1.2,0.8
		c-0.5,0.2-1.1,0.3-1.6,0.3c-0.6,0-1.2,0-1.7-0.1c-0.5-0.1-0.9-0.2-1.2-0.3V18.2l1.4-0.2L298.6,22.2L298.6,22.2z M298.6,28.4
		c0.2,0,0.4,0.1,0.6,0.1c0.3,0,0.7,0.1,1,0c0.7,0,1.3-0.2,1.8-0.7c0.5-0.6,0.7-1.3,0.7-2.1c0-0.4,0-0.8-0.1-1.1
		c-0.1-0.3-0.2-0.6-0.4-0.9c-0.2-0.3-0.4-0.5-0.7-0.6c-0.3-0.1-0.7-0.2-1-0.2c-0.3,0-0.7,0.1-1,0.2c-0.3,0.1-0.5,0.2-0.7,0.4v4.9
		H298.6z"/>
	<path class="st9" d="M308.4,29.8c-0.7,0-1.3-0.2-1.8-0.6c-0.4-0.4-0.6-1-0.5-1.6v-9.4l1.4-0.2v9.4c0,0.2,0,0.4,0.1,0.6
		c0,0.1,0.1,0.3,0.2,0.4c0.1,0.1,0.2,0.2,0.4,0.2c0.2,0.1,0.4,0.1,0.6,0.1L308.4,29.8z"/>
	<path class="st9" d="M310.8,20.4c-0.2,0-0.5-0.1-0.6-0.3c-0.3-0.4-0.3-1,0-1.3c0.4-0.3,0.9-0.3,1.3,0c0.3,0.4,0.3,1,0,1.3
		C311.3,20.3,311,20.4,310.8,20.4z M311.5,29.6h-1.4v-7.8h1.4V29.6z"/>
	<path class="st9" d="M317.3,29.8c-0.6,0-1.1-0.1-1.7-0.3c-0.5-0.2-0.9-0.5-1.2-0.8c-0.3-0.4-0.6-0.8-0.7-1.3
		c-0.2-0.5-0.2-1.1-0.2-1.6c0-0.6,0.1-1.1,0.3-1.6c0.2-0.5,0.4-0.9,0.7-1.3c0.3-0.4,0.7-0.7,1.2-0.9c0.5-0.2,1-0.3,1.5-0.3
		c0.3,0,0.7,0,1,0.1c0.3,0.1,0.7,0.2,1,0.3l-0.3,1.2c-0.2-0.1-0.5-0.2-0.7-0.2c-0.3-0.1-0.6-0.1-0.9-0.1c-0.7,0-1.3,0.2-1.8,0.7
		c-0.5,0.6-0.7,1.4-0.6,2.1c0,0.4,0,0.8,0.1,1.1c0.1,0.3,0.2,0.6,0.5,0.9c0.2,0.3,0.5,0.5,0.8,0.6c0.4,0.1,0.8,0.2,1.2,0.2
		c0.3,0,0.7,0,1-0.1c0.2,0,0.5-0.1,0.7-0.2l0.2,1.2c-0.1,0.1-0.2,0.1-0.3,0.1l-0.5,0.1l-0.6,0.1C317.7,29.8,317.5,29.8,317.3,29.8z"
		/>
	<path class="st9" d="M327.2,25.4c0.4,0.3,0.7,0.6,1,0.9c0.3,0.3,0.7,0.7,1,1.1c0.3,0.4,0.6,0.8,0.9,1.2c0.3,0.4,0.5,0.7,0.7,1.1
		h-1.6c-0.2-0.4-0.5-0.7-0.7-1.1c-0.3-0.4-0.6-0.7-0.9-1c-0.3-0.3-0.6-0.6-0.9-0.9c-0.3-0.3-0.6-0.5-0.9-0.7v3.7h-1.4V18.2l1.4-0.2
		v7.1l0.8-0.8l0.9-0.9l0.8-0.9l0.6-0.7h1.6l-0.8,0.8l-0.8,0.9l-0.9,0.9L327.2,25.4z"/>
	<path class="st9" d="M331.4,25.8c0-0.6,0.1-1.2,0.3-1.8c0.2-0.5,0.4-0.9,0.8-1.3c0.3-0.3,0.7-0.6,1.1-0.8c0.4-0.2,0.9-0.3,1.3-0.3
		c0.9-0.1,1.8,0.3,2.4,1c0.6,0.9,0.9,1.9,0.8,3v0.2c0,0.1,0,0.2,0,0.3h-5.4c0,0.7,0.3,1.3,0.7,1.9c0.5,0.5,1.2,0.7,1.9,0.6
		c0.4,0,0.8,0,1.2-0.1c0.3-0.1,0.5-0.1,0.8-0.3l0.2,1.2c-0.3,0.1-0.6,0.2-0.9,0.3c-0.5,0.1-1,0.2-1.5,0.1c-0.6,0-1.2-0.1-1.8-0.3
		c-0.5-0.2-0.9-0.5-1.2-0.9c-0.3-0.4-0.6-0.8-0.7-1.3C331.4,26.9,331.3,26.3,331.4,25.8z M336.7,24.9c0-0.6-0.1-1.1-0.5-1.5
		c-0.3-0.4-0.8-0.6-1.3-0.6c-0.3,0-0.6,0.1-0.9,0.2c-0.2,0.1-0.4,0.3-0.6,0.5c-0.2,0.2-0.3,0.4-0.4,0.7c-0.1,0.3-0.2,0.5-0.2,0.8
		C332.8,24.9,336.7,24.9,336.7,24.9z"/>
	<path class="st9" d="M339.3,31.1c0.1,0.1,0.3,0.1,0.4,0.1c0.2,0,0.3,0.1,0.5,0.1c0.5,0,0.9-0.1,1.3-0.4c0.4-0.3,0.7-0.7,0.8-1.2
		c-0.6-1.2-1.2-2.5-1.8-3.8c-0.5-1.3-1-2.7-1.4-4.1h1.5c0.1,0.5,0.2,0.9,0.4,1.5c0.2,0.5,0.3,1.1,0.5,1.6c0.2,0.6,0.4,1.1,0.6,1.6
		c0.2,0.5,0.4,1.1,0.7,1.6c0.4-1,0.7-2.1,1-3.1c0.3-1,0.5-2.1,0.8-3.2h1.4c-0.4,1.5-0.8,2.9-1.2,4.2c-0.4,1.4-0.9,2.6-1.4,3.8
		c-0.2,0.4-0.4,0.8-0.6,1.2c-0.2,0.3-0.4,0.6-0.7,0.8c-0.3,0.2-0.6,0.4-0.9,0.5c-0.4,0.1-0.7,0.2-1.1,0.2h-0.3l-0.4-0.1l-0.3-0.1
		l-0.2-0.1L339.3,31.1z"/>
</g>
<path class="st0" d="M341.4,100.2c0,25.8-20.9,46.8-46.8,46.8c-25.8,0-46.8-20.9-46.8-46.8c0-13.7,30.6-6.9,47.7,0
	C313.2,107.3,341.4,112.5,341.4,100.2z"/>
<path class="st1" d="M341.4,100.2c0,12.3-28.2,7.1-45.8,0c-17.1-6.9-47.7-13.7-47.7,0c0-25.8,20.9-46.8,46.8-46.8
	C320.5,53.4,341.4,74.3,341.4,100.2z"/>
<path class="st2" d="M268.4,82.7c0.3-0.2,0.6-0.3,0.9-0.4c0.5-0.2,0.9-0.2,1.4-0.2c0.6,0,1.2,0.1,1.8,0.4c0.5,0.2,1,0.6,1.3,1
	c0.4,0.5,0.7,1,0.8,1.6c0.2,0.6,0.3,1.3,0.3,2c0,0.7-0.1,1.4-0.3,2c-0.2,0.6-0.5,1.1-1,1.5c-0.4,0.4-0.9,0.8-1.5,1
	c-0.6,0.2-1.3,0.4-1.9,0.3c-0.7,0-1.4,0-2.1-0.2c-0.6-0.1-1.1-0.2-1.5-0.3V77.9l1.7-0.3L268.4,82.7L268.4,82.7z M268.4,90.2
	c0.2,0.1,0.5,0.1,0.7,0.1c0.4,0,0.8,0.1,1.1,0.1c0.8,0,1.6-0.3,2.2-0.9c0.6-0.7,0.9-1.6,0.8-2.5c0-0.5,0-0.9-0.1-1.3
	c-0.1-0.4-0.2-0.8-0.5-1.1c-0.2-0.3-0.5-0.6-0.8-0.7c-0.4-0.2-0.8-0.3-1.2-0.3c-0.4,0-0.9,0.1-1.3,0.2c-0.3,0.1-0.6,0.3-0.9,0.5
	L268.4,90.2L268.4,90.2z"/>
<path class="st2" d="M280.3,82c0.6,0,1.2,0.1,1.7,0.3c0.4,0.2,0.8,0.4,1.1,0.7c0.3,0.3,0.5,0.7,0.6,1.1c0.1,0.5,0.2,1,0.2,1.4v5.8
	l-0.6,0.1l-0.9,0.1l-1,0.1c-0.4,0-0.8,0-1.1,0c-0.5,0-1,0-1.5-0.2c-0.4-0.1-0.8-0.3-1.1-0.5c-0.3-0.2-0.6-0.6-0.8-0.9
	c-0.2-0.4-0.3-0.9-0.3-1.4c0-0.5,0.1-0.9,0.3-1.3c0.2-0.4,0.5-0.7,0.9-0.9c0.4-0.2,0.8-0.4,1.3-0.5c0.5-0.1,1-0.2,1.5-0.2h0.5
	l0.5,0.1l0.4,0.2l0.3,0.1v-0.5c0-0.3,0-0.6-0.1-0.8c-0.1-0.3-0.2-0.5-0.3-0.7c-0.2-0.2-0.4-0.4-0.6-0.5c-0.3-0.1-0.7-0.2-1-0.2
	c-0.5,0-1,0-1.5,0.1c-0.3,0.1-0.6,0.1-0.9,0.2l-0.2-1.4c0.3-0.1,0.7-0.2,1.1-0.3C279.2,82.1,279.8,82,280.3,82z M280.5,90.4
	c0.4,0,0.7,0,1,0c0.3,0,0.5,0,0.8-0.1v-2.8c-0.2-0.1-0.4-0.1-0.6-0.2c-0.3,0-0.7-0.1-1-0.1c-0.3,0-0.5,0-0.8,0.1
	c-0.3,0-0.5,0.1-0.8,0.2c-0.2,0.1-0.4,0.3-0.6,0.5c-0.2,0.2-0.2,0.5-0.2,0.8c-0.1,0.5,0.2,1,0.6,1.3
	C279.4,90.3,279.9,90.5,280.5,90.4z"/>
<path class="st2" d="M290.8,91.9c-0.7,0-1.4-0.1-2-0.4c-0.5-0.2-1-0.6-1.4-1c-0.4-0.4-0.7-1-0.9-1.5c-0.2-0.6-0.3-1.3-0.3-2
	c0-0.7,0.1-1.4,0.3-2c0.2-0.6,0.5-1.1,0.9-1.6c0.4-0.4,0.9-0.8,1.4-1c0.6-0.3,1.2-0.4,1.9-0.4c0.4,0,0.8,0,1.3,0.1
	c0.4,0.1,0.8,0.2,1.2,0.3l-0.4,1.5c-0.3-0.1-0.6-0.2-0.9-0.3c-0.3-0.1-0.7-0.1-1-0.1c-0.8-0.1-1.6,0.3-2.1,0.9
	c-0.5,0.7-0.8,1.7-0.8,2.6c0,0.5,0.1,0.9,0.2,1.4c0.1,0.4,0.3,0.8,0.5,1.1c0.3,0.3,0.6,0.5,0.9,0.7c0.4,0.2,0.9,0.3,1.4,0.2
	c0.4,0,0.8,0,1.2-0.1c0.3-0.1,0.5-0.2,0.8-0.3l0.2,1.4c-0.1,0.1-0.3,0.1-0.4,0.2c-0.2,0.1-0.4,0.1-0.6,0.1l-0.7,0.1
	C291.2,91.8,291,91.8,290.8,91.9z"/>
<path class="st2" d="M298.5,86.5c0.4,0.3,0.8,0.6,1.1,1c0.4,0.4,0.8,0.8,1.2,1.3c0.4,0.5,0.8,1,1.1,1.4c0.3,0.4,0.6,0.9,0.9,1.4h-2
	c-0.3-0.4-0.6-0.9-0.9-1.3c-0.3-0.4-0.7-0.9-1-1.3c-0.3-0.4-0.7-0.8-1.1-1.1c-0.3-0.3-0.7-0.6-1.1-0.8v4.5h-1.7V77.9l1.7-0.3v8.5
	l1-1c0.3-0.3,0.7-0.7,1-1.1l1-1l0.8-0.9h2l-0.9,1c-0.3,0.4-0.7,0.7-1,1.1l-1,1.1L298.5,86.5z"/>
<path class="st2" d="M311.9,91.4c-0.4,0.1-0.9,0.2-1.5,0.3c-0.7,0.1-1.5,0.2-2.2,0.2c-0.6,0-1.2-0.1-1.8-0.3
	c-0.5-0.2-0.9-0.5-1.2-0.9c-0.3-0.4-0.5-0.9-0.6-1.4c-0.1-0.6-0.2-1.2-0.2-1.7v-5.3h1.6v4.9c-0.1,0.9,0.1,1.7,0.5,2.4
	c0.4,0.5,1.1,0.8,1.8,0.7h0.6h0.5l0.5-0.1c0.1,0,0.2,0,0.3-0.1v-7.9h1.7L311.9,91.4L311.9,91.4z"/>
<path class="st2" d="M323,86.9c0,0.7-0.1,1.4-0.3,2c-0.2,0.6-0.4,1.1-0.8,1.6c-0.4,0.4-0.8,0.8-1.3,1c-0.6,0.2-1.2,0.4-1.8,0.4
	c-0.5,0-1-0.1-1.4-0.2c-0.3-0.1-0.6-0.2-0.9-0.4v3.7h-1.7V82.6c0.4-0.1,0.9-0.2,1.5-0.3c0.7-0.1,1.4-0.2,2.1-0.2
	c0.7,0,1.3,0.1,1.9,0.3c0.6,0.2,1.1,0.6,1.5,1c0.4,0.4,0.7,1,1,1.5C322.9,85.6,323.1,86.3,323,86.9z M321.3,86.9
	c0.1-0.9-0.2-1.8-0.8-2.5c-0.6-0.6-1.3-0.9-2.2-0.9c-0.4,0-0.8,0-1.2,0.1c-0.2,0-0.5,0.1-0.7,0.1v5.9c0.3,0.2,0.6,0.4,0.9,0.5
	c0.4,0.2,0.8,0.2,1.3,0.2c0.4,0,0.8-0.1,1.2-0.3c0.3-0.2,0.6-0.4,0.8-0.7c0.2-0.3,0.4-0.7,0.5-1.1C321.3,87.8,321.3,87.4,321.3,86.9
	L321.3,86.9z"/>
<path class="st3" d="M291.3,53c-0.7-0.3-1.3-0.8-1.9-1.4c-0.3-0.3-0.6-0.6-0.9-1c-0.8-1.2-1.3-2.7-1.3-4.2c0-1.7,0.5-3.3,1.6-4.6
	c0.7-0.9,1.7-1.7,2.8-2.2c0.9-0.4,2-0.6,3-0.6c1.5,0,2.9,0.4,4.2,1.3c0.7,0.5,1.4,1.2,1.9,1.9c0.7,1.1,1.2,2.3,1.3,3.6
	c0.1,1.7-0.3,3.3-1.3,4.7c-0.5,0.7-1.1,1.3-1.8,1.9c-0.4,0.2-0.7,0.5-1.1,0.6l-0.3,0.1h-5.7L291.3,53z M294.6,42.9
	c-0.3,0-0.6,0.1-0.9,0.3c-0.7,0.5-0.9,1.5-0.4,2.2c0.2,0.3,0.5,0.5,0.8,0.6c0.2,0.1,0.3,0.1,0.5,0.1c0.9,0,1.5-0.7,1.5-1.6
	C296.2,43.6,295.5,43,294.6,42.9l0-0.5L294.6,42.9L294.6,42.9z"/>
<path class="st4" d="M294.6,39.6c1.4,0,2.7,0.4,3.9,1.2c0.7,0.5,1.3,1.1,1.8,1.8c0.7,1,1.1,2.2,1.2,3.4c0.1,1.5-0.3,3.1-1.2,4.4
	c-0.5,0.7-1.1,1.2-1.7,1.7c-0.3,0.2-0.7,0.4-1.1,0.6l-0.2,0.1h-5.5l-0.4-0.2c-0.7-0.3-1.2-0.8-1.7-1.3c-0.3-0.3-0.6-0.6-0.8-1
	c-1.7-2.5-1.6-5.8,0.3-8.1c0.7-0.9,1.6-1.5,2.6-2C292.7,39.8,293.6,39.6,294.6,39.6 M294.6,46.6c1.1,0,2-0.9,2-2.1c0-1.1-0.9-2-2-2
	h0c-0.4,0-0.8,0.1-1.1,0.3c-0.9,0.6-1.2,1.9-0.5,2.9c0.3,0.4,0.6,0.7,1.1,0.8C294.2,46.5,294.4,46.6,294.6,46.6 M294.6,38.6
	c-1.1,0-2.2,0.2-3.2,0.7c-1.2,0.5-2.2,1.3-3,2.3c-1.1,1.4-1.7,3.1-1.7,4.9c0,1.6,0.5,3.1,1.4,4.4c0.3,0.4,0.6,0.8,1,1.1
	c0.6,0.6,1.3,1.1,2,1.5l0.4,0.2l0.2,0.1h6l0.2-0.1l0.2-0.1c0.4-0.2,0.8-0.4,1.2-0.7c0.8-0.6,1.4-1.2,2-2c1.8-2.7,1.8-6.2,0-8.9
	c-0.6-0.8-1.3-1.5-2.1-2.1C297.7,39.1,296.2,38.6,294.6,38.6L294.6,38.6L294.6,38.6z M294.6,45.6c-0.1,0-0.2,0-0.3,0
	c-0.4-0.1-0.7-0.5-0.7-0.9c-0.1-0.4,0.1-0.8,0.5-1c0.2-0.1,0.4-0.2,0.6-0.2c0.4,0,0.8,0.2,0.9,0.5c0.3,0.5,0.1,1.1-0.4,1.4
	C295,45.5,294.8,45.6,294.6,45.6L294.6,45.6L294.6,45.6z"/>
<path class="st3" d="M294.6,68.5c-0.5,0-0.6-0.2-1.8-1.4c-0.5-0.4-0.9-0.9-1.3-1.4c-0.1-0.1-0.1-0.2-0.1-6.5v-6.6h6.5v2.6l0.8,0.8
	c0.9,1,1,1,1,1.3c0,0.1,0,0.3,0,0.4c0,0.3-0.1,0.4-1,1.3l-0.5,0.5l0.5,0.5c0.8,0.9,0.9,1,1,1.3c0,0.1,0,0.3,0,0.4
	c0,0.3-0.1,0.4-1,1.3l-0.8,0.8v0.7c0.1,0.5,0,0.9-0.2,1.3c-0.1,0.2-1.3,1.3-1.3,1.3l-1.3,1.2h-0.4L294.6,68.5z"/>
<path class="st4" d="M297.4,53.2v2.3l0.9,0.9c0.4,0.3,0.7,0.6,0.9,1.1c0,0.1,0,0.2,0,0.3c-0.2,0.4-0.5,0.7-0.8,1l-0.8,0.8l0.8,0.8
	c0.4,0.3,0.6,0.6,0.8,1c0,0.1,0,0.2,0,0.3c-0.2,0.4-0.5,0.8-0.9,1.1l-0.9,0.9v0.9c0,0.4,0,0.7-0.1,1.1c0,0.1-0.6,0.6-1.2,1.2
	l-1.1,1.1h-0.2h-0.1c-0.2,0-0.4-0.2-1.5-1.2c-0.4-0.4-0.8-0.8-1.2-1.2c0-0.1,0-2.8,0-6.2v-6.1H297.4 M298.4,52.2h-7.5v7.1
	c0,6.3,0,6.4,0.1,6.7c0.4,0.6,0.8,1.1,1.4,1.5c1.2,1.2,1.5,1.5,2.2,1.5h0.3l0.1,0h0.3l0.2-0.2l1.1-1.1c0.3-0.3,1.2-1.2,1.3-1.4
	c0.3-0.5,0.4-1.1,0.3-1.6V64l0.6-0.6c1-1,1.1-1.2,1.2-1.6c0-0.2,0-0.4,0-0.6c-0.1-0.5-0.2-0.6-1.1-1.5l-0.1-0.1l0.1-0.1
	c0.9-0.9,1-1.1,1.1-1.5c0-0.2,0-0.4,0-0.6c-0.1-0.5-0.2-0.6-1.2-1.6l-0.6-0.6L298.4,52.2L298.4,52.2L298.4,52.2z"/>
<circle class="st10" cx="169.4" cy="332.3" r="46.8"/>
<path class="st11" d="M136.8,330.3c-0.2-0.6-0.5-1.2-1-1.7c-0.4-0.5-1-0.8-1.6-1.1c-0.6-0.2-1.3-0.4-2-0.4c-0.8,0-1.5,0-2.3,0.1
	c-0.6,0.1-1.1,0.2-1.6,0.4v13.3h1.8v-4c0.3,0.2,0.6,0.4,1,0.5c0.5,0.1,1,0.2,1.6,0.2c0.7,0,1.3-0.1,1.9-0.4c0.6-0.2,1.1-0.6,1.4-1.1
	c0.4-0.5,0.6-1.1,0.8-1.7c0.1-0.7,0.2-1.3,0.3-2C137.2,331.8,137.1,331,136.8,330.3z M135.2,333.8c-0.1,0.4-0.2,0.8-0.5,1.2
	c-0.2,0.3-0.5,0.5-0.8,0.7c-0.4,0.1-0.9,0.2-1.3,0.2c-0.4,0.1-0.9-0.1-1.2-0.4c-0.4-0.1-0.7-0.3-1-0.5v-6.3c0.2-0.1,0.5-0.1,0.7-0.1
	h1.2c0.8,0,1.6,0.3,2.2,1c0.6,0.7,0.9,1.7,0.8,2.6C135.3,332.9,135.2,333.3,135.2,333.8L135.2,333.8z"/>
<path class="st11" d="M146.7,329.4c-0.1-0.5-0.3-0.9-0.6-1.2c-0.3-0.3-0.8-0.6-1.2-0.8c-0.6-0.2-1.2-0.2-1.8-0.2
	c-0.6,0-1.2,0.1-1.8,0.2c-0.4,0-0.8,0.1-1.2,0.2l0.5,1.7c0.3-0.1,0.7-0.2,1-0.2c0.5-0.1,1-0.1,1.6-0.1c0.4,0,0.7,0.1,1.1,0.2
	c0.3,0.1,0.6,0.2,0.7,0.5c0.2,0.2,0.3,0.4,0.4,0.7c0.1,0.3,0.1,0.6,0.1,0.8v0.5h-0.2c-0.1,0-0.4-0.1-0.5-0.1
	c-0.2-0.1-0.4-0.1-0.6-0.1h-0.6c-0.5,0-1.1,0-1.6,0.1c-0.5,0-0.9,0.2-1.3,0.5c-0.4,0.2-0.8,0.6-1,1c-0.3,0.4-0.4,0.9-0.4,1.4
	c0,0.5,0,1,0.2,1.4c0.2,0.4,0.5,0.7,0.8,1c0.3,0.3,0.7,0.5,1.2,0.6c0.5,0.1,1,0.1,1.6,0.1h1.2c0.4,0,0.7-0.1,1.1-0.1s0.7-0.1,1-0.1
	c0.2,0,0.4-0.1,0.6-0.1v-6.3C146.9,330.4,146.9,329.9,146.7,329.4z M145.1,335.9c-0.3,0.1-0.6,0.1-0.8,0.1h-1.1
	c-0.6,0.1-1.2-0.1-1.7-0.5c-0.4-0.3-0.6-0.8-0.6-1.3c0-0.3,0.1-0.6,0.2-0.8c0.1-0.2,0.4-0.4,0.6-0.5c0.3-0.2,0.6-0.2,0.9-0.2h0.8
	c0.5,0,0.8,0.1,1.1,0.1c0.2,0,0.4,0,0.6,0.1L145.1,335.9L145.1,335.9z"/>
<path class="st11" d="M156.2,334.6c0,0.8-0.4,1.6-1.1,2c-0.9,0.5-1.9,0.8-2.9,0.7c-0.7,0-1.3-0.1-2-0.2c-0.4,0-0.7-0.2-1-0.4
	l0.4-1.6c0.3,0.2,0.7,0.3,1,0.4c0.6,0.2,1.2,0.2,1.8,0.2c0.6,0,1.1-0.1,1.7-0.2c0.3-0.2,0.5-0.6,0.5-1c0-0.4-0.1-0.8-0.5-1.1
	c-0.5-0.4-1.1-0.6-1.7-0.8c-0.4-0.1-0.7-0.4-1.1-0.5c-0.4-0.2-0.7-0.4-1-0.6c-0.3-0.2-0.5-0.5-0.6-0.8c-0.1-0.3-0.2-0.7-0.2-1.1
	c0-0.8,0.4-1.6,1-2.2c0.8-0.3,1.7-0.5,2.5-0.5h0.8c0.2,0,0.6,0.1,0.8,0.1c0.2,0,0.4,0.1,0.6,0.1c0.2,0,0.3,0.1,0.5,0.1l-0.4,1.6
	c-0.3-0.2-0.7-0.3-1-0.4c-0.5-0.1-1-0.1-1.4-0.1c-0.5,0-0.9,0.1-1.3,0.2c-0.4,0.2-0.6,0.6-0.6,1c0,0.2,0,0.4,0.1,0.6
	c0.1,0.1,0.2,0.4,0.4,0.5c0.2,0.1,0.4,0.3,0.6,0.4c0.3,0.1,0.7,0.3,1,0.4c0.5,0.1,0.8,0.4,1.3,0.5c0.4,0.1,0.7,0.3,1,0.6
	c0.3,0.2,0.5,0.5,0.6,0.8C156.1,333.8,156.2,334.2,156.2,334.6z"/>
<path class="st11" d="M164.7,334.6c0,0.8-0.4,1.6-1.1,2c-0.9,0.5-1.9,0.8-2.9,0.7c-0.7,0-1.3-0.1-2-0.2c-0.4,0-0.7-0.2-1-0.4
	l0.4-1.6c0.3,0.2,0.7,0.3,1,0.4c0.6,0.2,1.2,0.2,1.8,0.2c0.6,0,1.1-0.1,1.7-0.2c0.3-0.2,0.5-0.6,0.5-1c0-0.4-0.1-0.8-0.5-1.1
	c-0.5-0.4-1.1-0.6-1.7-0.8c-0.4-0.1-0.7-0.4-1.1-0.5c-0.4-0.2-0.7-0.4-1-0.6c-0.3-0.2-0.5-0.5-0.6-0.8c-0.1-0.3-0.2-0.7-0.2-1.1
	c0-0.8,0.4-1.6,1-2.2c0.8-0.3,1.7-0.4,2.5-0.5h0.8c0.2,0,0.6,0.1,0.9,0.1c0.2,0,0.4,0.1,0.6,0.1c0.2,0,0.3,0.1,0.5,0.1l-0.4,1.6
	c-0.3-0.2-0.7-0.3-1-0.4c-0.5-0.1-1-0.1-1.4-0.1c-0.4,0-0.9,0.1-1.3,0.2c-0.4,0.2-0.6,0.6-0.6,1c0,0.2,0,0.4,0.1,0.6
	c0.1,0.1,0.2,0.4,0.4,0.5c0.2,0.1,0.4,0.3,0.6,0.4c0.3,0.1,0.7,0.3,1,0.4c0.5,0.1,0.8,0.4,1.3,0.5c0.4,0.1,0.7,0.3,1,0.6
	c0.3,0.2,0.5,0.5,0.6,0.8C164.7,333.8,164.8,334.2,164.7,334.6z"/>
<path class="st11" d="M180.1,327.3c-0.5,1.9-1.1,3.8-1.6,5.5s-1.2,3.2-1.7,4.6h-1.6c-0.4-1-0.7-1.9-1.2-3.1s-0.7-2.4-1.1-3.7
	c-0.4,1.3-0.7,2.5-1.1,3.7c-0.3,1.1-0.7,2.1-1.1,3.1h-1.6c-0.7-1.5-1.2-3-1.7-4.6c-0.6-1.8-1.1-3.7-1.6-5.5h1.9
	c0.1,0.7,0.3,1.3,0.5,1.9c0.1,0.7,0.3,1.5,0.6,2.2c0.2,0.7,0.4,1.5,0.6,2c0.2,0.5,0.4,1.1,0.6,1.7c0.3-0.6,0.5-1.3,0.6-1.9
	c0.2-0.7,0.4-1.3,0.6-2s0.4-1.3,0.6-2s0.4-1.3,0.5-1.8h1.4c0.1,0.6,0.3,1.2,0.5,1.8c0.1,0.6,0.4,1.3,0.5,2s0.4,1.3,0.6,2
	c0.2,0.6,0.4,1.3,0.6,1.9c0.2-0.5,0.4-1.1,0.6-1.7s0.4-1.3,0.6-2s0.4-1.4,0.6-2.2s0.4-1.3,0.5-1.9H180.1L180.1,327.3z"/>
<path class="st11" d="M190.2,330.2c-0.2-0.6-0.6-1.2-1-1.7c-0.4-0.5-0.9-0.9-1.4-1.1c-1.2-0.5-2.6-0.5-3.8,0
	c-0.6,0.2-1.1,0.6-1.4,1.1c-0.4,0.5-0.7,1.1-1,1.7c-0.2,0.7-0.4,1.4-0.4,2.2c0,0.7,0.1,1.5,0.4,2.2c0.2,0.6,0.6,1.2,1,1.7
	c0.4,0.5,0.9,0.9,1.4,1.1c1.2,0.5,2.6,0.5,3.8,0c0.6-0.3,1-0.6,1.4-1.1c0.4-0.5,0.7-1.1,1-1.7C190.7,333.1,190.7,331.6,190.2,330.2z
	 M187.9,335.1c-0.5,0.6-1.2,1-2,1c-0.8,0-1.5-0.4-2-1c-1-1.6-1-3.7,0-5.3c0.5-0.6,1.2-1,2-1c0.8,0,1.5,0.4,2,1
	C189,331.5,189.2,333.6,187.9,335.1L187.9,335.1z"/>
<path class="st11" d="M198.8,327.6l-0.4,1.6c-0.2-0.1-0.5-0.1-0.7-0.2c-0.4-0.1-0.8-0.1-1.2-0.1c-0.3,0-0.7,0-1,0.1
	c-0.2,0.1-0.4,0.1-0.6,0.1v8.4h-1.8v-9.6c0.5-0.1,1.1-0.3,1.6-0.5c0.7-0.1,1.4-0.1,2.2-0.1h0.5c0.2,0,0.4,0,0.6,0.1
	c0.2,0,0.3,0.1,0.5,0.1C198.5,327.4,198.6,327.6,198.8,327.6z"/>
<line class="st12" x1="131.6" y1="179.8" x2="106.3" y2="154.6"/>
<circle class="st0" cx="168.9" cy="215.4" r="26.9"/>
<line class="st13" x1="169.4" y1="178" x2="169.4" y2="154.6"/>
<path class="st14" d="M162.9,208.9c-0.1-1.2-0.5-2.4-1.2-3.4c-0.5-0.7-1.1-1.3-1.8-1.8c-2-1.3-4.5-1.6-6.7-0.6c-1,0.5-1.9,1.1-2.6,2
	c-1.8,2.4-1.9,5.6-0.3,8.1c0.2,0.4,0.5,0.7,0.8,1c0.5,0.5,1.1,1,1.7,1.3l0.4,0.2h5.5l0.2-0.1c0.4-0.2,0.7-0.4,1.1-0.6
	c0.6-0.5,1.2-1.1,1.7-1.7C162.6,212,163,210.5,162.9,208.9z M157.8,208.6c-0.6,1-1.8,1.3-2.8,0.7c-1-0.6-1.3-1.8-0.7-2.8
	c0.2-0.3,0.4-0.5,0.6-0.7c0.4-0.2,0.8-0.3,1.2-0.3c1.1,0,2,1,2,2.1C158.1,207.9,158,208.2,157.8,208.6L157.8,208.6z"/>
<path class="st14" d="M160.6,224.3c0,0.1,0,0.2,0,0.3c-0.2,0.4-0.5,0.8-0.9,1.1l-0.9,0.9v0.9c0,0.4,0,0.7-0.1,1.1
	c0,0.1-0.6,0.6-1.2,1.2l-1.1,1.1h-0.2c-0.4,0-0.4,0-1.6-1.2c-0.4-0.4-0.8-0.8-1.2-1.2c0-0.1-0.1-2.8-0.1-6.2v-6.1h5.5v2.3l0.9,0.9
	c0.4,0.3,0.7,0.6,0.9,1.1c0,0.1,0,0.2,0,0.3c-0.2,0.4-0.5,0.7-0.8,1l-0.8,0.8l0.8,0.8C160.1,223.6,160.4,223.9,160.6,224.3z"/>
<path class="st4" d="M173.2,223.1c-0.1-0.3-0.3-0.6-0.5-0.9c-0.2-0.3-0.4-0.7-0.7-1.1c-0.2-0.4-0.5-0.7-0.7-1.1
	c-0.3-0.4-0.5-0.7-0.7-1c-0.2,0.3-0.5,0.6-0.7,1c-0.3,0.4-0.5,0.7-0.8,1.1c-0.2,0.4-0.5,0.7-0.7,1.1c-0.2,0.3-0.4,0.6-0.5,0.9H166
	c0.5-0.9,1-1.8,1.6-2.6c0.6-0.9,1.2-1.7,1.8-2.6l-3.3-4.7h2l2.4,3.5l2.4-3.5h1.9l-3.2,4.6c0.6,0.8,1.2,1.7,1.9,2.6
	c0.6,0.9,1.1,1.8,1.6,2.7H173.2L173.2,223.1z"/>
<path class="st4" d="M188.7,213.3c0,0.5-0.1,0.9-0.3,1.3c-0.2,0.4-0.4,0.9-0.7,1.3c-0.3,0.4-0.6,0.8-1,1.2l-1.1,1.2l-0.8,0.8
	c-0.3,0.3-0.6,0.6-0.8,0.9c-0.2,0.3-0.4,0.6-0.6,0.9c-0.2,0.2-0.2,0.5-0.3,0.8h6.1v1.5h-8c0-0.1,0-0.2,0-0.2v-0.2
	c0-0.6,0.1-1.1,0.3-1.7c0.2-0.5,0.5-1,0.8-1.4c0.3-0.5,0.7-0.9,1.1-1.3l1.2-1.2c0.3-0.3,0.6-0.6,0.9-0.9c0.3-0.3,0.5-0.6,0.8-0.9
	c0.2-0.3,0.4-0.6,0.5-0.9c0.1-0.3,0.2-0.7,0.2-1c0-0.3,0-0.7-0.2-1c-0.2-0.5-0.7-0.9-1.2-1.1c-0.3-0.1-0.6-0.1-0.9-0.1
	c-0.3,0-0.7,0-1,0.1c-0.3,0.1-0.6,0.2-0.8,0.4c-0.2,0.1-0.4,0.3-0.6,0.4l-0.4,0.3l-0.9-1.3c0.2-0.2,0.3-0.3,0.5-0.5
	c0.3-0.2,0.5-0.4,0.8-0.5c0.3-0.2,0.7-0.3,1.1-0.4c0.4-0.1,0.8-0.2,1.3-0.2c1.1-0.1,2.2,0.3,3.1,1
	C188.4,211.3,188.8,212.3,188.7,213.3z"/>
<line class="st13" x1="169.4" y1="280.3" x2="169.4" y2="256.3"/>
<path class="st4" d="M136.8,330.3c-0.2-0.6-0.5-1.2-1-1.7c-0.4-0.5-1-0.8-1.6-1.1c-0.6-0.2-1.3-0.4-2-0.4c-0.8,0-1.5,0-2.3,0.1
	c-0.6,0.1-1.1,0.2-1.6,0.4v13.3h1.8v-4c0.3,0.2,0.6,0.4,1,0.5c0.5,0.1,1,0.2,1.6,0.2c0.7,0,1.3-0.1,1.9-0.4c0.6-0.2,1.1-0.6,1.4-1.1
	c0.4-0.5,0.6-1.1,0.8-1.7c0.1-0.7,0.2-1.3,0.3-2C137.2,331.8,137.1,331,136.8,330.3z M135.2,333.8c-0.1,0.4-0.2,0.8-0.5,1.2
	c-0.2,0.3-0.5,0.5-0.8,0.7c-0.4,0.1-0.9,0.2-1.3,0.2c-0.4,0.1-0.9-0.1-1.2-0.4c-0.4-0.1-0.7-0.3-1-0.5v-6.3c0.2-0.1,0.5-0.1,0.7-0.1
	h1.2c0.8,0,1.6,0.3,2.2,1c0.6,0.7,0.9,1.7,0.8,2.6C135.3,332.9,135.2,333.3,135.2,333.8L135.2,333.8z"/>
<path class="st4" d="M146.7,329.4c-0.1-0.5-0.3-0.9-0.6-1.2c-0.3-0.3-0.8-0.6-1.2-0.8c-0.6-0.2-1.2-0.2-1.8-0.2
	c-0.6,0-1.2,0.1-1.8,0.2c-0.4,0-0.8,0.1-1.2,0.2l0.5,1.7c0.3-0.1,0.7-0.2,1-0.2c0.5-0.1,1-0.1,1.6-0.1c0.4,0,0.7,0.1,1.1,0.2
	c0.3,0.1,0.6,0.2,0.7,0.5c0.2,0.2,0.3,0.4,0.4,0.7c0.1,0.3,0.1,0.6,0.1,0.8v0.5h-0.2c-0.1,0-0.4-0.1-0.5-0.1
	c-0.2-0.1-0.4-0.1-0.6-0.1h-0.6c-0.5,0-1.1,0-1.6,0.1c-0.5,0-0.9,0.2-1.3,0.5c-0.4,0.2-0.8,0.6-1,1c-0.3,0.4-0.4,0.9-0.4,1.4
	c0,0.5,0,1,0.2,1.4c0.2,0.4,0.5,0.7,0.8,1c0.3,0.3,0.7,0.5,1.2,0.6c0.5,0.1,1,0.1,1.6,0.1h1.2c0.4,0,0.7-0.1,1.1-0.1s0.7-0.1,1-0.1
	c0.2,0,0.4-0.1,0.6-0.1v-6.3C146.9,330.4,146.9,329.9,146.7,329.4z M145.1,335.9c-0.3,0.1-0.6,0.1-0.8,0.1h-1.1
	c-0.6,0.1-1.2-0.1-1.7-0.5c-0.4-0.3-0.6-0.8-0.6-1.3c0-0.3,0.1-0.6,0.2-0.8c0.1-0.2,0.4-0.4,0.6-0.5c0.3-0.2,0.6-0.2,0.9-0.2h0.8
	c0.5,0,0.8,0.1,1.1,0.1c0.2,0,0.4,0,0.6,0.1L145.1,335.9L145.1,335.9z"/>
<path class="st4" d="M156.2,334.6c0,0.8-0.4,1.6-1.1,2c-0.9,0.5-1.9,0.8-2.9,0.7c-0.7,0-1.3-0.1-2-0.2c-0.4,0-0.7-0.2-1-0.4l0.4-1.6
	c0.3,0.2,0.7,0.3,1,0.4c0.6,0.2,1.2,0.2,1.8,0.2c0.6,0,1.1-0.1,1.7-0.2c0.3-0.2,0.5-0.6,0.5-1c0-0.4-0.1-0.8-0.5-1.1
	c-0.5-0.4-1.1-0.6-1.7-0.8c-0.4-0.1-0.7-0.4-1.1-0.5c-0.4-0.2-0.7-0.4-1-0.6c-0.3-0.2-0.5-0.5-0.6-0.8c-0.1-0.3-0.2-0.7-0.2-1.1
	c0-0.8,0.4-1.6,1-2.2c0.8-0.3,1.7-0.5,2.5-0.5h0.8c0.2,0,0.6,0.1,0.8,0.1c0.2,0,0.4,0.1,0.6,0.1c0.2,0,0.3,0.1,0.5,0.1l-0.4,1.6
	c-0.3-0.2-0.7-0.3-1-0.4c-0.5-0.1-1-0.1-1.4-0.1c-0.5,0-0.9,0.1-1.3,0.2c-0.4,0.2-0.6,0.6-0.6,1c0,0.2,0,0.4,0.1,0.6
	c0.1,0.1,0.2,0.4,0.4,0.5c0.2,0.1,0.4,0.3,0.6,0.4c0.3,0.1,0.7,0.3,1,0.4c0.5,0.1,0.8,0.4,1.3,0.5c0.4,0.1,0.7,0.3,1,0.6
	c0.3,0.2,0.5,0.5,0.6,0.8C156.1,333.8,156.2,334.2,156.2,334.6z"/>
<path class="st4" d="M164.7,334.6c0,0.8-0.4,1.6-1.1,2c-0.9,0.5-1.9,0.8-2.9,0.7c-0.7,0-1.3-0.1-2-0.2c-0.4,0-0.7-0.2-1-0.4l0.4-1.6
	c0.3,0.2,0.7,0.3,1,0.4c0.6,0.2,1.2,0.2,1.8,0.2c0.6,0,1.1-0.1,1.7-0.2c0.3-0.2,0.5-0.6,0.5-1c0-0.4-0.1-0.8-0.5-1.1
	c-0.5-0.4-1.1-0.6-1.7-0.8c-0.4-0.1-0.7-0.4-1.1-0.5c-0.4-0.2-0.7-0.4-1-0.6c-0.3-0.2-0.5-0.5-0.6-0.8c-0.1-0.3-0.2-0.7-0.2-1.1
	c0-0.8,0.4-1.6,1-2.2c0.8-0.3,1.7-0.4,2.5-0.5h0.8c0.2,0,0.6,0.1,0.9,0.1c0.2,0,0.4,0.1,0.6,0.1c0.2,0,0.3,0.1,0.5,0.1l-0.4,1.6
	c-0.3-0.2-0.7-0.3-1-0.4c-0.5-0.1-1-0.1-1.4-0.1c-0.4,0-0.9,0.1-1.3,0.2c-0.4,0.2-0.6,0.6-0.6,1c0,0.2,0,0.4,0.1,0.6
	c0.1,0.1,0.2,0.4,0.4,0.5c0.2,0.1,0.4,0.3,0.6,0.4c0.3,0.1,0.7,0.3,1,0.4c0.5,0.1,0.8,0.4,1.3,0.5c0.4,0.1,0.7,0.3,1,0.6
	c0.3,0.2,0.5,0.5,0.6,0.8C164.7,333.8,164.8,334.2,164.7,334.6z"/>
<path class="st4" d="M180.1,327.3c-0.5,1.9-1.1,3.8-1.6,5.5s-1.2,3.2-1.7,4.6h-1.6c-0.4-1-0.7-1.9-1.2-3.1s-0.7-2.4-1.1-3.7
	c-0.4,1.3-0.7,2.5-1.1,3.7c-0.3,1.1-0.7,2.1-1.1,3.1h-1.6c-0.7-1.5-1.2-3-1.7-4.6c-0.6-1.8-1.1-3.7-1.6-5.5h1.9
	c0.1,0.7,0.3,1.3,0.5,1.9c0.1,0.7,0.3,1.5,0.6,2.2c0.2,0.7,0.4,1.5,0.6,2c0.2,0.5,0.4,1.1,0.6,1.7c0.3-0.6,0.5-1.3,0.6-1.9
	c0.2-0.7,0.4-1.3,0.6-2s0.4-1.3,0.6-2s0.4-1.3,0.5-1.8h1.4c0.1,0.6,0.3,1.2,0.5,1.8c0.1,0.6,0.4,1.3,0.5,2s0.4,1.3,0.6,2
	c0.2,0.6,0.4,1.3,0.6,1.9c0.2-0.5,0.4-1.1,0.6-1.7s0.4-1.3,0.6-2s0.4-1.4,0.6-2.2s0.4-1.3,0.5-1.9H180.1L180.1,327.3z"/>
<path class="st4" d="M190.2,330.2c-0.2-0.6-0.6-1.2-1-1.7c-0.4-0.5-0.9-0.9-1.4-1.1c-1.2-0.5-2.6-0.5-3.8,0
	c-0.6,0.2-1.1,0.6-1.4,1.1c-0.4,0.5-0.7,1.1-1,1.7c-0.2,0.7-0.4,1.4-0.4,2.2c0,0.7,0.1,1.5,0.4,2.2c0.2,0.6,0.6,1.2,1,1.7
	c0.4,0.5,0.9,0.9,1.4,1.1c1.2,0.5,2.6,0.5,3.8,0c0.6-0.3,1-0.6,1.4-1.1c0.4-0.5,0.7-1.1,1-1.7C190.7,333.1,190.7,331.6,190.2,330.2z
	 M187.9,335.1c-0.5,0.6-1.2,1-2,1c-0.8,0-1.5-0.4-2-1c-1-1.6-1-3.7,0-5.3c0.5-0.6,1.2-1,2-1c0.8,0,1.5,0.4,2,1
	C189,331.5,189.2,333.6,187.9,335.1L187.9,335.1z"/>
<path class="st4" d="M198.8,327.6l-0.4,1.6c-0.2-0.1-0.5-0.1-0.7-0.2c-0.4-0.1-0.8-0.1-1.2-0.1c-0.3,0-0.7,0-1,0.1
	c-0.2,0.1-0.4,0.1-0.6,0.1v8.4h-1.8v-9.6c0.5-0.1,0.9-0.3,1.6-0.5c0.7-0.1,1.4-0.2,2.2-0.1c0,0,0.8,0.1,1.1,0.1
	c0.2,0.1,0.3,0.1,0.5,0.1C198.5,327.4,198.6,327.6,198.8,327.6z"/>
<path class="st4" d="M206.9,322.8v5c-0.3-0.2-0.6-0.4-1-0.5c-0.5-0.1-1-0.2-1.6-0.2c-0.7,0-1.3,0.1-1.9,0.4
	c-0.6,0.2-1.1,0.6-1.4,1.1c-0.4,0.5-0.7,1.1-0.9,1.7c-0.2,0.7-0.3,1.4-0.2,2.2c0,0.7,0.1,1.5,0.4,2.2c0.2,0.6,0.5,1.2,1,1.7
	c0.4,0.5,1,0.8,1.6,1.1c0.6,0.2,1.3,0.4,2,0.4c0.7,0,1.4,0,2.2-0.1c0.5-0.1,1.1-0.2,1.6-0.4v-14.6L206.9,322.8z M206.8,335.8
	c-0.2,0.1-0.5,0.1-0.7,0.1c-0.4,0.1-0.8,0.1-1.2,0.1c-0.9,0.1-1.8-0.3-2.3-1.1c-0.6-0.7-0.9-1.7-0.9-2.6c0-0.5,0-1,0.1-1.4
	c0.1-0.4,0.2-0.8,0.5-1.2c0.2-0.3,0.5-0.5,0.9-0.7c0.4-0.2,0.9-0.2,1.3-0.2c0.4,0,0.9,0.1,1.3,0.2c0.4,0.1,0.7,0.3,1,0.5
	L206.8,335.8L206.8,335.8z"/>
<line class="st13" x1="207.9" y1="179.7" x2="233" y2="154.6"/>
<g>
	<path class="st15" d="M158.7,114C158.6,113.9,158.6,113.9,158.7,114C158.6,113.9,158.6,114,158.7,114z"/>
	<path class="st4" d="M192.9,93.8c0,17.9-3,36.7-23.5,46.8c-10.3-5-16.2-12.3-19.5-20.4c-3.3-8.2-4-17.4-4-26.4
		c1.3-0.9,2.4-1.9,3.3-3.1c0.9-1.2,1.7-2.5,2.3-4l16.6-2.8c0.9-0.1,1.7-0.1,2.6,0l16.6,2.8C188.5,89.5,190.4,92,192.9,93.8
		L192.9,93.8z"/>
	<path class="st16" d="M182.6,115.9c-1-1.1-4.4-2.7-4.5-2.7c0.1,0.1,3.9,3.8,4.9,4.7 M182.6,115.9c-1-1.1-4.4-2.7-4.5-2.7
		c0.1,0.1,3.9,3.8,4.9,4.7c0.2,0.1,0.3,0.2,0.3,0.2 M182.6,115.9c-1-1.1-4.4-2.7-4.5-2.7c0.1,0.1,3.9,3.8,4.9,4.7 M182.6,115.9
		c-1-1.1-4.4-2.7-4.5-2.7c0.1,0.1,3.9,3.8,4.9,4.7c0.2,0.1,0.3,0.2,0.3,0.2 M182.6,115.9c-1-1.1-4.4-2.7-4.5-2.7
		c0.1,0.1,3.9,3.8,4.9,4.7c0.2,0.1,0.5,0.5,0.5,0.5c0,0,0-0.2,0-0.4C183.5,117.5,183.1,116.4,182.6,115.9z"/>
	<path class="st4" d="M149.8,112.7l-0.4-1.3l-1.1-3.3v0l-0.5-11.8l0-0.4l0,0l0,0l0.5,12.2v0L149.8,112.7l0,0.1L149.8,112.7z"/>
	<path class="st17" d="M191.7,93.7c-2.3-1.6-4.2-3.9-5.3-6.5l-15.8-2.6c-0.8-0.1-1.6-0.1-2.5,0l-15.8,2.6c-0.5,1.3-1.3,2.6-2.2,3.7
		c-0.9,1.1-2,2.1-3.1,2.9c0,8.2,0.7,16.7,3.8,24.2c3.1,7.6,8.7,14.2,18.5,18.8c11.9-5.7,17.6-14.3,20.2-24c0,0,0.1-0.3,0.1-0.3
		s-2.3,1.1-2.4,1.5c0,0.3,0.1,1,0.2,1.3c0.1,1.5,0.1,1.7-0.4,2.4c-0.6,0.8-1.9,1.4-2.8,1.1c-0.5-0.1-0.5-0.1-0.4,0.7
		c0.1,0.7,0,0.9-0.6,1.4c-0.8,0.7-2.2,1.1-3,0.9c-0.3-0.1-1-0.7-1.8-1.5c0,0-1.5-1.5-1.6-1.7c0,0-3.1-3.1-3.2-3
		c-0.1,0.1,1.1,1.1,2.5,2.6c0,0,2,2,2.1,2.2c1.2,1.2,1.3,1.6,1.1,2.2c-0.3,0.8-1.9,1.6-3.2,1.6c-0.8,0-0.9,0-2.4-1.3
		c-0.1-0.1-1.7-1.6-1.9-1.7c-0.9-0.8-1.9-1.7-1.9-1.6c0,0.1,0.1,0.2,0.2,0.3c0.1,0.1,0.7,0.7,0.7,0.7c0.5,0.5,3.2,2.8,3.2,2.9
		c0.8,0.7,0.6,1.1-0.5,1.7c-1,0.5-1.9,0.5-3.3,0c-0.2,0.2-6.6-2.9-11.2-5.7c-2.6-1.6-4.4-3.5-4.4-3.5c-0.4-0.2-2.9-1.8-3.6-2.3
		c-0.1-0.1-1-0.7-1.1-0.8c0,0-1.3-5.3-1.5-6.4c-0.5-3.1-0.5-10.6-0.5-10.6s13.6,2.6,15.9,2.3c3.6-0.4,6-1.2,6.1-1.2
		c0.4-0.1,1.6,0.9,2.7,1.4c0.2,0,0.5,0,0.8,0.1l0,0c3.2,0.4,8.4,1.6,10.4,1.1c1.6-0.3,4.4-1.5,4.4-1.5l2.1-1.1
		c0.9-0.6,1.5-0.9,1.5-0.9C191.7,95.2,191.7,94.4,191.7,93.7L191.7,93.7z"/>
	<path class="st18" d="M152.6,114.7L152.6,114.7c-0.3,0.4-0.6,0.8-0.7,1.4C152.1,115.5,152.3,115,152.6,114.7z"/>
	<path class="st18" d="M159.6,130.4C159.6,130.4,159.6,130.4,159.6,130.4L159.6,130.4C159.6,130.4,159.6,130.4,159.6,130.4z"/>
	<path class="st18" d="M188.4,90.6C188.4,90.6,188.4,90.6,188.4,90.6c-0.1,0-0.1-0.1-0.1-0.1L188.4,90.6z"/>
	<path class="st4" d="M152.4,87.2c-0.5,1.3-1.3,2.6-2.2,3.7L152.4,87.2z"/>
	<path class="st18" d="M188.4,90.6c-3.8,1.2-10.2,3.3-15.4,7.6c-2.6-0.1-2.1,0.7-3.7,0.6c-1.5-0.8-1.9-0.9-5.5-0.2
		c-2.2,0.4-5.1,0.5-6.3,0.5c-1.9,0-2.4-0.1-3.5-0.6c-0.4-0.2-6.2-2.8-6.2-2.8s0.3,6.5,0.6,9.1c0.2,1.7,1.5,7.9,1.5,7.9
		c0.1,0.1,0.9,0.8,1.1,0.9c0.7,0.5,1.2,0.8,1.6,1c0,0,7.7,5.9,8.6,5.8c-0.3,1.6-1.5,9.6-1.5,10c0,0,0,0,0,0c-4-3.6-6.8-7.8-8.6-12.4
		c-3.1-7.6-3.8-16-3.8-24.2c1.2-0.8,2.2-1.8,3.1-2.9c0.9-1.1,1.6-2.3,2.2-3.7l15.8-2.6c0.8-0.1,1.6-0.1,2.5,0l15.8,2.6
		C186.9,88.4,187.6,89.5,188.4,90.6C188.3,90.5,188.3,90.6,188.4,90.6z"/>
	<path class="st19" d="M172.6,98.5c-1.4,1.2-2.8,2.7-4.2,4.4c-1.6,2.1-3,4.5-4,7c0,0-0.2,0-0.2,0c-0.3,0-0.4-0.1-0.6-0.3
		c-0.5-0.5-0.5-1-0.1-3.1c0.2-0.9,0.5-2.2,0.6-3c0.2-0.8,0.5-1.8,0.7-2.1c0.3-0.3,1.3-1,2.5-1.6c0,0,1-0.5,1.6-0.8
		c0.5-0.2,1.3-0.3,1.7-0.4c0.2-0.1,0.4-0.1,0.5-0.1c0.2,0,0.4-0.1,0.7,0c0,0,0.1,0,0.1,0c0,0,0,0,0.1,0c0.1,0,0.1,0,0.2,0
		c0.1,0,0.1,0,0.2,0c0,0,0.1,0,0.1,0C172.5,98.5,172.6,98.5,172.6,98.5z"/>
	<path class="st16" d="M191.7,96.4c0,0-0.3,6.3-0.7,9.4c-0.2,1.5-0.5,3-0.8,4.5c-0.1,0.5-0.2,1.1-0.4,1.6c-0.1,0.2-0.1,0.4-0.2,0.7
		l0,0c-0.6,0.3-1.5,0.8-1.9,1.1c-0.1,0.1-0.3,0.2-0.5,0.4l0,0c-0.3-1.7-1-2.4-3.8-4.2c-1.6-1-4.5-2.7-6.4-3.7l-3.5-1.8l0,0l-1.6,0.2
		c-2.4,0.2-3.8,1.1-4.1,2.4c-0.3,1.5-1.3,2.5-3.1,2.8c-0.1,0-0.1,0-0.2,0l0,0c-0.1,0-0.2,0-0.3,0c-0.1,0-0.1,0-0.2,0
		c-0.3,0-0.4-0.1-0.6-0.3c-0.5-0.5-0.5-1-0.1-3.1c0.2-0.9,0.5-2.2,0.6-3c0.2-0.8,0.5-1.8,0.7-2.1c0.3-0.3,1.3-1,2.5-1.6l2-1.1
		c0.7-0.3,1.3-0.5,1.7-0.6c0.3-0.1,0.8-0.1,1.5,0c0.2,0,0.5,0,0.8,0.1l0,0c3.2,0.4,8.4,1.6,10.4,1.1c1.6-0.3,4.3-1.7,4.3-1.7
		l3.7-1.8L191.7,96.4z"/>
	<path class="st16" d="M170,124.9l-0.1,0.1c0,0-1.2,2-3,1.6c-1.8-0.3-2-1.4-2.5-1.4c-2.1,0-2.7-0.9-3.1-1.8c0,0-2.3,0.3-3.2-0.3
		c-1.4-1.1-1.5-3.4-1.5-3.4s-1.3,0.2-1.6,0.1c-0.9-0.3-2.1-1.1-2.7-2.3c-0.6-1.4,0.7-2.5,0.7-2.5l0.3-0.2c0.2,0,0.3,0.1,0.5,0.1
		c1.1,0.1,2.1,0.9,2.7,2.1l0.3,0.8l0.3-0.8c0.5-1.3,1.1-2.3,1.7-2.7c0.5-0.4,0.6-0.4,1.3,0c0.5,0.3,0.9,0.7,1.1,1.2l0.4,0.8l0.6-0.5
		c0.5-0.4,0.7-0.4,1.2-0.3c1.4,0.5,2,2.4,1.5,4.5c-0.4,1.7-0.5,2.5-0.3,2c0-0.2,0.2-0.7,0.2-1c0.2-0.7,0.5-0.9,1.5-0.6
		s1.2,0.8,1.3,2.2l0.1,1.2l1.6,0.8C169.6,124.7,169.8,124.8,170,124.9z"/>
</g>
</svg>
