<?xml version="1.0" encoding="utf-8"?>
<!-- Generator: Adobe Illustrator 21.0.0, SVG Export Plug-In . SVG Version: 6.00 Build 0)  -->
<svg version="1.1" id="Layer_1" xmlns="http://www.w3.org/2000/svg" xmlns:xlink="http://www.w3.org/1999/xlink" x="0px" y="0px"
	 viewBox="0 0 355.7 348.1" style="enable-background:new 0 0 355.7 348.1;" xml:space="preserve">
<style type="text/css">
	.st0{fill:#38C6F4;}
	.st1{fill:#EDEDED;}
	.st2{fill:#727373;}
	.st3{fill:none;stroke:#38C6F4;stroke-width:3;stroke-miterlimit:10;}
	.st4{fill:#8465AB;stroke:#FFFFFF;stroke-miterlimit:10;}
	.st5{fill:#FFFFFF;}
	.st6{fill:#5E5F5F;}
	.st7{fill:#8465AB;}
	.st8{fill:#96764D;}
	.st9{fill:#E8E7E7;}
	.st10{fill:#B7A9A4;}
	.st11{fill:#67544C;}
	.st12{fill:#7D685A;}
	.st13{fill:#9A8172;}
</style>
<title>Untitled-2</title>
<path class="st0" d="M217.6,293.6c0,25.8-20.9,46.8-46.8,46.8s-46.8-20.9-46.8-46.8c0-13.7,30.6-6.9,47.7,0
	C189.4,300.8,217.6,306,217.6,293.6"/>
<path class="st1" d="M217.6,293.6c0,12.3-28.2,7.1-45.8,0c-17.1-6.9-47.7-13.7-47.7,0c0-25.8,20.9-46.8,46.8-46.8
	S217.6,267.8,217.6,293.6"/>
<path class="st2" d="M148.1,272.2c0.5,0,1-0.1,1.5-0.3c0.3-0.2,0.5-0.5,0.5-0.9c0-0.4-0.2-0.8-0.5-1c-0.5-0.3-1-0.6-1.6-0.8
	c-0.4-0.1-0.7-0.3-1-0.4c-0.3-0.1-0.6-0.3-0.9-0.5c-0.2-0.2-0.4-0.5-0.6-0.7c-0.2-0.3-0.2-0.7-0.2-1.1c0-0.8,0.3-1.5,0.9-2
	c0.7-0.5,1.6-0.8,2.5-0.7c0.3,0,0.5,0,0.8,0l0.7,0.1l0.6,0.1l0.4,0.1l-0.3,1.5c-0.3-0.1-0.6-0.2-0.9-0.3c-0.5-0.1-0.9-0.2-1.4-0.1
	c-0.4,0-0.8,0.1-1.2,0.3c-0.3,0.2-0.5,0.5-0.5,0.9c0,0.2,0,0.4,0.1,0.5c0.1,0.2,0.2,0.3,0.4,0.4c0.2,0.1,0.4,0.3,0.6,0.4
	c0.2,0.1,0.5,0.2,0.9,0.3c0.4,0.2,0.8,0.3,1.2,0.5c0.3,0.1,0.6,0.3,0.9,0.6c0.2,0.2,0.4,0.5,0.6,0.8c0.1,0.4,0.2,0.7,0.2,1.1
	c0,0.8-0.3,1.6-1,2c-0.8,0.5-1.8,0.7-2.7,0.7c-0.7,0-1.3-0.1-1.9-0.2c-0.3-0.1-0.7-0.2-1-0.3l0.3-1.4l0.9,0.3
	C146.9,272.2,147.5,272.3,148.1,272.2z"/>
<path class="st2" d="M153.5,268.8c0-0.7,0.1-1.5,0.4-2.2c0.2-0.6,0.6-1.1,1-1.5c0.4-0.4,0.9-0.7,1.4-0.9c0.5-0.2,1-0.3,1.6-0.3
	c1.1-0.1,2.2,0.4,2.9,1.2c0.7,1,1.1,2.3,1,3.6v0.3c0,0.1,0,0.2,0,0.3h-6.5c0,0.8,0.3,1.6,0.9,2.2c0.6,0.6,1.5,0.8,2.3,0.8
	c0.5,0,1,0,1.5-0.1c0.3-0.1,0.6-0.2,0.9-0.3l0.2,1.4c-0.3,0.2-0.7,0.3-1.1,0.3c-0.6,0.1-1.2,0.2-1.7,0.2c-0.7,0-1.4-0.1-2.1-0.4
	c-0.6-0.2-1.1-0.6-1.5-1c-0.4-0.4-0.7-1-0.9-1.5C153.5,270.1,153.4,269.4,153.5,268.8z M159.9,267.8c0-0.7-0.2-1.3-0.6-1.9
	c-0.4-0.5-1-0.7-1.6-0.7c-0.3,0-0.7,0.1-1,0.2c-0.3,0.1-0.5,0.3-0.8,0.6c-0.2,0.2-0.4,0.5-0.5,0.8c-0.1,0.3-0.2,0.7-0.2,1
	L159.9,267.8L159.9,267.8z"/>
<path class="st2" d="M167.5,263.9h0.5l0.6,0.1l0.5,0.1l0.3,0.1l-0.3,1.5c-0.6-0.2-1.2-0.3-1.8-0.3c-0.3,0-0.6,0-0.9,0.1l-0.6,0.1
	v7.9H164v-9c0.5-0.2,1-0.3,1.5-0.4C166.1,263.9,166.8,263.8,167.5,263.9z"/>
<path class="st2" d="M178.7,264.1c-0.5,1.7-1,3.4-1.6,5c-0.6,1.6-1.2,3-1.8,4.3h-1.5c-0.6-1.3-1.2-2.7-1.8-4.3
	c-0.6-1.6-1.2-3.3-1.6-5h1.8c0.1,0.6,0.3,1.2,0.5,1.9s0.4,1.3,0.6,2c0.2,0.7,0.4,1.3,0.7,1.9c0.2,0.6,0.4,1.1,0.6,1.6
	c0.2-0.5,0.4-1,0.6-1.6s0.4-1.2,0.7-1.9c0.2-0.7,0.4-1.3,0.6-2c0.2-0.7,0.4-1.3,0.5-1.9H178.7L178.7,264.1z"/>
<path class="st2" d="M179.6,268.8c0-0.7,0.1-1.5,0.4-2.2c0.2-0.6,0.6-1.1,1-1.5c0.4-0.4,0.9-0.7,1.4-0.9c0.5-0.2,1-0.3,1.6-0.3
	c1.1-0.1,2.2,0.4,2.9,1.2c0.7,1,1.1,2.3,1,3.6v0.3c0,0.1,0,0.2,0,0.3h-6.4c0,0.8,0.3,1.6,0.9,2.2c0.6,0.6,1.5,0.8,2.3,0.8
	c0.5,0,1-0.1,1.4-0.2c0.3-0.1,0.6-0.2,0.9-0.3l0.2,1.4c-0.3,0.2-0.7,0.3-1.1,0.3c-0.6,0.1-1.2,0.2-1.7,0.2c-0.7,0-1.4-0.1-2.1-0.4
	c-0.6-0.2-1.1-0.6-1.5-1c-0.4-0.4-0.7-1-0.9-1.5C179.7,270.1,179.6,269.4,179.6,268.8z M186.1,267.8c0-0.7-0.2-1.3-0.6-1.9
	c-0.4-0.5-1-0.7-1.6-0.7c-0.3,0-0.7,0.1-1,0.2c-0.3,0.1-0.5,0.3-0.8,0.6c-0.2,0.2-0.4,0.5-0.5,0.8c-0.1,0.3-0.2,0.7-0.2,1
	L186.1,267.8L186.1,267.8z"/>
<path class="st2" d="M193.7,263.9h0.5l0.6,0.1l0.5,0.1l0.3,0.1l-0.3,1.5c-0.6-0.2-1.2-0.3-1.8-0.3c-0.3,0-0.6,0-0.9,0.1l-0.6,0.1
	v7.9h-1.7v-9c0.5-0.2,1-0.3,1.5-0.4C192.4,263.9,193,263.8,193.7,263.9z"/>
<circle class="st0" cx="169.8" cy="165.7" r="26.9"/>
<line class="st3" x1="169.9" y1="203.1" x2="169.9" y2="226.5"/>
<path class="st4" d="M163.9,159.1c-0.1-1.2-0.5-2.4-1.2-3.4c-0.5-0.7-1.1-1.3-1.8-1.8c-2-1.3-4.5-1.6-6.7-0.6c-1,0.5-1.9,1.1-2.6,2
	c-1.8,2.4-1.9,5.6-0.3,8.1c0.2,0.4,0.5,0.7,0.8,1c0.5,0.5,1.1,1,1.7,1.3l0.4,0.2h5.5l0.2-0.1c0.4-0.2,0.7-0.4,1.1-0.6
	c0.6-0.5,1.2-1.1,1.7-1.7C163.6,162.2,164,160.7,163.9,159.1z M158.8,158.8c-0.6,1-1.8,1.3-2.8,0.7c-1-0.6-1.3-1.8-0.7-2.8
	c0.2-0.3,0.4-0.5,0.6-0.7c0.4-0.2,0.8-0.3,1.2-0.3c1.1,0,2,1,2,2.1C159.1,158.1,159,158.5,158.8,158.8L158.8,158.8z"/>
<path class="st4" d="M161.6,174.5c0,0.1,0,0.2,0,0.3c-0.2,0.4-0.5,0.8-0.9,1.1l-0.9,0.9v0.9c0,0.4,0,0.7-0.1,1.1
	c0,0.1-0.6,0.6-1.2,1.2l-1.1,1.1h-0.2c-0.4,0-0.4,0-1.6-1.2c-0.4-0.4-0.8-0.8-1.2-1.2c0-0.1-0.1-2.8-0.1-6.2v-6.1h5.5v2.3l0.9,0.9
	c0.4,0.3,0.7,0.6,0.9,1.1c0,0.1,0,0.2,0,0.3c-0.2,0.4-0.5,0.7-0.8,1l-0.8,0.8l0.8,0.8C161.1,173.8,161.4,174.1,161.6,174.5z"/>
<path class="st5" d="M174.1,173.3c-0.1-0.3-0.3-0.6-0.5-0.9c-0.2-0.3-0.4-0.7-0.6-1.1c-0.2-0.4-0.5-0.7-0.7-1.1
	c-0.3-0.4-0.5-0.7-0.7-1c-0.2,0.3-0.5,0.6-0.7,1c-0.3,0.4-0.5,0.7-0.8,1.1c-0.2,0.4-0.5,0.7-0.7,1.1c-0.2,0.3-0.4,0.6-0.5,0.9H167
	c0.5-0.9,1-1.8,1.6-2.6c0.6-0.9,1.2-1.7,1.8-2.6l-3.3-4.7h2l2.4,3.5l2.4-3.5h1.9l-3.2,4.6c0.6,0.8,1.2,1.7,1.9,2.6
	c0.6,0.9,1.1,1.8,1.6,2.7L174.1,173.3L174.1,173.3z"/>
<path class="st5" d="M185.1,172c0.9,0.1,1.7-0.2,2.4-0.7c0.8-0.8,1-2,0.4-3c-0.2-0.3-0.5-0.6-0.8-0.8c-0.4-0.2-0.7-0.3-1.1-0.4
	c-0.4-0.1-0.9-0.1-1.3-0.1h-0.4v-1.4h0.6c0.3,0,0.7,0,1-0.1c0.3-0.1,0.6-0.2,0.9-0.3c0.6-0.3,1-1,1-1.8c0-0.3-0.1-0.6-0.2-0.9
	c-0.1-0.2-0.3-0.5-0.5-0.6c-0.2-0.2-0.5-0.3-0.7-0.4c-0.3-0.1-0.6-0.1-0.9-0.1c-0.5,0-1.1,0.1-1.6,0.3c-0.4,0.2-0.7,0.3-1.1,0.6
	l-0.7-1.4c0.2-0.1,0.4-0.2,0.6-0.3c0.3-0.1,0.5-0.2,0.8-0.3c0.3-0.1,0.6-0.2,0.9-0.3c0.3-0.1,0.7-0.1,1.1-0.1c0.6,0,1.2,0.1,1.8,0.3
	c0.5,0.1,0.9,0.4,1.3,0.7c0.3,0.3,0.6,0.7,0.7,1.1c0.2,0.4,0.3,0.9,0.3,1.4c0,0.6-0.2,1.3-0.6,1.8c-0.4,0.5-0.9,0.9-1.4,1.1
	c0.4,0.1,0.7,0.3,1,0.4c0.3,0.2,0.6,0.4,0.8,0.7c0.2,0.3,0.4,0.6,0.6,1c0.2,0.4,0.2,0.8,0.2,1.3c0,0.5-0.1,1.1-0.3,1.6
	c-0.2,0.5-0.5,0.9-0.9,1.3c-0.5,0.4-1,0.7-1.6,0.8c-0.7,0.2-1.5,0.3-2.2,0.3c-0.3,0-0.7,0-1-0.1c-0.3,0-0.7-0.1-1-0.2
	c-0.3-0.1-0.6-0.1-0.8-0.2c-0.2-0.1-0.3-0.1-0.5-0.2l0.3-1.5c0.3,0.2,0.7,0.3,1.1,0.4C183.9,171.9,184.5,172,185.1,172z"/>
<line class="st3" x1="129.4" y1="201.5" x2="104.3" y2="226.5"/>
<line class="st3" x1="169.9" y1="100.9" x2="169.9" y2="124.9"/>
<path class="st6" d="M197.4,10.3l-65.8,65.8c-16.2-20.1-13-49.6,7.1-65.8C155.8-3.5,180.3-3.5,197.4,10.3z"/>
<path class="st6" d="M214.9,46.8c0,25.8-21,46.8-46.8,46.8c-10.7,0-21-3.7-29.3-10.3l65.8-65.8C211.2,25.7,214.9,36.1,214.9,46.8z"
	/>
<path class="st6" d="M146.7,51.3l0.1,1.1v-1.6L146.7,51.3z"/>
<path class="st7" d="M167.2,246.5c-0.7-0.3-1.3-0.8-1.9-1.4c-0.3-0.3-0.6-0.6-0.9-1c-0.8-1.2-1.3-2.7-1.3-4.2c0-1.7,0.5-3.3,1.6-4.6
	c0.7-0.9,1.7-1.7,2.8-2.2c0.9-0.4,2-0.6,3-0.6c1.5,0,2.9,0.4,4.2,1.3c0.7,0.5,1.4,1.2,1.9,1.9c0.7,1.1,1.2,2.3,1.3,3.6
	c0.1,1.7-0.3,3.3-1.3,4.7c-0.5,0.7-1.1,1.3-1.8,1.9c-0.4,0.2-0.7,0.5-1.1,0.6l-0.3,0.1h-5.7L167.2,246.5z M170.6,236.5
	c-0.3,0-0.6,0.1-0.9,0.3c-0.7,0.5-0.9,1.5-0.4,2.2c0.2,0.3,0.5,0.5,0.8,0.6c0.2,0.1,0.3,0.1,0.5,0.1c0.9,0,1.6-0.7,1.6-1.6
	S171.4,236.5,170.6,236.5L170.6,236.5l0-0.5L170.6,236.5L170.6,236.5z"/>
<path class="st5" d="M170.6,233.1c1.4,0,2.7,0.4,3.9,1.2c0.7,0.5,1.3,1.1,1.8,1.8c0.7,1,1.1,2.2,1.2,3.4c0.1,1.5-0.3,3.1-1.2,4.4
	c-0.5,0.7-1.1,1.2-1.7,1.7c-0.3,0.2-0.7,0.4-1.1,0.6l-0.2,0.1h-5.5l-0.4-0.2c-0.7-0.3-1.2-0.8-1.7-1.3c-0.3-0.3-0.6-0.6-0.8-1
	c-1.7-2.5-1.6-5.8,0.3-8.1c0.7-0.9,1.6-1.5,2.6-2C168.6,233.3,169.6,233.1,170.6,233.1 M170.5,240.1c1.1,0,2.1-0.9,2.1-2.1
	s-0.9-2.1-2.1-2.1h-0.1c-0.4,0-0.8,0.1-1.1,0.3c-0.9,0.6-1.2,1.9-0.5,2.9c0.3,0.4,0.6,0.7,1.1,0.8
	C170.1,240,170.3,240.1,170.5,240.1 M170.5,232.1c-1.1,0-2.2,0.2-3.2,0.7c-1.2,0.5-2.2,1.3-3,2.3c-1.1,1.4-1.6,3.1-1.6,4.9
	c0,1.6,0.5,3.1,1.4,4.4c0.3,0.4,0.6,0.8,0.9,1.1c0.6,0.6,1.3,1.1,2,1.5l0.4,0.2l0.2,0.1h6l0.2-0.1l0.2-0.1c0.4-0.2,0.8-0.4,1.2-0.7
	c0.8-0.6,1.4-1.2,2-2c1.8-2.7,1.8-6.2,0-8.9c-0.6-0.8-1.3-1.5-2.1-2.1c-1.3-0.9-2.9-1.4-4.4-1.4l0,0L170.5,232.1z M170.5,239.1
	c-0.1,0-0.2,0-0.3-0.1c-0.4-0.1-0.7-0.5-0.7-0.9c-0.1-0.4,0.1-0.8,0.5-1c0.2-0.1,0.4-0.2,0.6-0.2c0.4,0,0.8,0.2,0.9,0.5
	c0.3,0.5,0.1,1.1-0.4,1.4C170.9,239,170.7,239.1,170.5,239.1L170.5,239.1L170.5,239.1z"/>
<path class="st7" d="M170.5,262c-0.4,0-0.6-0.2-1.8-1.4c-0.5-0.4-0.9-0.9-1.3-1.4c-0.1-0.1-0.1-0.2-0.1-6.5v-6.6h6.5v2.6l0.8,0.8
	c0.9,1,1,1,1.1,1.4c0,0.1,0,0.3,0,0.4c0,0.3-0.1,0.4-1,1.2l-0.5,0.5l0.5,0.5c0.8,0.9,0.9,0.9,1,1.3c0,0.1,0,0.3,0,0.4
	c0,0.3-0.1,0.4-1,1.3l-0.8,0.8v0.7c0.1,0.5,0,0.9-0.2,1.4c-0.1,0.2-1.3,1.3-1.3,1.3l-1.3,1.2h-0.4L170.5,262z"/>
<path class="st5" d="M173.3,246.7v2.3l0.9,0.9c0.4,0.3,0.7,0.6,0.9,1.1c0,0.1,0,0.2,0,0.3c-0.2,0.4-0.5,0.7-0.8,1l-0.8,0.8l0.8,0.8
	c0.4,0.3,0.6,0.6,0.8,1c0,0.1,0,0.2,0,0.3c-0.2,0.4-0.5,0.8-0.9,1.1l-0.9,0.9v0.8c0,0.4,0,0.7-0.1,1.1c0,0.1-0.6,0.6-1.2,1.2
	l-1.1,1.1h-0.2h-0.1c-0.2,0-0.4-0.2-1.5-1.2c-0.4-0.4-0.8-0.8-1.2-1.2c0-0.1-0.1-2.8-0.1-6.2v-6.1L173.3,246.7 M174.3,245.6h-7.5
	v7.1c0,6.3,0,6.4,0.1,6.7c0.4,0.6,0.8,1.1,1.4,1.5c1.2,1.2,1.5,1.5,2.2,1.5h0.3h0.2h0.3l0.2-0.2l1.1-1.1c0.3-0.3,1.2-1.2,1.3-1.4
	c0.3-0.5,0.4-1.1,0.3-1.6v-0.5l0.6-0.6c1-1,1.1-1.1,1.2-1.6c0-0.2,0-0.4,0-0.6c-0.1-0.4-0.2-0.6-1.1-1.5l-0.1-0.1l0.1-0.1
	c0.9-0.9,1-1.1,1.1-1.5c0-0.2,0-0.4,0-0.6c-0.1-0.4-0.2-0.6-1.2-1.6l-0.6-0.6L174.3,245.6L174.3,245.6L174.3,245.6z"/>
<path class="st0" d="M93.5,293.7c0,25.8-20.9,46.8-46.8,46.8S0,319.5,0,293.7c0-13.7,30.6-6.9,47.7,0
	C65.3,300.8,93.5,306,93.5,293.7z"/>
<path class="st1" d="M93.5,293.7c0,12.3-28.2,7.1-45.8,0C30.6,286.8,0,280,0,293.7c0-25.8,20.9-46.8,46.8-46.8
	S93.5,267.8,93.5,293.7z"/>
<path class="st2" d="M31.8,277.3c0.2,0.1,0.3,0.1,0.5,0.2c0.2,0.1,0.4,0.1,0.6,0.1c0.6,0,1.1-0.1,1.5-0.4c0.4-0.4,0.8-0.9,1-1.4
	c-0.8-1.4-1.5-3-2.1-4.6c-0.6-1.6-1.2-3.2-1.6-4.9h1.8c0.1,0.5,0.3,1.1,0.5,1.8s0.4,1.3,0.6,1.9c0.2,0.7,0.5,1.3,0.7,2
	s0.5,1.3,0.8,1.9c0.5-1.3,0.9-2.5,1.2-3.7c0.3-1.2,0.7-2.5,1-3.8h1.7c-0.4,1.8-0.9,3.5-1.4,5.1s-1.1,3.1-1.7,4.6
	c-0.2,0.5-0.5,0.9-0.8,1.4c-0.2,0.4-0.5,0.7-0.8,1c-0.3,0.3-0.7,0.4-1,0.6c-0.4,0.1-0.9,0.2-1.3,0.2h-0.4l-0.4-0.1l-0.4-0.1
	l-0.2-0.1L31.8,277.3z"/>
<path class="st2" d="M50.1,270.9c0,0.7-0.1,1.4-0.3,2c-0.2,0.6-0.5,1.1-0.9,1.5c-0.4,0.4-0.9,0.8-1.4,1c-1.1,0.5-2.4,0.5-3.5,0
	c-0.5-0.2-1-0.6-1.4-1c-0.4-0.5-0.7-1-0.9-1.5c-0.4-1.3-0.4-2.7,0-4c0.2-0.6,0.5-1.1,0.9-1.6c0.4-0.4,0.9-0.8,1.4-1
	c1.1-0.5,2.4-0.5,3.5,0c0.5,0.2,1,0.6,1.4,1c0.4,0.5,0.7,1,0.9,1.6C50,269.5,50.1,270.2,50.1,270.9z M48.3,270.9
	c0.1-0.9-0.2-1.8-0.7-2.5c-0.9-1.1-2.4-1.2-3.5-0.4c-0.1,0.1-0.3,0.2-0.4,0.4c-0.9,1.5-0.9,3.5,0,5c0.9,1.1,2.4,1.2,3.5,0.4
	c0.1-0.1,0.3-0.2,0.4-0.4C48.1,272.7,48.4,271.8,48.3,270.9L48.3,270.9z"/>
<path class="st2" d="M59.9,275.3c-0.4,0.1-0.9,0.2-1.5,0.3c-0.7,0.1-1.5,0.2-2.2,0.2c-0.6,0-1.2-0.1-1.8-0.3
	c-0.5-0.2-0.9-0.5-1.2-0.9c-0.3-0.4-0.5-0.9-0.7-1.4c-0.1-0.6-0.2-1.2-0.2-1.7v-5.3H54v4.9c-0.1,0.9,0.1,1.7,0.5,2.5
	c0.4,0.5,1.1,0.8,1.8,0.7h0.6h0.5l0.5,0c0.1,0,0.2,0,0.3-0.1v-7.9h1.7V275.3L59.9,275.3z"/>
<path class="st5" d="M59,309.4c-5.2-1.7-7.3-3.8-7.3-3.8l-0.2,0.2c-1.2,1.3-2.9,2.1-4.8,2.3h-0.2c-1.8-0.1-3.5-1-4.8-2.3l-0.2-0.2
	c0,0-2.1,2.1-7.3,3.8c-7.6,2.8-5.3,14.4-5.3,14.5c0,0.6,0.2,1.2,0.5,1.8c7.6,3.4,26.6,3.4,34.2,0c0.3-0.5,0.5-1.2,0.5-1.8
	C64.3,323.8,66.6,312.3,59,309.4z"/>
<path class="st5" d="M54.8,296.2c0,0.3-0.1,0.6-0.2,0.9c-0.2,0.6-0.4,1.1-0.7,1.6c-0.9,4.3-3.9,7.9-7.1,7.9s-6.4-3.6-7.3-7.9
	c-0.3-0.5-0.6-1-0.8-1.6c-0.3-0.8-0.4-1.6-0.1-2.4l0.1-0.1c0.4-0.3,0.4-0.4,0.4-0.4c-0.2-1.2-0.4-2.5-0.4-3.8c3.3,1,6.3,2.1,9.1,3.2
	C49.9,294.6,52.3,295.4,54.8,296.2z"/>
<path class="st7" d="M43.4,246.5c-0.7-0.3-1.3-0.8-1.9-1.4c-0.3-0.3-0.6-0.6-0.9-1c-0.8-1.2-1.3-2.7-1.3-4.2c0-1.7,0.6-3.3,1.6-4.6
	c0.7-0.9,1.7-1.7,2.8-2.2c0.9-0.4,2-0.6,3-0.6c1.5,0,2.9,0.4,4.2,1.3c0.7,0.5,1.4,1.2,1.9,1.9c0.7,1.1,1.2,2.3,1.3,3.6
	c0.1,1.7-0.3,3.3-1.3,4.7c-0.5,0.7-1.2,1.4-1.9,1.9c-0.4,0.2-0.7,0.5-1.1,0.6l-0.3,0.1h-5.7L43.4,246.5z M46.8,236.5
	c-0.3,0-0.6,0.1-0.8,0.3c-0.7,0.5-0.9,1.5-0.4,2.2c0.2,0.3,0.5,0.5,0.8,0.6c0.2,0.1,0.3,0.1,0.5,0.1c0.9,0,1.6-0.7,1.6-1.5
	c0-0.3-0.1-0.5-0.2-0.8C47.9,236.8,47.4,236.5,46.8,236.5l0-0.5L46.8,236.5L46.8,236.5z"/>
<path class="st5" d="M46.8,233.1c1.4,0,2.7,0.4,3.9,1.2c0.7,0.5,1.3,1.1,1.8,1.8c0.7,1,1.1,2.2,1.2,3.4c0.1,1.5-0.3,3.1-1.2,4.4
	c-0.5,0.7-1.1,1.2-1.7,1.7c-0.3,0.2-0.7,0.4-1.1,0.6l-0.2,0.1H44l-0.4-0.2c-0.7-0.3-1.2-0.8-1.7-1.3c-0.3-0.3-0.6-0.6-0.8-1
	c-1.7-2.5-1.6-5.8,0.3-8.1c0.7-0.9,1.6-1.5,2.6-2C44.8,233.3,45.8,233.1,46.8,233.1 M46.7,240.1c1.1,0,2.1-0.9,2.1-2.1
	s-0.9-2.1-2.1-2.1h0c-0.4,0-0.8,0.1-1.1,0.3c-0.9,0.6-1.2,1.9-0.5,2.9c0.3,0.4,0.6,0.7,1.1,0.8C46.3,240,46.5,240.1,46.7,240.1
	 M46.8,232.1c-1.1,0-2.2,0.2-3.2,0.7c-1.2,0.5-2.2,1.3-3,2.3c-1.1,1.4-1.7,3.1-1.7,4.9c0,1.6,0.5,3.1,1.3,4.4c0.3,0.4,0.6,0.8,1,1.1
	c0.6,0.6,1.3,1.1,2,1.5l0.4,0.2l0.2,0.1h6l0.2-0.1l0.2-0.1c0.4-0.2,0.8-0.4,1.2-0.7c0.8-0.6,1.4-1.2,2-2c1.8-2.7,1.8-6.2,0-8.9
	c-0.6-0.8-1.3-1.5-2.1-2.1C50,232.6,48.4,232.1,46.8,232.1L46.8,232.1L46.8,232.1z M46.8,239.1c-0.1,0-0.2,0-0.3-0.1
	c-0.4-0.1-0.7-0.5-0.7-0.9c-0.1-0.4,0.1-0.8,0.5-1c0.2-0.1,0.4-0.2,0.6-0.2c0.4,0,0.8,0.2,0.9,0.5c0.3,0.5,0.1,1.1-0.4,1.4
	C47.1,239,47,239.1,46.8,239.1L46.8,239.1L46.8,239.1z"/>
<path class="st7" d="M46.7,262c-0.5,0-0.6-0.2-1.8-1.4c-0.5-0.4-0.9-0.9-1.3-1.4c-0.1-0.1-0.1-0.2-0.1-6.5v-6.6H50v2.6l0.8,0.8
	c0.9,1,1,1,1,1.4c0,0.1,0,0.3,0,0.4c0,0.3-0.1,0.4-1,1.2l-0.4,0.4l0.5,0.5c0.8,0.9,0.9,0.9,1,1.3c0,0.1,0,0.3,0,0.4
	c0,0.3-0.1,0.4-1,1.3l-0.8,0.8v0.7c0.1,0.5,0,0.9-0.2,1.4c-0.1,0.2-1.3,1.3-1.3,1.3l-1.3,1.2H47L46.7,262z"/>
<path class="st5" d="M49.5,246.7v2.3l0.9,0.9c0.4,0.3,0.7,0.6,0.9,1.1c0,0.1,0,0.2,0,0.3c-0.2,0.4-0.5,0.7-0.8,1l-0.8,0.7l0.8,0.8
	c0.4,0.3,0.6,0.6,0.8,1c0,0.1,0,0.2,0,0.3c-0.2,0.4-0.5,0.8-0.9,1.1l-0.9,0.9v0.9c0,0.4,0,0.7-0.1,1.1c0,0.1-0.6,0.6-1.2,1.2
	l-1.1,1.1h-0.2h-0.2c-0.2,0-0.4-0.2-1.5-1.2c-0.4-0.4-0.8-0.8-1.2-1.2c0-0.1,0-2.8,0-6.2v-6.1L49.5,246.7 M50.5,245.6H43v7.1
	c0,6.3,0,6.4,0.2,6.7c0.4,0.6,0.8,1.1,1.4,1.6c1.2,1.2,1.5,1.5,2.2,1.5H47h0.2h0.3l0.2-0.2l1.1-1.3c0.3-0.3,1.2-1.2,1.3-1.4
	c0.3-0.5,0.4-1.1,0.3-1.6v-0.5l0.6-0.6c1-1,1.1-1.1,1.2-1.6c0-0.2,0-0.4,0-0.6c-0.1-0.4-0.2-0.6-1.1-1.5l-0.1-0.1l0.1-0.1
	c0.9-0.9,1-1.1,1.1-1.5c0-0.2,0-0.4,0-0.6c-0.1-0.4-0.2-0.6-1.2-1.6l-0.6-0.6V245.6L50.5,245.6L50.5,245.6z"/>
<path class="st0" d="M54.8,296.2c-2.5-0.8-4.8-1.7-7-2.5c-2.7-1.1-5.8-2.2-9.1-3.2c0-0.6,0.1-1.2,0.2-1.8c1-3,4.5-4.6,5.2-4.8
	c0.6-0.3,1.3-0.4,1.9-0.3c0,0,0.7,0.1,0.7,0.1c1.1,0.2,6.7,2.1,7.7,5c0.6,1.8-0.1,5.5-0.1,5.5s0,0,0.4,0.4l0.1,0.1
	C54.9,295.2,54.9,295.7,54.8,296.2z"/>
<path class="st5" d="M135.5,44.8c-0.2-0.6-0.5-1.2-1-1.7c-0.4-0.5-0.9-0.8-1.5-1.1c-0.6-0.2-1.3-0.4-2-0.4c-0.8,0-1.5,0-2.3,0.1
	c-0.6,0.1-1.1,0.2-1.6,0.4v13.2h1.8v-4c0.3,0.2,0.6,0.4,1,0.5c0.5,0.1,1,0.2,1.6,0.2c0.7,0,1.3-0.1,1.9-0.4c0.6-0.2,1.1-0.6,1.4-1.1
	c0.3-0.5,0.6-1.1,0.8-1.7c0.1-0.7,0.2-1.3,0.2-2C135.9,46.3,135.8,45.5,135.5,44.8z M133.8,48.3c-0.1,0.4-0.2,0.8-0.5,1.2
	c-0.2,0.3-0.5,0.5-0.8,0.7c-0.4,0.2-0.9,0.2-1.3,0.3c-0.4,0-0.8-0.1-1.2-0.3c-0.4-0.3-0.7-0.5-1-0.6v-6.3c0.2-0.1,0.5-0.1,0.7-0.1
	h1.2c0.8,0,1.6,0.3,2.2,1c0.6,0.7,0.9,1.7,0.8,2.7C133.9,47.4,133.9,47.9,133.8,48.3z"/>
<path class="st5" d="M145.4,43.9c-0.1-0.5-0.3-0.9-0.6-1.2c-0.4-0.3-0.8-0.6-1.2-0.8c-0.6-0.2-1.2-0.2-1.8-0.2
	c-0.6,0-1.2,0.1-1.8,0.2c-0.4,0-0.8,0.1-1.2,0.2l0.5,1.7c0.3-0.1,0.7-0.2,1-0.2c0.5-0.1,1-0.1,1.6-0.1c0.4,0,0.7,0.1,1.1,0.2
	c0.3,0.1,0.6,0.2,0.7,0.5c0.2,0.2,0.3,0.4,0.4,0.7c0.1,0.3,0.1,0.6,0.1,0.8v0.5h-0.2c-0.1,0-0.4-0.1-0.5-0.1
	c-0.2-0.1-0.4-0.1-0.6-0.1h-0.6c-0.5,0-1,0-1.6,0.1c-0.5,0-0.9,0.2-1.3,0.5c-0.4,0.2-0.8,0.6-1,1c-0.3,0.4-0.4,0.9-0.4,1.4
	c0,0.5,0,1,0.2,1.5c0.2,0.4,0.5,0.7,0.8,1c0.3,0.3,0.8,0.5,1.2,0.6c0.5,0.1,1,0.1,1.6,0.1h1.2c0.4,0,0.7-0.1,1.1-0.1s0.7-0.1,1-0.1
	c0.2,0,0.4-0.1,0.6-0.1v-6.3C145.6,44.9,145.5,44.4,145.4,43.9z M143.8,50.5c-0.3,0.1-0.6,0.1-0.8,0.1h-1.1
	c-0.6,0.1-1.2-0.1-1.7-0.5c-0.4-0.3-0.6-0.8-0.6-1.3c0-0.3,0.1-0.6,0.2-0.8c0.1-0.2,0.4-0.4,0.6-0.5c0.3-0.2,0.5-0.2,0.8-0.2h0.8
	c0.5,0,0.8,0.1,1.1,0.1c0.2,0,0.4,0,0.6,0.1L143.8,50.5L143.8,50.5z"/>
<path class="st5" d="M154.9,49.2c0,0.8-0.4,1.6-1.1,2c-0.9,0.5-1.9,0.8-2.9,0.7c-0.7,0-1.3-0.1-2-0.2c-0.4-0.1-0.7-0.2-1-0.4
	l0.4-1.6c0.3,0.2,0.7,0.3,1,0.4c0.6,0.2,1.2,0.2,1.8,0.3c0.6,0,1.1-0.1,1.7-0.3c0.3-0.2,0.5-0.6,0.5-1c0-0.4-0.1-0.8-0.5-1.1
	c-0.5-0.4-1.1-0.6-1.7-0.8c-0.4-0.1-0.7-0.4-1.1-0.5c-0.4-0.2-0.7-0.4-1-0.6c-0.3-0.2-0.5-0.5-0.6-0.8c-0.1-0.3-0.2-0.7-0.2-1.1
	c0-0.8,0.4-1.6,1-2.2c0.8-0.4,1.7-0.6,2.5-0.5h0.8c0.2,0,0.6,0.1,0.8,0.1c0.2,0,0.4,0.1,0.6,0.1c0.2,0,0.3,0.1,0.5,0.1l-0.4,1.7
	c-0.3-0.2-0.7-0.3-1-0.4c-0.5-0.1-1-0.1-1.4-0.1c-0.4,0-0.9,0.1-1.3,0.2c-0.4,0.2-0.6,0.6-0.6,1c0,0.2,0,0.4,0.1,0.6
	c0.1,0.1,0.2,0.4,0.4,0.5c0.2,0.1,0.4,0.3,0.6,0.4c0.3,0.1,0.7,0.3,1,0.4c0.5,0.1,0.8,0.4,1.3,0.5c0.4,0.1,0.7,0.3,1,0.6
	c0.3,0.2,0.5,0.5,0.6,0.8C154.8,48.4,154.8,48.8,154.9,49.2z"/>
<path class="st5" d="M159.4,52.8c-0.8,0-1.5-0.1-2.3-0.2c-0.4-0.1-0.7-0.2-1.1-0.4l-0.5-0.2l0.6-2.8l0.6,0.2c0.3,0.2,0.7,0.3,1,0.4
	c0.5,0.2,1,0.2,1.6,0.2c0.5,0,0.9,0,1.3-0.2c0.1-0.1,0.2-0.2,0.2-0.4c0-0.2-0.1-0.4-0.2-0.6c-0.2-0.1-0.6-0.4-1.6-0.8
	c-0.4-0.1-0.7-0.4-1.1-0.5s-0.7-0.4-1.1-0.6c-0.3-0.2-0.6-0.6-0.7-1c-0.2-0.4-0.3-0.9-0.2-1.4c-0.1-1,0.4-1.9,1.2-2.5
	c0.9-0.7,1.9-1,3-1h1c0.2,0,0.6,0.1,0.8,0.1s0.5,0.1,0.7,0.1c0.2,0,0.3,0.1,0.5,0.1l0.5,0.1l-0.7,3l-0.7-0.4
	c-0.2-0.1-0.5-0.1-0.7-0.2c-0.4-0.1-0.9-0.1-1.3-0.1c-0.4,0-0.7,0.1-1.1,0.2c-0.1,0.1-0.2,0.2-0.2,0.4c0,0.1,0,0.3,0.1,0.4
	c0,0.1,0.1,0.2,0.2,0.2c0.1,0.1,0.4,0.2,0.5,0.4c0.3,0.1,0.6,0.3,0.8,0.4c0.4,0.2,0.9,0.4,1.3,0.6c0.4,0.2,0.8,0.4,1.1,0.7
	c0.4,0.3,0.6,0.6,0.7,1.1c0.2,0.5,0.2,1,0.2,1.4c0,1-0.5,2-1.3,2.7C161.6,52.5,160.5,52.8,159.4,52.8z"/>
<path class="st6" d="M164.2,47.5c-0.2-0.5-0.6-1-1-1.3c-0.3-0.3-0.6-0.5-1-0.7l-0.2-0.1c-0.4-0.2-0.9-0.4-1.3-0.6
	c-0.3-0.1-0.6-0.2-0.9-0.4c-0.2-0.1-0.4-0.1-0.4-0.2c0.2-0.1,0.4-0.2,0.6-0.1c0.4,0,0.8,0,1.2,0.1c0.2,0,0.4,0.1,0.6,0.2l1,0.5
	l0.5,0.2l0.2-0.9V44l0.1-0.5l0.3-1.2l0,0l0.1-0.3l0.1-0.6l0.1-0.4l-1-0.4c-0.1,0-0.4-0.1-0.5-0.1c-0.2,0-0.5-0.1-0.7-0.1
	c-0.7-0.1-1.3-0.1-2,0c-1.2-0.1-2.4,0.3-3.4,1.1c-0.9,0.7-1.5,1.8-1.4,3c0,0.6,0.1,1.2,0.4,1.7c0.2,0.5,0.6,0.9,1,1.2
	c0.4,0.3,0.8,0.6,1.2,0.7c0.4,0.2,0.8,0.3,1.2,0.5h0.1c0.5,0.2,0.9,0.4,1.4,0.7c-0.3,0.1-0.7,0.1-1,0.1c-0.4,0-0.7,0-1.1-0.1h-0.3
	c-0.3-0.1-0.7-0.2-1-0.4l-1-0.4l-0.3-0.1l-0.4,1.3l-0.4,1.6l-0.2,0.7l-0.1,0.3l0.4,0.2l0.5,0.2c0.4,0.1,0.8,0.3,1.3,0.3
	c0.8,0.2,1.6,0.3,2.4,0.2c1.3,0.1,2.5-0.3,3.6-1C164.5,51.1,165,49.2,164.2,47.5z M159.4,51.9c-0.7,0-1.3-0.1-2-0.2
	c-0.4-0.1-0.7-0.2-1-0.4l0,0l0.4-1.6c0.3,0.1,0.6,0.3,0.9,0.3h0.1c0.6,0.2,1.2,0.2,1.8,0.3c0.6,0,1.1-0.1,1.7-0.3
	c0.3-0.2,0.5-0.6,0.5-1c0-0.4-0.1-0.8-0.5-1.1c-0.3-0.2-0.7-0.4-1-0.6c-0.2-0.1-0.5-0.2-0.7-0.3c-0.4-0.1-0.7-0.4-1.1-0.5
	c-0.4-0.2-0.7-0.4-1-0.6c-0.3-0.2-0.5-0.5-0.6-0.8c-0.1-0.3-0.2-0.7-0.2-1.1c0-0.9,0.4-1.7,1.2-2.2c0.7-0.3,1.6-0.4,2.4-0.4h0.9
	c0.6,0.1,1.3,0.2,1.9,0.4l-0.4,1.6c-0.3-0.2-0.7-0.3-1-0.4c-0.5-0.1-1-0.1-1.4-0.1c-0.5,0-0.9,0.1-1.3,0.2c-0.4,0.2-0.6,0.6-0.6,1
	c0,0.2,0,0.4,0.1,0.6c0.1,0.1,0.2,0.4,0.4,0.5c0.2,0.1,0.4,0.3,0.6,0.4c0.3,0.1,0.7,0.3,1,0.4c0.4,0.1,0.7,0.3,1,0.4
	c0.1,0,0.2,0.1,0.3,0.1c0.4,0.1,0.7,0.3,1,0.6c0.3,0.2,0.5,0.5,0.6,0.8c0.1,0.4,0.2,0.8,0.2,1.2c0,0.8-0.4,1.6-1.1,2
	C161.4,51.7,160.4,52,159.4,51.9z"/>
<path class="st5" d="M173.5,52.5l-0.1-0.4c-0.4-1-0.7-2-1.2-3.3c-0.2-0.5-0.4-1.1-0.5-1.7c-0.1,0.6-0.4,1.1-0.5,1.7
	c-0.4,1.2-0.8,2.3-1.2,3.3l-0.1,0.4h-2.4l-0.1-0.4c-0.6-1.3-1.2-2.9-1.8-4.6s-1.1-3.6-1.6-5.5l-0.2-0.7h3.1l0.1,0.5
	c0.1,0.6,0.3,1.3,0.5,1.9c0.1,0.7,0.3,1.4,0.6,2c0.2,0.7,0.4,1.3,0.6,2V48c0-0.1,0-0.2,0.1-0.2c0.2-0.7,0.4-1.3,0.6-2s0.4-1.3,0.6-2
	s0.4-1.3,0.5-1.8l0.1-0.5h2.4l0.1,0.5l0.4,1.8c0.1,0.6,0.4,1.3,0.5,2s0.4,1.3,0.6,2c0,0.1,0,0.2,0.1,0.2v-0.2c0.2-0.6,0.4-1.3,0.6-2
	s0.4-1.4,0.6-2s0.4-1.3,0.5-1.9l0.1-0.5h3.1l-0.4,0.7c-0.5,1.9-1.1,3.8-1.6,5.5s-1.2,3.3-1.8,4.6l-0.1,0.4L173.5,52.5L173.5,52.5z"
	/>
<path class="st5" d="M188.9,44.7c-0.2-0.6-0.6-1.2-1-1.7c-0.4-0.5-0.8-0.8-1.4-1c-0.6-0.2-1.3-0.4-1.9-0.4c-0.7,0-1.3,0.1-1.9,0.4
	c-0.5,0.2-1,0.6-1.4,1c-0.4,0.5-0.7,1.1-1,1.7c-0.2,0.7-0.4,1.4-0.4,2.2c0,0.7,0.1,1.5,0.4,2.2c0.2,0.6,0.6,1.2,1,1.7
	c0.4,0.5,0.9,0.9,1.4,1.1c0.6,0.2,1.3,0.4,1.9,0.4c0.7,0,1.3-0.1,1.9-0.4c0.6-0.3,1-0.6,1.4-1.1c0.4-0.5,0.7-1.1,1-1.7
	c0.3-0.7,0.4-1.4,0.4-2.2C189.3,46.1,189.1,45.4,188.9,44.7z M186.6,49.7c-0.9,1.1-2.6,1.3-3.7,0.4c-0.1-0.1-0.3-0.2-0.4-0.4
	c-0.5-0.8-0.8-1.7-0.7-2.6c-0.1-0.9,0.2-1.9,0.7-2.7c0.9-1.1,2.6-1.3,3.7-0.3c0.1,0.1,0.2,0.2,0.3,0.3c0.5,0.8,0.8,1.7,0.7,2.7
	C187.4,47.9,187.1,48.9,186.6,49.7z"/>
<path class="st5" d="M197.4,42.1l-0.4,1.6c-0.2-0.1-0.5-0.1-0.7-0.2c-0.4-0.1-0.8-0.1-1.2-0.1c-0.3,0-0.7,0-1,0.1
	c-0.2,0.1-0.4,0.1-0.6,0.1v8.4h-1.8v-9.6c0.5-0.1,1.1-0.3,1.6-0.5c0.7-0.1,1.4-0.1,2.2-0.1h0.6c0.2,0,0.4,0,0.6,0.1
	c0.2,0,0.3,0.1,0.5,0.1C197.2,42,197.3,42.1,197.4,42.1z"/>
<path class="st5" d="M205.7,37.3v5c-0.3-0.2-0.6-0.4-1-0.5c-0.5-0.1-1-0.2-1.6-0.2c-0.7,0-1.3,0.1-1.9,0.4c-0.6,0.2-1,0.6-1.4,1.1
	c-0.4,0.5-0.6,1.1-0.8,1.7c-0.1,0.7-0.2,1.4-0.2,2.2c0,0.7,0.1,1.5,0.4,2.2c0.2,0.6,0.5,1.2,1,1.7c0.4,0.5,1,0.8,1.6,1.1
	c0.6,0.2,1.3,0.4,2,0.4c0.7,0,1.4,0,2.2-0.1c0.5-0.1,1.1-0.2,1.6-0.4V37L205.7,37.3z M205.6,50.3c-0.2,0.1-0.5,0.1-0.7,0.1
	c-0.4,0.1-0.8,0.1-1.2,0.1c-0.9,0.1-1.8-0.3-2.3-1.1c-0.6-0.7-0.9-1.7-0.8-2.6c0-0.5,0-1,0.1-1.4c0.1-0.4,0.2-0.8,0.5-1.2
	c0.2-0.3,0.5-0.6,0.9-0.7c0.9-0.3,1.8-0.3,2.6,0c0.4,0.1,0.7,0.3,1,0.5L205.6,50.3L205.6,50.3z"/>
<path class="st6" d="M175.9,40.6l-0.3,1c-0.1,0.6-0.3,1.3-0.5,1.9c-0.1,0.7-0.6,2.2-0.6,2.3c0-0.1-0.5-1.7-0.6-2.4l-0.4-1.8l-0.2-1
	H170l-0.2,1c-0.1,0.6-0.3,1.2-0.5,1.8c-0.1,0.6-0.7,2.3-0.7,2.4c0-0.1-1-3.6-1.1-4.2l-0.2-1h-4.4l0.2,0.7l0,0c0,0,0.3,1.2,0.4,1.5
	l0.4,1.3c0.4,1.3,0.7,2.4,1,3.5c0.6,1.7,1.2,3.3,1.8,4.7l0.4,0.7h3.1l0.2-0.7c0.1-0.3,0.9-2.3,1.1-3.1c0.1,0.4,0.2,0.8,0.3,1.1
	c0.3,0.7,0.5,1.4,0.7,2l0.2,0.8h3.1l0.4-0.7c0.7-1.5,1.3-3.1,1.8-4.7c0.6-1.5,2.4-7,2.4-7L175.9,40.6L175.9,40.6z"/>
<path class="st5" d="M178.3,43.6c-0.4,1.3-0.8,2.6-1.1,3.7c-0.6,1.7-1.2,3.3-1.7,4.6H174c-0.3-0.9-0.7-1.8-1.1-2.9
	c0-0.1-0.1-0.2-0.1-0.3c-0.4-1.2-0.7-2.4-1.1-3.7c-0.4,1.3-0.7,2.5-1.1,3.7s-0.7,2.3-1.1,3.1H168c-0.7-1.5-1.2-3-1.7-4.6
	c-0.5-1.4-0.9-2.9-1.3-4.6c-0.1-0.3-0.1-0.6-0.2-1h1.9c0.1,0.6,0.3,1.3,0.5,1.9c0.1,0.7,0.3,1.5,0.6,2.2c0.2,0.7,0.4,1.4,0.6,2
	c0.2,0.5,0.4,1.1,0.6,1.7c0.3-0.6,0.5-1.3,0.6-1.9c0.2-0.7,0.4-1.3,0.6-2s0.4-1.3,0.6-2s0.4-1.3,0.5-1.8h1.4
	c0.1,0.6,0.3,1.2,0.5,1.8c0.1,0.6,0.4,1.3,0.5,2s0.4,1.3,0.6,2c0.2,0.6,0.4,1.3,0.6,1.9c0.2-0.5,0.4-1.1,0.6-1.7s0.4-1.3,0.6-2l0,0
	c0.2-0.7,0.4-1.4,0.6-2.2s0.4-1.3,0.5-1.9h1.7C178.6,42.4,178.5,43,178.3,43.6z"/>
<line class="st3" x1="207.7" y1="201.3" x2="233" y2="226.5"/>
<rect x="233.6" y="227.5" class="st8" width="122.1" height="120.6"/>
<g>
	<path class="st8" d="M246.8,201.3c0-0.6,0.1-1.2,0.3-1.8c0.2-0.5,0.4-0.9,0.8-1.3c0.3-0.3,0.7-0.6,1.1-0.8c0.4-0.2,0.9-0.3,1.3-0.3
		c0.9-0.1,1.8,0.3,2.4,1c0.6,0.9,0.9,1.9,0.8,3v0.2c0,0.1,0,0.2,0,0.3h-5.3c0,0.7,0.3,1.3,0.7,1.8c0.5,0.5,1.2,0.7,1.9,0.6
		c0.4,0,0.8,0,1.2-0.1c0.3-0.1,0.5-0.1,0.8-0.3l0.2,1.2c-0.3,0.1-0.6,0.2-0.9,0.3c-0.5,0.1-1,0.2-1.4,0.1c-0.6,0-1.2-0.1-1.8-0.3
		c-0.5-0.2-0.9-0.5-1.2-0.9c-0.3-0.4-0.6-0.8-0.7-1.3C246.9,202.3,246.8,201.8,246.8,201.3z M252.2,200.5c0-0.6-0.1-1.1-0.5-1.6
		c-0.3-0.4-0.8-0.6-1.3-0.6c-0.3,0-0.6,0.1-0.9,0.2c-0.2,0.1-0.4,0.3-0.6,0.5c-0.2,0.2-0.3,0.4-0.4,0.7c-0.1,0.3-0.2,0.5-0.2,0.8
		H252.2z"/>
	<path class="st8" d="M255.6,197.6c0.3-0.1,0.8-0.2,1.3-0.3c0.6-0.1,1.2-0.1,1.8-0.1c0.5,0,1,0.1,1.5,0.3c0.4,0.2,0.7,0.4,1,0.7
		c0.3,0.3,0.4,0.7,0.5,1.1c0.1,0.5,0.2,1,0.1,1.5v4.4h-1.4v-4.1c0-0.4,0-0.8-0.1-1.2c0-0.3-0.2-0.6-0.3-0.8
		c-0.1-0.2-0.4-0.4-0.6-0.5c-0.3-0.1-0.6-0.1-0.9-0.1h-0.5h-0.5l-0.4,0.1h-0.3v6.6h-1.4L255.6,197.6L255.6,197.6z"/>
	<path class="st8" d="M267.6,205.3c-0.6,0-1.1-0.1-1.6-0.3c-0.5-0.2-0.9-0.5-1.2-0.8c-0.3-0.4-0.6-0.8-0.7-1.3
		c-0.2-0.5-0.2-1.1-0.2-1.6c0-0.6,0.1-1.1,0.3-1.6c0.2-0.5,0.4-0.9,0.7-1.3c0.3-0.4,0.7-0.7,1.2-0.9c0.5-0.2,1-0.3,1.5-0.3
		c0.3,0,0.7,0,1,0.1c0.3,0.1,0.7,0.2,1,0.3l-0.3,1.2c-0.2-0.1-0.5-0.2-0.7-0.2c-0.3-0.1-0.6-0.1-0.9-0.1c-0.7,0-1.3,0.2-1.8,0.7
		c-0.5,0.6-0.7,1.4-0.6,2.1c0,0.4,0,0.8,0.1,1.2c0.1,0.3,0.2,0.6,0.5,0.9c0.2,0.3,0.5,0.5,0.8,0.6c0.4,0.1,0.8,0.2,1.2,0.2
		c0.3,0,0.7,0,1-0.1c0.2-0.1,0.5-0.1,0.7-0.2l0.2,1.2c-0.1,0.1-0.2,0.1-0.3,0.1l-0.5,0.1l-0.6,0.1
		C268,205.3,267.8,205.3,267.6,205.3z"/>
	<path class="st8" d="M274.1,197.2h0.4l0.5,0.1l0.4,0.1l0.3,0.1l-0.2,1.2c-0.2-0.1-0.4-0.1-0.5-0.1c-0.3-0.1-0.7-0.1-1-0.1
		c-0.3,0-0.5,0-0.8,0.1l-0.5,0.1v6.6h-1.4v-7.5c0.4-0.1,0.8-0.3,1.2-0.3C273,197.2,273.6,197.2,274.1,197.2z"/>
	<path class="st8" d="M276.4,206.6c0.1,0.1,0.3,0.1,0.4,0.1c0.2,0,0.3,0.1,0.5,0.1c0.5,0,0.9-0.1,1.3-0.4c0.4-0.3,0.7-0.7,0.8-1.2
		c-0.6-1.2-1.2-2.5-1.8-3.8c-0.5-1.3-1-2.7-1.4-4.1h1.5c0.1,0.5,0.2,0.9,0.4,1.5s0.3,1.1,0.5,1.6c0.2,0.6,0.4,1.1,0.6,1.6
		c0.2,0.5,0.5,1.1,0.7,1.6c0.4-1,0.7-2.1,1-3.1c0.3-1,0.5-2.1,0.8-3.2h1.4c-0.4,1.5-0.8,2.9-1.2,4.2c-0.4,1.4-0.9,2.6-1.4,3.8
		c-0.2,0.4-0.4,0.8-0.6,1.2c-0.2,0.3-0.4,0.6-0.7,0.8c-0.3,0.2-0.6,0.4-0.9,0.5c-0.4,0.1-0.7,0.2-1.1,0.1h-0.3l-0.4-0.1l-0.3-0.1
		l-0.2-0.1L276.4,206.6z"/>
	<path class="st8" d="M291.7,201.3c0,0.6-0.1,1.1-0.2,1.6c-0.1,0.5-0.4,0.9-0.7,1.3c-0.3,0.4-0.7,0.6-1.1,0.8
		c-0.5,0.2-1,0.3-1.5,0.3c-0.4,0-0.8-0.1-1.2-0.2c-0.3-0.1-0.5-0.2-0.8-0.3v3.1h-1.4v-10.3c0.3-0.1,0.7-0.2,1.2-0.3
		c0.6-0.1,1.1-0.1,1.7-0.1c0.6,0,1.1,0.1,1.6,0.3c0.5,0.2,0.9,0.5,1.2,0.8c0.4,0.4,0.6,0.8,0.8,1.3
		C291.6,200.1,291.7,200.7,291.7,201.3z M290.2,201.3c0.1-0.8-0.2-1.5-0.7-2.1c-0.5-0.5-1.1-0.8-1.8-0.7c-0.3,0-0.7,0-1,0
		c-0.2,0-0.4,0.1-0.6,0.1v4.9c0.2,0.2,0.5,0.3,0.7,0.4c0.3,0.1,0.7,0.2,1,0.2c0.3,0,0.7-0.1,1-0.2c0.3-0.1,0.5-0.3,0.7-0.6
		c0.2-0.3,0.3-0.6,0.4-0.9C290.1,202,290.2,201.6,290.2,201.3L290.2,201.3z"/>
	<path class="st8" d="M293.2,201.3c0-0.6,0.1-1.2,0.3-1.8c0.2-0.5,0.4-0.9,0.8-1.3c0.3-0.3,0.7-0.6,1.1-0.8c0.4-0.2,0.9-0.3,1.3-0.3
		c0.9-0.1,1.8,0.3,2.4,1c0.6,0.9,0.9,1.9,0.8,3v0.2c0,0.1,0,0.2,0,0.3h-5.3c0,0.7,0.3,1.3,0.7,1.8c0.5,0.5,1.2,0.7,1.9,0.6
		c0.4,0,0.8,0,1.2-0.1c0.3-0.1,0.5-0.1,0.8-0.3l0.2,1.2c-0.3,0.1-0.6,0.2-0.9,0.3c-0.5,0.1-1,0.2-1.5,0.1c-0.6,0-1.2-0.1-1.8-0.3
		c-0.5-0.2-0.9-0.5-1.2-0.9c-0.3-0.4-0.6-0.8-0.7-1.3C293.3,202.4,293.2,201.8,293.2,201.3z M298.6,200.5c0-0.6-0.1-1.1-0.5-1.6
		c-0.3-0.4-0.8-0.6-1.3-0.6c-0.3,0-0.6,0.1-0.9,0.2c-0.2,0.1-0.4,0.3-0.6,0.5c-0.2,0.2-0.3,0.4-0.4,0.7c-0.1,0.3-0.2,0.5-0.2,0.8
		H298.6z"/>
	<path class="st8" d="M307.1,193.7l1.4-0.2v11.4c-0.3,0.1-0.7,0.2-1.2,0.3c-0.6,0.1-1.2,0.1-1.7,0.1c-0.6,0-1.1-0.1-1.6-0.3
		c-0.5-0.2-0.9-0.5-1.2-0.8c-0.4-0.4-0.6-0.8-0.8-1.3c-0.2-0.5-0.3-1.1-0.3-1.7c0-0.6,0.1-1.1,0.2-1.6c0.1-0.5,0.4-0.9,0.7-1.3
		c0.3-0.4,0.7-0.6,1.1-0.8c0.5-0.2,1-0.3,1.5-0.3c0.4,0,0.8,0.1,1.2,0.2c0.3,0.1,0.5,0.2,0.8,0.3L307.1,193.7L307.1,193.7z
		 M307.1,199c-0.2-0.2-0.5-0.3-0.7-0.4c-0.3-0.1-0.7-0.2-1-0.2c-0.3,0-0.7,0.1-1,0.2c-0.3,0.1-0.5,0.3-0.7,0.6
		c-0.2,0.3-0.3,0.6-0.4,0.9c-0.1,0.4-0.1,0.8-0.1,1.1c-0.1,0.8,0.2,1.5,0.7,2.1c0.5,0.5,1.1,0.8,1.8,0.7c0.3,0,0.7,0,1-0.1
		c0.2,0,0.4-0.1,0.6-0.1V199L307.1,199z"/>
	<path class="st8" d="M320.7,205.1c-0.3-0.7-0.6-1.5-0.9-2.5s-0.6-1.9-0.9-2.9c-0.3,1-0.5,2-0.9,2.9s-0.6,1.7-0.9,2.5H316
		c-0.5-1-0.9-2.2-1.4-3.5s-0.9-2.7-1.3-4.3h1.5c0.1,0.5,0.2,1,0.4,1.5c0.1,0.6,0.3,1.1,0.4,1.6c0.2,0.6,0.3,1.1,0.5,1.6
		c0.2,0.5,0.3,0.9,0.5,1.3c0.2-0.5,0.3-1,0.5-1.5c0.2-0.5,0.3-1,0.5-1.6c0.2-0.5,0.3-1.1,0.4-1.6c0.1-0.5,0.3-1,0.4-1.4h1.2
		c0.1,0.5,0.2,0.9,0.3,1.4s0.3,1,0.4,1.6c0.1,0.5,0.3,1.1,0.5,1.6c0.2,0.5,0.3,1,0.5,1.5c0.2-0.4,0.3-0.8,0.5-1.3
		c0.2-0.5,0.3-1,0.5-1.6c0.2-0.5,0.3-1.1,0.5-1.6c0.1-0.6,0.3-1.1,0.4-1.5h1.4c-0.4,1.5-0.8,3-1.3,4.3c-0.4,1.3-0.9,2.5-1.4,3.5
		H320.7L320.7,205.1z"/>
	<path class="st8" d="M326.7,195.9c-0.2,0-0.5-0.1-0.6-0.3c-0.3-0.4-0.3-1,0-1.3c0.4-0.3,0.9-0.3,1.3,0c0.3,0.4,0.3,1,0,1.3
		C327.1,195.8,326.9,195.9,326.7,195.9z M327.4,205.1H326v-7.8h1.4L327.4,205.1L327.4,205.1z"/>
	<path class="st8" d="M331.1,197.3h3v1.2h-3v3.6c0,0.3,0,0.7,0.1,1c0,0.2,0.1,0.4,0.3,0.6c0.1,0.1,0.3,0.3,0.5,0.3
		c0.2,0.1,0.4,0.1,0.6,0.1c0.3,0,0.7,0,1-0.1l0.5-0.2l0.3,1.2c-0.2,0.1-0.5,0.2-0.7,0.3c-0.4,0.1-0.8,0.2-1.2,0.2
		c-0.4,0-0.9-0.1-1.3-0.2c-0.3-0.1-0.6-0.3-0.8-0.6c-0.2-0.3-0.4-0.6-0.4-1c-0.1-0.5-0.1-0.9-0.1-1.4v-7l1.4-0.2L331.1,197.3
		L331.1,197.3z"/>
	<path class="st8" d="M335.8,205.1v-11.4l1.4-0.2v4c0.3-0.1,0.5-0.2,0.8-0.2c0.3-0.1,0.6-0.1,0.9-0.1c0.5,0,1,0.1,1.5,0.3
		c0.4,0.2,0.7,0.4,1,0.7c0.3,0.3,0.4,0.7,0.5,1.1c0.1,0.5,0.2,1,0.1,1.5v4.4h-1.4v-4.1c0-0.4,0-0.8-0.1-1.2c0-0.3-0.2-0.6-0.3-0.8
		c-0.1-0.2-0.4-0.4-0.6-0.5c-0.3-0.1-0.6-0.1-0.9-0.1h-0.5l-0.5,0.1l-0.4,0.1l-0.3,0.1v6.5L335.8,205.1L335.8,205.1z"/>
	<path class="st8" d="M247.4,223.3c-0.6,0-1.1-0.1-1.7-0.3c-0.5-0.2-0.9-0.5-1.2-0.8c-0.3-0.4-0.6-0.8-0.7-1.3
		c-0.2-0.5-0.2-1.1-0.2-1.6c0-0.6,0.1-1.1,0.3-1.6c0.2-0.5,0.4-0.9,0.7-1.3c0.3-0.4,0.7-0.7,1.2-0.9c0.5-0.2,1-0.3,1.6-0.3
		c0.3,0,0.7,0,1,0.1c0.3,0.1,0.7,0.2,1,0.3l-0.3,1.2c-0.2-0.1-0.5-0.2-0.7-0.2c-0.3-0.1-0.6-0.1-0.9-0.1c-0.7,0-1.3,0.2-1.8,0.7
		c-0.5,0.6-0.7,1.4-0.6,2.1c0,0.4,0,0.8,0.1,1.1c0.1,0.3,0.2,0.6,0.4,0.9c0.2,0.3,0.5,0.5,0.8,0.6c0.4,0.1,0.8,0.2,1.2,0.2
		c0.3,0,0.7,0,1-0.1c0.2,0,0.5-0.1,0.7-0.2l0.2,1.2c-0.1,0.1-0.2,0.1-0.4,0.1l-0.5,0.1l-0.6,0.1
		C247.8,223.3,247.6,223.3,247.4,223.3z"/>
	<path class="st8" d="M251,223.1v-11.4l1.4-0.2v4c0.3-0.1,0.5-0.2,0.8-0.2c0.3-0.1,0.6-0.1,0.9-0.1c0.5,0,1,0.1,1.5,0.3
		c0.4,0.2,0.7,0.4,1,0.7c0.3,0.3,0.4,0.7,0.5,1.1c0.1,0.5,0.2,1,0.1,1.5v4.4h-1.4v-4.1c0-0.4,0-0.8-0.1-1.2c0-0.3-0.2-0.6-0.3-0.8
		c-0.1-0.2-0.4-0.4-0.6-0.5c-0.3-0.1-0.6-0.1-0.9-0.1h-0.5l-0.5,0.1l-0.4,0.1l-0.3,0.1v6.5L251,223.1L251,223.1z"/>
	<path class="st8" d="M260.2,213.9c-0.2,0-0.5-0.1-0.6-0.3c-0.3-0.4-0.3-1,0-1.3c0.4-0.3,0.9-0.3,1.3,0c0.3,0.4,0.3,1,0,1.3
		C260.7,213.8,260.5,213.9,260.2,213.9z M260.9,223.1h-1.4v-7.8h1.4V223.1z"/>
	<path class="st8" d="M265.7,223.3c-0.7,0-1.3-0.2-1.8-0.6c-0.4-0.4-0.6-1-0.5-1.6v-9.4l1.4-0.2v9.4c0,0.2,0,0.4,0.1,0.6
		c0,0.1,0.1,0.3,0.2,0.4c0.1,0.1,0.2,0.2,0.4,0.2c0.2,0.1,0.4,0.1,0.6,0.1L265.7,223.3z"/>
	<path class="st8" d="M272.5,211.7l1.4-0.2v11.4c-0.3,0.1-0.7,0.2-1.2,0.3c-0.6,0.1-1.2,0.1-1.7,0.1c-0.6,0-1.1-0.1-1.6-0.3
		c-0.5-0.2-0.9-0.5-1.2-0.8c-0.4-0.4-0.6-0.8-0.8-1.3c-0.2-0.5-0.3-1.1-0.3-1.7c0-0.6,0.1-1.1,0.2-1.6c0.1-0.5,0.4-0.9,0.7-1.3
		c0.3-0.4,0.7-0.6,1.1-0.8c0.5-0.2,1-0.3,1.5-0.3c0.4,0,0.8,0.1,1.2,0.2c0.3,0.1,0.5,0.2,0.8,0.3L272.5,211.7L272.5,211.7z
		 M272.5,217c-0.2-0.2-0.5-0.3-0.7-0.4c-0.3-0.1-0.7-0.2-1-0.2c-0.3,0-0.7,0.1-1,0.2c-0.3,0.1-0.5,0.3-0.7,0.6
		c-0.2,0.3-0.3,0.6-0.4,0.9c-0.1,0.4-0.1,0.8-0.1,1.1c-0.1,0.8,0.2,1.5,0.7,2.1c0.5,0.5,1.1,0.8,1.8,0.7c0.3,0,0.7,0,1-0.1
		c0.2,0,0.4-0.1,0.6-0.1V217L272.5,217z"/>
	<path class="st8" d="M286.6,219.3c0,0.6-0.1,1.1-0.2,1.6c-0.1,0.5-0.4,0.9-0.7,1.3c-0.3,0.4-0.7,0.6-1.1,0.8
		c-0.5,0.2-1,0.3-1.5,0.3c-0.4,0-0.8-0.1-1.2-0.2c-0.3-0.1-0.5-0.2-0.8-0.3v3.1h-1.4v-10.3c0.3-0.1,0.7-0.2,1.2-0.3
		c0.6-0.1,1.1-0.1,1.7-0.1c0.6,0,1.1,0.1,1.6,0.3c0.5,0.2,0.9,0.5,1.2,0.8c0.4,0.4,0.6,0.8,0.8,1.3
		C286.5,218.1,286.6,218.7,286.6,219.3z M285.1,219.3c0.1-0.8-0.2-1.5-0.7-2.1c-0.5-0.5-1.1-0.8-1.8-0.7c-0.3,0-0.7,0-1,0
		c-0.2,0-0.4,0.1-0.6,0.1v4.9c0.2,0.2,0.5,0.3,0.7,0.4c0.3,0.1,0.7,0.2,1,0.2c0.3,0,0.7-0.1,1-0.2c0.3-0.1,0.5-0.3,0.7-0.6
		c0.2-0.3,0.3-0.6,0.4-0.9C285.1,220,285.1,219.6,285.1,219.3z"/>
	<path class="st8" d="M294.8,222.9c-0.3,0.1-0.7,0.2-1.3,0.3c-0.6,0.1-1.2,0.1-1.8,0.1c-0.5,0-1-0.1-1.5-0.3c-0.4-0.2-0.7-0.4-1-0.7
		c-0.3-0.3-0.4-0.7-0.5-1.1c-0.1-0.5-0.2-1-0.2-1.4v-4.4h1.4v4.1c-0.1,0.7,0.1,1.4,0.5,2c0.4,0.4,0.9,0.7,1.5,0.6h0.5h0.5h0.4
		l0.3-0.1v-6.6h1.4L294.8,222.9L294.8,222.9z"/>
	<path class="st8" d="M298.6,215.7c0.2-0.1,0.5-0.3,0.8-0.3c0.4-0.1,0.8-0.2,1.2-0.2c0.5,0,1,0.1,1.5,0.3c0.4,0.2,0.8,0.5,1.1,0.8
		c0.3,0.4,0.5,0.8,0.7,1.3c0.2,0.5,0.2,1.1,0.2,1.6c0,0.6-0.1,1.2-0.3,1.7c-0.2,0.5-0.4,0.9-0.8,1.3c-0.3,0.4-0.8,0.6-1.2,0.8
		c-0.5,0.2-1.1,0.3-1.6,0.3c-0.6,0-1.2,0-1.7-0.1c-0.5-0.1-0.9-0.2-1.2-0.3v-11.2l1.4-0.2L298.6,215.7L298.6,215.7z M298.6,221.9
		c0.2,0,0.4,0.1,0.6,0.1c0.3,0,0.7,0.1,1,0.1c0.7,0,1.3-0.2,1.8-0.7c0.5-0.6,0.7-1.3,0.7-2.1c0-0.4,0-0.8-0.1-1.1
		c-0.1-0.3-0.2-0.6-0.4-0.9c-0.2-0.3-0.4-0.5-0.7-0.6c-0.3-0.1-0.7-0.2-1-0.2c-0.3,0-0.7,0.1-1,0.2c-0.3,0.1-0.5,0.2-0.7,0.4v4.9
		L298.6,221.9z"/>
	<path class="st8" d="M308.4,223.3c-0.7,0-1.3-0.2-1.8-0.6c-0.4-0.4-0.6-1-0.5-1.6v-9.4l1.4-0.2v9.4c0,0.2,0,0.4,0.1,0.6
		c0,0.1,0.1,0.3,0.2,0.4c0.1,0.1,0.2,0.2,0.4,0.2c0.2,0.1,0.4,0.1,0.6,0.1L308.4,223.3z"/>
	<path class="st8" d="M310.8,213.9c-0.2,0-0.5-0.1-0.6-0.3c-0.3-0.4-0.3-1,0-1.3c0.4-0.3,0.9-0.3,1.3,0c0.3,0.4,0.3,1,0,1.3
		C311.3,213.8,311,213.9,310.8,213.9z M311.5,223.1h-1.4v-7.8h1.4V223.1z"/>
	<path class="st8" d="M317.3,223.3c-0.6,0-1.1-0.1-1.7-0.3c-0.5-0.2-0.9-0.5-1.2-0.8c-0.3-0.4-0.6-0.8-0.7-1.3
		c-0.2-0.5-0.2-1.1-0.2-1.6c0-0.6,0.1-1.1,0.3-1.6c0.2-0.5,0.4-0.9,0.7-1.3c0.3-0.4,0.7-0.7,1.2-0.9c0.5-0.2,1-0.3,1.5-0.3
		c0.3,0,0.7,0,1,0.1c0.3,0.1,0.7,0.2,1,0.3l-0.3,1.2c-0.2-0.1-0.5-0.2-0.7-0.2c-0.3-0.1-0.6-0.1-0.9-0.1c-0.7,0-1.3,0.2-1.8,0.7
		c-0.5,0.6-0.7,1.4-0.6,2.1c0,0.4,0,0.8,0.1,1.1c0.1,0.3,0.2,0.6,0.5,0.9c0.2,0.3,0.5,0.5,0.8,0.6c0.4,0.1,0.8,0.2,1.2,0.2
		c0.3,0,0.7,0,1-0.1c0.2,0,0.5-0.1,0.7-0.2l0.2,1.2c-0.1,0.1-0.2,0.1-0.3,0.1l-0.5,0.1l-0.6,0.1
		C317.7,223.3,317.5,223.3,317.3,223.3z"/>
	<path class="st8" d="M327.2,218.8c0.4,0.3,0.7,0.6,1,0.9c0.3,0.3,0.7,0.7,1,1.1c0.3,0.4,0.6,0.8,0.8,1.2c0.3,0.4,0.5,0.7,0.7,1.1
		h-1.6c-0.2-0.4-0.5-0.7-0.7-1.1c-0.3-0.4-0.6-0.7-0.9-1c-0.3-0.3-0.6-0.6-0.9-0.9c-0.3-0.3-0.6-0.5-0.9-0.7v3.8h-1.4v-11.4l1.4-0.2
		v7.1l0.8-0.8l0.9-0.9l0.8-0.9l0.6-0.7h1.6l-0.8,0.8l-0.8,0.9L328,218L327.2,218.8z"/>
	<path class="st8" d="M331.4,219.3c0-0.6,0.1-1.2,0.3-1.8c0.2-0.5,0.4-0.9,0.8-1.3c0.3-0.3,0.7-0.6,1.1-0.8c0.4-0.2,0.9-0.3,1.3-0.3
		c0.9-0.1,1.8,0.3,2.4,1c0.6,0.9,0.9,1.9,0.8,3v0.2c0,0.1,0,0.2,0,0.3h-5.4c0,0.7,0.3,1.3,0.7,1.9c0.5,0.5,1.2,0.7,1.9,0.6
		c0.4,0,0.8,0,1.2-0.1c0.3-0.1,0.5-0.1,0.8-0.3l0.2,1.2c-0.3,0.1-0.6,0.2-0.9,0.3c-0.5,0.1-1,0.2-1.5,0.1c-0.6,0-1.2-0.1-1.8-0.3
		c-0.5-0.2-0.9-0.5-1.2-0.9c-0.3-0.4-0.6-0.8-0.7-1.3C331.4,220.4,331.3,219.8,331.4,219.3z M336.7,218.5c0-0.6-0.1-1.1-0.5-1.6
		c-0.3-0.4-0.8-0.6-1.3-0.6c-0.3,0-0.6,0.1-0.9,0.2c-0.2,0.1-0.4,0.3-0.6,0.5c-0.2,0.2-0.3,0.4-0.4,0.7c-0.1,0.3-0.2,0.5-0.2,0.8
		H336.7z"/>
	<path class="st8" d="M339.3,224.6c0.1,0.1,0.3,0.1,0.4,0.1c0.2,0,0.3,0.1,0.5,0.1c0.5,0,0.9-0.1,1.3-0.4c0.4-0.3,0.7-0.7,0.8-1.2
		c-0.6-1.2-1.2-2.5-1.8-3.8c-0.5-1.3-1-2.7-1.4-4.1h1.5c0.1,0.5,0.2,0.9,0.4,1.5s0.3,1.1,0.5,1.6c0.2,0.6,0.4,1.1,0.6,1.6
		c0.2,0.5,0.4,1.1,0.7,1.6c0.4-1,0.7-2.1,1-3.1c0.3-1,0.6-2.1,0.8-3.2h1.4c-0.4,1.5-0.8,2.9-1.2,4.2c-0.4,1.4-0.9,2.6-1.4,3.8
		c-0.2,0.4-0.4,0.8-0.6,1.2c-0.2,0.3-0.4,0.6-0.7,0.8c-0.3,0.2-0.6,0.4-0.9,0.5c-0.4,0.1-0.7,0.2-1.1,0.1h-0.3l-0.4-0.1l-0.3-0.1
		l-0.2-0.1L339.3,224.6z"/>
</g>
<path class="st0" d="M341.4,293.7c0,25.8-20.9,46.8-46.8,46.8c-25.8,0-46.8-20.9-46.8-46.8c0-13.7,30.6-6.9,47.7,0
	C313.2,300.8,341.4,306,341.4,293.7z"/>
<path class="st1" d="M341.4,293.7c0,12.3-28.2,7.1-45.8,0c-17.1-6.9-47.7-13.7-47.7,0c0-25.8,20.9-46.8,46.8-46.8
	C320.5,246.9,341.4,267.8,341.4,293.7z"/>
<path class="st2" d="M268.4,276.2c0.3-0.2,0.6-0.3,0.9-0.4c0.5-0.2,0.9-0.2,1.4-0.2c0.6,0,1.2,0.1,1.8,0.4c0.5,0.2,1,0.6,1.3,1
	c0.4,0.5,0.7,1,0.8,1.5c0.2,0.6,0.3,1.3,0.3,2c0,0.7-0.1,1.4-0.3,2c-0.2,0.6-0.5,1.1-1,1.5c-0.4,0.4-0.9,0.8-1.5,1
	c-0.6,0.2-1.3,0.3-1.9,0.3c-0.7,0-1.4,0-2.1-0.2c-0.6-0.1-1.1-0.2-1.5-0.3v-13.4l1.7-0.3L268.4,276.2L268.4,276.2z M268.4,283.7
	c0.2,0.1,0.5,0.1,0.7,0.1c0.4,0,0.8,0.1,1.1,0.1c0.8,0,1.6-0.3,2.2-0.9c0.6-0.7,0.9-1.6,0.8-2.5c0-0.5,0-0.9-0.1-1.4
	c-0.1-0.4-0.2-0.8-0.5-1.1c-0.2-0.3-0.5-0.6-0.8-0.7c-0.4-0.2-0.8-0.3-1.2-0.3c-0.4,0-0.9,0.1-1.3,0.2c-0.3,0.1-0.6,0.3-0.9,0.5
	L268.4,283.7L268.4,283.7z"/>
<path class="st2" d="M280.3,275.5c0.6,0,1.2,0.1,1.7,0.3c0.4,0.2,0.8,0.4,1.1,0.7c0.3,0.3,0.5,0.7,0.6,1.1c0.1,0.5,0.2,1,0.2,1.5
	v5.9l-0.6,0.1l-0.9,0.1l-1,0.1c-0.4,0-0.8,0-1.1,0c-0.5,0-1,0-1.5-0.2c-0.4-0.1-0.8-0.3-1.1-0.5c-0.3-0.2-0.6-0.6-0.8-0.9
	c-0.2-0.4-0.3-0.9-0.3-1.4c0-0.5,0.1-0.9,0.3-1.3c0.2-0.4,0.5-0.7,0.9-0.9c0.4-0.2,0.8-0.4,1.3-0.5c0.5-0.1,1-0.2,1.5-0.2h0.5
	l0.5,0.1l0.4,0.1l0.3,0v-0.5c0-0.3,0-0.6-0.1-0.8c-0.1-0.3-0.2-0.5-0.3-0.7c-0.2-0.2-0.4-0.4-0.6-0.5c-0.3-0.1-0.7-0.2-1-0.2
	c-0.5,0-1,0-1.5,0.1c-0.3,0.1-0.6,0.1-0.9,0.2l-0.2-1.4c0.3-0.1,0.7-0.2,1.1-0.3C279.3,275.6,279.8,275.5,280.3,275.5z M280.5,283.9
	c0.4,0,0.8,0,1,0c0.3,0,0.5,0,0.8-0.1V281c-0.2-0.1-0.4-0.1-0.6-0.1c-0.3,0-0.7-0.1-1-0.1c-0.3,0-0.5,0-0.8,0
	c-0.3,0-0.5,0.1-0.8,0.2c-0.2,0.1-0.4,0.3-0.6,0.5c-0.2,0.2-0.2,0.5-0.2,0.8c-0.1,0.5,0.2,1,0.6,1.3
	C279.4,283.8,279.9,284,280.5,283.9L280.5,283.9z"/>
<path class="st2" d="M290.8,285.4c-0.7,0-1.4-0.1-2-0.4c-0.5-0.2-1-0.6-1.4-1c-0.4-0.4-0.7-1-0.9-1.5c-0.2-0.6-0.3-1.3-0.3-2
	c0-0.7,0.1-1.4,0.3-2c0.2-0.6,0.5-1.1,0.9-1.6c0.4-0.4,0.9-0.8,1.4-1c0.6-0.3,1.2-0.4,1.9-0.4c0.4,0,0.8,0,1.3,0.1
	c0.4,0.1,0.8,0.2,1.2,0.3l-0.4,1.4c-0.3-0.1-0.6-0.2-0.9-0.3c-0.3-0.1-0.7-0.1-1-0.1c-0.8-0.1-1.6,0.3-2.1,0.9
	c-0.5,0.7-0.8,1.7-0.8,2.6c0,0.5,0.1,0.9,0.2,1.4c0.1,0.4,0.3,0.8,0.5,1.1c0.3,0.3,0.6,0.5,0.9,0.7c0.4,0.2,0.9,0.3,1.4,0.2
	c0.4,0,0.8,0,1.2-0.1c0.3-0.1,0.6-0.2,0.9-0.3l0.2,1.4c-0.1,0.1-0.3,0.1-0.4,0.2c-0.2,0.1-0.4,0.1-0.6,0.1l-0.7,0.1
	C291.3,285.3,291,285.3,290.8,285.4z"/>
<path class="st2" d="M298.5,280c0.4,0.3,0.8,0.6,1.1,1c0.4,0.4,0.8,0.8,1.2,1.3c0.4,0.5,0.8,1,1.1,1.4c0.3,0.4,0.6,0.9,0.9,1.4h-2
	c-0.3-0.4-0.6-0.9-0.9-1.3c-0.3-0.4-0.7-0.9-1-1.3c-0.3-0.4-0.7-0.8-1.1-1.1c-0.3-0.3-0.7-0.6-1.1-0.9v4.5h-1.7v-13.7l1.7-0.3v8.5
	l1-1c0.3-0.3,0.7-0.7,1-1.1l1-1l0.8-0.9h2l-0.9,1c-0.3,0.4-0.7,0.7-1,1.1l-1,1.1L298.5,280z"/>
<path class="st2" d="M311.9,284.9c-0.4,0.1-0.9,0.2-1.5,0.3c-0.7,0.1-1.5,0.2-2.2,0.2c-0.6,0-1.2-0.1-1.8-0.3
	c-0.5-0.2-0.9-0.5-1.2-0.9c-0.3-0.4-0.5-0.9-0.6-1.4c-0.1-0.6-0.2-1.2-0.2-1.7v-5.3h1.6v4.9c-0.1,0.9,0.1,1.7,0.5,2.5
	c0.4,0.5,1.1,0.8,1.8,0.7h0.6h0.5l0.5,0c0.1,0,0.2,0,0.3-0.1v-7.9h1.7L311.9,284.9L311.9,284.9z"/>
<path class="st2" d="M323,280.5c0,0.7-0.1,1.4-0.3,2c-0.2,0.6-0.4,1.1-0.8,1.5c-0.4,0.4-0.8,0.8-1.3,1c-0.6,0.2-1.2,0.4-1.8,0.4
	c-0.5,0-1-0.1-1.4-0.2c-0.3-0.1-0.6-0.2-0.9-0.4v3.7h-1.7v-12.4c0.4-0.1,0.9-0.2,1.5-0.3c0.7-0.1,1.4-0.2,2.1-0.2
	c0.7,0,1.3,0.1,1.9,0.3c0.6,0.2,1.1,0.6,1.5,1c0.4,0.4,0.7,1,1,1.5C323,279.1,323.1,279.8,323,280.5z M321.3,280.5
	c0.1-0.9-0.2-1.8-0.8-2.5c-0.6-0.6-1.3-0.9-2.2-0.9c-0.4,0-0.8,0-1.2,0c-0.2,0-0.5,0.1-0.7,0.1v5.9c0.3,0.2,0.6,0.4,0.9,0.5
	c0.4,0.2,0.8,0.2,1.3,0.2c0.4,0,0.8-0.1,1.2-0.3c0.3-0.2,0.6-0.4,0.8-0.7c0.2-0.3,0.4-0.7,0.5-1.1
	C321.3,281.4,321.3,280.9,321.3,280.5z"/>
<path class="st7" d="M291.3,246.5c-0.7-0.3-1.3-0.8-1.9-1.4c-0.3-0.3-0.6-0.6-0.9-1c-0.8-1.2-1.3-2.7-1.3-4.1c0-1.7,0.5-3.3,1.6-4.6
	c0.7-0.9,1.7-1.7,2.8-2.2c0.9-0.4,2-0.6,3-0.6c1.5,0,2.9,0.4,4.2,1.3c0.7,0.5,1.4,1.2,1.9,1.9c0.7,1.1,1.2,2.3,1.3,3.6
	c0.1,1.7-0.3,3.3-1.3,4.7c-0.5,0.7-1.1,1.3-1.8,1.9c-0.4,0.2-0.7,0.5-1.1,0.6l-0.3,0.1h-5.7L291.3,246.5z M294.6,236.5
	c-0.3,0-0.6,0.1-0.9,0.3c-0.7,0.5-0.9,1.5-0.4,2.2c0.2,0.3,0.5,0.5,0.8,0.6c0.2,0.1,0.3,0.1,0.5,0.1c0.9,0,1.6-0.7,1.6-1.5
	c0-0.3-0.1-0.5-0.2-0.8C295.7,236.8,295.2,236.5,294.6,236.5l0-0.5L294.6,236.5L294.6,236.5z"/>
<path class="st5" d="M294.6,233.1c1.4,0,2.7,0.4,3.9,1.2c0.7,0.5,1.3,1.1,1.8,1.8c0.7,1,1.1,2.2,1.2,3.4c0.1,1.5-0.3,3.1-1.2,4.4
	c-0.5,0.7-1.1,1.2-1.7,1.7c-0.3,0.2-0.7,0.4-1.1,0.6l-0.2,0.1h-5.5l-0.4-0.2c-0.7-0.3-1.2-0.8-1.7-1.3c-0.3-0.3-0.6-0.6-0.8-1
	c-1.7-2.5-1.6-5.8,0.3-8.1c0.7-0.9,1.6-1.5,2.6-2C292.7,233.3,293.6,233.1,294.6,233.1 M294.6,240.1c1.1,0,2.1-0.9,2.1-2.1
	s-0.9-2.1-2.1-2.1h0c-0.4,0-0.8,0.1-1.1,0.3c-0.9,0.6-1.2,1.9-0.6,2.9c0.3,0.4,0.7,0.7,1.1,0.8C294.2,240.1,294.4,240.1,294.6,240.1
	 M294.6,232.1c-1.1,0-2.2,0.2-3.2,0.7c-1.2,0.5-2.2,1.3-3,2.3c-1.1,1.4-1.7,3.1-1.7,4.9c0,1.6,0.5,3.1,1.4,4.4
	c0.3,0.4,0.6,0.8,1,1.1c0.6,0.6,1.3,1.1,2,1.5l0.4,0.2l0.2,0.1h6l0.2-0.1l0.2-0.1c0.4-0.2,0.8-0.4,1.2-0.7c0.8-0.6,1.4-1.2,2-2
	c1.8-2.7,1.8-6.2,0-8.9c-0.6-0.8-1.3-1.5-2.1-2.1C297.8,232.6,296.3,232.1,294.6,232.1L294.6,232.1L294.6,232.1z M294.6,239.1
	c-0.1,0-0.2,0-0.3-0.1c-0.4-0.1-0.7-0.5-0.7-0.9c-0.1-0.4,0.1-0.8,0.5-1c0.2-0.1,0.4-0.2,0.6-0.2c0.4,0,0.8,0.2,0.9,0.5
	c0.3,0.5,0.1,1.1-0.4,1.4C295,239.1,294.8,239.1,294.6,239.1L294.6,239.1L294.6,239.1z"/>
<path class="st7" d="M294.6,262c-0.5,0-0.6-0.2-1.8-1.4c-0.5-0.4-0.9-0.9-1.3-1.4c-0.1-0.1-0.1-0.2-0.1-6.5v-6.6h6.5v2.6l0.8,0.8
	c0.9,1,1,1,1,1.4c0,0.1,0,0.3,0,0.4c0,0.3-0.1,0.4-1,1.3l-0.5,0.5l0.5,0.5c0.8,0.9,0.9,0.9,1,1.3c0,0.1,0,0.3,0,0.4
	c0,0.3-0.1,0.4-1,1.3l-0.8,0.8v0.7c0.1,0.5,0,0.9-0.2,1.4c-0.1,0.2-1.3,1.3-1.3,1.3l-1.3,1.2h-0.4L294.6,262z"/>
<path class="st5" d="M297.4,246.7v2.3l0.9,0.9c0.4,0.3,0.7,0.6,0.9,1.1c0,0.1,0,0.2,0,0.3c-0.2,0.4-0.5,0.7-0.8,1l-0.8,0.8l0.8,0.8
	c0.4,0.3,0.6,0.6,0.8,1c0,0.1,0,0.2,0,0.3c-0.2,0.4-0.5,0.8-0.9,1.1l-0.9,0.9v0.8c0,0.4,0,0.7-0.1,1.1c0,0.1-0.6,0.6-1.2,1.2
	l-1.1,1.1h-0.2h-0.1c-0.2,0-0.4-0.2-1.5-1.2c-0.4-0.4-0.8-0.8-1.2-1.2c0-0.1,0-2.8,0-6.2v-6.1L297.4,246.7 M298.4,245.6h-7.5v7.1
	c0,6.3,0,6.4,0.1,6.7c0.4,0.6,0.8,1.1,1.4,1.5c1.2,1.2,1.5,1.5,2.2,1.5h0.3h0.2h0.3l0.2-0.2l1.1-1.1c0.3-0.3,1.2-1.2,1.3-1.4
	c0.3-0.5,0.4-1.1,0.3-1.6v-0.5l0.6-0.6c1-1,1.1-1.1,1.2-1.6c0-0.2,0-0.4,0-0.6c-0.1-0.4-0.2-0.6-1.1-1.5L299,253l0.1-0.1
	c0.9-0.9,1-1.1,1.1-1.5c0-0.2,0-0.4,0-0.6c-0.1-0.4-0.2-0.6-1.2-1.6l-0.6-0.6L298.4,245.6L298.4,245.6L298.4,245.6z"/>
<g>
	<path class="st9" d="M159.8,305.5C159.8,305.4,159.8,305.4,159.8,305.5C159.8,305.4,159.8,305.5,159.8,305.5z"/>
	<path class="st5" d="M194.1,285.3c0,17.9-3,36.7-23.5,46.8c-10.3-5-16.2-12.3-19.5-20.4c-3.3-8.2-4-17.4-4-26.4
		c1.3-0.9,2.4-1.9,3.3-3.1c0.9-1.2,1.7-2.5,2.3-4l16.6-2.8c0.9-0.1,1.7-0.1,2.6,0l16.6,2.8C189.6,281,191.6,283.5,194.1,285.3
		L194.1,285.3z"/>
	<path class="st10" d="M183.7,307.4c-1-1.1-4.4-2.7-4.5-2.7c0.1,0.1,3.9,3.8,4.9,4.7 M183.7,307.4c-1-1.1-4.4-2.7-4.5-2.7
		c0.1,0.1,3.9,3.8,4.9,4.7c0.2,0.1,0.3,0.2,0.3,0.2 M183.7,307.4c-1-1.1-4.4-2.7-4.5-2.7c0.1,0.1,3.9,3.8,4.9,4.7 M183.7,307.4
		c-1-1.1-4.4-2.7-4.5-2.7c0.1,0.1,3.9,3.8,4.9,4.7c0.2,0.1,0.3,0.2,0.3,0.2 M183.7,307.4c-1-1.1-4.4-2.7-4.5-2.7
		c0.1,0.1,3.9,3.8,4.9,4.7c0.2,0.1,0.5,0.5,0.5,0.5c0,0,0-0.2,0-0.4C184.6,309,184.2,307.9,183.7,307.4z"/>
	<path class="st5" d="M150.9,304.2l-0.4-1.3l-1.1-3.3v0l-0.5-11.8l0-0.4l0,0l0,0l0.5,12.2v0L150.9,304.2l0,0.1L150.9,304.2z"/>
	<path class="st11" d="M192.9,285.2c-2.3-1.6-4.2-3.9-5.3-6.5l-15.8-2.6c-0.8-0.1-1.6-0.1-2.5,0l-15.8,2.6c-0.5,1.3-1.3,2.6-2.2,3.7
		c-0.9,1.1-2,2.1-3.1,2.9c0,8.2,0.7,16.7,3.8,24.2s8.7,14.2,18.5,18.8c11.9-5.7,17.6-14.3,20.2-24c0,0,0.1-0.3,0.1-0.3
		s-2.3,1.1-2.4,1.5c0,0.3,0.1,1,0.2,1.3c0.1,1.5,0.1,1.7-0.4,2.4c-0.6,0.8-1.9,1.4-2.8,1.1c-0.5-0.1-0.5-0.1-0.4,0.7
		c0.1,0.7,0,0.9-0.6,1.4c-0.8,0.7-2.2,1.1-3,0.9c-0.3-0.1-1-0.7-1.8-1.5c0,0-1.5-1.5-1.6-1.7c0,0-3.1-3.1-3.2-3
		c-0.1,0.1,1.1,1.1,2.5,2.6c0,0,2,2,2.1,2.2c1.2,1.2,1.3,1.6,1.1,2.2c-0.3,0.8-1.9,1.6-3.2,1.6c-0.8,0-0.9,0-2.4-1.3
		c-0.1-0.1-1.7-1.6-1.9-1.7c-0.9-0.8-1.9-1.7-1.9-1.6c0,0.1,0.1,0.2,0.2,0.3c0.1,0.1,0.7,0.7,0.7,0.7c0.5,0.5,3.2,2.8,3.2,2.9
		c0.8,0.7,0.6,1.1-0.5,1.7c-1,0.5-1.9,0.5-3.3,0c-0.2,0.2-6.6-2.9-11.2-5.7c-2.6-1.6-4.4-3.5-4.4-3.5c-0.4-0.2-2.9-1.8-3.6-2.3
		c-0.1-0.1-1-0.7-1.1-0.8c0,0-1.3-5.3-1.5-6.4c-0.5-3.1-0.5-10.6-0.5-10.6s13.6,2.6,15.9,2.3c3.6-0.4,6-1.2,6.1-1.2
		c0.4-0.1,1.6,0.9,2.7,1.4c0.2,0,0.5,0,0.8,0.1l0,0c3.2,0.4,8.4,1.6,10.4,1.1c1.6-0.3,4.4-1.5,4.4-1.5l2.1-1.1
		c0.9-0.6,1.5-0.9,1.5-0.9C192.9,286.7,192.9,285.9,192.9,285.2L192.9,285.2z"/>
	<path class="st12" d="M153.8,306.2L153.8,306.2c-0.3,0.4-0.6,0.8-0.7,1.4C153.2,307,153.5,306.5,153.8,306.2z"/>
	<path class="st12" d="M160.7,321.9C160.7,321.9,160.7,321.9,160.7,321.9L160.7,321.9C160.8,321.9,160.7,321.9,160.7,321.9z"/>
	<path class="st12" d="M189.6,282.1C189.6,282.1,189.5,282.1,189.6,282.1c-0.1,0-0.1-0.1-0.1-0.1L189.6,282.1z"/>
	<path class="st5" d="M153.6,278.7c-0.5,1.3-1.3,2.6-2.2,3.7L153.6,278.7z"/>
	<path class="st12" d="M189.5,282.1c-3.8,1.2-10.2,3.3-15.4,7.6c-2.6-0.1-2.1,0.7-3.7,0.6c-1.5-0.8-1.9-0.9-5.5-0.2
		c-2.2,0.4-5.1,0.5-6.3,0.5c-1.9,0-2.4-0.1-3.5-0.6c-0.4-0.2-6.2-2.8-6.2-2.8s0.3,6.5,0.6,9.1c0.2,1.7,1.5,7.9,1.5,7.9
		c0.1,0.1,0.9,0.8,1.1,0.9c0.7,0.5,1.2,0.8,1.6,1c0,0,7.7,5.9,8.6,5.8c-0.3,1.6-1.5,9.6-1.5,10c0,0,0,0,0,0c-4-3.6-6.8-7.8-8.6-12.4
		c-3.1-7.6-3.8-16-3.8-24.2c1.2-0.8,2.2-1.8,3.1-2.9c0.9-1.1,1.6-2.3,2.2-3.7l15.8-2.6c0.8-0.1,1.6-0.1,2.5,0l15.8,2.6
		C188.1,279.9,188.7,281,189.5,282.1C189.5,282,189.5,282.1,189.5,282.1z"/>
	<path class="st13" d="M173.8,290c-1.4,1.2-2.8,2.7-4.2,4.4c-1.6,2.1-3,4.5-4,7c0,0-0.2,0-0.2,0c-0.3,0-0.4-0.1-0.6-0.3
		c-0.5-0.5-0.5-1-0.1-3.1c0.2-0.9,0.5-2.2,0.6-3c0.2-0.8,0.5-1.8,0.7-2.1c0.3-0.3,1.3-1,2.5-1.6c0,0,1-0.5,1.6-0.8
		c0.5-0.2,1.3-0.3,1.7-0.4c0.2-0.1,0.4-0.1,0.5-0.1c0.2,0,0.4-0.1,0.7,0c0,0,0.1,0,0.1,0c0,0,0,0,0.1,0c0.1,0,0.1,0,0.2,0
		c0.1,0,0.1,0,0.2,0c0,0,0.1,0,0.1,0C173.7,290,173.7,290,173.8,290z"/>
	<path class="st10" d="M192.9,287.9c0,0-0.3,6.3-0.7,9.4c-0.2,1.5-0.5,3-0.8,4.5c-0.1,0.5-0.2,1.1-0.4,1.6c-0.1,0.2-0.1,0.4-0.2,0.7
		l0,0c-0.6,0.3-1.5,0.8-1.9,1.1c-0.1,0.1-0.3,0.2-0.5,0.4l0,0c-0.3-1.7-1-2.4-3.8-4.2c-1.6-1-4.5-2.7-6.4-3.7l-3.5-1.8l0,0l-1.6,0.2
		c-2.4,0.2-3.8,1.1-4.1,2.4c-0.3,1.5-1.3,2.5-3.1,2.8c-0.1,0-0.1,0-0.2,0l0,0c-0.1,0-0.2,0-0.3,0c-0.1,0-0.1,0-0.2,0
		c-0.3,0-0.4-0.1-0.6-0.3c-0.5-0.5-0.5-1-0.1-3.1c0.2-0.9,0.5-2.2,0.6-3c0.2-0.8,0.5-1.8,0.7-2.1c0.3-0.3,1.3-1,2.5-1.6l2-1.1
		c0.7-0.3,1.3-0.5,1.7-0.6c0.3-0.1,0.8-0.1,1.5,0c0.2,0,0.5,0,0.8,0.1l0,0c3.2,0.4,8.4,1.6,10.4,1.1c1.6-0.3,4.3-1.7,4.3-1.7
		l3.7-1.8L192.9,287.9z"/>
	<path class="st10" d="M171.1,316.4l-0.1,0.1c0,0-1.2,2-3,1.6c-1.8-0.3-2-1.4-2.5-1.4c-2.1,0-2.7-0.9-3.1-1.8c0,0-2.3,0.3-3.2-0.3
		c-1.4-1.1-1.5-3.4-1.5-3.4s-1.3,0.2-1.6,0.1c-0.9-0.3-2.1-1.1-2.7-2.3c-0.6-1.4,0.7-2.5,0.7-2.5l0.3-0.2c0.2,0,0.3,0.1,0.5,0.1
		c1.1,0.1,2.1,0.9,2.7,2.1l0.3,0.8l0.3-0.8c0.5-1.3,1.1-2.3,1.7-2.7c0.5-0.4,0.6-0.4,1.3,0c0.5,0.3,0.9,0.7,1.1,1.2l0.4,0.8l0.6-0.5
		c0.5-0.4,0.7-0.4,1.2-0.3c1.4,0.5,2,2.4,1.5,4.5c-0.4,1.7-0.5,2.5-0.3,2c0-0.2,0.2-0.7,0.2-1c0.2-0.7,0.5-0.9,1.5-0.6
		s1.2,0.8,1.3,2.2l0.1,1.2l1.6,0.8C170.7,316.2,170.9,316.3,171.1,316.4z"/>
</g>
</svg>
