<svg id="Layer_1" data-name="Layer 1" xmlns="http://www.w3.org/2000/svg" viewBox="0 0 355.66 379.03"><defs><style>.cls-1{fill:#38c6f4;}.cls-2{fill:#ededed;}.cls-3{fill:#727373;}.cls-4{fill:gray;}.cls-5{fill:#67544c;}.cls-6{fill:#7d695a;}.cls-7{fill:#b8aaa5;}.cls-8{fill:#e8e8e8;}.cls-9{fill:#fff;}.cls-10,.cls-20{fill:#8465ab;}.cls-11{fill:#cfcfcf;}.cls-12{isolation:isolate;}.cls-13{fill:#f1f1f1;}.cls-14{fill:#fbfbfb;}.cls-15{fill:#cecece;}.cls-16{fill:#d3d3d3;}.cls-17{fill:#5e6060;}.cls-18{fill:#5e5f5f;}.cls-19,.cls-21{fill:none;stroke-width:3px;}.cls-19{stroke:#38c6f4;}.cls-19,.cls-20,.cls-21{stroke-miterlimit:10;}.cls-20{stroke:#fff;}.cls-21{stroke:#f1f1f1;}</style></defs><title>12</title><path class="cls-1" d="M217.61,101.21a46.77,46.77,0,1,1-93.54,0c0-13.67,30.63-6.89,47.72,0,17.63,7.11,45.82,12.33,45.82,0" transform="translate(0 -1.06)"/><path class="cls-2" d="M217.61,101.21c0,12.33-28.19,7.11-45.82,0-17.09-6.89-47.72-13.67-47.72,0a46.77,46.77,0,0,1,93.54,0" transform="translate(0 -1.06)"/><path class="cls-3" d="M148.13,79.79a3.3,3.3,0,0,0,1.52-.27,0.91,0.91,0,0,0,.49-0.86,1.15,1.15,0,0,0-.49-1,7.72,7.72,0,0,0-1.6-.81l-1-.44a3.6,3.6,0,0,1-.86-0.53,2.31,2.31,0,0,1-.58-0.74,2.36,2.36,0,0,1-.22-1.06,2.38,2.38,0,0,1,.92-2,3.92,3.92,0,0,1,2.5-.73,7.07,7.07,0,0,1,.79,0l0.74,0.11,0.6,0.13,0.4,0.13L151,73.25a4.26,4.26,0,0,0-.85-0.3,5.48,5.48,0,0,0-1.39-.15,2.56,2.56,0,0,0-1.22.28A0.93,0.93,0,0,0,147,74a1.19,1.19,0,0,0,.12.54,1.24,1.24,0,0,0,.36.42,2.94,2.94,0,0,0,.6.35q0.36,0.16.86,0.34,0.67,0.25,1.19.49a3.71,3.71,0,0,1,.89.57,2.18,2.18,0,0,1,.57.78,2.84,2.84,0,0,1,.2,1.13,2.23,2.23,0,0,1-1,2,4.79,4.79,0,0,1-2.74.67,7.17,7.17,0,0,1-1.94-.21,10,10,0,0,1-1-.31l0.31-1.44,0.92,0.32A5.3,5.3,0,0,0,148.13,79.79Z" transform="translate(0 -1.06)"/><path class="cls-3" d="M153.46,76.33a6,6,0,0,1,.36-2.17,4.54,4.54,0,0,1,1-1.54,3.88,3.88,0,0,1,1.37-.92,4.28,4.28,0,0,1,1.58-.31,3.6,3.6,0,0,1,2.9,1.18,5.42,5.42,0,0,1,1,3.59v0.28a2.5,2.5,0,0,1,0,.31H155.2A3.42,3.42,0,0,0,156,79a3.1,3.1,0,0,0,2.3.76,6.13,6.13,0,0,0,1.48-.15,5.31,5.31,0,0,0,.91-0.3l0.23,1.4a5,5,0,0,1-1.07.34,7.64,7.64,0,0,1-1.74.18,5.52,5.52,0,0,1-2.11-.37,4,4,0,0,1-1.47-1,4.16,4.16,0,0,1-.85-1.54A6.51,6.51,0,0,1,153.46,76.33Zm6.43-.92a2.81,2.81,0,0,0-.57-1.86,2,2,0,0,0-1.61-.73,2.21,2.21,0,0,0-1,.23,2.4,2.4,0,0,0-.75.58,2.7,2.7,0,0,0-.48.83,4.09,4.09,0,0,0-.22,1h4.64Z" transform="translate(0 -1.06)"/><path class="cls-3" d="M167.5,71.44l0.5,0,0.55,0.07,0.5,0.09,0.33,0.08-0.29,1.46a5.66,5.66,0,0,0-.66-0.17,5.77,5.77,0,0,0-1.18-.1,4.39,4.39,0,0,0-.93.1l-0.6.13V81H164V72a11.37,11.37,0,0,1,1.48-.41A9.48,9.48,0,0,1,167.5,71.44Z" transform="translate(0 -1.06)"/><path class="cls-3" d="M178.67,71.63a47.27,47.27,0,0,1-1.65,5q-0.94,2.41-1.83,4.32h-1.51q-0.88-1.91-1.83-4.32a47.16,47.16,0,0,1-1.65-5H172q0.22,0.88.51,1.88t0.63,2q0.33,1,.67,1.9T174.48,79q0.31-.72.65-1.64t0.67-1.9q0.33-1,.63-2t0.51-1.88h1.73Z" transform="translate(0 -1.06)"/><path class="cls-3" d="M179.63,76.33a6,6,0,0,1,.36-2.17,4.54,4.54,0,0,1,1-1.54,3.88,3.88,0,0,1,1.37-.92,4.28,4.28,0,0,1,1.58-.31,3.6,3.6,0,0,1,2.9,1.18,5.42,5.42,0,0,1,1,3.59v0.28a2.5,2.5,0,0,1,0,.31h-6.41a3.42,3.42,0,0,0,.85,2.21,3.1,3.1,0,0,0,2.3.76,6.13,6.13,0,0,0,1.48-.15,5.31,5.31,0,0,0,.91-0.3l0.23,1.4a5,5,0,0,1-1.07.34,7.64,7.64,0,0,1-1.74.18,5.52,5.52,0,0,1-2.11-.37,4,4,0,0,1-1.47-1,4.16,4.16,0,0,1-.85-1.54A6.51,6.51,0,0,1,179.63,76.33Zm6.43-.92a2.81,2.81,0,0,0-.57-1.86,2,2,0,0,0-1.61-.73,2.21,2.21,0,0,0-1,.23,2.4,2.4,0,0,0-.75.58,2.7,2.7,0,0,0-.48.83,4.09,4.09,0,0,0-.22,1h4.64Z" transform="translate(0 -1.06)"/><path class="cls-3" d="M193.67,71.44l0.5,0,0.55,0.07,0.5,0.09,0.33,0.08-0.29,1.46A5.66,5.66,0,0,0,194.6,73a5.77,5.77,0,0,0-1.18-.1,4.39,4.39,0,0,0-.93.1l-0.6.13V81h-1.67V72a11.37,11.37,0,0,1,1.48-.41A9.48,9.48,0,0,1,193.67,71.44Z" transform="translate(0 -1.06)"/><polygon class="cls-4" points="196.28 90.75 195.66 108.48 190.77 123.46 182.81 134.66 180.61 136.03 170.57 142.28 168.57 141.05 158.34 134.66 150.38 123.46 145.49 108.48 144.87 90.75 149.18 87.88 151.08 83.18 151.14 83.18 170.57 79.97 170.59 79.99 190.07 83.18 191.97 87.88 196.28 90.75"/><path class="cls-5" d="M192.53,93.83l-0.12,3-0.46,11.88-1.18,3.49-1.23,3.61-0.86,2.54-1.21,3.57-6.92,9.75-0.74.46-0.3.18-8.94,5.58-1.67-1-5.83-3.63-2.46-1.53c0.74-5.18,2.22-19.77,9-28.17a35.42,35.42,0,0,1,19.09-12.25l0.25,0.16,0.19,0.14Z" transform="translate(0 -1.06)"/><path class="cls-6" d="M188.66,91.26a35.42,35.42,0,0,0-19.09,12.25c-6.76,8.4-8.24,23-9,28.17l-0.37-.51h0l-6.57-9.24-3.36-9.9-1.13-3.31-0.46-11.94h0l-0.11-3,3.43-2.27,0.44-.3,0.19-.49,1.37-3.38,16.52-2.71,16.52,2.71,1.37,3.38Z" transform="translate(0 -1.06)"/><path class="cls-7" d="M179.17,120.77l-0.18.09c-0.12-.12-0.25-0.26-0.4-0.4h0l-0.35-.35c-0.25-.25-0.51-0.51-0.79-0.81-0.09-.09-0.19-0.19-0.28-0.3l-0.18-.18a25.57,25.57,0,0,1-2.52-2.59c0.05-.05,3.19,3,3.19,3,0.14,0.16.3,0.3,0.44,0.46,0.32,0.32.62,0.62,0.88,0.9l0.12,0.12A0.09,0.09,0,0,1,179.17,120.77Z" transform="translate(0 -1.06)"/><path class="cls-7" d="M174.36,123.16l-0.16.09-0.18-.16L174,123l-0.12-.11a0.81,0.81,0,0,1-.12-0.12,0.88,0.88,0,0,1-.14-0.12c-0.6-.53-1.29-1.14-1.81-1.64l-0.12-.11c-0.07-.05-0.12-0.12-0.19-0.18l-0.16-.16a1.87,1.87,0,0,1-.26-0.26,1366386902495.22,1366386902495.22,0,0,0-.18-0.21l0,0h0v0h0a11,11,0,0,1,1.94,1.6c0.16,0.14.32,0.28,0.46,0.42s0.25,0.23.37,0.33l0.05,0.05a1.75,1.75,0,0,1,.19.18,0.77,0.77,0,0,0,.12.11,0.27,0.27,0,0,1,.07.07l0.25,0.23Z" transform="translate(0 -1.06)"/><path class="cls-7" d="M184.18,118.22l-0.09.09-0.18.09c-1-.92-4.81-4.61-4.91-4.74a23.33,23.33,0,0,1,4.52,2.73A2.85,2.85,0,0,1,184.18,118.22Z" transform="translate(0 -1.06)"/><path class="cls-7" d="M170.82,125.5l-0.11.05s-1.18,2-3,1.66-2-1.43-2.46-1.43c-2.06,0-2.75-.9-3.15-1.8,0,0-2.34.33-3.22-.35a4.89,4.89,0,0,1-1.46-3.38,5.82,5.82,0,0,1-1.66.05,4.58,4.58,0,0,1-2.66-2.31,2.36,2.36,0,0,1,.7-2.55l0.26-.16a2.55,2.55,0,0,0,.53.07,3.25,3.25,0,0,1,2.68,2.11l0.33,0.77,0.28-.77a6.67,6.67,0,0,1,1.69-2.73c0.51-.37.56-0.37,1.34,0a2.34,2.34,0,0,1,1.14,1.21l0.37,0.83,0.63-.46a1,1,0,0,1,1.21-.25c1.39,0.49,2,2.38,1.5,4.52-0.39,1.67-.44,2.43-0.11,1.94a2.28,2.28,0,0,0,.23-1c0-.74.46-1,1.32-0.6s1.18,0.81,1.32,2.18l0.11,1.23,1.62,0.81A3.79,3.79,0,0,0,170.82,125.5Z" transform="translate(0 -1.06)"/><path class="cls-8" d="M188.43,115.86a11.71,11.71,0,0,0-.14-1.32c-0.28-1.74-1-2.39-3.77-4.19a66.71,66.71,0,0,0-6.44-3.66l-3.54-1.76-1.6.16c-2.36.19-3.84,1.09-4.07,2.45a3.44,3.44,0,0,1-3.1,2.82,1.17,1.17,0,0,1-1.25-.23c-0.51-.46-0.53-1-0.09-3.06,0.19-.86.49-2.22,0.63-3a7.79,7.79,0,0,1,.72-2.1,9.21,9.21,0,0,1,2.48-1.58l2.1-1-0.09,0-0.65-.33c-0.69-.35-0.92-0.33-4.84.11-2.25.28-5.11,0.51-6.3,0.51a6.54,6.54,0,0,1-3.56-.6l-6.22-2.62,0,0.44h0l0.46,11.94,1.13,3.31,0.44,1.29,1.13,0.76a6.49,6.49,0,0,0,2.17,1.21,2.55,2.55,0,0,0,.53.07,3.25,3.25,0,0,1,2.68,2.11l0.33,0.77,0.28-.77a6.67,6.67,0,0,1,1.69-2.73c0.51-.37.56-0.37,1.34,0a2.34,2.34,0,0,1,1.14,1.21l0.37,0.83,0.63-.46a1,1,0,0,1,1.21-.25c1.39,0.49,2,2.38,1.5,4.52-0.39,1.67-.44,2.43-0.11,1.94a2.28,2.28,0,0,0,.23-1c0-.74.46-1,1.32-0.6s1.18,0.81,1.32,2.18l0.11,1.23,1.62,0.81,0.6,0.28a3.83,3.83,0,0,0,3.61.16c1.18-.65,1.32-1.07.55-1.74l-0.48-.42c-0.09-.09-0.19-0.18-0.3-0.26L174,123,174,123l-0.12-.11a0.81,0.81,0,0,1-.12-0.12,0.88,0.88,0,0,1-.14-0.12c-0.6-.53-1.29-1.14-1.81-1.64l-0.12-.11c-0.07-.05-0.12-0.12-0.19-0.18l-0.16-.16a1.87,1.87,0,0,1-.26-0.26,585594386785.37,585594386785.37,0,0,0-.18-0.21l0,0h0v0h0a11,11,0,0,1,1.94,1.6c0.16,0.14.32,0.28,0.46,0.42l0.37,0.33,0.05,0.05a1.75,1.75,0,0,1,.19.18,0.77,0.77,0,0,0,.12.11,0.27,0.27,0,0,1,.07.07,3.15,3.15,0,0,1,.25.23l0.39,0.33c1.51,1.32,1.69,1.32,2.45,1.32,1.27,0,2.91-.81,3.17-1.57,0.19-.58.05-0.92-1.14-2.17l-0.53-.55h0l-0.35-.35c-0.25-.25-0.51-0.51-0.79-0.81-0.09-.09-0.19-0.19-0.28-0.3l-0.18-.18a25.57,25.57,0,0,1-2.52-2.59c0.05-.05,3.19,3,3.19,3,0.14,0.16.3,0.3,0.44,0.46,0.32,0.32.62,0.62,0.88,0.9l0.12,0.12,0.05,0.05,0.14,0.14a7.48,7.48,0,0,0,1.85,1.55,4.25,4.25,0,0,0,3-1,1.28,1.28,0,0,0,.62-1.43c-0.07-.81-0.05-0.86.44-0.72a3,3,0,0,0,2.82-1.13C188.52,117.53,188.55,117.35,188.43,115.86Zm-4.24,2.73a0.89,0.89,0,0,1-.25-0.19c-1-.92-4.81-4.61-4.91-4.74a23.33,23.33,0,0,1,4.52,2.73,2.8,2.8,0,0,1,.65,1.81C184.18,118.41,184.18,118.55,184.18,118.58Z" transform="translate(0 -1.06)"/><path class="cls-7" d="M192.42,96.42l0,0.42-0.46,11.88-1.18,3.49-0.35,1a15.5,15.5,0,0,0-1.64.93c-0.14.11-.32,0.23-0.51,0.39-0.28-1.74-1-2.39-3.77-4.19a66.71,66.71,0,0,0-6.44-3.66l-3.54-1.76-1.6.16c-2.36.19-3.84,1.09-4.07,2.45a3.44,3.44,0,0,1-3.1,2.82,1.17,1.17,0,0,1-1.25-.23c-0.51-.46-0.53-1-0.09-3.06,0.19-.86.49-2.22,0.63-3a7.79,7.79,0,0,1,.72-2.1,9.21,9.21,0,0,1,2.48-1.58l2.1-1-0.09,0a10.78,10.78,0,0,1,1.74-.65c1.9-.42,10,1.78,12.68,1.2A20.08,20.08,0,0,0,189,97.9Z" transform="translate(0 -1.06)"/><path class="cls-9" d="M191.9,89L190,84.32l-19.42-3.19-19.42,3.19L149.27,89l-4.35,2.89,0.65,17,5,14.81,7.87,11.09,10.12,6.3,2,1.23,9.93-6.18,2.17-1.36,7.87-11.09,5-14.81,0.65-17Zm-39.84,2.55,0.44-.3,0.19-.49,1.37-3.38,16.52-2.71,16.52,2.71,1.37,3.38,0.19,0.49,0.25,0.16,0.19,0.14,3.43,2.27,0,0.51-0.09,2.08,0,0.42-0.46,11.88-1.18,3.49-0.35,1-0.88,2.61-0.86,2.54-1.21,3.57-6.92,9.75-0.74.46-0.3.18-8.94,5.58-1.67-1-5.83-3.63-2.46-1.53-0.37-.51h0l-6.57-9.24-2.92-8.61-0.44-1.29-1.13-3.31-0.46-11.94h0l0-.44-0.07-2,0-.51Z" transform="translate(0 -1.06)"/><path class="cls-10" d="M167.22,54.08a6.36,6.36,0,0,1-1.87-1.37,6,6,0,0,1-.88-1,7.4,7.4,0,0,1-1.27-4.15A7.29,7.29,0,0,1,164.76,43a7.61,7.61,0,0,1,2.79-2.19,7.3,7.3,0,0,1,3-.64,7.52,7.52,0,0,1,4.18,1.28,8.46,8.46,0,0,1,1.94,1.94A7.35,7.35,0,0,1,177.93,47a7.49,7.49,0,0,1-1.25,4.69,8.57,8.57,0,0,1-1.83,1.87,9,9,0,0,1-1.12.64l-0.28.13H167.7ZM170.56,44a1.62,1.62,0,0,0-.85.26,1.56,1.56,0,0,0,.39,2.77,1.47,1.47,0,0,0,.47.08,1.55,1.55,0,0,0,0-3.1l0-.5V44Z" transform="translate(0 -1.06)"/><path class="cls-9" d="M170.55,40.64a7,7,0,0,1,3.9,1.2,7.94,7.94,0,0,1,1.8,1.8A6.89,6.89,0,0,1,177.43,47a7,7,0,0,1-1.17,4.37,8.19,8.19,0,0,1-1.7,1.73,8.64,8.64,0,0,1-1.06.61l-0.18.09h-5.51l-0.38-.19a5.85,5.85,0,0,1-1.73-1.28,5.52,5.52,0,0,1-.82-1,6.93,6.93,0,0,1,.27-8.12,7.12,7.12,0,0,1,2.61-2,6.84,6.84,0,0,1,2.79-.6m0,7a2.05,2.05,0,0,0,0-4.1h-0.05a2.13,2.13,0,0,0-1.14.34,2.06,2.06,0,0,0,.51,3.66,2,2,0,0,0,.63.1m0-8a7.8,7.8,0,0,0-3.2.69,8.11,8.11,0,0,0-3,2.33,7.79,7.79,0,0,0-1.67,4.87,7.89,7.89,0,0,0,1.35,4.42,6.53,6.53,0,0,0,.95,1.11,6.87,6.87,0,0,0,2,1.46l0.38,0.19,0.21,0.11h6l0.2-.09,0.18-.09a9.62,9.62,0,0,0,1.19-.68,9.05,9.05,0,0,0,2-2,7.93,7.93,0,0,0,0-8.87A8.94,8.94,0,0,0,175,41a8,8,0,0,0-4.46-1.36h0Zm0,7a1,1,0,0,1-.31-0.05,1.06,1.06,0,0,1-.72-0.87,1,1,0,0,1,.46-1,1.14,1.14,0,0,1,.57-0.17,1,1,0,0,1,.93.54,1.05,1.05,0,0,1-.92,1.57h0Z" transform="translate(0 -1.06)"/><path class="cls-10" d="M170.52,69.56c-0.45,0-.63-0.18-1.82-1.37a8.09,8.09,0,0,1-1.27-1.37c-0.06-.13-0.11-0.23-0.11-6.46V53.73h6.51v2.59l0.75,0.77c0.94,1,1,1,1.05,1.35a1.61,1.61,0,0,1,0,.44c0,0.3-.13.39-1,1.24l-0.47.48,0.47,0.48c0.84,0.86.92,0.95,1,1.26a1.61,1.61,0,0,1,0,.44c0,0.3-.11.37-1,1.33l-0.75.77v0.74a2.4,2.4,0,0,1-.18,1.35c-0.13.18-1.28,1.31-1.29,1.32l-1.26,1.24-0.37,0Z" transform="translate(0 -1.06)"/><path class="cls-9" d="M173.32,54.23v2.29l0.89,0.91a2.83,2.83,0,0,1,.92,1.06,1.15,1.15,0,0,1,0,.29,2.48,2.48,0,0,1-.83,1l-0.81.83,0.81,0.83a2.48,2.48,0,0,1,.83,1,1.15,1.15,0,0,1,0,.29,2.84,2.84,0,0,1-.91,1.06l-0.89.91v0.94a2.64,2.64,0,0,1-.09,1.06c0,0.07-.6.63-1.23,1.24L170.87,69l-0.2,0h-0.15c-0.24,0-.41-0.17-1.47-1.23a16.65,16.65,0,0,1-1.18-1.24c0-.07-0.05-2.78-0.05-6.24V54.23h5.51m1-1h-7.51v7.12c0,6.34,0,6.41.15,6.65a6.81,6.81,0,0,0,1.38,1.53c1.23,1.23,1.52,1.52,2.18,1.52l0.28,0L171,70l0.34,0,0.24-.24,1.14-1.12c0.28-.27,1.19-1.17,1.34-1.37a2.75,2.75,0,0,0,.28-1.64V65.06l0.61-.62c1-1,1.13-1.15,1.19-1.63a2.08,2.08,0,0,0,0-.58c-0.06-.45-0.22-0.61-1.1-1.52l-0.13-.13,0.13-.13c0.88-.9,1-1.07,1.1-1.54a2.08,2.08,0,0,0,0-.58c-0.06-.45-0.19-0.58-1.19-1.61l-0.61-.62V53.23h0Z" transform="translate(0 -1.06)"/><path class="cls-1" d="M93.54,101.24a46.77,46.77,0,1,1-93.54,0c0-13.67,30.63-6.89,47.72,0C65.35,108.35,93.54,113.57,93.54,101.24Z" transform="translate(0 -1.06)"/><path class="cls-2" d="M93.54,101.24c0,12.33-28.19,7.11-45.82,0C30.63,94.36,0,87.57,0,101.24A46.77,46.77,0,0,1,93.54,101.24Z" transform="translate(0 -1.06)"/><path class="cls-3" d="M31.79,84.89a3.26,3.26,0,0,0,.51.17,2.48,2.48,0,0,0,.62.08,2.44,2.44,0,0,0,1.55-.44,3.8,3.8,0,0,0,1-1.43q-1.13-2.16-2.12-4.58a39.77,39.77,0,0,1-1.63-4.9h1.8q0.2,0.81.48,1.75t0.62,1.93q0.34,1,.74,2t0.83,1.91q0.68-1.89,1.19-3.74t1-3.82h1.73q-0.65,2.65-1.44,5.08t-1.71,4.56a9.66,9.66,0,0,1-.75,1.4,4.22,4.22,0,0,1-.85,1,3.13,3.13,0,0,1-1.05.56,4.51,4.51,0,0,1-1.32.18l-0.41,0-0.42-.07-0.38-.1-0.24-.09Z" transform="translate(0 -1.06)"/><path class="cls-3" d="M50.09,78.46a5.91,5.91,0,0,1-.32,2A4.61,4.61,0,0,1,48.86,82a4,4,0,0,1-1.4,1,4.61,4.61,0,0,1-3.53,0,4,4,0,0,1-1.4-1,4.6,4.6,0,0,1-.91-1.55,6.4,6.4,0,0,1,0-4,4.59,4.59,0,0,1,.91-1.56,4,4,0,0,1,1.4-1,4.61,4.61,0,0,1,3.53,0,4,4,0,0,1,1.4,1,4.6,4.6,0,0,1,.91,1.56A5.94,5.94,0,0,1,50.09,78.46Zm-1.75,0A4,4,0,0,0,47.63,76a2.48,2.48,0,0,0-3.87,0,4.79,4.79,0,0,0,0,5,2.48,2.48,0,0,0,3.87,0A4,4,0,0,0,48.35,78.46Z" transform="translate(0 -1.06)"/><path class="cls-3" d="M59.9,82.87q-0.58.14-1.52,0.31a13.08,13.08,0,0,1-2.19.16A4.63,4.63,0,0,1,54.38,83a2.93,2.93,0,0,1-1.19-.89,3.62,3.62,0,0,1-.65-1.36,7.09,7.09,0,0,1-.2-1.74V73.78H54v4.9a4.24,4.24,0,0,0,.54,2.45,2.1,2.1,0,0,0,1.82.74l0.56,0,0.54,0,0.46-.05a1.33,1.33,0,0,0,.3-0.06v-7.9H59.9v9.09Z" transform="translate(0 -1.06)"/><path class="cls-9" d="M59,117c-5.15-1.68-7.29-3.77-7.29-3.77l-0.17.16a7.33,7.33,0,0,1-4.76,2.29H46.59a7.33,7.33,0,0,1-4.76-2.29l-0.17-.16s-2.14,2.09-7.29,3.77c-7.6,2.84-5.32,14.39-5.32,14.48a3.94,3.94,0,0,0,.5,1.78c7.63,3.4,26.6,3.4,34.23,0a3.94,3.94,0,0,0,.5-1.78C64.28,131.37,66.59,119.86,59,117Z" transform="translate(0 -1.06)"/><path class="cls-9" d="M54.75,103.79a5.6,5.6,0,0,1-.2.86,5.75,5.75,0,0,1-.74,1.61c-0.91,4.26-3.9,7.9-7.12,7.9s-6.36-3.64-7.27-7.9a5.63,5.63,0,0,1-.75-1.61,3.31,3.31,0,0,1-.1-2.42l0.06-.07c0.38-.34.4-0.37,0.4-0.37A21.35,21.35,0,0,1,38.65,98c3.25,1,6.34,2.12,9.08,3.22C49.93,102.13,52.3,103,54.75,103.79Z" transform="translate(0 -1.06)"/><path class="cls-10" d="M43.42,54.08a6.36,6.36,0,0,1-1.87-1.37,6,6,0,0,1-.88-1,7.4,7.4,0,0,1-1.27-4.15A7.29,7.29,0,0,1,41,43a7.61,7.61,0,0,1,2.79-2.19,7.3,7.3,0,0,1,3-.64,7.52,7.52,0,0,1,4.18,1.28,8.48,8.48,0,0,1,1.94,1.94A7.35,7.35,0,0,1,54.13,47a7.49,7.49,0,0,1-1.25,4.69A8.57,8.57,0,0,1,51,53.54a9.11,9.11,0,0,1-1.12.64l-0.28.13H43.9ZM46.75,44a1.62,1.62,0,0,0-.85.26A1.56,1.56,0,0,0,46.29,47a1.47,1.47,0,0,0,.47.08,1.55,1.55,0,0,0,0-3.1l0-.5V44Z" transform="translate(0 -1.06)"/><path class="cls-9" d="M46.75,40.64a7,7,0,0,1,3.9,1.2,7.94,7.94,0,0,1,1.8,1.8A6.89,6.89,0,0,1,53.63,47a7,7,0,0,1-1.17,4.37,8.19,8.19,0,0,1-1.7,1.73,8.64,8.64,0,0,1-1.06.61l-0.18.09H44l-0.38-.19a5.85,5.85,0,0,1-1.73-1.28,5.52,5.52,0,0,1-.82-1,6.93,6.93,0,0,1,.27-8.12,7.12,7.12,0,0,1,2.61-2,6.84,6.84,0,0,1,2.79-.6m0,7a2.05,2.05,0,0,0,0-4.1H46.76a2.13,2.13,0,0,0-1.14.34,2.06,2.06,0,0,0,.51,3.66,2,2,0,0,0,.63.1m0-8a7.8,7.8,0,0,0-3.2.69,8.11,8.11,0,0,0-3,2.33,7.79,7.79,0,0,0-1.67,4.87,7.89,7.89,0,0,0,1.35,4.42,6.53,6.53,0,0,0,.95,1.11,6.87,6.87,0,0,0,2,1.46l0.38,0.19,0.21,0.11h6l0.2-.09,0.18-.09A9.62,9.62,0,0,0,51.32,54a9.05,9.05,0,0,0,2-2,7.93,7.93,0,0,0,0-8.87A8.94,8.94,0,0,0,51.21,41a8,8,0,0,0-4.46-1.36h0Zm0,7a1,1,0,0,1-.31-0.05,1.06,1.06,0,0,1-.72-0.87,1,1,0,0,1,.46-1,1.14,1.14,0,0,1,.57-0.17,1,1,0,0,1,.93.54,1.05,1.05,0,0,1-.92,1.57h0Z" transform="translate(0 -1.06)"/><path class="cls-10" d="M46.72,69.56c-0.45,0-.63-0.18-1.82-1.37a8.09,8.09,0,0,1-1.27-1.37c-0.06-.13-0.11-0.23-0.11-6.46V53.73H50v2.59l0.75,0.77c0.94,1,1,1,1.05,1.35a1.61,1.61,0,0,1,0,.44c0,0.3-.13.39-1,1.24l-0.47.48,0.47,0.48c0.84,0.86.93,0.95,1,1.26a1.61,1.61,0,0,1,0,.44c0,0.3-.11.37-1,1.33L50,64.86v0.74a2.38,2.38,0,0,1-.18,1.35c-0.13.18-1.27,1.3-1.29,1.32L47.3,69.49l-0.37,0Z" transform="translate(0 -1.06)"/><path class="cls-9" d="M49.52,54.23v2.29l0.89,0.91a2.83,2.83,0,0,1,.92,1.06,1.15,1.15,0,0,1,0,.29,2.48,2.48,0,0,1-.83,1l-0.81.83,0.81,0.83a2.48,2.48,0,0,1,.83,1,1.15,1.15,0,0,1,0,.29,2.84,2.84,0,0,1-.91,1.06l-0.89.91v0.94a2.64,2.64,0,0,1-.09,1.06c0,0.07-.6.63-1.23,1.24L47.07,69l-0.2,0H46.72c-0.24,0-.41-0.17-1.47-1.23a16.65,16.65,0,0,1-1.18-1.24c0-.07-0.05-2.78-0.05-6.24V54.23h5.51m1-1H43v7.12c0,6.34,0,6.41.15,6.65a6.81,6.81,0,0,0,1.38,1.53c1.23,1.23,1.52,1.52,2.18,1.52L47,70l0.19,0,0.34,0,0.24-.24,1.14-1.12c0.28-.27,1.19-1.17,1.34-1.37a2.75,2.75,0,0,0,.28-1.64V65.06l0.61-.62c1-1,1.13-1.15,1.19-1.63a2.08,2.08,0,0,0,0-.58c-0.06-.45-0.22-0.61-1.1-1.52l-0.13-.13,0.13-.13c0.88-.9,1-1.07,1.1-1.54a2.08,2.08,0,0,0,0-.58c-0.06-.45-0.19-0.58-1.19-1.61l-0.61-.62V53.23h0Z" transform="translate(0 -1.06)"/><path class="cls-1" d="M54.75,103.79c-2.45-.8-4.82-1.66-7-2.55C45,100.14,41.9,99,38.65,98a6.18,6.18,0,0,1,.23-1.77c1-3,4.48-4.59,5.15-4.84a3.47,3.47,0,0,1,1.91-.27c0.05,0,.73.13,0.73,0.14,1.12,0.22,6.73,2.12,7.67,5,0.6,1.78-.14,5.54-0.14,5.54s0,0,.39.37l0.06,0.07A2,2,0,0,1,54.75,103.79Z" transform="translate(0 -1.06)"/><rect class="cls-11" x="233.58" y="34.02" width="122.08" height="120.58"/><g class="cls-12"><path class="cls-11" d="M246.83,8.81a5,5,0,0,1,.3-1.81,3.78,3.78,0,0,1,.79-1.28A3.24,3.24,0,0,1,249.07,5a3.56,3.56,0,0,1,1.32-.25,3,3,0,0,1,2.42,1,4.52,4.52,0,0,1,.84,3V8.91a2,2,0,0,1,0,.26h-5.34A2.85,2.85,0,0,0,249,11a2.58,2.58,0,0,0,1.92.63,5.06,5.06,0,0,0,1.24-.13,4.37,4.37,0,0,0,.76-0.25l0.2,1.17a4.14,4.14,0,0,1-.89.29,6.36,6.36,0,0,1-1.45.15,4.61,4.61,0,0,1-1.76-.31,3.29,3.29,0,0,1-1.22-.85,3.46,3.46,0,0,1-.71-1.28A5.42,5.42,0,0,1,246.83,8.81ZM252.19,8a2.34,2.34,0,0,0-.47-1.55,1.63,1.63,0,0,0-1.34-.61,1.84,1.84,0,0,0-.85.19,2,2,0,0,0-.62.49,2.24,2.24,0,0,0-.4.69,3.37,3.37,0,0,0-.19.79h3.87Z" transform="translate(0 -1.06)"/><path class="cls-11" d="M255.65,5.12C256,5,256.4,5,256.93,4.87a11.06,11.06,0,0,1,1.83-.13A4,4,0,0,1,260.3,5a2.41,2.41,0,0,1,1,.74,2.83,2.83,0,0,1,.52,1.13A6.54,6.54,0,0,1,262,8.32V12.7h-1.39V8.62a6.7,6.7,0,0,0-.1-1.23,2.08,2.08,0,0,0-.32-0.83,1.27,1.27,0,0,0-.6-0.46A2.62,2.62,0,0,0,258.61,6h-0.46l-0.46,0-0.39.05-0.25,0V12.7h-1.39V5.12Z" transform="translate(0 -1.06)"/><path class="cls-11" d="M267.65,12.88a4.24,4.24,0,0,1-1.66-.3,3.32,3.32,0,0,1-1.2-.84,3.48,3.48,0,0,1-.73-1.28,5.32,5.32,0,0,1-.24-1.64,5,5,0,0,1,.26-1.65,3.9,3.9,0,0,1,.74-1.3A3.33,3.33,0,0,1,266,5a3.81,3.81,0,0,1,1.55-.31,6.15,6.15,0,0,1,1,.09,4.8,4.8,0,0,1,1,.28L269.3,6.26A3.36,3.36,0,0,0,268.58,6a4.14,4.14,0,0,0-.88-0.09,2.22,2.22,0,0,0-1.79.74,3.24,3.24,0,0,0-.62,2.14,4.42,4.42,0,0,0,.14,1.16,2.38,2.38,0,0,0,.45.9,2,2,0,0,0,.79.58,3,3,0,0,0,1.17.2,4.48,4.48,0,0,0,1-.1,3.71,3.71,0,0,0,.71-0.23l0.19,1.17a1.42,1.42,0,0,1-.34.14l-0.51.12-0.61.09A5.33,5.33,0,0,1,267.65,12.88Z" transform="translate(0 -1.06)"/><path class="cls-11" d="M274.12,4.73l0.41,0L275,4.82l0.41,0.07L275.68,5l-0.24,1.22A4.64,4.64,0,0,0,274.89,6a4.82,4.82,0,0,0-1-.08,3.67,3.67,0,0,0-.77.08l-0.5.11V12.7h-1.39V5.23a9.52,9.52,0,0,1,1.23-.34A7.94,7.94,0,0,1,274.12,4.73Z" transform="translate(0 -1.06)"/><path class="cls-11" d="M276.43,14.15a2.62,2.62,0,0,0,.43.14,2.07,2.07,0,0,0,.52.07,2,2,0,0,0,1.29-.37,3.16,3.16,0,0,0,.84-1.19Q278.56,11,277.74,9a33.08,33.08,0,0,1-1.36-4.09h1.5q0.16,0.68.4,1.46T278.8,8q0.28,0.83.61,1.65t0.69,1.59q0.57-1.57,1-3.12t0.79-3.18h1.44q-0.54,2.2-1.2,4.24t-1.43,3.8a8,8,0,0,1-.62,1.16,3.48,3.48,0,0,1-.71.8,2.6,2.6,0,0,1-.88.46,3.73,3.73,0,0,1-1.1.15l-0.34,0-0.35-.06-0.32-.08-0.2-.08Z" transform="translate(0 -1.06)"/><path class="cls-11" d="M291.67,8.81a5.52,5.52,0,0,1-.23,1.63,3.7,3.7,0,0,1-.68,1.29,3.09,3.09,0,0,1-1.1.84,3.54,3.54,0,0,1-1.49.3A3.63,3.63,0,0,1,287,12.7a3.76,3.76,0,0,1-.77-0.34v3.12H284.8V5.14Q285.29,5,286,4.88a9.22,9.22,0,0,1,1.72-.14,4.39,4.39,0,0,1,1.62.29,3.48,3.48,0,0,1,1.23.81,3.6,3.6,0,0,1,.79,1.28A4.93,4.93,0,0,1,291.67,8.81Zm-1.46,0a3,3,0,0,0-.67-2.1,2.33,2.33,0,0,0-1.8-.74,8.18,8.18,0,0,0-1,0,4,4,0,0,0-.56.11V11a2.88,2.88,0,0,0,.74.4,2.75,2.75,0,0,0,1,.2,2.24,2.24,0,0,0,1-.22,1.89,1.89,0,0,0,.7-0.6,2.54,2.54,0,0,0,.39-0.9A4.93,4.93,0,0,0,290.21,8.81Z" transform="translate(0 -1.06)"/><path class="cls-11" d="M293.2,8.81A5,5,0,0,1,293.5,7a3.76,3.76,0,0,1,.79-1.28A3.25,3.25,0,0,1,295.43,5a3.56,3.56,0,0,1,1.32-.25,3,3,0,0,1,2.42,1,4.52,4.52,0,0,1,.84,3V8.91a2,2,0,0,1,0,.26h-5.34a2.86,2.86,0,0,0,.71,1.84,2.58,2.58,0,0,0,1.92.63,5.06,5.06,0,0,0,1.24-.13,4.37,4.37,0,0,0,.76-0.25l0.2,1.17a4.14,4.14,0,0,1-.89.29,6.36,6.36,0,0,1-1.45.15,4.61,4.61,0,0,1-1.76-.31,3.3,3.3,0,0,1-1.22-.85,3.47,3.47,0,0,1-.71-1.28A5.45,5.45,0,0,1,293.2,8.81ZM298.55,8a2.34,2.34,0,0,0-.47-1.55,1.63,1.63,0,0,0-1.34-.61,1.84,1.84,0,0,0-.85.19,2,2,0,0,0-.62.49,2.24,2.24,0,0,0-.4.69,3.42,3.42,0,0,0-.19.79h3.87Z" transform="translate(0 -1.06)"/><path class="cls-11" d="M307.06,1.3l1.39-.24V12.47q-0.48.13-1.23,0.27a9.83,9.83,0,0,1-1.73.14,4.39,4.39,0,0,1-1.62-.29,3.47,3.47,0,0,1-1.23-.81,3.57,3.57,0,0,1-.79-1.28,4.91,4.91,0,0,1-.28-1.7,5.58,5.58,0,0,1,.23-1.65,3.71,3.71,0,0,1,.68-1.29A3.11,3.11,0,0,1,303.6,5a3.54,3.54,0,0,1,1.49-.3,3.63,3.63,0,0,1,1.19.18,3.81,3.81,0,0,1,.77.34V1.3Zm0,5.25a2.85,2.85,0,0,0-.74-0.41,2.77,2.77,0,0,0-1-.2,2.25,2.25,0,0,0-1,.22,1.89,1.89,0,0,0-.7.6,2.52,2.52,0,0,0-.39.91A5,5,0,0,0,303,8.8a3,3,0,0,0,.67,2.11,2.32,2.32,0,0,0,1.8.74,7.16,7.16,0,0,0,1-.05,4.41,4.41,0,0,0,.59-0.11V6.55Z" transform="translate(0 -1.06)"/><path class="cls-11" d="M320.69,12.7q-0.42-1.08-.89-2.47t-0.86-2.89q-0.39,1.5-.86,2.89T317.2,12.7H316q-0.69-1.54-1.35-3.52T313.39,4.9h1.5q0.15,0.7.36,1.53t0.44,1.65q0.23,0.83.49,1.59T316.66,11q0.25-.71.5-1.49t0.47-1.59q0.23-.8.43-1.58t0.35-1.45h1.16q0.13,0.68.33,1.45t0.42,1.58q0.22,0.8.47,1.59t0.5,1.49q0.23-.57.47-1.33t0.49-1.59q0.24-.82.45-1.65t0.36-1.53h1.44q-0.58,2.3-1.25,4.28t-1.35,3.52h-1.21Z" transform="translate(0 -1.06)"/><path class="cls-11" d="M326.66,3.49A0.89,0.89,0,0,1,326,3.24a0.87,0.87,0,0,1-.26-0.67A0.87,0.87,0,0,1,326,1.91a0.94,0.94,0,0,1,1.27,0,0.87,0.87,0,0,1,.26.67,0.88,0.88,0,0,1-.26.67A0.89,0.89,0,0,1,326.66,3.49Zm0.71,9.21H326V4.9h1.39v7.8Z" transform="translate(0 -1.06)"/><path class="cls-11" d="M331.07,4.9h3V6.07h-3v3.6a4.35,4.35,0,0,0,.09,1,1.47,1.47,0,0,0,.27.6,1,1,0,0,0,.45.31,2,2,0,0,0,.63.09,3,3,0,0,0,1-.14l0.53-.2,0.27,1.16a5.18,5.18,0,0,1-.73.26,4.2,4.2,0,0,1-1.2.16,3.64,3.64,0,0,1-1.31-.2,1.92,1.92,0,0,1-.83-0.61,2.44,2.44,0,0,1-.44-1,6.58,6.58,0,0,1-.13-1.37v-7l1.39-.24V4.9Z" transform="translate(0 -1.06)"/><path class="cls-11" d="M335.8,12.7V1.3l1.39-.24V5A4.65,4.65,0,0,1,338,4.82a4.72,4.72,0,0,1,.88-0.08,4,4,0,0,1,1.54.26,2.41,2.41,0,0,1,1,.74,2.83,2.83,0,0,1,.52,1.13,6.54,6.54,0,0,1,.15,1.46V12.7h-1.4V8.62a6.7,6.7,0,0,0-.1-1.23,2.08,2.08,0,0,0-.32-0.83,1.27,1.27,0,0,0-.6-0.46A2.62,2.62,0,0,0,338.75,6l-0.46,0-0.46.07-0.39.08-0.25.08V12.7H335.8Z" transform="translate(0 -1.06)"/><path class="cls-11" d="M247.4,30.88a4.24,4.24,0,0,1-1.66-.3,3.33,3.33,0,0,1-1.2-.84,3.49,3.49,0,0,1-.73-1.28,5.32,5.32,0,0,1-.24-1.64,5,5,0,0,1,.26-1.65,3.88,3.88,0,0,1,.74-1.3,3.33,3.33,0,0,1,1.18-.86,3.81,3.81,0,0,1,1.55-.31,6.15,6.15,0,0,1,1,.09,4.81,4.81,0,0,1,1,.28L249,24.26a3.28,3.28,0,0,0-.73-0.24,4.08,4.08,0,0,0-.88-0.09,2.22,2.22,0,0,0-1.79.73,3.24,3.24,0,0,0-.62,2.15,4.41,4.41,0,0,0,.14,1.15,2.38,2.38,0,0,0,.45.9,2,2,0,0,0,.79.58,3,3,0,0,0,1.17.2,4.41,4.41,0,0,0,1-.11,3.61,3.61,0,0,0,.71-0.22l0.2,1.17a1.47,1.47,0,0,1-.35.14l-0.51.12-0.61.09A5.52,5.52,0,0,1,247.4,30.88Z" transform="translate(0 -1.06)"/><path class="cls-11" d="M251,30.7V19.3l1.39-.24v4a4.65,4.65,0,0,1,.83-0.23,4.72,4.72,0,0,1,.88-0.08,4,4,0,0,1,1.54.26,2.42,2.42,0,0,1,1,.73,2.84,2.84,0,0,1,.52,1.13,6.54,6.54,0,0,1,.15,1.46V30.7h-1.39V26.62a6.7,6.7,0,0,0-.1-1.23,2.08,2.08,0,0,0-.32-0.83,1.28,1.28,0,0,0-.6-0.46,2.64,2.64,0,0,0-.93-0.14l-0.46,0-0.46.07-0.39.08-0.25.07V30.7H251Z" transform="translate(0 -1.06)"/><path class="cls-11" d="M260.23,21.49a0.89,0.89,0,0,1-.64-0.25,1,1,0,0,1,0-1.33,0.94,0.94,0,0,1,1.27,0,1,1,0,0,1,0,1.33A0.89,0.89,0,0,1,260.23,21.49Zm0.71,9.21h-1.39V22.9h1.39v7.8Z" transform="translate(0 -1.06)"/><path class="cls-11" d="M265.68,30.85a2.68,2.68,0,0,1-1.83-.56,2.19,2.19,0,0,1-.54-1.63V19.3l1.4-.24v9.38a2.26,2.26,0,0,0,.06.57,0.78,0.78,0,0,0,.2.36,0.84,0.84,0,0,0,.36.2,3.75,3.75,0,0,0,.56.11Z" transform="translate(0 -1.06)"/><path class="cls-11" d="M272.48,19.3l1.39-.24V30.47q-0.48.13-1.23,0.27a9.84,9.84,0,0,1-1.73.13,4.37,4.37,0,0,1-1.62-.29,3.46,3.46,0,0,1-1.23-.81,3.57,3.57,0,0,1-.79-1.28,4.91,4.91,0,0,1-.28-1.7,5.57,5.57,0,0,1,.23-1.65,3.7,3.7,0,0,1,.68-1.29A3.11,3.11,0,0,1,269,23a3.54,3.54,0,0,1,1.49-.3,3.63,3.63,0,0,1,1.19.18,3.81,3.81,0,0,1,.77.34V19.3Zm0,5.25a2.88,2.88,0,0,0-.74-0.4,2.77,2.77,0,0,0-1-.2,2.24,2.24,0,0,0-1,.22,1.88,1.88,0,0,0-.7.6,2.53,2.53,0,0,0-.39.91,5,5,0,0,0-.12,1.13,3,3,0,0,0,.67,2.11,2.32,2.32,0,0,0,1.8.74,7.16,7.16,0,0,0,1-.05,4.57,4.57,0,0,0,.59-0.11V24.55Z" transform="translate(0 -1.06)"/><path class="cls-11" d="M286.6,26.81a5.52,5.52,0,0,1-.23,1.63,3.71,3.71,0,0,1-.68,1.29,3.1,3.1,0,0,1-1.1.84,3.54,3.54,0,0,1-1.49.3,3.63,3.63,0,0,1-1.19-.18,3.76,3.76,0,0,1-.77-0.34v3.12h-1.39V23.14q0.5-.12,1.24-0.26a9.22,9.22,0,0,1,1.72-.14,4.39,4.39,0,0,1,1.62.29,3.48,3.48,0,0,1,1.23.81,3.6,3.6,0,0,1,.79,1.28A4.94,4.94,0,0,1,286.6,26.81Zm-1.46,0a3,3,0,0,0-.67-2.1,2.33,2.33,0,0,0-1.8-.73,8.18,8.18,0,0,0-1,0,4.18,4.18,0,0,0-.56.1V29a2.85,2.85,0,0,0,.74.41,2.77,2.77,0,0,0,1,.2,2.24,2.24,0,0,0,1-.22,1.89,1.89,0,0,0,.7-0.6,2.55,2.55,0,0,0,.39-0.9A4.94,4.94,0,0,0,285.15,26.81Z" transform="translate(0 -1.06)"/><path class="cls-11" d="M294.78,30.47q-0.48.12-1.27,0.25a10.92,10.92,0,0,1-1.82.13,3.87,3.87,0,0,1-1.52-.26,2.43,2.43,0,0,1-1-.74,3,3,0,0,1-.54-1.13,5.88,5.88,0,0,1-.17-1.45V22.9h1.39V27a3.54,3.54,0,0,0,.45,2,1.75,1.75,0,0,0,1.51.61h0.46l0.45,0,0.38,0,0.25-.05V22.9h1.4v7.58Z" transform="translate(0 -1.06)"/><path class="cls-11" d="M298.57,23.24a3.81,3.81,0,0,1,.77-0.34,3.63,3.63,0,0,1,1.19-.18A3.54,3.54,0,0,1,302,23a3.1,3.1,0,0,1,1.1.84,3.7,3.7,0,0,1,.68,1.29,5.57,5.57,0,0,1,.23,1.65,4.93,4.93,0,0,1-.28,1.7,3.59,3.59,0,0,1-.79,1.28,3.46,3.46,0,0,1-1.23.81,4.37,4.37,0,0,1-1.62.29,9.84,9.84,0,0,1-1.73-.13q-0.75-.13-1.23-0.27V19.3l1.39-.24v4.18Zm0,6.24a4.57,4.57,0,0,0,.59.11,7.16,7.16,0,0,0,1,.05,2.32,2.32,0,0,0,1.8-.74,3,3,0,0,0,.67-2.11,5,5,0,0,0-.12-1.12,2.54,2.54,0,0,0-.39-0.91,1.89,1.89,0,0,0-.7-0.6,2.24,2.24,0,0,0-1-.22,2.77,2.77,0,0,0-1,.2,2.88,2.88,0,0,0-.74.4v4.94Z" transform="translate(0 -1.06)"/><path class="cls-11" d="M308.35,30.85a2.68,2.68,0,0,1-1.83-.56,2.19,2.19,0,0,1-.54-1.63V19.3l1.4-.24v9.38a2.26,2.26,0,0,0,.06.57,0.78,0.78,0,0,0,.2.36,0.84,0.84,0,0,0,.36.2,3.75,3.75,0,0,0,.56.11Z" transform="translate(0 -1.06)"/><path class="cls-11" d="M310.8,21.49a0.89,0.89,0,0,1-.64-0.25,1,1,0,0,1,0-1.33,0.94,0.94,0,0,1,1.27,0,1,1,0,0,1,0,1.33A0.89,0.89,0,0,1,310.8,21.49Zm0.71,9.21h-1.39V22.9h1.39v7.8Z" transform="translate(0 -1.06)"/><path class="cls-11" d="M317.29,30.88a4.24,4.24,0,0,1-1.66-.3,3.33,3.33,0,0,1-1.2-.84,3.49,3.49,0,0,1-.73-1.28,5.32,5.32,0,0,1-.24-1.64,5,5,0,0,1,.26-1.65,3.89,3.89,0,0,1,.74-1.3,3.33,3.33,0,0,1,1.18-.86,3.81,3.81,0,0,1,1.55-.31,6.15,6.15,0,0,1,1,.09,4.8,4.8,0,0,1,1,.28l-0.31,1.19a3.31,3.31,0,0,0-.73-0.24,4.08,4.08,0,0,0-.88-0.09,2.22,2.22,0,0,0-1.79.73,3.24,3.24,0,0,0-.62,2.15,4.41,4.41,0,0,0,.14,1.15,2.38,2.38,0,0,0,.45.9,2,2,0,0,0,.79.58,3,3,0,0,0,1.17.2,4.42,4.42,0,0,0,1-.11,3.65,3.65,0,0,0,.71-0.22l0.19,1.17a1.46,1.46,0,0,1-.34.14l-0.51.12-0.61.09A5.54,5.54,0,0,1,317.29,30.88Z" transform="translate(0 -1.06)"/><path class="cls-11" d="M327.16,26.41a9.32,9.32,0,0,1,1,.86q0.5,0.51,1,1.1t0.92,1.2a13.47,13.47,0,0,1,.74,1.13h-1.63a12.56,12.56,0,0,0-.73-1.07q-0.41-.55-0.86-1a12.39,12.39,0,0,0-.91-0.92,8.29,8.29,0,0,0-.89-0.71V30.7h-1.39V19.3l1.39-.24v7.11l0.79-.79,0.86-.88,0.79-.86,0.64-.73h1.64l-0.75.83-0.84.91-0.88.92Z" transform="translate(0 -1.06)"/><path class="cls-11" d="M331.35,26.81a5,5,0,0,1,.3-1.81,3.76,3.76,0,0,1,.79-1.28,3.25,3.25,0,0,1,1.14-.77,3.56,3.56,0,0,1,1.32-.25,3,3,0,0,1,2.42,1,4.52,4.52,0,0,1,.84,3v0.23a2,2,0,0,1,0,.26H332.8a2.86,2.86,0,0,0,.71,1.85,2.58,2.58,0,0,0,1.92.63,5.11,5.11,0,0,0,1.24-.13,4.46,4.46,0,0,0,.76-0.25l0.2,1.17a4.19,4.19,0,0,1-.89.29,6.36,6.36,0,0,1-1.45.15,4.59,4.59,0,0,1-1.76-.31,3.29,3.29,0,0,1-1.22-.85,3.46,3.46,0,0,1-.71-1.28A5.44,5.44,0,0,1,331.35,26.81ZM336.7,26a2.34,2.34,0,0,0-.47-1.55,1.63,1.63,0,0,0-1.34-.61,1.84,1.84,0,0,0-.85.19,2,2,0,0,0-.62.49,2.24,2.24,0,0,0-.4.69,3.45,3.45,0,0,0-.19.79h3.87Z" transform="translate(0 -1.06)"/><path class="cls-11" d="M339.25,32.15a2.62,2.62,0,0,0,.43.14,2.07,2.07,0,0,0,.52.07,2,2,0,0,0,1.29-.37,3.16,3.16,0,0,0,.84-1.19Q341.39,29,340.57,27a33.06,33.06,0,0,1-1.36-4.09h1.5q0.16,0.68.4,1.46t0.52,1.6q0.28,0.83.61,1.65t0.69,1.59q0.57-1.57,1-3.12t0.79-3.18h1.44q-0.54,2.2-1.2,4.24t-1.43,3.8a8,8,0,0,1-.62,1.16,3.48,3.48,0,0,1-.71.8,2.6,2.6,0,0,1-.88.46,3.76,3.76,0,0,1-1.1.15l-0.34,0-0.35-.06-0.32-.08-0.2-.08Z" transform="translate(0 -1.06)"/></g><path class="cls-13" d="M341.39,101.24a46.77,46.77,0,1,1-93.54,0c0-13.67,30.63-6.89,47.72,0C313.2,108.35,341.39,113.57,341.39,101.24Z" transform="translate(0 -1.06)"/><path class="cls-14" d="M341.39,101.24c0,12.33-28.19,7.11-45.82,0-17.09-6.89-47.72-13.67-47.72,0A46.77,46.77,0,0,1,341.39,101.24Z" transform="translate(0 -1.06)"/><path class="cls-15" d="M268.39,83.75a4.51,4.51,0,0,1,.93-0.41,4.35,4.35,0,0,1,1.43-.22,4.24,4.24,0,0,1,1.79.36,3.72,3.72,0,0,1,1.32,1,4.45,4.45,0,0,1,.82,1.55,6.67,6.67,0,0,1,.28,2,5.91,5.91,0,0,1-.33,2,4.29,4.29,0,0,1-.95,1.54,4.16,4.16,0,0,1-1.48,1,5.25,5.25,0,0,1-1.94.34,11.8,11.8,0,0,1-2.07-.16q-0.9-.16-1.48-0.32V79l1.67-.29v5Zm0,7.49a5.29,5.29,0,0,0,.71.13,8.53,8.53,0,0,0,1.14.06,2.78,2.78,0,0,0,2.16-.89,3.63,3.63,0,0,0,.81-2.53,6,6,0,0,0-.14-1.35,3.05,3.05,0,0,0-.47-1.09,2.27,2.27,0,0,0-.84-0.72,2.69,2.69,0,0,0-1.23-.26,3.32,3.32,0,0,0-1.26.23,3.45,3.45,0,0,0-.88.49v5.92Z" transform="translate(0 -1.06)"/><path class="cls-15" d="M280.34,83.1a4.86,4.86,0,0,1,1.7.26,2.76,2.76,0,0,1,1.12.74,2.8,2.8,0,0,1,.6,1.13,5.47,5.47,0,0,1,.18,1.45v5.85l-0.6.1-0.87.12-1.05.1q-0.57,0-1.12,0a6.17,6.17,0,0,1-1.46-.16,3.26,3.26,0,0,1-1.15-.51,2.35,2.35,0,0,1-.76-0.93,3.24,3.24,0,0,1-.27-1.39,2.67,2.67,0,0,1,.31-1.33,2.51,2.51,0,0,1,.85-0.9,4,4,0,0,1,1.26-.5,6.87,6.87,0,0,1,1.51-.16l0.52,0,0.51,0.07L282,87.19l0.25,0.05V86.78a3.76,3.76,0,0,0-.09-0.82,1.88,1.88,0,0,0-.32-0.72,1.64,1.64,0,0,0-.64-0.5,2.51,2.51,0,0,0-1.05-.19,7.94,7.94,0,0,0-1.45.12,5.08,5.08,0,0,0-.93.24l-0.2-1.39a5.16,5.16,0,0,1,1.08-.28A9.34,9.34,0,0,1,280.34,83.1Zm0.14,8.39q0.59,0,1.05,0a4.57,4.57,0,0,0,.76-0.1V88.58a2.14,2.14,0,0,0-.58-0.15,6.5,6.5,0,0,0-1-.06,6.4,6.4,0,0,0-.8.05,2.47,2.47,0,0,0-.77.23,1.65,1.65,0,0,0-.58.47,1.23,1.23,0,0,0-.23.78,1.34,1.34,0,0,0,.58,1.25A3,3,0,0,0,280.48,91.49Z" transform="translate(0 -1.06)"/><path class="cls-15" d="M290.78,92.91a5.1,5.1,0,0,1-2-.36,4,4,0,0,1-1.44-1,4.18,4.18,0,0,1-.87-1.54,6.37,6.37,0,0,1-.29-2,6,6,0,0,1,.31-2,4.68,4.68,0,0,1,.89-1.56,4,4,0,0,1,1.41-1,4.57,4.57,0,0,1,1.86-.37,7.43,7.43,0,0,1,1.26.11,5.8,5.8,0,0,1,1.21.34L292.76,85a4,4,0,0,0-.87-0.29,4.92,4.92,0,0,0-1.05-.11,2.66,2.66,0,0,0-2.15.88,3.88,3.88,0,0,0-.75,2.57,5.27,5.27,0,0,0,.17,1.39,2.85,2.85,0,0,0,.54,1.08,2.41,2.41,0,0,0,.94.69,3.61,3.61,0,0,0,1.4.24,5.29,5.29,0,0,0,1.21-.13A4.37,4.37,0,0,0,293,91l0.23,1.4a1.75,1.75,0,0,1-.41.17,5.76,5.76,0,0,1-.61.14l-0.73.11A6.52,6.52,0,0,1,290.78,92.91Z" transform="translate(0 -1.06)"/><path class="cls-15" d="M298.46,87.55a11.25,11.25,0,0,1,1.14,1q0.6,0.61,1.19,1.32t1.11,1.44a16.1,16.1,0,0,1,.88,1.36h-2a15,15,0,0,0-.87-1.29q-0.5-.66-1-1.26a14.72,14.72,0,0,0-1.1-1.11,9.92,9.92,0,0,0-1.06-.85v4.5h-1.67V79l1.67-.29v8.53l1-1q0.52-.52,1-1.06l1-1,0.77-.87h2l-0.9,1q-0.49.54-1,1.09l-1.05,1.1Z" transform="translate(0 -1.06)"/><path class="cls-15" d="M311.93,92.43q-0.58.14-1.52,0.31a13.08,13.08,0,0,1-2.19.16,4.63,4.63,0,0,1-1.82-.32,2.93,2.93,0,0,1-1.19-.89,3.62,3.62,0,0,1-.65-1.36,7.09,7.09,0,0,1-.2-1.74V83.34H306v4.9a4.24,4.24,0,0,0,.54,2.45,2.1,2.1,0,0,0,1.82.74l0.56,0,0.54,0L310,91.3a1.33,1.33,0,0,0,.3-0.06v-7.9h1.67v9.09Z" transform="translate(0 -1.06)"/><path class="cls-15" d="M323.05,88a6.59,6.59,0,0,1-.28,2,4.44,4.44,0,0,1-.82,1.55,3.72,3.72,0,0,1-1.32,1,4.25,4.25,0,0,1-1.79.36,4.35,4.35,0,0,1-1.43-.22,4.51,4.51,0,0,1-.93-0.41V96h-1.67V83.63q0.59-.14,1.48-0.32a11.06,11.06,0,0,1,2.06-.17,5.25,5.25,0,0,1,1.94.34,4.16,4.16,0,0,1,1.48,1,4.3,4.3,0,0,1,.95,1.54A5.92,5.92,0,0,1,323.05,88Zm-1.75,0a3.59,3.59,0,0,0-.81-2.52,2.79,2.79,0,0,0-2.16-.88,9.84,9.84,0,0,0-1.18.05,4.71,4.71,0,0,0-.68.13v5.9a3.44,3.44,0,0,0,.88.49,3.31,3.31,0,0,0,1.26.23,2.69,2.69,0,0,0,1.23-.26,2.26,2.26,0,0,0,.84-0.72,3,3,0,0,0,.47-1.08A5.92,5.92,0,0,0,321.31,88Z" transform="translate(0 -1.06)"/><path class="cls-16" d="M291.26,54.08a6.36,6.36,0,0,1-1.87-1.37,6,6,0,0,1-.88-1,7.41,7.41,0,0,1-1.27-4.15A7.29,7.29,0,0,1,288.81,43a7.6,7.6,0,0,1,2.79-2.19,7.3,7.3,0,0,1,3-.64,7.53,7.53,0,0,1,4.18,1.28,8.49,8.49,0,0,1,1.94,1.94A7.36,7.36,0,0,1,302,47a7.49,7.49,0,0,1-1.25,4.69,8.61,8.61,0,0,1-1.83,1.86,9,9,0,0,1-1.12.64l-0.28.13h-5.74ZM294.6,44a1.62,1.62,0,0,0-.85.26,1.56,1.56,0,0,0,.39,2.77,1.47,1.47,0,0,0,.47.08,1.55,1.55,0,0,0,0-3.1l0-.5V44Z" transform="translate(0 -1.06)"/><path class="cls-9" d="M294.6,40.64a7,7,0,0,1,3.9,1.2,7.94,7.94,0,0,1,1.8,1.8A6.89,6.89,0,0,1,301.47,47a7,7,0,0,1-1.17,4.37,8.19,8.19,0,0,1-1.7,1.73,8.64,8.64,0,0,1-1.06.61l-0.18.09h-5.51l-0.38-.19a5.85,5.85,0,0,1-1.73-1.28,5.52,5.52,0,0,1-.82-1,6.93,6.93,0,0,1,.27-8.12,7.12,7.12,0,0,1,2.61-2,6.84,6.84,0,0,1,2.79-.6m0,7a2.05,2.05,0,0,0,0-4.1H294.6a2.13,2.13,0,0,0-1.14.34,2.06,2.06,0,0,0,.51,3.66,2,2,0,0,0,.63.1m0-8a7.8,7.8,0,0,0-3.2.69,8.11,8.11,0,0,0-3,2.33,7.79,7.79,0,0,0-1.67,4.87,7.89,7.89,0,0,0,1.35,4.42,6.53,6.53,0,0,0,.95,1.11,6.87,6.87,0,0,0,2,1.46l0.38,0.19,0.21,0.11h6l0.2-.09,0.18-.09a9.61,9.61,0,0,0,1.19-.68,9.05,9.05,0,0,0,2-2,7.93,7.93,0,0,0,0-8.87A8.94,8.94,0,0,0,299.05,41a8,8,0,0,0-4.46-1.36h0Zm0,7a1,1,0,0,1-.31-0.05,1.06,1.06,0,0,1-.72-0.87,1,1,0,0,1,.46-1,1.14,1.14,0,0,1,.57-0.17,1,1,0,0,1,.93.54,1.05,1.05,0,0,1-.92,1.57h0Z" transform="translate(0 -1.06)"/><path class="cls-16" d="M294.57,69.56c-0.45,0-.63-0.18-1.82-1.37a8.09,8.09,0,0,1-1.27-1.37c-0.06-.13-0.11-0.23-0.11-6.46V53.73h6.51v2.59l0.75,0.77c0.94,1,1,1,1.05,1.35a1.63,1.63,0,0,1,0,.43c0,0.3-.13.39-1,1.25l-0.47.48,0.47,0.48c0.84,0.86.92,0.95,1,1.26a1.63,1.63,0,0,1,0,.43c0,0.3-.12.38-1,1.33l-0.75.77v0.74a2.46,2.46,0,0,1-.18,1.35c-0.13.18-1.28,1.31-1.29,1.32l-1.26,1.24-0.37,0Z" transform="translate(0 -1.06)"/><path class="cls-9" d="M297.37,54.23v2.29l0.89,0.91a2.83,2.83,0,0,1,.92,1.06,1.15,1.15,0,0,1,0,.29,2.48,2.48,0,0,1-.83,1l-0.81.83,0.81,0.83a2.48,2.48,0,0,1,.83,1,1.15,1.15,0,0,1,0,.29,2.84,2.84,0,0,1-.91,1.06l-0.89.91v0.94a2.64,2.64,0,0,1-.09,1.06c0,0.07-.6.63-1.23,1.24L294.91,69l-0.2,0h-0.15c-0.24,0-.41-0.17-1.47-1.23a16.65,16.65,0,0,1-1.18-1.24c0-.07-0.05-2.78-0.05-6.24V54.23h5.51m1-1h-7.51v7.12c0,6.34,0,6.41.15,6.65a6.81,6.81,0,0,0,1.38,1.53c1.23,1.23,1.52,1.52,2.18,1.52l0.28,0L295,70l0.34,0,0.24-.24,1.14-1.12c0.28-.27,1.19-1.17,1.34-1.37a2.75,2.75,0,0,0,.28-1.64V65.06l0.61-.62c1-1,1.13-1.15,1.19-1.63a2.08,2.08,0,0,0,0-.58c-0.06-.45-0.22-0.61-1.1-1.52l-0.13-.13,0.13-.13c0.88-.9,1-1.07,1.1-1.54a2.08,2.08,0,0,0,0-.58c-0.06-.45-0.19-0.58-1.19-1.61l-0.61-.62V53.23h0Z" transform="translate(0 -1.06)"/><circle class="cls-17" cx="169.42" cy="332.26" r="46.77"/><path class="cls-18" d="M136.83,331.38a3.87,3.87,0,0,0-1-1.68,4.57,4.57,0,0,0-1.56-1.08,5.61,5.61,0,0,0-2-.36,13.84,13.84,0,0,0-2.29.12c-0.6.12-1.08,0.24-1.56,0.36V342h1.8v-4a3.52,3.52,0,0,0,1,.48,6.16,6.16,0,0,0,1.57.24,5,5,0,0,0,1.92-.36,3.3,3.3,0,0,0,1.44-1.09,7.33,7.33,0,0,0,.84-1.68,10.54,10.54,0,0,0,.25-2A5.86,5.86,0,0,0,136.83,331.38Zm-1.68,3.49a3.59,3.59,0,0,1-.48,1.2,2.6,2.6,0,0,1-.84.72,4.31,4.31,0,0,1-1.32.24,1.47,1.47,0,0,1-1.21-.36,3.52,3.52,0,0,1-1-.48v-6.25a4.24,4.24,0,0,1,.72-0.12h1.21a2.64,2.64,0,0,1,2.16,1,3.51,3.51,0,0,1,.84,2.65A5.84,5.84,0,0,1,135.15,334.87Z" transform="translate(0 -1.06)"/><path class="cls-18" d="M146.69,330.42a2.29,2.29,0,0,0-.6-1.2,4.31,4.31,0,0,0-1.2-.84,7.26,7.26,0,0,0-1.8-.24,8.26,8.26,0,0,0-1.81.24,2.58,2.58,0,0,0-1.2.24l0.48,1.68a5.44,5.44,0,0,1,1-.24,6.42,6.42,0,0,1,1.57-.12,2.87,2.87,0,0,1,1.08.24,1.1,1.1,0,0,1,.72.48,1.37,1.37,0,0,1,.36.72,2,2,0,0,1,.12.84v0.48h-0.24c-0.12,0-.36-0.12-0.48-0.12a1.08,1.08,0,0,0-.6-0.12h-0.6a7,7,0,0,0-1.57.12,2.53,2.53,0,0,0-1.32.49,2.46,2.46,0,0,0-1,1,2.56,2.56,0,0,0-.36,1.44,2.81,2.81,0,0,0,.24,1.44,3.23,3.23,0,0,0,.84,1,2.23,2.23,0,0,0,1.2.61,6.42,6.42,0,0,0,1.57.12h1.2c0.36,0,.72-0.12,1.08-0.12s0.72-.12,1-0.12a5.2,5.2,0,0,0,.6-0.12V332A6.08,6.08,0,0,0,146.69,330.42ZM145.13,337a1.78,1.78,0,0,1-.84.12h-1.08a2.37,2.37,0,0,1-1.69-.48,1.55,1.55,0,0,1-.6-1.32,1.73,1.73,0,0,1,.24-0.84,1.2,1.2,0,0,1,.6-0.48,1.74,1.74,0,0,1,.85-0.24h0.84c0.48,0,.84.12,1.08,0.12a0.9,0.9,0,0,1,.6.12v3Z" transform="translate(0 -1.06)"/><path class="cls-18" d="M156.19,335.71a2.22,2.22,0,0,1-1.08,2,5.05,5.05,0,0,1-2.89.73,8.62,8.62,0,0,1-2-.24,2.42,2.42,0,0,1-1-.37l0.36-1.56a4.06,4.06,0,0,0,1,.36,7.26,7.26,0,0,0,1.8.24,5.58,5.58,0,0,0,1.69-.24,1,1,0,0,0,.48-1,1.17,1.17,0,0,0-.48-1.08,7.12,7.12,0,0,0-1.69-.84c-0.36-.12-0.72-0.36-1.08-0.48a3.94,3.94,0,0,1-1-.61,2.15,2.15,0,0,1-.6-0.84,3.5,3.5,0,0,1-.24-1.08,3,3,0,0,1,1-2.16,8.4,8.4,0,0,1,2.53-.48h0.84c0.24,0,.6.12,0.84,0.12a5.2,5.2,0,0,1,.6.12,2.72,2.72,0,0,1,.48.12l-0.36,1.56a4.06,4.06,0,0,0-1-.36,5.38,5.38,0,0,0-1.44-.12,4.32,4.32,0,0,0-1.33.24,1.07,1.07,0,0,0-.6,1,1.08,1.08,0,0,0,.12.6c0.12,0.12.24,0.36,0.36,0.48a2.62,2.62,0,0,0,.6.36,7.83,7.83,0,0,0,1,.36c0.48,0.12.84,0.37,1.32,0.49a2.61,2.61,0,0,1,1,.6,2.15,2.15,0,0,1,.6.84A3.55,3.55,0,0,1,156.19,335.71Z" transform="translate(0 -1.06)"/><path class="cls-18" d="M164.73,335.71a2.22,2.22,0,0,1-1.08,2,5.09,5.09,0,0,1-2.89.73,8.62,8.62,0,0,1-2-.24,2.49,2.49,0,0,1-1-.37l0.37-1.56a4.06,4.06,0,0,0,1,.36,7.26,7.26,0,0,0,1.8.24,5.56,5.56,0,0,0,1.68-.24,1,1,0,0,0,.48-1,1.17,1.17,0,0,0-.48-1.08,7.22,7.22,0,0,0-1.68-.84c-0.36-.12-0.72-0.36-1.08-0.48a3.94,3.94,0,0,1-1-.61,2.15,2.15,0,0,1-.6-0.84,3.5,3.5,0,0,1-.24-1.08,3,3,0,0,1,1-2.16,9.32,9.32,0,0,1,2.52-.48h0.84c0.24,0,.6.12,0.85,0.12a5.2,5.2,0,0,1,.6.12,2.72,2.72,0,0,1,.48.12l-0.36,1.56a4,4,0,0,0-1-.36,5.38,5.38,0,0,0-1.44-.12,4.31,4.31,0,0,0-1.32.24,1.07,1.07,0,0,0-.6,1,1.08,1.08,0,0,0,.12.6c0.12,0.12.24,0.36,0.36,0.48a2.62,2.62,0,0,0,.6.36,8.27,8.27,0,0,0,1,.36c0.48,0.12.84,0.37,1.32,0.49a2.57,2.57,0,0,1,1,.6,2.15,2.15,0,0,1,.6.84A3.55,3.55,0,0,1,164.73,335.71Z" transform="translate(0 -1.06)"/><path class="cls-18" d="M180.12,328.38c-0.48,1.92-1.08,3.84-1.57,5.53s-1.2,3.24-1.68,4.57h-1.56c-0.36-1-.72-1.93-1.2-3.13s-0.73-2.4-1.09-3.73c-0.36,1.33-.72,2.53-1.08,3.73a31.88,31.88,0,0,1-1.08,3.13H169.3a33.8,33.8,0,0,1-1.69-4.57,52.24,52.24,0,0,1-1.56-5.53H168a13.56,13.56,0,0,0,.49,1.92,14.51,14.51,0,0,0,.6,2.16c0.24,0.73.36,1.45,0.6,2a14.57,14.57,0,0,1,.6,1.68,9,9,0,0,0,.6-1.92c0.24-.72.36-1.32,0.6-2s0.36-1.32.6-2,0.36-1.32.48-1.8H174a10,10,0,0,0,.48,1.8c0.12,0.6.36,1.32,0.48,2s0.36,1.33.6,2a17.09,17.09,0,0,1,.6,1.92c0.24-.48.36-1.08,0.6-1.68s0.36-1.32.6-2,0.36-1.44.6-2.16,0.36-1.32.48-1.92h1.69Z" transform="translate(0 -1.06)"/><path class="cls-18" d="M190.22,331.26a5.61,5.61,0,0,0-1-1.68,3.36,3.36,0,0,0-1.45-1.08,5.3,5.3,0,0,0-3.84,0,4.08,4.08,0,0,0-1.45,1.08,7.65,7.65,0,0,0-1,1.68,6.29,6.29,0,0,0-.36,2.17,5.81,5.81,0,0,0,.36,2.16,5.61,5.61,0,0,0,1,1.68,3.27,3.27,0,0,0,1.45,1.09,5.3,5.3,0,0,0,3.84,0,4.3,4.3,0,0,0,1.45-1.09,7.65,7.65,0,0,0,1-1.68A6.69,6.69,0,0,0,190.22,331.26Zm-2.29,4.93a2.56,2.56,0,0,1-2,1,2.6,2.6,0,0,1-2-1,5.22,5.22,0,0,1,0-5.29,2.6,2.6,0,0,1,2-1,2.56,2.56,0,0,1,2,1A5.22,5.22,0,0,1,187.93,336.19Z" transform="translate(0 -1.06)"/><path class="cls-18" d="M198.75,328.62l-0.36,1.56a4.72,4.72,0,0,1-.72-0.24,3.7,3.7,0,0,0-1.2-.12,2.34,2.34,0,0,0-1,.12,2.1,2.1,0,0,1-.6.12v8.42H193.1v-9.62a11.66,11.66,0,0,0,1.57-.48,11.67,11.67,0,0,1,2.16-.12h0.48a1.08,1.08,0,0,1,.6.12,2.72,2.72,0,0,1,.48.12C198.51,328.5,198.63,328.62,198.75,328.62Z" transform="translate(0 -1.06)"/><line class="cls-19" x1="131.58" y1="179.83" x2="106.34" y2="154.6"/><circle class="cls-1" cx="168.87" cy="215.45" r="26.93"/><line class="cls-19" x1="169.42" y1="177.98" x2="169.42" y2="154.6"/><path class="cls-20" d="M162.91,210a6.89,6.89,0,0,0-1.17-3.38,7.94,7.94,0,0,0-1.8-1.8,6.91,6.91,0,0,0-6.7-.6,7.12,7.12,0,0,0-2.61,2,6.93,6.93,0,0,0-.27,8.12,5.52,5.52,0,0,0,.82,1,5.85,5.85,0,0,0,1.73,1.28l0.38,0.19h5.51l0.18-.09a8.64,8.64,0,0,0,1.06-.61,8.19,8.19,0,0,0,1.7-1.73A7,7,0,0,0,162.91,210Zm-5.1-.38a2.06,2.06,0,1,1-2.91-2.77,2.12,2.12,0,0,1,1.19-.34A2.05,2.05,0,0,1,157.81,209.61Z" transform="translate(0 -1.06)"/><path class="cls-20" d="M160.62,225.35a1.15,1.15,0,0,1,0,.29,2.84,2.84,0,0,1-.91,1.06l-0.89.91v0.94a2.64,2.64,0,0,1-.09,1.06c0,0.07-.6.63-1.23,1.24L156.35,232l-0.2,0c-0.35,0-.36,0-1.62-1.21a16.65,16.65,0,0,1-1.18-1.24c0-.07-0.05-2.78-0.05-6.24V217.2h5.51v2.29l0.89,0.91a2.83,2.83,0,0,1,.92,1.06,1.15,1.15,0,0,1,0,.29,2.48,2.48,0,0,1-.83,1l-0.81.83,0.81,0.83A2.48,2.48,0,0,1,160.62,225.35Z" transform="translate(0 -1.06)"/><path class="cls-9" d="M173.18,224.11q-0.21-.42-0.51-0.93T172,222.13q-0.36-.54-0.74-1.07t-0.74-1q-0.36.47-.74,1T169,222.15q-0.35.54-.66,1.05t-0.51.91h-1.82a24,24,0,0,1,1.59-2.63q0.92-1.34,1.83-2.56l-3.27-4.69h2l2.36,3.46,2.38-3.46h1.88l-3.19,4.58q0.91,1.23,1.87,2.61a22.85,22.85,0,0,1,1.62,2.69h-1.94Z" transform="translate(0 -1.06)"/><path class="cls-9" d="M188.72,214.31a3.3,3.3,0,0,1-.28,1.32,6.39,6.39,0,0,1-.73,1.25,12.6,12.6,0,0,1-1,1.22l-1.14,1.17-0.75.76q-0.43.44-.81,0.91a7.76,7.76,0,0,0-.64.91,1.57,1.57,0,0,0-.26.76h6.06v1.5h-8a1.38,1.38,0,0,1,0-.23v-0.21a4.62,4.62,0,0,1,.29-1.66,6.8,6.8,0,0,1,.77-1.45,10.27,10.27,0,0,1,1.06-1.29l1.16-1.18q0.47-.46.9-0.9a9.57,9.57,0,0,0,.76-0.89,4.39,4.39,0,0,0,.53-0.92,2.57,2.57,0,0,0,.2-1,2.34,2.34,0,0,0-.18-1,1.87,1.87,0,0,0-1.2-1.05,3,3,0,0,0-.86-0.12,3.19,3.19,0,0,0-1,.15,4.91,4.91,0,0,0-.82.35,3.43,3.43,0,0,0-.61.42l-0.38.33-0.87-1.25a4.56,4.56,0,0,1,.51-0.47,4.93,4.93,0,0,1,.82-0.52,5.88,5.88,0,0,1,1.06-.42,4.54,4.54,0,0,1,1.27-.17,4.43,4.43,0,0,1,3.11,1A3.51,3.51,0,0,1,188.72,214.31Z" transform="translate(0 -1.06)"/><line class="cls-19" x1="169.42" y1="280.26" x2="169.42" y2="256.26"/><path class="cls-9" d="M136.83,331.38a3.87,3.87,0,0,0-1-1.68,4.57,4.57,0,0,0-1.56-1.08,5.61,5.61,0,0,0-2-.36,13.84,13.84,0,0,0-2.29.12c-0.6.12-1.08,0.24-1.56,0.36V342h1.8v-4a3.52,3.52,0,0,0,1,.48,6.16,6.16,0,0,0,1.57.24,5,5,0,0,0,1.92-.36,3.3,3.3,0,0,0,1.44-1.09,7.33,7.33,0,0,0,.84-1.68,10.54,10.54,0,0,0,.25-2A5.86,5.86,0,0,0,136.83,331.38Zm-1.68,3.49a3.59,3.59,0,0,1-.48,1.2,2.6,2.6,0,0,1-.84.72,4.31,4.31,0,0,1-1.32.24,1.47,1.47,0,0,1-1.21-.36,3.52,3.52,0,0,1-1-.48v-6.25a4.24,4.24,0,0,1,.72-0.12h1.21a2.64,2.64,0,0,1,2.16,1,3.51,3.51,0,0,1,.84,2.65A5.84,5.84,0,0,1,135.15,334.87Z" transform="translate(0 -1.06)"/><path class="cls-9" d="M146.69,330.42a2.29,2.29,0,0,0-.6-1.2,4.31,4.31,0,0,0-1.2-.84,7.26,7.26,0,0,0-1.8-.24,8.26,8.26,0,0,0-1.81.24,2.58,2.58,0,0,0-1.2.24l0.48,1.68a5.44,5.44,0,0,1,1-.24,6.42,6.42,0,0,1,1.57-.12,2.87,2.87,0,0,1,1.08.24,1.1,1.1,0,0,1,.72.48,1.37,1.37,0,0,1,.36.72,2,2,0,0,1,.12.84v0.48h-0.24c-0.12,0-.36-0.12-0.48-0.12a1.08,1.08,0,0,0-.6-0.12h-0.6a7,7,0,0,0-1.57.12,2.53,2.53,0,0,0-1.32.49,2.46,2.46,0,0,0-1,1,2.56,2.56,0,0,0-.36,1.44,2.81,2.81,0,0,0,.24,1.44,3.23,3.23,0,0,0,.84,1,2.23,2.23,0,0,0,1.2.61,6.42,6.42,0,0,0,1.57.12h1.2c0.36,0,.72-0.12,1.08-0.12s0.72-.12,1-0.12a5.2,5.2,0,0,0,.6-0.12V332A6.08,6.08,0,0,0,146.69,330.42ZM145.13,337a1.78,1.78,0,0,1-.84.12h-1.08a2.37,2.37,0,0,1-1.69-.48,1.55,1.55,0,0,1-.6-1.32,1.73,1.73,0,0,1,.24-0.84,1.2,1.2,0,0,1,.6-0.48,1.74,1.74,0,0,1,.85-0.24h0.84c0.48,0,.84.12,1.08,0.12a0.9,0.9,0,0,1,.6.12v3Z" transform="translate(0 -1.06)"/><path class="cls-9" d="M156.19,335.71a2.22,2.22,0,0,1-1.08,2,5.05,5.05,0,0,1-2.89.73,8.62,8.62,0,0,1-2-.24,2.42,2.42,0,0,1-1-.37l0.36-1.56a4.06,4.06,0,0,0,1,.36,7.26,7.26,0,0,0,1.8.24,5.58,5.58,0,0,0,1.69-.24,1,1,0,0,0,.48-1,1.17,1.17,0,0,0-.48-1.08,7.12,7.12,0,0,0-1.69-.84c-0.36-.12-0.72-0.36-1.08-0.48a3.94,3.94,0,0,1-1-.61,2.15,2.15,0,0,1-.6-0.84,3.5,3.5,0,0,1-.24-1.08,3,3,0,0,1,1-2.16,8.4,8.4,0,0,1,2.53-.48h0.84c0.24,0,.6.12,0.84,0.12a5.2,5.2,0,0,1,.6.12,2.72,2.72,0,0,1,.48.12l-0.36,1.56a4.06,4.06,0,0,0-1-.36,5.38,5.38,0,0,0-1.44-.12,4.32,4.32,0,0,0-1.33.24,1.07,1.07,0,0,0-.6,1,1.08,1.08,0,0,0,.12.6c0.12,0.12.24,0.36,0.36,0.48a2.62,2.62,0,0,0,.6.36,7.83,7.83,0,0,0,1,.36c0.48,0.12.84,0.37,1.32,0.49a2.61,2.61,0,0,1,1,.6,2.15,2.15,0,0,1,.6.84A3.55,3.55,0,0,1,156.19,335.71Z" transform="translate(0 -1.06)"/><path class="cls-9" d="M164.73,335.71a2.22,2.22,0,0,1-1.08,2,5.09,5.09,0,0,1-2.89.73,8.62,8.62,0,0,1-2-.24,2.49,2.49,0,0,1-1-.37l0.37-1.56a4.06,4.06,0,0,0,1,.36,7.26,7.26,0,0,0,1.8.24,5.56,5.56,0,0,0,1.68-.24,1,1,0,0,0,.48-1,1.17,1.17,0,0,0-.48-1.08,7.22,7.22,0,0,0-1.68-.84c-0.36-.12-0.72-0.36-1.08-0.48a3.94,3.94,0,0,1-1-.61,2.15,2.15,0,0,1-.6-0.84,3.5,3.5,0,0,1-.24-1.08,3,3,0,0,1,1-2.16,9.32,9.32,0,0,1,2.52-.48h0.84c0.24,0,.6.12,0.85,0.12a5.2,5.2,0,0,1,.6.12,2.72,2.72,0,0,1,.48.12l-0.36,1.56a4,4,0,0,0-1-.36,5.38,5.38,0,0,0-1.44-.12,4.31,4.31,0,0,0-1.32.24,1.07,1.07,0,0,0-.6,1,1.08,1.08,0,0,0,.12.6c0.12,0.12.24,0.36,0.36,0.48a2.62,2.62,0,0,0,.6.36,8.27,8.27,0,0,0,1,.36c0.48,0.12.84,0.37,1.32,0.49a2.57,2.57,0,0,1,1,.6,2.15,2.15,0,0,1,.6.84A3.55,3.55,0,0,1,164.73,335.71Z" transform="translate(0 -1.06)"/><path class="cls-9" d="M180.12,328.38c-0.48,1.92-1.08,3.84-1.57,5.53s-1.2,3.24-1.68,4.57h-1.56c-0.36-1-.72-1.93-1.2-3.13s-0.73-2.4-1.09-3.73c-0.36,1.33-.72,2.53-1.08,3.73a31.88,31.88,0,0,1-1.08,3.13H169.3a33.8,33.8,0,0,1-1.69-4.57,52.24,52.24,0,0,1-1.56-5.53H168a13.56,13.56,0,0,0,.49,1.92,14.51,14.51,0,0,0,.6,2.16c0.24,0.73.36,1.45,0.6,2a14.57,14.57,0,0,1,.6,1.68,9,9,0,0,0,.6-1.92c0.24-.72.36-1.32,0.6-2s0.36-1.32.6-2,0.36-1.32.48-1.8H174a10,10,0,0,0,.48,1.8c0.12,0.6.36,1.32,0.48,2s0.36,1.33.6,2a17.09,17.09,0,0,1,.6,1.92c0.24-.48.36-1.08,0.6-1.68s0.36-1.32.6-2,0.36-1.44.6-2.16,0.36-1.32.48-1.92h1.69Z" transform="translate(0 -1.06)"/><path class="cls-9" d="M190.22,331.26a5.61,5.61,0,0,0-1-1.68,3.36,3.36,0,0,0-1.45-1.08,5.3,5.3,0,0,0-3.84,0,4.08,4.08,0,0,0-1.45,1.08,7.65,7.65,0,0,0-1,1.68,6.29,6.29,0,0,0-.36,2.17,5.81,5.81,0,0,0,.36,2.16,5.61,5.61,0,0,0,1,1.68,3.27,3.27,0,0,0,1.45,1.09,5.3,5.3,0,0,0,3.84,0,4.3,4.3,0,0,0,1.45-1.09,7.65,7.65,0,0,0,1-1.68A6.69,6.69,0,0,0,190.22,331.26Zm-2.29,4.93a2.56,2.56,0,0,1-2,1,2.6,2.6,0,0,1-2-1,5.22,5.22,0,0,1,0-5.29,2.6,2.6,0,0,1,2-1,2.56,2.56,0,0,1,2,1A5.22,5.22,0,0,1,187.93,336.19Z" transform="translate(0 -1.06)"/><path class="cls-9" d="M198.75,328.62l-0.36,1.56a4.72,4.72,0,0,1-.72-0.24,3.7,3.7,0,0,0-1.2-.12,2.34,2.34,0,0,0-1,.12,2.1,2.1,0,0,1-.6.12v8.42H193.1v-9.62c0.48-.12.86-0.29,1.57-0.48a8.89,8.89,0,0,1,2.16-.12s0.82,0.06,1.08.12a3,3,0,0,0,.48.12C198.51,328.5,198.63,328.62,198.75,328.62Z" transform="translate(0 -1.06)"/><path class="cls-9" d="M206.92,323.81v5a3.58,3.58,0,0,0-1-.48,6.22,6.22,0,0,0-1.56-.24,5,5,0,0,0-1.93.36,3.22,3.22,0,0,0-1.44,1.08,5,5,0,0,0-.85,1.68,8,8,0,0,0-.23,2.17,5.82,5.82,0,0,0,.35,2.16,3.88,3.88,0,0,0,1,1.69,4.38,4.38,0,0,0,1.56,1.08,5.6,5.6,0,0,0,2,.36,11.61,11.61,0,0,0,2.16-.12,15.29,15.29,0,0,0,1.57-.36V323.57Zm-0.12,13a4,4,0,0,1-.71.13,3.76,3.76,0,0,1-1.21.12A2.4,2.4,0,0,1,202.6,336a3.46,3.46,0,0,1-.85-2.64,5.84,5.84,0,0,1,.12-1.44,3.56,3.56,0,0,1,.48-1.21,2.71,2.71,0,0,1,.86-0.72,4.2,4.2,0,0,1,1.32-.24,4.43,4.43,0,0,1,1.32.24,3.58,3.58,0,0,1,1,.48v6.37Z" transform="translate(0 -1.06)"/><line class="cls-21" x1="207.94" y1="179.67" x2="233.01" y2="154.6"/></svg>